<?xml version="1.0" encoding="utf-8"?>
<!-- Generator: Adobe Illustrator 27.5.0, SVG Export Plug-In . SVG Version: 6.00 Build 0)  -->
<svg version="1.1" xmlns="http://www.w3.org/2000/svg" xmlns:xlink="http://www.w3.org/1999/xlink" x="0px" y="0px"
	 viewBox="0 0 500 500" style="enable-background:new 0 0 500 500;" xml:space="preserve">
<g id="BACKGROUND">
	<rect id="XMLID_28_" y="0" style="fill:#FFFFFF;" width="500" height="500"/>
</g>
<g id="OBJECTS">
	<g id="XMLID_55_">
	</g>
	<g id="XMLID_122_">
	</g>
	<g>
		<path style="fill:#FFEBEE;" d="M211.728,139.081c-15.47,5.249-32.213,7.206-48.104,10.118
			c-20.441,3.745-40.733,9.36-59.076,19.128c-67.757,36.082-74.231,121.839-32.162,180.751
			c22.686,31.768,58.473,55.862,95.526,67.539c20.915,6.591,42.985,8.733,64.907,9.294c24.079,0.615,48.381-0.659,71.733-6.563
			c69.89-17.669,125.766-78.58,141.62-148.904c9.333-41.399,7.378-87.062-4.694-127.847c-8.969-30.3-26.237-59.112-52.595-76.54
			c-17.246-11.403-38.569-17.171-59.213-15.192c-23.578,2.26-39.565,15.823-56.554,31.046
			c-16.547,14.828-24.533,37.647-44.007,49.283C223.592,134.491,217.757,137.036,211.728,139.081z"/>
		<g>
			<g>
				
					<ellipse transform="matrix(0.6897 -0.7241 0.7241 0.6897 -2.0298 318.7882)" style="fill:#DB4471;" cx="370.911" cy="161.762" rx="48.988" ry="48.569"/>
			</g>
			<g>
				<defs>
					<ellipse id="SVGID_1_" cx="370.911" cy="161.762" rx="48.411" ry="48.828"/>
				</defs>
				<clipPath id="SVGID_00000059990056502257162520000002394073701013830318_">
					<use xlink:href="#SVGID_1_"  style="overflow:visible;"/>
				</clipPath>
				<g style="clip-path:url(#SVGID_00000059990056502257162520000002394073701013830318_);">
					<g>
						<g>
							<path style="fill:#0D0029;" d="M370.912,209.639c-0.578,0-1.046-0.468-1.046-1.046v-93.661c0-0.578,0.468-1.046,1.046-1.046
								c0.578,0,1.046,0.468,1.046,1.046v93.661C371.958,209.171,371.49,209.639,370.912,209.639z"/>
						</g>
					</g>
					<g>
						<g>
							<path style="fill:#0D0029;" d="M394.327,203.365c-0.362,0-0.713-0.187-0.907-0.523l-46.831-81.113
								c-0.289-0.5-0.117-1.14,0.383-1.429c0.497-0.289,1.139-0.118,1.429,0.383l46.831,81.113c0.289,0.501,0.117,1.14-0.383,1.429
								C394.685,203.32,394.505,203.365,394.327,203.365z"/>
						</g>
					</g>
					<g>
						<g>
							<path style="fill:#0D0029;" d="M411.467,186.224c-0.178,0-0.358-0.045-0.522-0.14l-81.113-46.831
								c-0.501-0.289-0.672-0.928-0.383-1.429c0.289-0.501,0.929-0.673,1.429-0.383l81.113,46.831
								c0.501,0.289,0.672,0.928,0.383,1.429C412.18,186.036,411.829,186.224,411.467,186.224z"/>
						</g>
					</g>
					<g>
						<g>
							<path style="fill:#0D0029;" d="M417.742,162.808H324.08c-0.578,0-1.046-0.468-1.046-1.046c0-0.578,0.468-1.046,1.046-1.046
								h93.662c0.578,0,1.046,0.468,1.046,1.046C418.788,162.34,418.32,162.808,417.742,162.808z"/>
						</g>
					</g>
					<g>
						<g>
							<path style="fill:#0D0029;" d="M330.356,186.224c-0.362,0-0.713-0.187-0.907-0.523c-0.289-0.501-0.118-1.14,0.383-1.429
								l81.113-46.831c0.499-0.29,1.139-0.118,1.429,0.383c0.289,0.501,0.118,1.14-0.383,1.429l-81.113,46.831
								C330.714,186.179,330.534,186.224,330.356,186.224z"/>
						</g>
					</g>
					<g>
						<g>
							<path style="fill:#0D0029;" d="M347.495,203.365c-0.178,0-0.358-0.045-0.522-0.14c-0.501-0.289-0.672-0.929-0.383-1.429
								l46.831-81.113c0.289-0.501,0.928-0.672,1.429-0.383c0.5,0.289,0.672,0.929,0.383,1.429l-46.831,81.113
								C348.208,203.177,347.856,203.365,347.495,203.365z"/>
						</g>
					</g>
				</g>
			</g>
			<g>
				
					<ellipse transform="matrix(0.6897 -0.7241 0.7241 0.6897 -2.038 318.7688)" style="fill:#FFFFFF;" cx="370.911" cy="161.762" rx="40.394" ry="40.049"/>
			</g>
			<g>
				
					<ellipse transform="matrix(0.6897 -0.7241 0.7241 0.6897 -2.0416 318.7601)" style="fill:#A094EB;" cx="370.911" cy="161.762" rx="32.788" ry="32.508"/>
			</g>
			<g>
				<path style="fill:#0D0029;" d="M399.518,167.904c-0.081,0-0.163-0.006-0.245-0.017l-32.3-4.481l24.772-32.847
					c0.587-0.781,1.698-0.938,2.48-0.348c0.781,0.589,0.936,1.699,0.347,2.479l-21.143,28.036l26.329,3.653
					c0.969,0.134,1.645,1.028,1.511,1.997C401.146,167.263,400.388,167.904,399.518,167.904z"/>
			</g>
			<g>
				
					<ellipse transform="matrix(0.6897 -0.7241 0.7241 0.6897 -2.0218 318.0935)" style="fill:#0D0029;" cx="370.116" cy="161.406" rx="6.174" ry="6.122"/>
			</g>
		</g>
		<g>
			<g>
				<g>
					<path style="fill:#FFFFFF;" d="M349.568,401.099H145.884c-4.367,0-7.908-3.54-7.908-7.908V100.999
						c0-4.367,3.54-7.908,7.908-7.908h203.684c4.367,0,7.908,3.54,7.908,7.908v292.192
						C357.476,397.558,353.935,401.099,349.568,401.099z"/>
				</g>
				<g style="opacity:0.75;">
					<defs>
						<path id="SVGID_00000110428904319530644870000016702472429506515842_" style="opacity:0.75;" d="M349.568,401.099H145.884
							c-4.367,0-7.908-3.54-7.908-7.908V100.999c0-4.367,3.54-7.908,7.908-7.908h203.684c4.367,0,7.908,3.54,7.908,7.908v292.192
							C357.476,397.558,353.935,401.099,349.568,401.099z"/>
					</defs>
					<clipPath id="SVGID_00000120531245549413462870000017298500801447738302_">
						<use xlink:href="#SVGID_00000110428904319530644870000016702472429506515842_"  style="overflow:visible;"/>
					</clipPath>
					<g style="opacity:0.49;clip-path:url(#SVGID_00000120531245549413462870000017298500801447738302_);">
						<path style="fill:#C3CBEB;" d="M402.8,426.871c-3.592-9.5-10.841-17.139-18.482-23.83
							c-26.929-23.583-61.172-38.693-96.744-42.688c-35.572-3.995-72.314,3.143-103.803,20.167
							c-23.131,12.505-43.136,29.968-62.927,47.281"/>
					</g>
					<g style="opacity:0.64;clip-path:url(#SVGID_00000120531245549413462870000017298500801447738302_);">
						<path style="fill:#C3CBEB;" d="M233.223,354.686c-9.29,0-16.848-7.558-16.848-16.848c0-9.29,7.558-16.849,16.848-16.849
							c9.29,0,16.848,7.559,16.848,16.849C250.071,347.129,242.513,354.686,233.223,354.686z M233.223,324.53
							c-7.338,0-13.307,5.97-13.307,13.308c0,7.337,5.97,13.307,13.307,13.307c7.338,0,13.307-5.97,13.307-13.307
							C246.53,330.5,240.56,324.53,233.223,324.53z"/>
					</g>
					<g style="opacity:0.64;clip-path:url(#SVGID_00000120531245549413462870000017298500801447738302_);">
						<path style="fill:#C3CBEB;" d="M137.205,148.346c-7.074,0-12.829-5.755-12.829-12.83c0-7.074,5.755-12.829,12.829-12.829
							c7.074,0,12.83,5.755,12.83,12.829C150.034,142.59,144.279,148.346,137.205,148.346z M137.205,126.228
							c-5.122,0-9.288,4.167-9.288,9.288c0,5.122,4.167,9.288,9.288,9.288c5.122,0,9.288-4.167,9.288-9.288
							C146.493,130.395,142.327,126.228,137.205,126.228z"/>
					</g>
					<g style="opacity:0.64;clip-path:url(#SVGID_00000120531245549413462870000017298500801447738302_);">
						<path style="fill:#C3CBEB;" d="M330.604,151.957c-9.29,0-16.849-7.558-16.849-16.848c0-9.29,7.559-16.849,16.849-16.849
							c9.29,0,16.848,7.558,16.848,16.849C347.452,144.399,339.894,151.957,330.604,151.957z M330.604,121.801
							c-7.338,0-13.308,5.97-13.308,13.307c0,7.338,5.97,13.307,13.308,13.307c7.337,0,13.307-5.97,13.307-13.307
							C343.911,127.771,337.941,121.801,330.604,121.801z"/>
					</g>
					<g style="opacity:0.64;clip-path:url(#SVGID_00000120531245549413462870000017298500801447738302_);">
						<path style="fill:#C3CBEB;" d="M354.471,296.188c-10.247,0-18.584-8.337-18.584-18.584c0-10.247,8.337-18.584,18.584-18.584
							s18.584,8.336,18.584,18.584C373.055,287.851,364.719,296.188,354.471,296.188z M354.471,262.561
							c-8.294,0-15.043,6.749-15.043,15.043s6.749,15.043,15.043,15.043s15.043-6.749,15.043-15.043
							S362.766,262.561,354.471,262.561z"/>
					</g>
					<g style="opacity:0.64;clip-path:url(#SVGID_00000120531245549413462870000017298500801447738302_);">
						<path style="fill:#C3CBEB;" d="M140.109,351.854c-10.247,0-18.584-8.337-18.584-18.584c0-10.247,8.337-18.584,18.584-18.584
							s18.584,8.337,18.584,18.584C158.693,343.517,150.356,351.854,140.109,351.854z M140.109,318.227
							c-8.295,0-15.043,6.749-15.043,15.043c0,8.294,6.748,15.043,15.043,15.043c8.295,0,15.043-6.749,15.043-15.043
							C155.152,324.976,148.404,318.227,140.109,318.227z"/>
					</g>
					<g style="opacity:0.64;clip-path:url(#SVGID_00000120531245549413462870000017298500801447738302_);">
						<path style="fill:#C3CBEB;" d="M331.44,304.113c-3.405,0-6.176-2.77-6.176-6.175s2.771-6.176,6.176-6.176
							c3.405,0,6.175,2.771,6.175,6.176S334.845,304.113,331.44,304.113z M331.44,295.302c-1.453,0-2.635,1.182-2.635,2.635
							c0,1.452,1.182,2.634,2.635,2.634c1.452,0,2.634-1.182,2.634-2.634C334.074,296.484,332.892,295.302,331.44,295.302z"/>
					</g>
					<g style="opacity:0.64;clip-path:url(#SVGID_00000120531245549413462870000017298500801447738302_);">
						<path style="fill:#C3CBEB;" d="M267.285,346.55c-4.122,0-7.476-3.354-7.476-7.476s3.353-7.476,7.476-7.476
							s7.476,3.353,7.476,7.476S271.407,346.55,267.285,346.55z M267.285,335.14c-2.169,0-3.935,1.765-3.935,3.934
							s1.765,3.935,3.935,3.935s3.935-1.765,3.935-3.935S269.454,335.14,267.285,335.14z"/>
					</g>
					<g style="opacity:0.64;clip-path:url(#SVGID_00000120531245549413462870000017298500801447738302_);">
						<path style="fill:#C3CBEB;" d="M322.172,190.741c-4.122,0-7.476-3.354-7.476-7.476c0-4.122,3.354-7.476,7.476-7.476
							s7.476,3.354,7.476,7.476C329.648,187.387,326.294,190.741,322.172,190.741z M322.172,179.331
							c-2.169,0-3.935,1.765-3.935,3.934c0,2.17,1.765,3.934,3.935,3.934c2.169,0,3.934-1.765,3.934-3.934
							C326.107,181.096,324.341,179.331,322.172,179.331z"/>
					</g>
					<g style="opacity:0.64;clip-path:url(#SVGID_00000120531245549413462870000017298500801447738302_);">
						<path style="fill:#C3CBEB;" d="M334.819,359.043c-7.718,0-13.996-6.278-13.996-13.996c0-7.718,6.278-13.996,13.996-13.996
							c7.718,0,13.996,6.278,13.996,13.996C348.815,352.764,342.537,359.043,334.819,359.043z M334.819,334.592
							c-5.765,0-10.455,4.69-10.455,10.455c0,5.765,4.69,10.455,10.455,10.455s10.455-4.69,10.455-10.455
							C345.274,339.282,340.584,334.592,334.819,334.592z"/>
					</g>
					<g style="opacity:0.64;clip-path:url(#SVGID_00000120531245549413462870000017298500801447738302_);">
						<path style="fill:#C3CBEB;" d="M173.168,323.644c-0.17,0-0.341-0.004-0.513-0.012c-2.796-0.137-5.371-1.353-7.252-3.426
							c-1.881-2.072-2.842-4.754-2.706-7.549c0.135-2.796,1.352-5.371,3.425-7.253c2.073-1.881,4.757-2.826,7.55-2.706
							c2.796,0.137,5.371,1.352,7.252,3.425c1.881,2.073,2.842,4.754,2.706,7.549C183.358,319.272,178.715,323.644,173.168,323.644z
							 M173.156,306.228c-1.726,0-3.367,0.632-4.654,1.8c-1.372,1.245-2.178,2.95-2.268,4.801c-0.09,1.851,0.546,3.627,1.792,4.999
							c1.245,1.373,2.95,2.178,4.801,2.268c3.83,0.199,7.08-2.773,7.266-6.593l0,0c0.09-1.851-0.546-3.626-1.791-4.999
							c-1.245-1.372-2.951-2.177-4.802-2.267C173.385,306.23,173.27,306.228,173.156,306.228z"/>
					</g>
					<g style="opacity:0.64;clip-path:url(#SVGID_00000120531245549413462870000017298500801447738302_);">
						<path style="fill:#C3CBEB;" d="M232.484,129.767c-0.171,0-0.342-0.004-0.515-0.012c-2.796-0.136-5.371-1.352-7.252-3.425
							c-1.881-2.073-2.842-4.754-2.706-7.55l3.537,0.172c-0.09,1.851,0.546,3.626,1.792,4.998c1.245,1.372,2.95,2.178,4.801,2.268
							c3.825,0.18,7.08-2.772,7.266-6.593l3.537,0.172C242.672,125.396,238.03,129.767,232.484,129.767z"/>
					</g>
				</g>
				<g>
					<path style="fill:#282480;" d="M350.187,402.869H145.265c-4.995,0-9.059-4.064-9.059-9.059V100.38
						c0-4.995,4.064-9.06,9.059-9.06h204.922c4.995,0,9.06,4.064,9.06,9.06v293.43C359.247,398.805,355.183,402.869,350.187,402.869
						z M145.265,94.862c-3.043,0-5.518,2.476-5.518,5.518v293.43c0,3.043,2.475,5.518,5.518,5.518h204.922
						c3.043,0,5.518-2.475,5.518-5.518V100.38c0-3.043-2.475-5.518-5.518-5.518H145.265z"/>
				</g>
				<g>
					<g>
						<path style="fill:#A094EB;" d="M262.294,161.625h-94.339c-1.175,0-2.128-0.952-2.128-2.128v-0.08
							c0-1.175,0.953-2.128,2.128-2.128h94.339c1.175,0,2.128,0.953,2.128,2.128v0.08
							C264.422,160.672,263.47,161.625,262.294,161.625z"/>
					</g>
					<g>
						<path style="fill:#A094EB;" d="M247.842,170.478H168c-1.2,0-2.173-0.973-2.173-2.173v-0.081c0-1.2,0.973-2.173,2.173-2.173
							h79.842c1.2,0,2.173,0.973,2.173,2.173v0.081C250.015,169.505,249.042,170.478,247.842,170.478z"/>
					</g>
					<g>
						<path style="fill:#A094EB;" d="M262.294,199.692h-94.339c-1.175,0-2.128-0.953-2.128-2.128v-0.08
							c0-1.175,0.953-2.128,2.128-2.128h94.339c1.175,0,2.128,0.953,2.128,2.128v0.08
							C264.422,198.739,263.47,199.692,262.294,199.692z"/>
					</g>
					<g>
						<path style="fill:#A094EB;" d="M247.842,208.545H168c-1.2,0-2.173-0.973-2.173-2.173v-0.081c0-1.2,0.973-2.173,2.173-2.173
							h79.842c1.2,0,2.173,0.973,2.173,2.173v0.081C250.015,207.572,249.042,208.545,247.842,208.545z"/>
					</g>
					<g>
						<path style="fill:#A094EB;" d="M238.99,218.283H168c-1.2,0-2.173-0.973-2.173-2.173v-0.081c0-1.2,0.973-2.173,2.173-2.173
							h70.99c1.2,0,2.173,0.973,2.173,2.173v0.081C241.162,217.31,240.189,218.283,238.99,218.283z"/>
					</g>
					<g>
						<path style="fill:#A094EB;" d="M262.294,240.415h-94.339c-1.175,0-2.128-0.953-2.128-2.128v-0.08
							c0-1.175,0.953-2.128,2.128-2.128h94.339c1.175,0,2.128,0.952,2.128,2.128v0.08
							C264.422,239.462,263.47,240.415,262.294,240.415z"/>
					</g>
					<g>
						<path style="fill:#A094EB;" d="M247.842,249.268H168c-1.2,0-2.173-0.973-2.173-2.173v-0.081c0-1.2,0.973-2.173,2.173-2.173
							h79.842c1.2,0,2.173,0.973,2.173,2.173v0.081C250.015,248.295,249.042,249.268,247.842,249.268z"/>
					</g>
					<g>
						<path style="fill:#A094EB;" d="M262.294,281.138h-94.339c-1.175,0-2.128-0.953-2.128-2.128v-0.08
							c0-1.175,0.953-2.128,2.128-2.128h94.339c1.175,0,2.128,0.953,2.128,2.128v0.08
							C264.422,280.185,263.47,281.138,262.294,281.138z"/>
					</g>
					<g>
						<path style="fill:#A094EB;" d="M238.99,289.991H168c-1.2,0-2.173-0.973-2.173-2.172v-0.081c0-1.2,0.973-2.172,2.173-2.172
							h70.99c1.2,0,2.173,0.973,2.173,2.172v0.081C241.162,289.018,240.189,289.991,238.99,289.991z"/>
					</g>
					<g>
						<path style="fill:#8675EF;" d="M284.963,177.477c-7.772,0-14.095-6.323-14.095-14.095c0-7.772,6.323-14.095,14.095-14.095
							c7.772,0,14.094,6.323,14.094,14.095C299.057,171.155,292.735,177.477,284.963,177.477z M284.963,152.829
							c-5.82,0-10.554,4.735-10.554,10.554c0,5.819,4.734,10.554,10.554,10.554c5.819,0,10.553-4.735,10.553-10.554
							C295.516,157.563,290.782,152.829,284.963,152.829z"/>
					</g>
					<g>
						<path style="fill:#8675EF;" d="M284.963,218.128c-7.772,0-14.095-6.323-14.095-14.095c0-7.772,6.323-14.095,14.095-14.095
							c7.772,0,14.094,6.323,14.094,14.095C299.057,211.805,292.735,218.128,284.963,218.128z M284.963,193.48
							c-5.82,0-10.554,4.735-10.554,10.554c0,5.819,4.734,10.554,10.554,10.554c5.819,0,10.553-4.735,10.553-10.554
							C295.516,198.214,290.782,193.48,284.963,193.48z"/>
					</g>
					<g>
						<path style="fill:#8675EF;" d="M284.963,258.779c-7.772,0-14.095-6.323-14.095-14.095c0-7.772,6.323-14.095,14.095-14.095
							c7.772,0,14.094,6.323,14.094,14.095C299.057,252.456,292.735,258.779,284.963,258.779z M284.963,234.13
							c-5.82,0-10.554,4.735-10.554,10.554c0,5.819,4.734,10.554,10.554,10.554c5.819,0,10.553-4.735,10.553-10.554
							C295.516,238.864,290.782,234.13,284.963,234.13z"/>
					</g>
					<g>
						<path style="fill:#8675EF;" d="M284.963,299.429c-7.772,0-14.095-6.322-14.095-14.095c0-7.772,6.323-14.095,14.095-14.095
							c7.772,0,14.094,6.323,14.094,14.095C299.057,293.107,292.735,299.429,284.963,299.429z M284.963,274.78
							c-5.82,0-10.554,4.734-10.554,10.554c0,5.819,4.734,10.553,10.554,10.553c5.819,0,10.553-4.734,10.553-10.553
							C295.516,279.514,290.782,274.78,284.963,274.78z"/>
					</g>
					<g>
						<path style="fill:#1C0029;" d="M285.327,166.456l-5.842-5.841c-0.519-0.518-0.519-1.359,0-1.878h0
							c0.518-0.518,1.359-0.518,1.878,0l3.236,3.236l6.799-13.597c0.328-0.656,1.126-0.922,1.781-0.594l0.001,0
							c0.656,0.328,0.922,1.126,0.594,1.781L285.327,166.456z"/>
					</g>
					<g>
						<path style="fill:#1C0029;" d="M285.327,207.537l-5.842-5.842c-0.519-0.519-0.519-1.359,0-1.878l0,0
							c0.518-0.518,1.359-0.518,1.878,0l3.236,3.236l6.799-13.597c0.328-0.656,1.126-0.922,1.782-0.594l0,0
							c0.656,0.328,0.922,1.126,0.594,1.782L285.327,207.537z"/>
					</g>
					<g>
						<polygon style="fill:#1C0029;" points="285.327,248.618 278.546,241.838 280.424,239.96 284.599,244.135 291.991,229.35 
							294.367,230.538 						"/>
					</g>
				</g>
				<g>
					<path style="fill:#282480;" d="M285.379,119.324h-75.306c-2.885,0-5.224-2.339-5.224-5.224v-18.01
						c0-2.885,2.339-5.224,5.224-5.224h75.306c2.885,0,5.224,2.339,5.224,5.224v18.01
						C290.603,116.986,288.264,119.324,285.379,119.324z"/>
				</g>
			</g>
		</g>
		<g>
			<g>
				<path style="fill:#D1C9FF;" d="M125.555,326.408L125.555,326.408c-17.646,0-32.122-15.403-32.741-34.839l-1.977-62.089h69.435
					l-1.977,62.089C157.677,311.005,143.201,326.408,125.555,326.408z"/>
			</g>
			<g>
				<path style="fill:#D1C9FF;" d="M125.555,324.708L125.555,324.708c-17.646,0-32.122,15.403-32.741,34.839l-1.977,62.09h69.435
					l-1.977-62.09C157.677,340.111,143.201,324.708,125.555,324.708z"/>
			</g>
			<g>
				<path style="fill:#0D0029;" d="M163.561,232.71H85.934c-1.751,0-3.17-1.419-3.17-3.17v-0.119c0-1.751,1.419-3.17,3.17-3.17
					h77.627c1.751,0,3.17,1.419,3.17,3.17v0.119C166.731,231.29,165.312,232.71,163.561,232.71z"/>
			</g>
			<g>
				<path style="fill:#DB4471;" d="M150.945,299.468c-5.081,2.771-14.137,6.663-26.254,6.663c-6.892,0-16.696-1.141-23.644-4.153
					c-1.721-0.746-3.486,1.089-2.701,2.781c2.194,4.729,5.532,8.93,9.702,12.067c2.113,1.59,4.434,2.904,6.894,3.878
					c4.374,1.731,7.218,2.196,8.905,6.148c-0.343,12.595-0.462,25.195-0.409,37.794c0.027,6.407,0.099,12.813,0.21,19.219
					c0.019,1.084-0.507,14.844,3.696,11.196c0.967-0.839,1.044-2.287,1.049-3.568c0.038-10.515-0.017-21.034,0.115-31.548
					c0.123-9.82-1.328-19.582-0.344-29.41c0.293-2.924,0.988-5.733,2.897-7.618c3.678-3.632,10.331-4.656,14.425-8.187
					c3.823-3.297,6.542-8.163,8.381-12.806C154.567,300.154,152.628,298.55,150.945,299.468z"/>
			</g>
			<g>
				<path style="fill:#DB4471;" d="M158.658,421.455c-1.54-13.059-24.778-40.828-33.102-39.274
					c-8.468,1.581-33.103,29.294-33.103,39.274H158.658z"/>
			</g>
			<g>
				<path style="fill:#0D0029;" d="M163.561,424.865H85.934c-1.751,0-3.17-1.419-3.17-3.17v-0.119c0-1.751,1.419-3.17,3.17-3.17
					h77.627c1.751,0,3.17,1.419,3.17,3.17v0.119C166.731,423.446,165.312,424.865,163.561,424.865z"/>
			</g>
		</g>
		<g>
			<g>
				<path style="fill:#2D0070;" d="M111.023,141.009c-0.208,0.533-0.411,1.067-0.614,1.598c-1.67,4.39-3.344,8.808-4.231,13.42
					c-0.433,2.25-0.673,4.59-0.147,6.821c0.526,2.23,1.926,4.35,4.026,5.266c1.647,0.718,3.523,0.638,5.306,0.42
					c2.026-0.248,4.031-0.657,5.992-1.223c1.07-0.309,2.139-0.67,3.075-1.272c1.55-0.997,2.577-2.554,3.45-4.139
					c1.627-2.953,0.258-6.06,0.867-9.228c0.366-1.901,1.018-3.733,1.561-5.591c1.152-3.94,1.818-8.022,1.976-12.124
					c0.07-1.81-0.131-4.176-1.657-5.387c-1.41-1.119-3.317-1.572-5.084-1.586c-3.562-0.027-7.341,1.607-9.705,4.283
					C113.623,134.776,112.245,137.876,111.023,141.009z"/>
			</g>
			<g>
				<path style="fill:#0D0029;" d="M130.161,191.285c-5.057-0.354-10.354-0.763-15.388-0.024c-5.494,0.807-10.773,2.66-15.985,4.511
					c-2.968,1.054-5.937,2.108-8.905,3.162c-3.634,1.291-7.302,2.597-10.572,4.641c-5.392,3.371-9.528,8.621-5.842,14.864
					c2.634,4.461,8.651,5.554,13.807,5.052c5.228-0.509,10.629-2.521,15.691-0.61c4.734,1.787,10.591,3.214,15.657,3.669
					c4.001,0.36,8.046-0.002,12.023-0.461c7.212-0.834,14.363-2.801,21.572-2.829c6.188-0.024,12.634,0.155,18.58-1.826
					c5.966-1.987,12.364-7.062,9.342-14.028c-1.295-2.985-3.938-5.222-6.852-6.669c-2.915-1.447-6.118-2.192-9.289-2.924
					c-3.504-0.81-7.007-1.62-10.511-2.43c-6.607-1.527-13.233-3.058-19.974-3.797C132.399,191.464,131.281,191.363,130.161,191.285z
					"/>
			</g>
			<g>
				<path style="fill:#DB4471;" d="M110.449,187.596c0.202,0.814,0.411,1.627,0.562,2.451c0.269,1.471,0.671,4.188-0.727,5.194
					c3.8,1.053,8.086,1.245,12.012,1.342c2.974,0.074,5.953-0.038,8.913-0.336c1.273-0.129,2.555-0.171,3.825-0.331
					c1.048-0.131,2.137,0.012,3.081-0.531c0.15-0.087,0.303-0.193,0.368-0.354c0.057-0.141,0.037-0.299,0.017-0.45
					c-0.335-2.434-0.71-4.907-0.332-7.334c0.312-2.003,1.125-3.887,1.732-5.822c0.956-3.045,1.358-6.258,1.316-9.445
					c-0.021-1.61-0.33-3.181-0.408-4.777c-0.072-1.465-0.023-2.86-0.266-4.345c-0.245-1.499-0.594-3.001-1.289-4.352
					c-0.695-1.351-1.768-2.551-3.159-3.163c-0.574-0.253-1.188-0.401-1.801-0.533c-4.432-0.959-9.023-1.169-13.525-0.629
					c-2.018,0.242-3,0.667-4.509,1.977c-1.542,1.338-2.602,3.124-3.605,4.876c-1.383,2.416-2.716,4.901-3.536,7.574
					c-0.433,1.411-0.572,2.791-0.762,4.242c-0.151,1.155-0.565,2.041-0.292,3.255c0.297,1.32,0.973,2.527,1.312,3.837
					c0.415,1.604,0.31,3.293,0.519,4.936C110.012,185.797,110.226,186.697,110.449,187.596z"/>
			</g>
			<g>
				<path style="fill:#DB4471;" d="M120.165,168.617c0.294-0.406,0.558-0.834,0.786-1.282c1.379-2.707,1.483-5.883,1.234-8.911
					c-0.117-1.415-0.381-2.97-1.482-3.866c-1.214-0.988-2.968-0.807-4.516-0.574c-3.303,0.497-7.048,0.579-10.104,1.93
					c-2.682,1.185-5.018,3.072-6.509,5.624c-1.486,2.542-2.132,5.537-3.834,7.94c-1.054,1.487-2.465,2.678-3.705,4.014
					c-3.305,3.559-5.393,8.228-5.843,13.064c-0.115,1.23-0.112,2.532,0.468,3.622c1.676,3.151,6.194,1.243,8.195-0.432
					c2.243-1.877,3.924-4.61,5.883-6.792c0.582-0.648,1.171-1.303,1.896-1.785c0.634-0.422,1.351-0.699,2.016-1.07
					c2.356-1.313,3.915-3.716,4.951-6.207c0.127-0.307,0.254-0.624,0.484-0.863c0.742-0.771,2.051-0.078,2.992-0.195
					c1.136-0.141,2.25-0.496,3.273-1.006C117.849,171.079,119.179,169.974,120.165,168.617z"/>
			</g>
			<g>
				<path style="fill:#FF8270;" d="M116.969,154.455c0.858,1.944,3.213,3.362,5.059,4.015c3.285,1.163,6.259-0.779,7.75-3.634
					c-0.229-0.175-0.491-0.348-0.623-0.524c-0.295-0.391-0.492-0.864-0.607-1.338c-0.21-0.865-0.169-1.769-0.111-2.658
					c0.353-5.408,1.983-10.75,1.432-16.18c-0.031-0.304-0.072-0.62-0.239-0.875c-0.478-0.731-1.941-0.954-2.657-1.505
					c-1.026-0.788-2.194,0.035-3.357,0.318c-1.344,0.326-2.718,0.532-4.099,0.613c-0.24,0.014-0.487,0.026-0.707,0.124
					c-0.602,0.268-0.761,1.036-0.821,1.693c-0.205,2.26-0.249,4.503,0.199,6.734c0.48,2.391,1.199,4.557,1.011,7.05
					C119.092,149.706,118.456,153.323,116.969,154.455z"/>
			</g>
			<g>
				<path style="fill:#DB4471;" d="M160.062,181.748c-0.808-2.269-1.627-4.561-2.918-6.594c-1.349-2.124-3.175-3.907-4.589-5.988
					c-1.66-2.443-2.729-5.264-4.533-7.602c-3.504-4.542-9.141-6.088-14.659-6.115c-0.703-0.003-1.446,0.056-2.025,0.454
					c-1.113,0.764-1.149,2.369-1.033,3.715c0.222,2.57,0.573,5.139,1.262,7.625c0.213,0.766,0.466,1.542,0.952,2.171
					c0.697,0.904,1.759,1.358,2.838,1.625c0.896,0.222,2.154,0.042,2.823,0.724c0.906,0.923,1.657,1.998,2.211,3.166
					c0.568,1.196,0.938,2.5,1.702,3.581c1.042,1.475,2.692,2.374,4.115,3.486c3.365,2.63,8.356,13.8,13.934,11.239
					C164.707,191.137,161.159,184.83,160.062,181.748z"/>
			</g>
			<g>
				<path style="fill:#FF8270;" d="M89.135,194.547c2.035,1.629,4.703,2.742,6.461,2.85c3.936,0.243,7.637-1.77,11.53-2.4
					c1.936-0.313,3.921-0.283,5.839-0.689c1.605-0.34,3.116-0.987,4.616-1.632c1.249-0.538,2.696-0.745,3.87-1.437
					c0.376-0.222,0.713-0.503,1.048-0.783c1.275-1.067,1.399-3.387,1.585-4.961c0.346-2.923,1.27-5.997,1.003-8.944
					c-0.06-0.663-0.418-1.534-1.068-1.389c-0.437,0.097-0.616,0.61-0.721,1.046c-0.445,1.862-0.891,3.724-1.336,5.586
					c-0.277,1.156-0.564,2.339-1.214,3.334c-1.716,2.631-5.726,2.069-8.414,1.995c-3.445-0.094-6.882-0.483-10.26-1.164
					c-2.666-0.537-5.333-1.259-8.052-1.181c-2.266,0.065-6.026,0.987-7.257,3.179C85.425,190.344,86.898,192.757,89.135,194.547z"/>
			</g>
			<g>
				<path style="fill:#FF8270;" d="M159.648,194.734c-1.369,0.903-3.005,1.4-4.611,1.804c-1.582,0.398-3.222,0.733-4.836,0.494
					c-1.698-0.251-3.239-1.117-4.895-1.565c-2.767-0.749-5.739-0.308-8.528-0.972c-2.586-0.616-4.926-2.161-7.569-2.443
					c-1.589-0.169-3.382,0.076-4.613-0.944c-1.847-1.531-0.773-3.806-0.715-5.758c0.096-3.244-0.379-6.841,0.652-9.971
					c1.292,1.201,1.711,3.065,1.865,4.823c0.154,1.757,0.117,3.572,0.753,5.217c0.982,2.538,6.582,1.757,8.632,1.703
					c3.539-0.093,7.071-0.482,10.545-1.165c2.733-0.537,5.468-1.259,8.256-1.181c4.803,0.135,11.348,4.368,5.99,9.24
					C160.284,194.282,159.974,194.52,159.648,194.734z"/>
			</g>
			<g>
				<path style="fill:#2D0070;" d="M119.132,135.357c0.146-0.044,0.29-0.097,0.429-0.152c0.703-0.279,1.376-0.634,2.004-1.057
					c0.761-0.513,1.476-1.135,2.353-1.406c1.267-0.391,2.623,0.02,3.946,0.095c1.348,0.077,3.298-0.154,4.358-1.05
					c0.939-0.794,1.213-2.291,0.086-3.029c-0.446-0.292-1.001-0.35-1.531-0.4c-1.016-0.096-2.033-0.191-3.049-0.287
					c-2.213-0.208-4.74-0.061-6.739,1.003c-1.492,0.794-3.481,2.279-3.824,4.054c-0.152,0.786-0.312,1.942,0.644,2.274
					C118.235,135.552,118.694,135.491,119.132,135.357z"/>
			</g>
			<g>
				<path style="fill:#FF8270;" d="M130.714,138.213c-0.442-0.365-1.059-0.281-1.474,0.09c-0.357,0.319-0.475,0.704-0.361,1.077
					c-0.1,0.146-0.159,0.316-0.117,0.495c0.009,0.04,0.018,0.079,0.028,0.119c0.06,0.255,0.285,0.467,0.534,0.534
					C130.603,140.871,131.859,139.158,130.714,138.213z"/>
			</g>
			<g>
				<path style="fill:#FF8270;" d="M119.177,139.622c0.033-0.318-0.033-0.572-0.099-0.884c-0.017-0.077-0.046-0.138-0.083-0.19
					c-0.031-0.133-0.097-0.257-0.252-0.33c-1.158-0.551-2.609,0.386-2.013,1.728c0.237,0.533,0.779,0.844,1.358,0.786
					c0.499-0.05,0.947-0.394,0.987-0.875C119.125,139.789,119.168,139.712,119.177,139.622z"/>
			</g>
			<g>
				<path style="fill:#0D0029;" d="M126.874,149.925c0.009-0.59-0.021-1.184-0.022-1.774c0-0.977,0.11-1.997,0.637-2.821
					c-1.18,0.936-2.486,1.07-3.928,1.008c-0.216-0.009-0.376-0.028-0.5-0.038c-0.02,0.109-0.044,0.217-0.064,0.326
					C124.425,147.529,125.674,148.706,126.874,149.925z"/>
			</g>
			<g>
				<path style="fill:#FF8270;" d="M123.498,213.693c-4.828-0.687-9.747-0.434-14.599-0.85c-2.59-0.222-5.091-0.953-7.598-1.597
					c-1.978-0.508-4.894-0.921-6.909-0.612c-0.672,0.103-1.335,0.304-2.014,0.298s-1.413-0.274-1.737-0.872
					c-0.327-0.605-0.134-1.39,0.303-1.921c0.437-0.531,1.073-0.855,1.707-1.122c4.044-1.704,8.756-1.682,12.505-3.964
					c0.38-0.231,0.756-0.489,1.186-0.602c1.62-0.425,3.769,1.47,4.816,2.557c0.689,0.716,1.751,0.899,2.738,1.015
					c2.826,0.333,5.68,0.427,8.522,0.282c1.609-0.082,1.016,3.067,1.033,4.17C123.452,210.678,123.42,213.682,123.498,213.693z"/>
			</g>
			<g>
				<path style="fill:#282480;" d="M171.147,203.523c-4.484-0.475-8.996-0.799-13.473-1.241c-2.822-0.278-5.653-0.557-8.488-0.48
					c-9.811,0.265-19.46,4.764-29.138,3.132c0.517,0.087-1.591,11.62-1.769,12.543c-0.129,0.671-0.26,1.342-0.395,2.013
					c-0.129,0.891-0.271,1.781-0.434,2.666c1.421,0.272,2.843,0.536,4.268,0.786c8.952,1.572,17.97,3.068,27.077,3.249
					c8.002,0.159,17.815-0.08,25.167-3.521c2.708-1.268,5.202-3.193,6.617-5.827c0.8-1.49,1.221-2.943,1.322-4.314
					c0.298-4.067-2.398-7.947-6.401-8.487C174.054,203.848,172.602,203.678,171.147,203.523z"/>
			</g>
			<g>
				<path style="fill:#FF8270;" d="M137.052,229.029c4.847-0.453,9.74,0.035,14.597-0.146c4.942-0.185,10.119-2.359,14.996-0.744
					c0.556,0.184,1.129,0.412,1.707,0.322c0.578-0.09,1.131-0.653,0.961-1.213c-0.059-0.196-0.195-0.359-0.328-0.516
					c-1.387-1.639-2.72-2.399-4.623-3.351c-1.979-0.697-4.161-0.606-6.053-1.596c-2.002-1.047-4.075-2.59-6.276-2.081
					c-0.772,0.179-1.461,0.601-2.184,0.923c-2.603,1.16-4.591,0.329-7.167,0.206c-0.355-0.017-5.103-0.128-5.109-0.034
					C137.574,220.8,137.052,229.029,137.052,229.029z"/>
			</g>
			<g>
				<path style="fill:#282480;" d="M143.555,228.902c0.469-2.948,1.69-6.445,1.529-9.419c-1.128-0.098-2.257-0.195-3.385-0.293
					c-0.674-0.058-1.364-0.121-1.979-0.405c-0.772-0.357-1.345-1.025-1.945-1.628c-3.114-3.136-7.201-5.273-11.575-5.95
					c-2.256-0.349-4.525-0.207-6.779-0.479c-2.636-0.318-5.134-1.344-7.697-1.986c-5.547-1.39-11.436-1.092-16.913-2.733
					c-3.208-0.961-6.273-2.585-9.615-2.792c-7.412-0.46-14.706,5.851-13.615,13.484c0.434,3.036,2.243,5.893,4.915,7.397
					c1.611,0.907,3.451,1.31,5.269,1.642c8.903,1.626,18.081,2.135,27.065,3.382c11.116,1.544,22.449,3,33.656,3.451
					c0.163,0.007,0.351,0.003,0.454-0.124c0.059-0.072,0.076-0.169,0.09-0.261C143.206,231.095,143.38,229.999,143.555,228.902z"/>
			</g>
			<g>
				<path style="fill:#FFFFFF;" d="M122.512,141.719c0.495,0.851,1.153,1.328,1.811,1.316c0.658-0.012,1.311-0.515,1.798-1.384"/>
			</g>
			<g>
				<path style="fill:#0D0029;" d="M145.522,219.852l-0.442-0.028l0.063-0.983c-0.733-0.189-1.486-0.409-2.216-0.623
					c-1.626-0.476-3.306-0.968-4.93-1.167c-2.01-0.246-4.087-0.501-6.074-1.653c-0.556-0.322-1.084-0.698-1.596-1.061
					c-0.464-0.33-0.943-0.671-1.436-0.966c-1.154-0.69-2.515-1.219-4.281-1.664c-1.853-0.467-3.76-0.751-5.669-0.842l0.022-0.442
					c1.938,0.093,3.874,0.381,5.755,0.855c1.81,0.456,3.208,1,4.401,1.714c0.507,0.303,0.994,0.65,1.465,0.984
					c0.503,0.357,1.023,0.727,1.561,1.039c1.908,1.107,3.941,1.356,5.906,1.597c1.66,0.204,3.358,0.701,5.001,1.181
					c0.786,0.23,1.598,0.468,2.379,0.663l0.178,0.045L145.522,219.852z"/>
			</g>
		</g>
		<g>
			<g>
				<g>
					<path style="fill:#282480;" d="M167.028,401.855c-6.711,0.163-12.2,5.143-17.011,9.825c1.224-4.315,2.557-8.599,3.998-12.846
						c1.115-3.286,2.368-6.669,4.843-9.101c4.97-4.884,13.479-4.26,19.341-0.493c5.862,3.767,9.7,9.908,13.344,15.848
						c-3.949-11.843-7.898-23.686-11.847-35.529c-1.102-3.305-2.217-6.693-2.127-10.175c0.105-4.073,1.845-7.904,3.558-11.601
						c5.681-12.263,12.453-25.531,24.936-30.71c0.625,9.619-5.775,18.35-6.77,27.938c-1.251,12.056,6.132,23.52,6.152,35.641
						c0.014,8.802-3.87,17.519-2.341,26.187c3.252-7.804,6.943-15.426,11.049-22.817c2.426-4.367,5.394-8.984,10.146-10.523
						c4.966-1.608,10.508,0.77,14.176,4.483c3.668,3.713,5.888,8.574,8.223,13.241c2.335,4.668,4.987,9.397,9.195,12.486
						c-8.296-2.345-15.198-9.725-23.812-9.362c-3.596,0.151-7.004,1.696-10.02,3.66c-6.58,4.287-11.724,10.74-14.436,18.111
						c-1.512,4.109-2.75,12.733-7.537,14.555c-4.655,1.772-7.497-4.217-9.446-7.49C185.495,414.538,178.9,401.566,167.028,401.855z"
						/>
				</g>
				<g style="opacity:0.64;">
					<g>
						<path style="fill:#84CCC0;" d="M188.618,410.722c-0.172-0.235-0.426-0.408-0.727-0.39c-0.319,0.019-0.61,0.224-0.744,0.512
							c-0.254,0.547,0.18,1.152,0.74,1.141c0.105,0.021,0.213,0.025,0.315,0.006C188.797,411.879,188.946,411.168,188.618,410.722z"
							/>
					</g>
					<g>
						<path style="fill:#84CCC0;" d="M183.06,407.539c-0.092-0.344-0.506-0.54-0.819-0.343c-0.192,0.121-0.257,0.341-0.212,0.529
							c0,0.009-0.004,0.015-0.003,0.024c0.012,0.319,0.319,0.541,0.631,0.475C182.955,408.16,183.139,407.833,183.06,407.539z"/>
					</g>
					<g>
						<path style="fill:#84CCC0;" d="M187.157,406.69c-0.311-0.273-0.946-0.227-1.033,0.249c0,0.002,0,0.003,0,0.005
							c-0.273,0.215-0.286,0.649-0.029,0.897c0.299,0.288,0.82,0.224,1.081-0.082C187.433,407.457,187.475,406.969,187.157,406.69z"
							/>
					</g>
					<g>
						<path style="fill:#84CCC0;" d="M192.716,410.013c-0.228-0.133-0.47-0.108-0.699,0.001c-0.025,0.01-0.049,0.023-0.07,0.04
							c-0.414,0.282-0.413,0.834,0.002,1.115c0.021,0.017,0.045,0.03,0.07,0.04c0.229,0.108,0.471,0.132,0.699-0.001
							c0.21-0.124,0.342-0.354,0.342-0.598C193.059,410.366,192.927,410.136,192.716,410.013z"/>
					</g>
					<g>
						<path style="fill:#84CCC0;" d="M182.133,401.244c-0.005-0.008-0.01-0.016-0.015-0.023c-0.119-0.188-0.308-0.297-0.51-0.317
							c-0.183-0.118-0.426-0.139-0.621-0.018c-0.088,0.054-0.155,0.121-0.215,0.196c-0.006,0.007-0.01,0.014-0.016,0.021
							c-0.019,0.025-0.04,0.046-0.057,0.073l0.013-0.013c-0.086,0.121-0.134,0.26-0.134,0.428c0.029,0.207,0.031,0.229,0.008,0.064
							c-0.003,0.092,0.016,0.178,0.058,0.257c0.062,0.146,0.162,0.262,0.297,0.346c0.423,0.265,0.937,0.088,1.193-0.317
							C182.262,401.741,182.261,401.445,182.133,401.244z"/>
					</g>
					<g>
						<path style="fill:#84CCC0;" d="M186.462,400.901c-0.78,0.001-0.779,1.214,0.002,1.212
							C187.244,402.112,187.243,400.9,186.462,400.901z"/>
					</g>
					<g>
						<path style="fill:#84CCC0;" d="M184.363,403.579c-0.767,0.001-0.766,1.193,0.002,1.192
							C185.132,404.769,185.132,403.577,184.363,403.579z"/>
					</g>
					<g>
						<path style="fill:#84CCC0;" d="M176.444,401.208c-0.02-0.145-0.069-0.267-0.128-0.403c-0.17-0.387-0.852-0.386-1.021,0.002
							c-0.058,0.134-0.108,0.259-0.127,0.403c-0.032,0.234-0.018,0.471,0.171,0.643c0.13,0.119,0.289,0.193,0.468,0.193
							c0.17,0,0.348-0.074,0.468-0.195C176.458,401.668,176.477,401.451,176.444,401.208z"/>
					</g>
					<g>
						<path style="fill:#84CCC0;" d="M174.697,395.477c-0.014-0.043-0.027-0.086-0.04-0.129c-0.164-0.535-0.924-0.534-1.086,0.002
							c-0.013,0.043-0.027,0.086-0.04,0.129c-0.118,0.378,0.203,0.765,0.585,0.765C174.496,396.243,174.816,395.854,174.697,395.477
							z"/>
					</g>
					<g>
						<path style="fill:#84CCC0;" d="M178.664,397.423c-0.083-0.291-0.297-0.542-0.622-0.541c-0.325,0.001-0.538,0.252-0.62,0.543
							c-0.114,0.404,0.208,0.815,0.622,0.814C178.457,398.238,178.78,397.826,178.664,397.423z"/>
					</g>
					<g>
						<path style="fill:#84CCC0;" d="M182.808,395.865c-0.772,0.001-0.771,1.201,0.002,1.2
							C183.582,397.064,183.581,395.864,182.808,395.865z"/>
					</g>
					<g>
						<path style="fill:#84CCC0;" d="M179.421,393.098c-0.043,0.014-0.086,0.027-0.13,0.038c-0.524,0.133-0.523,0.931,0.002,1.062
							c0.044,0.011,0.087,0.024,0.13,0.037c0.369,0.115,0.746-0.198,0.745-0.57C180.168,393.294,179.789,392.982,179.421,393.098z"
							/>
					</g>
					<g>
						<path style="fill:#84CCC0;" d="M173.962,388.876c-0.764,0.001-0.763,1.188,0.002,1.187
							C174.728,390.061,174.727,388.875,173.962,388.876z"/>
					</g>
					<g>
						<path style="fill:#84CCC0;" d="M165.274,392.113c-0.767,0.001-0.766,1.193,0.002,1.192
							C166.043,393.304,166.042,392.112,165.274,392.113z"/>
					</g>
					<g>
						<path style="fill:#84CCC0;" d="M169.616,389.157c-0.772,0.001-0.771,1.201,0.002,1.2
							C170.39,390.356,170.389,389.156,169.616,389.157z"/>
					</g>
					<g>
						<path style="fill:#84CCC0;" d="M169.485,394.641c-0.752,0.001-0.752,1.171,0.002,1.169
							C170.239,395.809,170.238,394.64,169.485,394.641z"/>
					</g>
					<g>
						<path style="fill:#84CCC0;" d="M171.596,399.097c-0.788,0.001-0.787,1.226,0.002,1.225
							C172.386,400.32,172.385,399.095,171.596,399.097z"/>
					</g>
					<g>
						<path style="fill:#84CCC0;" d="M165.007,400.395c-0.756,0.001-0.755,1.176,0.002,1.174
							C165.765,401.569,165.764,400.394,165.007,400.395z"/>
					</g>
					<g>
						<path style="fill:#84CCC0;" d="M165.681,395.494c-0.042,0.017-0.084,0.035-0.126,0.052c-0.217,0.091-0.413,0.268-0.401,0.528
							c0.012,0.263,0.169,0.43,0.402,0.527c0.042,0.017,0.084,0.035,0.126,0.052c0.37,0.153,0.761-0.227,0.76-0.581
							C166.442,395.717,166.049,395.34,165.681,395.494z"/>
					</g>
					<g>
						<path style="fill:#84CCC0;" d="M161.074,397.065c-0.277-0.277-0.723-0.196-0.93,0.121c-0.035,0.054-0.07,0.107-0.105,0.161
							c-0.299,0.458,0.299,1.054,0.756,0.754c0.054-0.035,0.107-0.07,0.16-0.106C161.272,397.787,161.353,397.343,161.074,397.065z"
							/>
					</g>
					<g>
						<path style="fill:#84CCC0;" d="M159.821,401.522c-0.761,0.001-0.76,1.183,0.002,1.182
							C160.584,402.703,160.583,401.521,159.821,401.522z"/>
					</g>
					<g>
						<path style="fill:#84CCC0;" d="M155.757,402.791c-0.761,0.001-0.76,1.183,0.002,1.182
							C156.52,403.972,156.519,402.79,155.757,402.791z"/>
					</g>
					<g>
						<path style="fill:#84CCC0;" d="M155.75,398.462c-0.738,0.001-0.737,1.148,0.002,1.147
							C156.49,399.607,156.489,398.461,155.75,398.462z"/>
					</g>
					<g>
						<path style="fill:#84CCC0;" d="M157.985,393.639c-0.624,0.001-0.623,0.971,0.002,0.97
							C158.611,394.608,158.61,393.638,157.985,393.639z"/>
					</g>
					<g>
						<path style="fill:#84CCC0;" d="M161.343,389.336c-0.741,0.001-0.74,1.153,0.002,1.152
							C162.086,390.486,162.085,389.334,161.343,389.336z"/>
					</g>
					<g>
						<path style="fill:#84CCC0;" d="M162.19,392.992c-0.725,0.001-0.724,1.128,0.002,1.126
							C162.917,394.118,162.916,392.991,162.19,392.992z"/>
					</g>
					<g>
						<path style="fill:#84CCC0;" d="M190.535,414.034c-0.102,0.064-0.202,0.113-0.288,0.203c-0.228,0.237-0.252,0.656,0.001,0.888
							c0.255,0.233,0.635,0.243,0.888-0.001c0.09-0.087,0.138-0.186,0.202-0.289C191.645,414.339,191.03,413.726,190.535,414.034z"
							/>
					</g>
					<g>
						<path style="fill:#84CCC0;" d="M185.457,410.944c-0.236-0.216-0.524-0.185-0.761,0.001c-0.052,0.041-0.105,0.082-0.157,0.124
							c-0.232,0.183-0.204,0.607,0.001,0.795c0.202,0.185,0.601,0.246,0.795-0.001c0.041-0.052,0.082-0.105,0.123-0.157
							C185.631,411.483,185.689,411.156,185.457,410.944z"/>
					</g>
					<g>
						<path style="fill:#84CCC0;" d="M197.693,409.161c-0.772,0.001-0.771,1.201,0.002,1.2
							C198.467,410.359,198.467,409.16,197.693,409.161z"/>
					</g>
					<g>
						<path style="fill:#84CCC0;" d="M195.596,412.539c-0.761,0.001-0.76,1.183,0.002,1.182
							C196.358,413.719,196.358,412.537,195.596,412.539z"/>
					</g>
					<g>
						<path style="fill:#84CCC0;" d="M201.349,414.724c-0.149,0.004-0.298,0.02-0.436,0.074c-0.235,0.09-0.443,0.293-0.43,0.567
							c0.013,0.277,0.179,0.469,0.432,0.566c0.139,0.053,0.288,0.069,0.437,0.072c0.334,0.007,0.654-0.3,0.638-0.64
							C201.973,415.023,201.707,414.716,201.349,414.724z"/>
					</g>
					<g>
						<path style="fill:#84CCC0;" d="M203.061,410.864c-0.255-0.134-0.583-0.111-0.791,0.103c-0.112,0.115-0.208,0.247-0.284,0.389
							c-0.174,0.322-0.089,0.777,0.253,0.957c0.312,0.164,0.789,0.1,0.957-0.253c0.023-0.046,0.043-0.093,0.062-0.14
							c0.044-0.099,0.047-0.111,0.011-0.035c0.038-0.097,0.076-0.182,0.094-0.284C203.41,411.322,203.332,411.007,203.061,410.864z"
							/>
					</g>
					<g>
						<path style="fill:#84CCC0;" d="M195.196,405.661c-0.051-0.104-0.171-0.225-0.276-0.275c-0.253-0.122-0.524-0.146-0.775,0.001
							c-0.251,0.148-0.352,0.387-0.379,0.664c0.002-0.04,0.004-0.08,0.006-0.121c-0.196,0.483,0.402,1.078,0.884,0.881
							c-0.04,0.002-0.08,0.005-0.12,0.007c0.277-0.028,0.516-0.13,0.663-0.382C195.344,406.185,195.319,405.914,195.196,405.661z"/>
					</g>
					<g>
						<path style="fill:#84CCC0;" d="M207.234,412.475c-0.757,0.001-0.757,1.178,0.002,1.177
							C207.993,413.65,207.993,412.473,207.234,412.475z"/>
					</g>
					<g>
						<path style="fill:#84CCC0;" d="M207.093,406.854l-0.018-0.038c-0.12-0.254-0.454-0.375-0.712-0.339
							c-0.267,0.036-0.53,0.237-0.592,0.512c-0.003,0.014-0.006,0.028-0.009,0.042c-0.092,0.41,0.126,0.753,0.51,0.895
							c0.168,0.062,0.395,0.032,0.545-0.064c0.005-0.003,0.011-0.007,0.016-0.01C207.187,407.625,207.268,407.223,207.093,406.854z"
							/>
					</g>
					<g>
						<path style="fill:#84CCC0;" d="M212.491,404.664c-0.031-0.074-0.059-0.15-0.098-0.221c-0.206-0.376-0.795-0.375-0.999,0.002
							c-0.038,0.071-0.066,0.147-0.097,0.221c-0.157,0.381,0.233,0.783,0.598,0.782
							C212.262,405.447,212.649,405.043,212.491,404.664z"/>
					</g>
					<g>
						<path style="fill:#84CCC0;" d="M208.054,399.737c-0.787,0.001-0.786,1.224,0.002,1.222
							C208.842,400.958,208.842,399.736,208.054,399.737z"/>
					</g>
					<g>
						<path style="fill:#84CCC0;" d="M213.808,399.021c-0.221-0.093-0.434-0.05-0.604,0.078c-0.004,0.003-0.009,0.005-0.013,0.008
							c-0.364,0.216-0.363,0.756,0.002,0.971c0.003,0.002,0.007,0.004,0.01,0.006c0.149,0.113,0.332,0.165,0.533,0.109
							c0.254-0.07,0.47-0.331,0.457-0.602C214.181,399.339,214.043,399.119,213.808,399.021z"/>
					</g>
					<g>
						<path style="fill:#84CCC0;" d="M211.912,394.289c-0.028-0.075-0.058-0.151-0.095-0.222c-0.2-0.377-0.802-0.376-1.001,0.002
							c-0.037,0.071-0.067,0.147-0.095,0.222c-0.139,0.383,0.22,0.781,0.597,0.781C211.695,395.071,212.052,394.671,211.912,394.289
							z"/>
					</g>
					<g>
						<path style="fill:#84CCC0;" d="M214.549,387.565c-0.065,0.035-0.124,0.085-0.179,0.133c-0.216,0.188-0.215,0.6,0.001,0.788
							c0.056,0.048,0.115,0.097,0.18,0.132c0.403,0.218,0.918-0.055,0.917-0.528S214.952,387.346,214.549,387.565z"/>
					</g>
					<g>
						<path style="fill:#84CCC0;" d="M215.987,392.603c-0.808,0.001-0.807,1.257,0.002,1.255
							C216.797,393.857,216.796,392.602,215.987,392.603z"/>
					</g>
					<g>
						<path style="fill:#84CCC0;" d="M223.449,388.128c-0.041-0.063-0.087-0.129-0.142-0.181c-0.232-0.219-0.587-0.219-0.82,0.001
							c-0.055,0.052-0.101,0.118-0.142,0.181c-0.266,0.413,0.086,0.961,0.553,0.961S223.717,388.54,223.449,388.128z"/>
					</g>
					<g>
						<path style="fill:#84CCC0;" d="M221.317,393.152c-0.811,0.001-0.81,1.262,0.002,1.26
							C222.13,394.411,222.129,393.151,221.317,393.152z"/>
					</g>
					<g>
						<path style="fill:#84CCC0;" d="M228.702,392.366c-0.18-0.18-0.406-0.211-0.645-0.169c-0.119,0.021-0.238,0.041-0.357,0.061
							c-0.247,0.043-0.451,0.337-0.439,0.579c0.012,0.246,0.177,0.533,0.441,0.578c0.119,0.02,0.238,0.04,0.357,0.06
							c0.232,0.039,0.475,0.014,0.645-0.172c0.119-0.13,0.194-0.289,0.193-0.469C228.896,392.665,228.822,392.486,228.702,392.366z"
							/>
					</g>
					<g>
						<path style="fill:#84CCC0;" d="M218.944,397.967c-0.178-0.163-0.494-0.245-0.706-0.09c-0.104,0.076-0.208,0.152-0.311,0.228
							c-0.182,0.133-0.329,0.315-0.318,0.557c0.008,0.171,0.066,0.332,0.189,0.455c0.117,0.117,0.29,0.188,0.456,0.188
							c0.245,0,0.418-0.131,0.556-0.32l0.226-0.312C219.18,398.473,219.12,398.128,218.944,397.967z"/>
					</g>
					<g>
						<path style="fill:#84CCC0;" d="M219.243,383.392c-0.624,0.001-0.623,0.971,0.002,0.97
							C219.869,384.361,219.869,383.391,219.243,383.392z"/>
					</g>
					<g>
						<path style="fill:#84CCC0;" d="M222.409,376.041c-0.814,0.001-0.813,1.267,0.002,1.265
							C223.226,377.305,223.225,376.04,222.409,376.041z"/>
					</g>
					<g>
						<path style="fill:#84CCC0;" d="M230.549,375.811c-0.122-0.122-0.303-0.196-0.475-0.196c-0.256,0.001-0.435,0.137-0.579,0.334
							c-0.059,0.08-0.104,0.166-0.122,0.265c-0.091,0.494,0.285,0.868,0.778,0.775c0.099-0.019,0.185-0.064,0.265-0.123
							c0.189-0.14,0.343-0.328,0.332-0.581C230.739,376.108,230.678,375.939,230.549,375.811z"/>
					</g>
					<g>
						<path style="fill:#84CCC0;" d="M225.595,380.516c-0.822,0.001-0.822,1.279,0.002,1.278
							C226.42,381.793,226.419,380.515,225.595,380.516z"/>
					</g>
					<g>
						<path style="fill:#84CCC0;" d="M227.753,385.184c-0.826,0.001-0.825,1.284,0.002,1.283
							C228.581,386.466,228.58,385.183,227.753,385.184z"/>
					</g>
					<g>
						<path style="fill:#84CCC0;" d="M233.26,380.467c-0.869,0.001-0.868,1.353,0.002,1.351
							C234.132,381.816,234.131,380.465,233.26,380.467z"/>
					</g>
					<g>
						<path style="fill:#84CCC0;" d="M235.236,388.107c-0.777,0.001-0.776,1.208,0.002,1.207
							C236.015,389.313,236.015,388.106,235.236,388.107z"/>
					</g>
					<g>
						<path style="fill:#84CCC0;" d="M234.027,391.547c-0.804,0.001-0.804,1.252,0.002,1.25
							C234.834,392.795,234.833,391.545,234.027,391.547z"/>
					</g>
					<g>
						<path style="fill:#84CCC0;" d="M241.696,393.77c-0.814,0.001-0.813,1.267,0.002,1.265
							C242.512,395.034,242.512,393.768,241.696,393.77z"/>
					</g>
					<g>
						<path style="fill:#84CCC0;" d="M241.873,387.651c-0.748,0.001-0.747,1.163,0.002,1.162
							C242.622,388.812,242.622,387.65,241.873,387.651z"/>
					</g>
					<g>
						<path style="fill:#84CCC0;" d="M239.152,381.762c-0.634,0.001-0.633,0.986,0.002,0.985
							C239.787,382.746,239.787,381.76,239.152,381.762z"/>
					</g>
					<g>
						<path style="fill:#84CCC0;" d="M231.869,387.1c-0.637,0.001-0.636,0.991,0.002,0.99
							C232.508,388.089,232.508,387.099,231.869,387.1z"/>
					</g>
					<g>
						<path style="fill:#84CCC0;" d="M244.874,393.332c-0.267,0.012-0.511,0.223-0.503,0.505c0.001,0.031,0.002,0.062,0.003,0.094
							c0.008,0.262,0.226,0.513,0.502,0.5c0.278-0.013,0.493-0.221,0.501-0.502c0.001-0.031,0.002-0.062,0.002-0.094
							C245.385,393.571,245.141,393.32,244.874,393.332z"/>
					</g>
					<g>
						<path style="fill:#84CCC0;" d="M247.404,397.264c-0.635,0.001-0.635,0.989,0.002,0.987
							C248.041,398.25,248.041,397.263,247.404,397.264z"/>
					</g>
					<g>
						<path style="fill:#84CCC0;" d="M199.741,404.104c-0.839,0.001-0.838,1.305,0.002,1.303
							C200.582,405.406,200.581,404.103,199.741,404.104z"/>
					</g>
					<g>
						<path style="fill:#84CCC0;" d="M201.398,394.194c-0.239-0.052-0.473-0.037-0.686,0.09c-0.248,0.148-0.352,0.377-0.382,0.655
							c-0.022,0.207,0.133,0.427,0.303,0.526c0.157,0.091,0.312,0.095,0.469,0.052c0.303,0.05,0.611-0.091,0.741-0.401
							C201.992,394.758,201.803,394.282,201.398,394.194z"/>
					</g>
					<g>
						<path style="fill:#84CCC0;" d="M196.835,399.151c-0.843,0.001-0.843,1.312,0.002,1.311
							C197.681,400.461,197.68,399.15,196.835,399.151z"/>
					</g>
					<g>
						<path style="fill:#84CCC0;" d="M192.162,399.923c-0.822,0.001-0.821,1.279,0.002,1.278
							C192.987,401.2,192.986,399.922,192.162,399.923z"/>
					</g>
					<g>
						<path style="fill:#84CCC0;" d="M189.623,391.075c-0.786,0.001-0.786,1.224,0.002,1.222
							C190.412,392.296,190.411,391.074,189.623,391.075z"/>
					</g>
					<g>
						<path style="fill:#84CCC0;" d="M193.276,395.259c-0.808,0.001-0.807,1.257,0.002,1.255
							C194.086,396.513,194.085,395.258,193.276,395.259z"/>
					</g>
					<g>
						<path style="fill:#84CCC0;" d="M196.457,389.257c-0.016,0.015-0.032,0.031-0.048,0.046c-0.222,0.211-0.221,0.607,0.001,0.818
							c0.016,0.015,0.032,0.03,0.048,0.046c0.387,0.366,1.123,0.12,1.096-0.456C197.53,389.154,196.871,388.862,196.457,389.257z"/>
					</g>
					<g>
						<path style="fill:#84CCC0;" d="M202.419,384.661c-0.832,0.001-0.831,1.295,0.002,1.293
							C203.254,385.953,203.253,384.66,202.419,384.661z"/>
					</g>
					<g>
						<path style="fill:#84CCC0;" d="M197.739,381.07c-0.772,0.001-0.771,1.201,0.002,1.2
							C198.513,382.269,198.512,381.069,197.739,381.07z"/>
					</g>
					<g>
						<path style="fill:#84CCC0;" d="M191.95,384.718c-0.661,0.001-0.661,1.029,0.002,1.028
							C192.613,385.745,192.612,384.717,191.95,384.718z"/>
					</g>
					<g>
						<path style="fill:#84CCC0;" d="M186.243,382.095c-0.801,0.001-0.8,1.247,0.002,1.245
							C187.046,383.339,187.046,382.094,186.243,382.095z"/>
					</g>
					<g>
						<path style="fill:#84CCC0;" d="M189.693,376.752c-0.813,0.001-0.812,1.264,0.002,1.263
							C190.507,378.014,190.507,376.751,189.693,376.752z"/>
					</g>
					<g>
						<path style="fill:#84CCC0;" d="M193.53,379.248c-0.84,0.001-0.839,1.307,0.002,1.306
							C194.372,380.553,194.371,379.247,193.53,379.248z"/>
					</g>
					<g>
						<path style="fill:#84CCC0;" d="M199.502,373.357c-0.83,0.001-0.83,1.292,0.002,1.291
							C200.335,374.646,200.334,373.355,199.502,373.357z"/>
					</g>
					<g>
						<path style="fill:#84CCC0;" d="M202.397,371.586c-0.817,0.001-0.817,1.272,0.002,1.27
							C203.217,372.855,203.216,371.584,202.397,371.586z"/>
					</g>
					<g>
						<path style="fill:#84CCC0;" d="M202.222,378.858c-0.721,0.001-0.721,1.123,0.002,1.121
							C202.946,379.978,202.945,378.857,202.222,378.858z"/>
					</g>
					<g>
						<path style="fill:#84CCC0;" d="M193.61,371.323c-0.814,0.001-0.813,1.267,0.002,1.265
							C194.426,372.586,194.425,371.321,193.61,371.323z"/>
					</g>
					<g>
						<path style="fill:#84CCC0;" d="M197.614,362.617c-0.821,0.001-0.82,1.277,0.002,1.276
							C198.437,363.891,198.436,362.616,197.614,362.617z"/>
					</g>
					<g>
						<path style="fill:#84CCC0;" d="M199.393,368.307c-0.032-0.03-0.065-0.06-0.097-0.09c-0.198-0.182-0.535-0.209-0.727,0.001
							c-0.194,0.212-0.195,0.516,0.001,0.727c0.03,0.032,0.06,0.065,0.09,0.097c0.185,0.199,0.55,0.2,0.734-0.001
							C199.578,368.84,199.606,368.503,199.393,368.307z"/>
					</g>
					<g>
						<path style="fill:#84CCC0;" d="M190.978,362.732c-0.808,0.001-0.807,1.257,0.002,1.255
							C191.787,363.986,191.787,362.731,190.978,362.732z"/>
					</g>
					<g>
						<path style="fill:#84CCC0;" d="M187.718,369.913c-0.837,0.001-0.836,1.302,0.002,1.301
							C188.557,371.212,188.556,369.911,187.718,369.913z"/>
					</g>
					<g>
						<path style="fill:#84CCC0;" d="M182.154,365.273c-0.028-0.011-0.056-0.023-0.084-0.034c-0.362-0.146-0.743,0.219-0.742,0.567
							c0.001,0.35,0.384,0.712,0.744,0.565c0.028-0.012,0.056-0.023,0.084-0.034c0.22-0.09,0.416-0.272,0.404-0.533
							C182.548,365.541,182.391,365.368,182.154,365.273z"/>
					</g>
					<g>
						<path style="fill:#84CCC0;" d="M184.92,373.729c-0.624,0.001-0.623,0.971,0.002,0.97
							C185.546,374.697,185.545,373.728,184.92,373.729z"/>
					</g>
					<g>
						<path style="fill:#84CCC0;" d="M185.928,361.855c-0.624,0.001-0.623,0.971,0.002,0.97
							C186.554,362.824,186.553,361.854,185.928,361.855z"/>
					</g>
					<g>
						<path style="fill:#84CCC0;" d="M191.381,354.972c-0.098-0.232-0.342-0.417-0.604-0.405c-0.586,0.027-0.849,0.694-0.465,1.128
							l0.044,0.05c0.205,0.232,0.643,0.23,0.846-0.001l0.044-0.05C191.424,355.49,191.489,355.226,191.381,354.972z"/>
					</g>
					<g>
						<path style="fill:#84CCC0;" d="M194.261,357.499c-0.035-0.069-0.089-0.137-0.144-0.191c-0.239-0.236-0.636-0.236-0.875,0.001
							c-0.055,0.055-0.109,0.122-0.143,0.191c-0.224,0.448,0.048,1.013,0.583,1.012
							C194.216,358.512,194.487,357.946,194.261,357.499z"/>
					</g>
					<g>
						<path style="fill:#84CCC0;" d="M198.716,356.812c-0.092-0.216-0.245-0.322-0.457-0.407c-0.168-0.067-0.365-0.046-0.537-0.002
							c-0.184,0.047-0.324,0.184-0.396,0.355c-0.082,0.195-0.048,0.356,0.032,0.544c0.072,0.168,0.204,0.299,0.36,0.393
							c0.363,0.219,0.839,0.041,0.999-0.339C198.793,357.173,198.793,356.993,198.716,356.812z"/>
					</g>
					<g>
						<path style="fill:#84CCC0;" d="M195.621,346.307c-0.266,0.012-0.538,0.182-0.641,0.43c-0.128,0.139-0.186,0.351-0.162,0.525
							c0.037,0.27,0.213,0.425,0.454,0.525c0.216,0.09,0.468,0.025,0.656-0.095c0.255-0.162,0.349-0.413,0.38-0.701
							C196.347,346.634,195.963,346.292,195.621,346.307z"/>
					</g>
					<g>
						<path style="fill:#84CCC0;" d="M182.183,357.203c-0.13-0.119-0.29-0.194-0.47-0.194c-0.17,0-0.349,0.075-0.469,0.195
							c-0.18,0.18-0.211,0.406-0.17,0.647c0.003,0.015,0.005,0.03,0.008,0.045c0.047,0.27,0.368,0.493,0.634,0.481
							c0.269-0.013,0.583-0.194,0.632-0.483c0.003-0.015,0.005-0.03,0.008-0.045C182.395,357.616,182.369,357.372,182.183,357.203z"
							/>
					</g>
					<g>
						<path style="fill:#84CCC0;" d="M186.684,356.825c-0.107-0.329-0.494-0.626-0.857-0.484c-0.19,0.074-0.408,0.154-0.541,0.319
							c-0.146,0.18-0.226,0.38-0.161,0.615c0.058,0.209,0.23,0.387,0.442,0.44c0.211,0.053,0.426,0.026,0.633-0.032
							C186.55,357.584,186.801,357.184,186.684,356.825z"/>
					</g>
					<g>
						<path style="fill:#84CCC0;" d="M185.461,348.632c-0.059-0.092-0.123-0.179-0.195-0.262c-0.183-0.212-0.57-0.252-0.802-0.102
							c-0.255,0.165-0.37,0.451-0.303,0.748c0.012,0.052,0.029,0.097,0.048,0.146c0.144,0.383,0.523,0.614,0.926,0.443
							C185.495,349.452,185.687,348.981,185.461,348.632z"/>
					</g>
					<g>
						<path style="fill:#84CCC0;" d="M188.99,348.506c-0.834,0.001-0.833,1.297,0.002,1.296
							C189.826,349.801,189.825,348.505,188.99,348.506z"/>
					</g>
					<g>
						<path style="fill:#84CCC0;" d="M189.44,338.036c-0.834,0.001-0.833,1.297,0.002,1.296
							C190.276,339.33,190.275,338.034,189.44,338.036z"/>
					</g>
					<g>
						<path style="fill:#84CCC0;" d="M191.878,342.495c-0.624,0.001-0.623,0.971,0.002,0.97
							C192.504,343.463,192.503,342.494,191.878,342.495z"/>
					</g>
					<g>
						<path style="fill:#84CCC0;" d="M196.991,336.626c-0.046-0.144-0.109-0.236-0.201-0.354c-0.188-0.241-0.685-0.239-0.871,0.001
							c-0.091,0.118-0.154,0.21-0.199,0.354c-0.129,0.412,0.222,0.834,0.637,0.833C196.772,337.461,197.121,337.037,196.991,336.626
							z"/>
					</g>
					<g>
						<path style="fill:#84CCC0;" d="M195.829,331.376c-0.028-0.115-0.074-0.223-0.144-0.318c-0.304-0.408-0.806-0.408-1.108,0.002
							c-0.07,0.095-0.116,0.203-0.143,0.319c-0.108,0.456,0.219,0.916,0.699,0.915C195.61,332.292,195.938,331.831,195.829,331.376z
							"/>
					</g>
					<g>
						<path style="fill:#84CCC0;" d="M201.222,332.2c-0.146-0.141-0.314-0.24-0.513-0.283c-0.464-0.101-0.842,0.284-0.743,0.745
							c0.043,0.199,0.143,0.367,0.284,0.513c0.25,0.26,0.726,0.269,0.973-0.002C201.472,332.901,201.499,332.467,201.222,332.2z"/>
					</g>
					<g>
						<path style="fill:#84CCC0;" d="M203.811,323.129c-0.858,0.001-0.857,1.335,0.002,1.333
							C204.671,324.461,204.67,323.128,203.811,323.129z"/>
					</g>
					<g>
						<path style="fill:#84CCC0;" d="M200.536,321.289c-0.827,0.001-0.826,1.287,0.002,1.286
							C201.365,322.573,201.364,321.288,200.536,321.289z"/>
					</g>
					<g>
						<path style="fill:#84CCC0;" d="M198.582,327.15c-0.868,0.002-0.867,1.35,0.002,1.349
							C199.453,328.497,199.452,327.149,198.582,327.15z"/>
					</g>
					<g>
						<path style="fill:#84CCC0;" d="M195.886,352.306c-0.206-0.188-0.577-0.232-0.777,0.001c-0.029,0.034-0.057,0.067-0.086,0.101
							c-0.183,0.214-0.225,0.556,0.001,0.763c0.229,0.21,0.534,0.196,0.763-0.001c0.034-0.029,0.067-0.058,0.101-0.086
							C196.106,352.895,196.093,352.496,195.886,352.306z"/>
					</g>
				</g>
			</g>
			<g>
				<path style="fill:#DB4471;" d="M175.462,420.204c-0.004,0.114-0.013,0.228-0.012,0.343c0.014,8.29,10.147,14.992,22.632,14.971
					c12.486-0.021,22.596-6.758,22.581-15.048c0-0.115-0.01-0.229-0.014-0.343L175.462,420.204z"/>
			</g>
		</g>
		<g>
			<g>
				<path style="fill:#0D0029;" d="M306.609,334.032c-6.284,0-11.397-5.113-11.397-11.397s5.113-11.397,11.397-11.397
					c6.284,0,11.397,5.113,11.397,11.397S312.893,334.032,306.609,334.032z M306.609,314.779c-4.332,0-7.856,3.524-7.856,7.856
					c0,4.332,3.524,7.856,7.856,7.856c4.332,0,7.856-3.524,7.856-7.856C314.465,318.302,310.941,314.779,306.609,314.779z"/>
			</g>
			<g>
				<path style="fill:#DB4471;" d="M309.137,338.825h-5.057c-0.779,0-1.41-0.631-1.41-1.41v-6.807c0-0.779,0.631-1.41,1.41-1.41
					h5.057c0.779,0,1.41,0.631,1.41,1.41v6.807C310.547,338.194,309.916,338.825,309.137,338.825z"/>
			</g>
			<g>
				<path style="fill:#0D0029;" d="M310.974,351.077h-8.73c-1.214,0-2.199-0.984-2.199-2.199v-13.981
					c0-1.214,0.984-2.199,2.199-2.199h8.73c1.214,0,2.199,0.984,2.199,2.199v13.981
					C313.172,350.093,312.188,351.077,310.974,351.077z"/>
			</g>
			<g>
				<ellipse style="fill:#DB4471;" cx="307.786" cy="382.382" rx="44.956" ry="45.343"/>
			</g>
			<g>
				<ellipse style="fill:#FFFFFF;" cx="307.786" cy="382.382" rx="40.503" ry="40.852"/>
			</g>
			<g>
				<defs>
					<ellipse id="SVGID_00000117658312787555968050000015564381168440675250_" cx="307.786" cy="382.382" rx="40.503" ry="40.852"/>
				</defs>
				<clipPath id="SVGID_00000029017387393493146940000001620919431990214554_">
					<use xlink:href="#SVGID_00000117658312787555968050000015564381168440675250_"  style="overflow:visible;"/>
				</clipPath>
				<g style="clip-path:url(#SVGID_00000029017387393493146940000001620919431990214554_);">
					<g>
						<g>
							<path style="fill:#0D0029;" d="M307.786,422.438c-0.484,0-0.875-0.391-0.875-0.875v-78.362c0-0.484,0.392-0.875,0.875-0.875
								s0.875,0.391,0.875,0.875v78.362C308.662,422.046,308.27,422.438,307.786,422.438z"/>
						</g>
					</g>
					<g>
						<g>
							<path style="fill:#0D0029;" d="M327.377,417.189c-0.303,0-0.597-0.156-0.759-0.438l-39.181-67.863
								c-0.242-0.419-0.098-0.954,0.32-1.196c0.416-0.242,0.953-0.099,1.196,0.32l39.181,67.863c0.242,0.419,0.098,0.954-0.32,1.196
								C327.676,417.151,327.526,417.189,327.377,417.189z"/>
						</g>
					</g>
					<g>
						<g>
							<path style="fill:#0D0029;" d="M341.717,402.848c-0.149,0-0.299-0.038-0.437-0.117l-67.863-39.181
								c-0.419-0.242-0.562-0.777-0.321-1.196c0.242-0.419,0.778-0.563,1.196-0.32l67.863,39.181
								c0.419,0.242,0.562,0.777,0.32,1.196C342.314,402.69,342.02,402.848,341.717,402.848z"/>
						</g>
					</g>
					<g>
						<g>
							<path style="fill:#0D0029;" d="M346.967,383.257h-78.363c-0.484,0-0.875-0.391-0.875-0.875c0-0.484,0.392-0.875,0.875-0.875
								h78.363c0.484,0,0.875,0.391,0.875,0.875C347.843,382.865,347.451,383.257,346.967,383.257z"/>
						</g>
					</g>
					<g>
						<g>
							<path style="fill:#0D0029;" d="M273.856,402.848c-0.302,0-0.596-0.156-0.759-0.438c-0.242-0.419-0.098-0.954,0.321-1.196
								l67.863-39.181c0.417-0.243,0.953-0.099,1.196,0.32c0.242,0.419,0.098,0.954-0.32,1.196l-67.863,39.181
								C274.155,402.81,274.004,402.848,273.856,402.848z"/>
						</g>
					</g>
					<g>
						<g>
							<path style="fill:#0D0029;" d="M288.195,417.189c-0.149,0-0.299-0.038-0.437-0.117c-0.419-0.242-0.562-0.777-0.32-1.196
								l39.181-67.863c0.242-0.419,0.777-0.562,1.196-0.32c0.419,0.242,0.562,0.777,0.32,1.196l-39.181,67.863
								C288.791,417.031,288.497,417.189,288.195,417.189z"/>
						</g>
					</g>
				</g>
			</g>
			<g>
				<ellipse style="fill:#FFFFFF;" cx="307.786" cy="382.382" rx="34.544" ry="34.841"/>
			</g>
			<g style="opacity:0.69;">
				<ellipse style="fill:#A094EB;" cx="307.786" cy="382.382" rx="9.345" ry="9.426"/>
			</g>
			<g>
				<ellipse style="fill:#0D0029;" cx="307.786" cy="382.382" rx="6.742" ry="6.8"/>
			</g>
			<g>
				<path style="fill:#DB4471;" d="M309.295,383.251l-29.922-2.409c-0.731-0.059-1.276-0.699-1.217-1.43
					c0.06-0.732,0.711-1.271,1.43-1.217l26.692,2.149l-4.05-34.363c-0.086-0.729,0.435-1.388,1.163-1.474
					c0.729-0.098,1.388,0.435,1.474,1.163L309.295,383.251z"/>
			</g>
		</g>
		<g>
			<g>
				
					<ellipse transform="matrix(0.6897 -0.7241 0.7241 0.6897 -21.1399 147.8232)" style="fill:#DB4471;" cx="161.91" cy="98.578" rx="29.981" ry="29.725"/>
			</g>
			<g>
				
					<ellipse transform="matrix(0.6897 -0.7241 0.7241 0.6897 -21.1363 147.8365)" style="fill:#FFFFFF;" cx="161.91" cy="98.578" rx="27.403" ry="27.169"/>
			</g>
			<g>
				
					<ellipse transform="matrix(0.6899 -0.7239 0.7239 0.6899 -21.1495 147.7875)" style="fill:#A094EB;" cx="161.91" cy="98.578" rx="20.066" ry="19.895"/>
			</g>
			<g>
				<g>
					<path style="fill:#0D0029;" d="M162.547,102.643l-9.754-17.117c-0.357-0.626-0.138-1.422,0.487-1.779
						c0.626-0.358,1.422-0.138,1.779,0.487l6.319,11.088l4.465-21.9c0.144-0.705,0.834-1.158,1.538-1.017
						c0.706,0.144,1.161,0.832,1.017,1.538L162.547,102.643z"/>
				</g>
			</g>
			<g>
				<path style="fill:#0D0029;" d="M164.623,101.162c-1.439,1.511-3.821,1.579-5.319,0.152c-1.498-1.427-1.546-3.809-0.107-5.32
					s3.821-1.579,5.319-0.152C166.015,97.268,166.063,99.65,164.623,101.162z"/>
			</g>
		</g>
		<g>
			<g>
				<path style="fill:#FF866C;" d="M291.839,248.372c0.018,0.258,0.078,0.506,0.213,0.726c0.206,0.337,0.554,0.557,0.89,0.765
					c1.441,0.89,2.508,0.952,4.153,1.29c1.36,0.271,2.312,0.473,3.487,1.215c1.033,0.652,2.476,1.573,3.764,1.267
					c1.229-0.292,1.858-1.802,1.561-3.03c-0.249-1.028-1.009-2.393-2.037-2.691c-0.55-0.16-1.075-0.408-1.548-0.732
					c-0.157-0.108-0.311-0.227-0.419-0.384c-0.213-0.312-0.211-0.716-0.246-1.092c-0.076-0.821-0.372-1.62-0.847-2.294
					c-0.771-1.09-0.024-2.817,0.42-3.952c0.04-0.102,0.082-0.211,0.057-0.318c-0.054-0.234-0.37-0.284-0.603-0.227
					c-0.514,0.126-0.922,0.511-1.27,0.911c-0.559,0.644-1.108,2.319-1.882,2.594c-0.621,0.221-1.223-0.555-1.922-0.58
					c-0.788-0.029-1.601,0.283-2.134,0.871c-0.475,0.524-0.727,1.209-0.931,1.886c-0.287,0.948-0.504,1.916-0.65,2.896
					C291.853,247.779,291.819,248.081,291.839,248.372z"/>
			</g>
			<g>
				<path style="fill:#0D0029;" d="M389.57,216.166c0.433,2.361,0.395,4.807-0.111,7.153c-0.79,3.664-2.31-0.953-2.829-2.138
					c-1.85-4.23-2.976-4.582-7.536-4.355c-0.322,0.016-0.664,0.012-0.942-0.151c-0.558-0.326-0.602-1.174-0.247-1.714
					c0.355-0.54,0.977-0.835,1.58-1.066C382.277,212.83,388.772,211.815,389.57,216.166z"/>
			</g>
			<g>
				<path style="fill:#DB4471;" d="M366.652,429.758c1.398-0.183,2.841-0.642,3.4-2.104c0.488-1.275-0.341-2.719-0.756-3.914
					c-0.65-1.874-0.858-3.899-0.603-5.866c-2.694,0.361-5.372,0.731-8.052,1.106c0.195-0.027-0.418,3.819-0.569,4.17
					c-0.536,1.243-0.972,1.605-2.241,2.301c-2.524,1.384-5.46,2.013-7.632,4.003c-0.419,0.384-0.826,0.961-0.585,1.477
					c0.856,1.823,5.406,0.854,6.857,0.659c1.784-0.24,3.483-0.843,5.22-1.289c1.629-0.418,3.151-0.331,4.804-0.524
					C366.548,429.771,366.6,429.765,366.652,429.758z"/>
			</g>
			<g>
				<path style="fill:#DB4471;" d="M441.718,412.285c0.541-0.77,1.163-1.506,1.93-2.173c0.72-0.626,1.54-1.232,1.857-2.132
					c0.571-1.624-5.693-7.155-5.806-7.025c-1.802,2.075-3.883,3.907-6.168,5.433c0.648-0.433,2.173,3.241,2.204,3.75
					c0.146,2.385-0.963,5.078-2.025,7.151c-0.822,1.604-1.903,5.493,1.273,3.697C438.692,418.89,439.587,415.317,441.718,412.285z"
					/>
			</g>
			<g>
				<path style="fill:#0D0029;" d="M384.906,358.298c0.637,2.621,1.288,5.27,2.523,7.669c1.15,2.232,2.774,4.183,4.473,6.031
					c4.427,4.817,9.438,9.056,14.433,13.281c9.36,7.917,18.72,15.833,28.079,23.75c2.539-2.348,5.077-4.697,7.615-7.045
					c-7.975-15.4-16.223-31.159-29.122-42.752c-0.876-0.788-1.799-1.59-2.276-2.668c-1.7-3.846-1.249-8.263-1.53-12.34
					c-0.35-5.064-1.365-10.163-2.078-15.195c-0.109-0.768-0.217-1.556-0.044-2.312c0.211-0.921,0.816-1.694,1.256-2.53
					c1.59-3.021,0.968-6.704,0.013-9.982c-1.77-6.077-5.102-10.862-7.752-16.469c-2.045-4.328-3.008-8.039-7.844-10.268
					c-7.671-3.536-16.446,1.386-18.391,9.372c-2.315,9.503,1.419,20.699,3.371,30.009
					C379.841,337.382,382.365,347.843,384.906,358.298z"/>
			</g>
			<g>
				<path style="fill:#282480;" d="M359.758,421.55c0.383,0.067,0.797,0.024,1.188-0.024c3.025-0.366,6.161-0.559,9.117-1.213
					c0.828-7.148,2.655-13.917,2.909-21.292c0.126-4.117-0.273-8.195-0.245-12.278c0.029-4.211-0.251-8.454-1.336-12.538
					c-0.56-2.108-1.335-4.179-1.531-6.351c-0.491-5.434,3.043-12.96,4.167-18.343c1.518-7.273,5.117-14.288,9.781-20.032
					c7.923-9.758,20.316-20.686,13.643-34.699c-4.651-9.767-15.715-8.394-24.08-5.196c-9.938,3.799-15.685,17.015-19.836,26.27
					c-3.59,8.005-6.195,16.435-8.013,25.018c-0.996,4.7-1.76,9.483-1.642,14.286c0.116,4.71,1.076,9.355,2.066,13.961
					c3.641,16.937,7.734,33.777,12.272,50.496c0.18,0.662,0.406,1.387,0.995,1.739C359.383,421.456,359.566,421.516,359.758,421.55z
					"/>
			</g>
			<g>
				<path style="fill:#DB4471;" d="M385.588,297.1c2.691,0.079,5.382,0.141,8.072,0.273c2.197,0.108,6.129-0.294,7.981,1.007
					c0.056-11.866,1.055-23.73,1.235-35.603c0.093-6.111,0.744-12.252-2.346-17.788c-4.944-8.861-16.17-12.97-25.889-11.251
					c-11.647,2.059-14.502,20.431-15.034,29.725c-0.653,11.421-0.682,22.884,0.149,34.293
					C359.7,296.987,383.66,297.044,385.588,297.1z"/>
			</g>
			<g>
				<path style="fill:#FFFFFF;" d="M371.379,260.53c0.035,2.875,0.162,5.832,1.329,8.459c5.516-8.999,11.031-17.999,16.547-26.998
					c4.402-7.182-8.628-6.473-12.21-3.664C371.176,242.93,371.297,253.951,371.379,260.53z"/>
			</g>
			<g>
				<path style="fill:#FF866C;" d="M377.41,221.672c0.021-0.219,0.047-0.438,0.076-0.654c0.182-1.323,0.501-2.649,1.166-3.807
					c1.118-1.949,3.658-3.239,5.923-2.927c4.638,0.637,4.055,6.25,4.174,9.579c0.126,3.537,0.397,7.068,0.811,10.582
					c0.143,1.212,0.961,3.485,0.649,4.637c-0.216,0.796-1.444,1.243-2.131,1.544c-2.135,0.933-9.157,3.277-10.877,0.582
					c-1.168-1.83,1.032-3.973,1.718-5.617c0.846-2.026,1.343-4.198,1.452-6.392c0.011-0.223,0.015-0.46-0.096-0.654
					c-0.138-0.241-0.746-0.492-0.98-0.677c-0.602-0.476-0.929-1.21-1.234-1.915C377.472,224.591,377.271,223.15,377.41,221.672z"/>
			</g>
			<g>
				<g>
					
						<rect x="341.871" y="331.688" transform="matrix(0.1752 -0.9845 0.9845 0.1752 26.0674 704.0321)" style="fill:#A094EB;" width="182.735" height="9.539"/>
				</g>
				<g>
					<g>
						<path style="fill:#DB4471;" d="M416.277,430.956l0.19,0.034c2.511,0.447,4.909-1.227,5.356-3.738l0,0
							c0.447-2.511-1.227-4.909-3.738-5.357l-0.19-0.034c-2.511-0.447-4.91,1.227-5.357,3.738l0,0
							C412.092,428.111,413.765,430.509,416.277,430.956z"/>
					</g>
					<g style="opacity:0.46;">
						
							<rect x="343.145" y="332.899" transform="matrix(0.1758 -0.9844 0.9844 0.1758 26.877 698.7834)" style="fill:#051433;" width="175.183" height="0.885"/>
					</g>
					<g style="opacity:0.46;">
						
							<rect x="345.788" y="333.186" transform="matrix(0.1758 -0.9844 0.9844 0.1758 28.7729 701.6232)" style="fill:#051433;" width="175.183" height="0.885"/>
					</g>
					<g style="opacity:0.46;">
						
							<rect x="348.43" y="333.475" transform="matrix(0.1758 -0.9844 0.9844 0.1758 30.667 704.4615)" style="fill:#051433;" width="175.183" height="0.885"/>
					</g>
					<g>
						<path style="fill:#FF866C;" d="M451.837,231.692c-0.082,0.157,0.1,0.731,0.123,0.898c0.162,0.437,0.143,1.042,0.207,1.506
							c0.073,0.531,0.146,1.063,0.219,1.594c0.15,1.092,0.3,2.185,0.45,3.277c0.292,2.123,0.583,4.247,0.875,6.37
							c0.142,1.035,0.626,2.444-0.106,3.316c-0.088,0.105-0.176,0.21-0.264,0.314c-0.098,0.117-0.203,0.239-0.346,0.294
							c-0.301,0.116-0.636-0.119-0.787-0.404c-0.152-0.285-0.188-0.618-0.312-0.916c-0.052-0.125-0.122-0.247-0.23-0.329
							c-0.158-0.121-0.39-0.134-0.561-0.033c-0.366,0.217-0.266,0.755-0.716,0.954c-0.346,0.152-0.793,0.029-1.065-0.214
							c-0.369-0.33-0.526-0.832-0.635-1.314c-0.234,0.444-0.591,0.824-1.02,1.085c-0.209,0.127-0.451,0.229-0.693,0.191
							c-0.264-0.041-0.479-0.247-0.6-0.485c-0.108-0.213-0.081-0.814-0.228-0.952c-0.222-0.209-0.617,0.273-0.803,0.35
							c-0.183,0.077-0.411,0.079-0.566-0.045c-0.078-0.063-0.131-0.151-0.172-0.242c-0.284-0.623-0.026-1.317,0.257-1.889
							c1.105-2.226,2.372-4.377,3.512-6.587C449.534,236.187,450.668,233.93,451.837,231.692z"/>
					</g>
					<g>
						<path style="fill:#1C0029;" d="M450.952,232.812c0.154-0.791,0.322-1.58,0.515-2.363c0.197-0.801,1.443-0.73,1.321,0.144
							c-0.111,0.799-0.312,1.582-0.515,2.364c-0.106,0.542-0.208,1.084-0.296,1.63c-0.027,0.166-0.108,0.284-0.207,0.376
							c-0.288,0.651-1.411,0.49-1.26-0.293C450.63,234.045,450.792,233.428,450.952,232.812z"/>
					</g>
					<g>
						<path style="fill:#0D0029;" d="M414.037,425.844l6.287,1.119c0.996,0.177,1.947-0.486,2.124-1.482l0.977-5.488
							c0.177-0.996-0.486-1.947-1.482-2.124l-6.287-1.119c-0.996-0.177-1.947,0.487-2.124,1.482l-0.977,5.488
							C412.377,424.715,413.041,425.666,414.037,425.844z"/>
					</g>
				</g>
			</g>
			<g>
				<path style="fill:#DB4471;" d="M300.67,255.143c10.011,6.659,20.24,13.263,31.713,16.805
					c10.741,3.315,20.279-3.498,29.162-8.884c0.904-0.548,1.818-1.116,2.509-1.916c0.789-0.913,1.233-2.066,1.663-3.194
					c1.388-3.644,2.776-7.287,4.164-10.931c0.73-1.918,1.447-3.841,2.191-5.753c0.308-0.79,1.929-3.155,1.918-3.852
					c-0.063-4.012-6.583-1.204-8.754-0.23c-8.471,3.8-16.363,8.891-23.317,15.042c-0.597,0.528-1.233,1.087-2.019,1.22
					c-0.587,0.099-1.183-0.054-1.759-0.205c-11.494-3.029-23.008-5.449-34.302-9.005c-0.283,0.86-4.614,9.942-4.538,9.992
					C299.757,254.535,300.213,254.839,300.67,255.143z"/>
			</g>
			<g>
				<path style="fill:#FF866C;" d="M442.627,320.768c-0.622-2.168-2.629-3.452-3.908-5.144c-1.407-1.862-2.259-4.207-2.766-6.479
					c-0.332-1.485-0.508-3.031-1.188-4.392c-1.077-2.153-6.214-4.098-5.674-0.143c0.285,2.085,1.145,4.041,1.713,6.067
					c1.38,4.927-0.44,9.533,5,11.893C437.828,323.45,443.848,325.03,442.627,320.768z"/>
			</g>
			<g>
				<path style="fill:#DB4471;" d="M434.836,274.82c-0.274-1.59-0.561-3.177-0.861-4.762c-0.172-0.908-0.353-1.83-0.773-2.653
					c-0.448-0.88-1.145-1.603-1.838-2.306c-5.233-5.313-10.798-10.297-16.653-14.915c-4.696-3.704-10.496-8.016-15.929-10.553
					c-2.606-1.217-4.57-2.096-6.581,0.385c-1.858,2.292-2.451,5.959-2.063,8.796c0.421,3.072,1.803,5.927,3.346,8.617
					c6.323,11.021,15.737,20.247,26.882,26.347c1.437,10.09,3.701,20.063,6.762,29.784c3.936-0.87,7.818-1.982,11.617-3.329
					C438.161,298.364,436.854,286.531,434.836,274.82z"/>
			</g>
			<g>
				<path style="fill:#FFFFFF;" d="M380.19,223.391c-0.432,0.164-0.542,0.756-0.375,1.186c0.373,0.966,1.699,1.274,2.641,0.844
					c0.942-0.431,1.542-1.375,1.942-2.331"/>
			</g>
			<g>
				<path style="fill:#0D0029;" d="M387.968,220.869c-0.423-0.053-0.821-0.347-1.058-0.715c-0.305-0.473-0.404-1.047-0.497-1.602
					c-0.153-0.922,0.091-2.031-1.075-2.324c-0.71-0.178-1.456-0.022-2.177,0.108c-1.409,0.254-2.836,0.405-4.267,0.452
					c-0.312,0.01-0.719-0.056-0.774-0.364c-0.052-0.289,0.343-0.596,0.511-0.797c0.227-0.271,0.479-0.49,0.785-0.669
					c0.638-0.373,1.377-0.555,2.095-0.702c2.674-0.547,6.527-1.828,7.605,1.536c0.354,1.104,0.35,2.219,0.288,3.369
					c-0.039,0.716-0.372,1.53-1.071,1.691C388.212,220.88,388.089,220.884,387.968,220.869z"/>
			</g>
			<g>
				<path style="fill:#FF866C;" d="M385.966,221.301c-0.139-0.704,0.516-2.21,1.344-2.288c0.833-0.078,1.827,1.304,1.851,2.019
					c0.027,0.799-0.662,1.546-1.459,1.607C386.906,222.7,386.121,222.085,385.966,221.301z"/>
			</g>
			<g>
				<path style="fill:#0D0029;" d="M387.249,220.609c0.097-0.277,0.566-0.194,0.675,0.079c0.109,0.273-0.027,0.58-0.184,0.828"/>
			</g>
			<g>
				<path style="fill:#0D0029;" d="M380.199,231.318c1.051-1.122,2.066-2.277,3.038-3.468c-0.882,0.498-1.892,0.996-2.862,0.844
					C380.377,229.579,380.364,230.459,380.199,231.318z"/>
			</g>
		</g>
	</g>
</g>
<g id="DESIGNED_BY_FREEPIK">
	<g id="XMLID_302_">
		<g id="XMLID_328_">
			<g id="XMLID_351_">
				<path id="XMLID_376_" style="fill:#112129;" d="M260.104,468.492c-0.432,0.443-0.803,0.931-1.108,1.453l-0.465-0.241
					c-0.067-0.298-0.349-0.503-0.659-0.466c-0.331,0.039-0.568,0.339-0.529,0.67c0.039,0.331,0.339,0.568,0.67,0.529
					c0.065-0.008,0.127-0.026,0.184-0.052l0.451,0.234c-0.251,0.554-0.433,1.139-0.539,1.744l0.746,0.132
					c0.23-1.306,0.85-2.507,1.792-3.473L260.104,468.492z"/>
				<path id="XMLID_375_" style="fill:#112129;" d="M265.592,466.19c-0.171,0-0.341,0.006-0.51,0.017l-0.074-0.626
					c0.188-0.149,0.296-0.389,0.266-0.645c-0.046-0.393-0.402-0.674-0.795-0.628c-0.393,0.046-0.674,0.402-0.628,0.795
					c0.03,0.254,0.189,0.461,0.405,0.564l0.073,0.624c-0.714,0.116-1.403,0.332-2.06,0.646l0.327,0.684
					c0.934-0.447,1.942-0.673,2.995-0.673c0.496,0,0.993,0.053,1.475,0.158l0.16-0.741
					C266.692,466.249,266.142,466.19,265.592,466.19z"/>
				<path id="XMLID_374_" style="fill:#112129;" d="M272.194,468.737c0.331-0.04,0.566-0.342,0.526-0.672
					c-0.04-0.331-0.341-0.566-0.672-0.526c-0.309,0.038-0.535,0.304-0.53,0.609l-0.416,0.363c-0.418-0.43-0.89-0.813-1.408-1.139
					l-0.404,0.641c1.134,0.715,2.021,1.726,2.563,2.925l0.69-0.313c-0.251-0.554-0.567-1.072-0.942-1.545l0.402-0.351
					C272.065,468.742,272.129,468.745,272.194,468.737z"/>
				<path id="XMLID_373_" style="fill:#112129;" d="M265.044,476.398c-0.386,0.023-0.775,0.035-1.157,0.035
					c-0.88,0-1.733-0.061-2.478-0.179c-0.39-0.062-0.846-0.155-1.27-0.292c1.047,1.861,3.07,3.125,5.388,3.125
					c2.855,0,5.262-1.916,5.949-4.504c-0.682,0.449-1.505,0.825-2.458,1.123C267.839,476.073,266.463,476.313,265.044,476.398z"/>
				<path id="XMLID_352_" style="fill:#112129;" d="M265.592,467.706c-3.352,0-6.08,2.666-6.08,5.943
					c0,0.426,0.046,0.849,0.137,1.261c0.674,0.483,2.706,0.89,5.348,0.731c2.879-0.173,5.297-0.957,6.672-2.159
					c-0.005-0.195-0.021-0.39-0.045-0.582C271.244,469.939,268.65,467.706,265.592,467.706z M263.432,474.221
					c-1.02,0-1.85-0.83-1.85-1.85c0-1.02,0.83-1.85,1.85-1.85c1.02,0,1.85,0.83,1.85,1.85
					C265.282,473.391,264.452,474.221,263.432,474.221z M268.17,473.312c-0.75,0-1.36-0.61-1.36-1.36c0-0.75,0.61-1.361,1.36-1.361
					s1.36,0.61,1.36,1.361C269.53,472.702,268.92,473.312,268.17,473.312z"/>
			</g>
			<path id="XMLID_349_" style="fill:#112129;" d="M281.595,469.573c-0.295-0.116-0.805-0.309-1.382-0.237
				c-0.551,0.069-0.844,0.341-0.844,1.007v0.866h2.228v1.717h-2.228v5.455h-1.932v-5.455h-1.34v-1.717h1.34v-0.888
				c0-1.68,0.896-2.783,2.568-2.783c0.643,0,1.157,0.122,1.59,0.308L281.595,469.573z"/>
			<path id="XMLID_347_" style="fill:#112129;" d="M286.298,472.905c-0.177-0.03-0.358-0.046-0.526-0.046
				c-0.896,0-1.51,0.548-1.51,1.613v3.908h-1.932v-7.172h1.873v0.785c0.451-0.673,1.14-0.977,2.021-0.977
				c0.414,0,0.848,0.128,1.094,0.337L286.298,472.905z"/>
			<path id="XMLID_344_" style="fill:#112129;" d="M293.965,474.783c0,0.222-0.015,0.489-0.037,0.651h-5.085
				c0.207,1.036,0.933,1.488,1.843,1.488c0.622,0,1.295-0.252,1.813-0.688l1.133,1.243c-0.814,0.748-1.85,1.088-3.057,1.088
				c-2.198,0-3.723-1.495-3.723-3.753c0-2.258,1.48-3.797,3.626-3.797C292.544,471.016,293.958,472.548,293.965,474.783z
				 M288.851,474.117h3.175c-0.178-0.918-0.733-1.436-1.562-1.436C289.554,472.681,289.021,473.229,288.851,474.117z"/>
			<path id="XMLID_341_" style="fill:#112129;" d="M301.618,474.783c0,0.222-0.015,0.489-0.037,0.651h-5.085
				c0.207,1.036,0.933,1.488,1.843,1.488c0.622,0,1.295-0.252,1.813-0.688l1.132,1.243c-0.814,0.748-1.85,1.088-3.057,1.088
				c-2.198,0-3.723-1.495-3.723-3.753c0-2.258,1.48-3.797,3.627-3.797C300.197,471.016,301.611,472.548,301.618,474.783z
				 M296.504,474.117h3.175c-0.178-0.918-0.733-1.436-1.562-1.436C297.207,472.681,296.674,473.229,296.504,474.117z"/>
			<path id="XMLID_335_" style="fill:#112129;" d="M309.964,474.791c0,2.154-1.495,3.775-3.471,3.775
				c-0.962,0-1.643-0.378-2.109-0.933v3.708h-1.924v-10.133h1.887V472c0.466-0.585,1.155-0.984,2.139-0.984
				C308.469,471.016,309.964,472.637,309.964,474.791z M304.287,474.791c0,1.132,0.748,1.976,1.843,1.976
				c1.14,0,1.85-0.881,1.85-1.976c0-1.095-0.71-1.976-1.85-1.976C305.035,472.814,304.287,473.658,304.287,474.791z"/>
			<path id="XMLID_331_" style="fill:#112129;" d="M313.068,468.862c0,0.696-0.54,1.229-1.236,1.229
				c-0.696,0-1.229-0.533-1.229-1.229c0-0.696,0.533-1.243,1.229-1.243C312.527,467.619,313.068,468.166,313.068,468.862z
				 M312.809,478.38h-1.932v-7.172h1.932V478.38z"/>
			<path id="XMLID_329_" style="fill:#112129;" d="M316.032,473.762l2.701-2.554h2.368l-3.479,3.375l3.501,3.797h-2.376
				l-2.716-2.901v2.901H314.1v-10.658h1.932V473.762z"/>
		</g>
		<g id="XMLID_410_">
			<path id="XMLID_435_" style="fill:#112129;" d="M184.412,478.315v-1.055c-0.527,0.718-1.391,1.23-2.387,1.23
				c-1.846,0-3.149-1.406-3.149-3.706c0-2.256,1.289-3.721,3.149-3.721c0.952,0,1.816,0.469,2.387,1.245v-3.765h1.099v9.77H184.412z
				 M184.412,476.396v-3.208c-0.395-0.615-1.245-1.143-2.124-1.143c-1.421,0-2.27,1.172-2.27,2.739c0,1.567,0.85,2.724,2.27,2.724
				C183.168,477.51,184.017,477.012,184.412,476.396z"/>
			<path id="XMLID_432_" style="fill:#112129;" d="M186.932,474.771c0-2.051,1.465-3.706,3.486-3.706
				c2.139,0,3.398,1.67,3.398,3.794v0.279h-5.727c0.088,1.333,1.025,2.446,2.549,2.446c0.805,0,1.626-0.322,2.182-0.893l0.527,0.718
				c-0.703,0.703-1.655,1.084-2.812,1.084C188.44,478.491,186.932,476.982,186.932,474.771z M190.403,471.973
				c-1.509,0-2.256,1.274-2.314,2.358h4.643C192.718,473.276,192.015,471.973,190.403,471.973z"/>
			<path id="XMLID_430_" style="fill:#112129;" d="M194.607,477.378l0.571-0.791c0.469,0.542,1.362,1.011,2.329,1.011
				c1.084,0,1.67-0.513,1.67-1.216c0-1.714-4.38-0.659-4.38-3.281c0-1.098,0.952-2.036,2.636-2.036c1.201,0,2.051,0.454,2.622,1.025
				l-0.513,0.762c-0.424-0.513-1.201-0.894-2.109-0.894c-0.967,0-1.567,0.483-1.567,1.113c0,1.552,4.38,0.527,4.38,3.281
				c0,1.187-0.952,2.138-2.783,2.138C196.306,478.491,195.325,478.139,194.607,477.378z"/>
			<path id="XMLID_427_" style="fill:#112129;" d="M201.477,469.497c0-0.41,0.337-0.747,0.732-0.747c0.41,0,0.747,0.337,0.747,0.747
				c0,0.41-0.337,0.732-0.747,0.732C201.814,470.229,201.477,469.908,201.477,469.497z M201.667,478.315v-7.075h1.099v7.075H201.667
				z"/>
			<path id="XMLID_424_" style="fill:#112129;" d="M204.582,480.132l0.556-0.82c0.586,0.703,1.289,0.967,2.3,0.967
				c1.172,0,2.27-0.571,2.27-2.124v-1.011c-0.513,0.718-1.377,1.26-2.373,1.26c-1.845,0-3.149-1.377-3.149-3.662
				c0-2.27,1.289-3.676,3.149-3.676c0.952,0,1.802,0.469,2.373,1.245v-1.069h1.098v6.87c0,2.344-1.641,3.076-3.369,3.076
				C206.237,481.186,205.417,480.952,204.582,480.132z M209.709,476.279v-3.091c-0.381-0.615-1.23-1.143-2.109-1.143
				c-1.421,0-2.27,1.128-2.27,2.695c0,1.553,0.849,2.695,2.27,2.695C208.478,477.436,209.328,476.895,209.709,476.279z"/>
			<path id="XMLID_422_" style="fill:#112129;" d="M217.413,478.315v-4.629c0-1.245-0.63-1.641-1.582-1.641
				c-0.864,0-1.685,0.527-2.095,1.099v5.17h-1.099v-7.075h1.099v1.025c0.498-0.586,1.464-1.201,2.519-1.201
				c1.479,0,2.256,0.747,2.256,2.285v4.966H217.413z"/>
			<path id="XMLID_419_" style="fill:#112129;" d="M219.932,474.771c0-2.051,1.465-3.706,3.486-3.706
				c2.139,0,3.398,1.67,3.398,3.794v0.279h-5.727c0.088,1.333,1.025,2.446,2.548,2.446c0.806,0,1.626-0.322,2.183-0.893l0.527,0.718
				c-0.703,0.703-1.655,1.084-2.812,1.084C221.441,478.491,219.932,476.982,219.932,474.771z M223.404,471.973
				c-1.509,0-2.256,1.274-2.314,2.358h4.643C225.718,473.276,225.015,471.973,223.404,471.973z"/>
			<path id="XMLID_416_" style="fill:#112129;" d="M233.35,478.315v-1.055c-0.527,0.718-1.392,1.23-2.388,1.23
				c-1.846,0-3.149-1.406-3.149-3.706c0-2.256,1.289-3.721,3.149-3.721c0.952,0,1.817,0.469,2.388,1.245v-3.765h1.098v9.77H233.35z
				 M233.35,476.396v-3.208c-0.396-0.615-1.245-1.143-2.124-1.143c-1.421,0-2.27,1.172-2.27,2.739c0,1.567,0.849,2.724,2.27,2.724
				C232.105,477.51,232.954,477.012,233.35,476.396z"/>
			<path id="XMLID_413_" style="fill:#112129;" d="M239.692,478.315v-9.77h1.098v3.765c0.572-0.776,1.421-1.245,2.388-1.245
				c1.845,0,3.149,1.465,3.149,3.721c0,2.299-1.304,3.706-3.149,3.706c-0.996,0-1.86-0.513-2.388-1.23v1.055H239.692z M242.9,477.51
				c1.436,0,2.285-1.157,2.285-2.724c0-1.568-0.85-2.739-2.285-2.739c-0.864,0-1.728,0.527-2.109,1.143v3.208
				C241.171,477.012,242.036,477.51,242.9,477.51z"/>
			<path id="XMLID_411_" style="fill:#112129;" d="M247.528,480.088c0.161,0.073,0.425,0.117,0.601,0.117
				c0.483,0,0.805-0.161,1.055-0.747l0.469-1.069l-2.959-7.148h1.187l2.358,5.801l2.344-5.801h1.201l-3.545,8.51
				c-0.425,1.025-1.143,1.421-2.08,1.435c-0.234,0-0.601-0.044-0.805-0.103L247.528,480.088z"/>
		</g>
	</g>
</g>
</svg>
