<svg width="690" height="608" viewBox="0 0 690 608" fill="none" xmlns="http://www.w3.org/2000/svg">
<path d="M387.023 460.256C386.756 460.318 386.532 460.475 386.395 460.685C386.258 460.895 386.223 461.146 386.299 461.381C386.371 461.613 386.546 461.813 386.786 461.932C387.027 462.051 387.308 462.083 387.573 462.017C396.292 460.337 404.466 456.937 411.482 452.076C438.152 434.72 436.772 410.096 451.952 387.568C464.094 370.394 474.756 372.368 473.929 370.149C473.898 370.062 473.847 369.98 473.778 369.911C473.709 369.842 473.627 369.786 473.531 369.745C473.438 369.704 473.335 369.682 473.232 369.679C473.129 369.676 473.023 369.689 472.927 369.723C425.179 385.196 452.158 440.373 387.023 460.256ZM580.258 406.203C581.603 404.956 582.949 403.649 584.257 402.342C594.401 391.489 601.507 374.678 600.817 362.305C600.8 362.173 600.741 362.045 600.649 361.941C600.556 361.835 600.429 361.753 600.288 361.706C600.144 361.659 599.99 361.647 599.838 361.672C599.691 361.697 599.55 361.76 599.437 361.85C598.404 362.731 601.301 367.595 594.023 382.917C587.123 397.45 581.085 401.157 574.288 407.936C568.198 414.132 563.571 421.331 560.673 429.119C557.779 436.907 556.671 445.125 557.419 453.292C557.457 453.464 557.563 453.621 557.718 453.731C557.872 453.84 558.064 453.903 558.263 453.903C558.463 453.903 558.655 453.84 558.809 453.731C558.964 453.621 559.067 453.464 559.108 453.292C558.871 444.595 560.622 435.945 564.254 427.856C567.889 419.767 573.33 412.402 580.258 406.203ZM277.347 274.936C280.797 272.839 280.555 266.424 277.347 264.053C276.439 263.408 275.382 262.947 274.249 262.702C273.116 262.458 271.936 262.437 270.794 262.64C269.65 262.843 268.573 263.266 267.636 263.878C266.699 264.49 265.927 265.276 265.375 266.181C264.735 267.595 264.619 269.152 265.046 270.628C265.472 272.103 266.418 273.422 267.747 274.395C269.077 275.367 270.723 275.944 272.447 276.041C274.172 276.138 275.887 275.751 277.347 274.936ZM267.859 267.975C268.894 264.509 275.691 264.023 276.726 267.488C277.416 269.859 277.105 271.531 275.725 272.443C274.896 272.898 273.952 273.166 272.978 273.224C272.003 273.283 271.027 273.13 270.136 272.778C269.203 272.316 268.471 271.592 268.058 270.722C267.646 269.852 267.576 268.884 267.859 267.975ZM395.235 218.696C395.101 218.688 394.967 218.704 394.843 218.743C394.716 218.782 394.603 218.843 394.503 218.923C394.407 219.003 394.332 219.1 394.277 219.207C394.225 219.315 394.198 219.431 394.198 219.547C394.198 222.587 388.369 225.627 387.298 225.931C387.092 225.976 386.913 226.09 386.804 226.25C386.694 226.41 386.659 226.601 386.711 226.783C386.762 226.964 386.893 227.12 387.071 227.217C387.253 227.314 387.473 227.344 387.679 227.299C396.752 225.658 398.132 218.635 395.235 218.696ZM383.124 214.045C382.708 213.832 380.882 212.647 380.226 212.191C380.226 211.795 381.847 206.719 382.159 205.746C382.468 204.773 381.054 204.53 380.673 205.32C379.231 207.785 378.074 210.372 377.223 213.042C377.501 213.923 382.296 215.079 382.64 215.079C382.784 215.096 382.931 215.071 383.055 215.007C383.182 214.943 383.281 214.845 383.336 214.726C383.391 214.608 383.398 214.477 383.36 214.354C383.323 214.231 383.24 214.122 383.124 214.045ZM371.737 197.751C371.689 197.488 371.534 197.249 371.304 197.077C371.074 196.905 370.783 196.81 370.48 196.81C370.178 196.81 369.883 196.905 369.653 197.077C369.423 197.249 369.269 197.488 369.221 197.751C369.09 199.847 369.09 201.947 369.221 204.043C369.437 204.355 369.763 204.594 370.151 204.723C370.539 204.852 370.964 204.864 371.363 204.755C371.757 204.647 372.101 204.426 372.338 204.126C372.574 203.827 372.691 203.466 372.671 203.101C372.193 201.343 371.881 199.554 371.737 197.751ZM395.853 203.071C395.413 201.328 395.101 199.561 394.922 197.781C394.922 197.483 394.788 197.197 394.548 196.986C394.308 196.775 393.985 196.656 393.645 196.656C393.309 196.656 392.983 196.775 392.742 196.986C392.506 197.197 392.368 197.483 392.368 197.781C392.245 199.806 392.245 201.836 392.368 203.861C392.389 204.096 392.468 204.325 392.598 204.531C392.729 204.737 392.907 204.915 393.127 205.053C393.343 205.191 393.594 205.285 393.855 205.328C394.119 205.372 394.39 205.364 394.648 205.305C394.908 205.246 395.149 205.138 395.358 204.988C395.564 204.838 395.729 204.65 395.846 204.436C395.959 204.223 396.021 203.99 396.021 203.754C396.024 203.519 395.966 203.285 395.853 203.071Z" fill="#4F378A"/>
<path d="M665.852 161.666C665.608 142.727 658.399 135.249 636.148 135.826C629.797 135.826 516.602 136.83 508.498 137.073C503.06 137.074 497.684 138.057 492.696 139.961C489.833 140.964 474.859 147.561 473.205 151.057C471.409 153.55 473.513 224.564 473.205 239.217C470.805 238.014 468.344 236.918 465.821 235.934C465.364 233.937 464.396 232.058 462.992 230.441C461.588 228.823 459.782 227.51 457.712 226.601C454.537 225.506 450.469 226.814 448.121 224.838C445.776 222.862 449.985 221.798 450.435 218.758C450.421 216.65 450.143 214.55 449.604 212.495C447.527 201.475 444.623 190.589 440.912 179.906C437.805 171.121 434.565 163.673 425.629 158.9C425.629 144.126 423.937 57.5464 423.006 52.956C422.086 48.4257 419.343 44.339 415.282 41.4466C411.221 38.5539 406.11 37.0492 400.892 37.2088C400.545 37.2088 163.117 37.2088 162.841 37.452C153.354 42.4376 150.801 53.564 150.18 61.772C149.973 65.876 154.044 148.746 155.665 175.073C138.864 175.377 53.9935 177.383 49.1289 179.663C38.1236 182.034 25.9451 188.783 23.5646 199.758C22.0811 206.81 25.0826 342.303 26.0831 348.718C26.7996 355.645 30.3128 362.116 35.9846 366.958C42.1599 371.732 50.5779 372.612 57.9956 372.857L215.419 370.24C200.032 400.944 182.299 444.479 170.569 471.563C170.514 471.641 170.485 471.732 170.485 471.823C170.485 471.914 170.514 472.005 170.569 472.08C173.744 474.828 177.209 477.301 180.919 479.467C175.296 496.4 175.917 497.343 174.675 498.713C164.014 510.233 151.146 516.953 138.45 518.047C132.55 518.623 126.72 519.535 124.65 524.581C122.959 529.172 127.444 532.244 132.688 533.519C136.138 534.34 159.667 538.932 163.152 539.295C166.239 539.753 169.407 539.129 171.984 537.562C174.468 535.951 182.644 527.439 185.784 524.885C180.091 549.205 176.124 541.455 189.682 546.651C189.871 546.742 190.081 546.792 190.295 546.801C190.51 546.811 190.723 546.776 190.921 546.704C191.12 546.632 191.297 546.522 191.44 546.381C191.584 546.24 191.69 546.074 191.752 545.892C194.167 539.812 210.52 505.065 217.179 496.036C218.8 532.761 218.524 530.843 219.111 530.996C221.422 531.513 223.941 531.999 226.528 532.457C226.528 537.562 226.701 542.793 227.184 548.506C227.184 548.688 226.908 548.992 226.632 549.481C218.076 566.016 208.485 572.767 198.066 576.841C193.443 578.665 187.06 581.156 187.233 586.779C187.233 591.643 192.891 593.194 198.376 593.012C206.622 592.768 217.282 591.796 222.112 591.583C235.912 590.853 236.257 588.543 242.122 578.116C243.468 575.716 245.055 572.857 245.952 571.46C247.573 588.543 245.434 591.066 248.091 590.944C255.301 590.612 258.441 592.345 258.441 590.063C258.717 583.801 261.891 559.177 263.547 553.129C263.547 552.427 262.995 552.032 262.167 551.881C263.202 546.228 265.617 535.099 265.927 533.065C267.652 532.852 269.377 532.607 270.723 532.335C271.102 532.335 270.723 533.945 276.553 512.756C318.436 527.317 363.114 530.815 403.202 522.516C404.617 527.348 414.864 560.303 420.452 574.741C422.357 579.461 424.894 583.961 428.008 588.148C428.801 588.816 430.146 590.004 431.458 590.004C432.769 590.004 434.218 588.393 434.565 586.75C434.908 585.108 429.491 537.167 427.665 519.871C435.859 518.081 443.809 515.502 451.365 512.18L462.542 544.889C462.868 545.375 463.363 545.761 463.95 545.989C464.54 546.215 465.192 546.275 465.824 546.159C466.452 546.04 467.022 545.751 467.455 545.334C467.887 544.914 468.162 544.388 468.234 543.824L467.166 504.639C472.388 501.64 477.389 498.349 482.14 494.789C484.296 496.625 486.72 498.202 489.349 499.471C489.62 499.603 489.936 499.634 490.235 499.562C490.53 499.487 490.784 499.311 490.935 499.076C493.805 495.253 497.025 491.642 500.561 488.283C499.871 492.207 498.525 500.233 498.353 502.724C498.35 502.884 498.381 503.044 498.45 503.194C498.515 503.345 498.618 503.48 498.748 503.592C498.875 503.708 499.03 503.796 499.201 503.856C499.37 503.915 499.552 503.943 499.734 503.94C503.396 503.84 507.056 504.26 510.568 505.188C499.318 509.961 494.179 514.004 494.869 517.348C496.218 523.318 498.11 529.185 500.526 534.889C502.39 539.631 504.323 544.554 510.118 546.623C536.685 556.532 576.152 549.296 602.818 539.417C625.451 531.604 628.763 518.958 626.762 501.082C626.347 497.678 621.863 497.284 612.444 497.497L635.389 471.929C642.289 464.665 636.285 464.906 634.112 450.649C636.189 453.363 638.684 455.808 641.527 457.914C641.698 458.03 641.891 458.115 642.1 458.162C642.306 458.209 642.526 458.218 642.735 458.187C643.669 458.036 642.945 458.463 651.499 444.905C651.66 444.657 651.722 444.366 651.674 444.084C651.623 443.802 651.465 443.545 651.225 443.353C647.462 440.617 638.389 434.233 638.389 434.233C643.068 433.259 647.675 432.04 652.189 430.585C653.264 430.341 654.239 429.83 654.997 429.112C655.756 428.398 656.264 427.505 656.466 426.542C656.916 424.17 656.95 376.411 657.019 369.908C657.019 368.842 655.086 368.538 654.88 369.694C650.843 393.801 632.316 413.865 608.651 419.854C609.409 417.147 611.342 411.28 610.271 409.669C606.368 407.506 602.217 405.711 597.885 404.319C602.2 402.16 612.169 396.537 612.893 394.804C613.343 393.801 611.132 346.894 611.029 341.755C611.012 341.545 610.92 341.344 610.765 341.181C610.611 341.018 610.401 340.902 610.168 340.852C609.934 340.802 609.687 340.818 609.464 340.899C609.241 340.977 609.052 341.118 608.925 341.3C602.245 352.921 592.365 362.884 580.189 370.271C578.775 371.124 568.596 375.897 567.803 376.533C565.249 378.692 568.425 381.337 569.767 383.008C570.735 384.164 574.048 388.085 574.703 388.906C562.558 390.213 559.348 386.537 558.727 388.906C557.536 392.002 555.926 394.964 553.935 397.722C554.645 400.386 555.555 403.006 556.657 405.566C554.638 405.858 552.575 405.858 550.553 405.566C550.193 405.498 549.815 405.551 549.496 405.714C549.177 405.877 548.94 406.137 548.826 406.447C547.862 409.214 547.103 411.524 546.413 413.684C542.229 407.434 537.622 401.414 532.613 395.657C530.162 379.178 521.329 359.935 502.665 357.381C516.709 352.213 525.919 338.928 528.126 325.461C534.752 325.461 630.452 325.22 634.318 325.461C655.258 325.978 664.609 318.926 666.576 300.108C667.369 292.599 665.852 163.034 665.852 161.666ZM189.441 523.609C189.527 523.287 189.473 522.948 189.287 522.66C189.101 522.371 188.799 522.158 188.44 522.058C185.646 521.146 183.507 523.305 181.954 524.857C178.024 529.072 173.709 532.996 169.051 536.591C166.464 537.684 136.345 532.181 132.585 531.147C130.56 530.742 128.799 529.652 127.686 528.107C127.25 526.985 127.297 525.762 127.819 524.669C128.341 523.575 129.3 522.691 130.515 522.18C133.171 520.751 135.138 520.873 142.59 519.657C150.042 518.441 157.425 517.257 170.397 506.495C172.204 504.968 173.887 503.332 175.434 501.599C177.588 505.818 181.213 509.321 185.784 511.6C191.906 513.997 198.744 514.583 205.276 513.273C201.826 519.353 192.304 538.352 189.924 544.159C188.026 543.492 186.094 542.884 184.197 542.395C186.333 536.224 188.084 529.95 189.441 523.609ZM492.418 357.14C487.568 357.321 482.748 357.933 478.035 358.964C462.58 360.502 447.043 361.292 431.492 361.333C429.216 349.173 429.906 351.423 429.319 348.048C429.079 346.591 428.732 344.585 429.941 343.945C446.466 337.439 463.648 331.541 480.105 325.188C483.555 327.407 483.829 327.134 484.138 326.953C484.286 326.812 484.368 326.627 484.368 326.436C484.368 326.241 484.286 326.06 484.138 325.919C482.792 324.718 481.378 323.584 479.895 322.512C466.651 312.076 457.427 298.263 453.503 282.993C453.459 282.811 453.332 282.653 453.153 282.554C452.975 282.454 452.762 282.42 452.556 282.461C452.35 282.501 452.168 282.612 452.055 282.769C451.942 282.925 451.904 283.115 451.952 283.297C454.873 299.177 464.197 313.596 478.206 323.913L430.631 341.241C429.254 341.595 428.046 342.331 427.181 343.337C424.798 342.767 422.646 341.617 420.971 340.025C412.001 333.669 408.413 338.016 396.821 346.105C395.698 346.847 394.637 347.662 393.645 348.537C387.518 343.732 381.411 338.909 375.328 334.064C373.772 332.058 359.629 289.073 353.835 271.806C358.314 262.233 365.541 253.852 374.809 247.486C375.88 250.369 377.229 253.166 378.846 255.846C381.435 258.034 384.778 256.97 388.022 256.271C387.13 257.905 386.615 259.679 386.508 261.491C386.402 263.302 386.704 265.113 387.401 266.82C389.845 271.645 393.659 275.834 398.475 278.98C410.274 288.1 409.687 287.857 410.377 287.857C410.696 287.843 410.998 287.727 411.228 287.531C411.455 287.336 411.595 287.073 411.619 286.793C412.794 276.183 416.659 273.265 427.558 269.89C433.521 268.175 438.567 264.599 441.743 259.834C444.921 255.068 446.013 249.444 444.808 244.02C452.021 244.068 459.205 243.25 466.164 241.588C466.493 241.523 466.778 241.345 466.96 241.095C467.142 240.844 467.204 240.541 467.132 240.25C467.132 239.734 466.888 239.126 466.716 238.487C517.052 260.041 547.725 327.194 507.118 352.153C502.699 354.758 497.677 356.463 492.418 357.14ZM504.011 360.603C512.878 362.276 520.296 368.842 525.126 380.394C548.171 435.268 494.454 501.753 427.768 517.194C427.352 513.515 425.076 492.175 424.627 490.596C424.297 489.198 423.387 487.963 422.072 487.129C417.829 485.061 410.552 487.343 406.687 489.348C403.003 491.505 399.711 494.137 396.924 497.161C396.924 498.133 401.754 516.464 402.787 520.203C360.858 527.931 317.272 524.634 277.45 510.719C283.591 488.223 291.733 457.428 294.01 447.882C317.746 454.388 351.109 453.78 351.452 453.749C351.562 453.724 351.662 453.667 351.73 453.586C351.799 453.508 351.837 453.41 351.837 453.31C351.837 453.207 351.799 453.11 351.73 453.031C351.662 452.95 351.562 452.893 351.452 452.868C332.305 447.243 315.78 432.745 304.947 412.01C288.283 381.033 253.714 381.397 240.259 396.81C220.801 419.065 217.662 483.817 217.351 491.627C216.144 493.573 209.209 505.52 206.587 510.384C185.887 514.731 179.988 504.304 177.469 499.835C177.055 499.076 177.262 501.082 183.679 481.109C187.129 482.601 211.659 490.229 211.693 487.979C211.969 462.139 219.076 400.671 238.327 386.537C252.127 376.564 281.97 378.297 295.183 386.932C303.583 393.685 310.455 401.784 315.435 410.794C326.509 431.739 345.589 447.274 366.77 451.167C393.923 449.067 425.42 410.948 434.424 386.565C451.052 367.993 478.481 357.353 504.011 360.603ZM558.002 484.24C558.051 484.422 558.174 484.581 558.353 484.679C558.531 484.779 558.747 484.813 558.953 484.773C559.159 484.732 559.338 484.622 559.451 484.465C559.564 484.309 559.602 484.118 559.558 483.936C557.385 474.148 551.243 465.696 547.378 456.576C540.684 440.981 545.548 424.233 551.209 408.393C553.732 408.807 556.341 408.509 558.658 407.541C560.556 406.234 559.039 404.015 556.901 398.421C558.658 396.077 560.042 393.532 561.006 390.852C566.399 391.977 572.005 392.04 577.429 391.034C577.638 390.987 577.834 390.896 577.995 390.771C578.16 390.645 578.287 390.486 578.366 390.307C578.448 390.131 578.479 389.937 578.462 389.746C578.442 389.558 578.369 389.373 578.256 389.21C575.942 386.537 569.839 379.209 569.526 378.661C569.218 378.116 569.526 378.175 570.529 377.78C587.017 371.167 600.539 359.904 608.959 345.769C609.375 355.71 610.721 392.708 610.339 394.196C604.981 397.615 599.327 400.665 593.436 403.316C593.179 403.442 592.969 403.63 592.835 403.862C592.698 404.09 592.647 404.35 592.678 404.607C592.712 404.864 592.832 405.109 593.021 405.306C593.21 405.504 593.464 405.648 593.745 405.717C598.627 407.19 603.357 409.02 607.892 411.189C608.513 412.073 606.337 419.033 605.959 420.826L602.509 421.434C602.166 421.512 601.871 421.707 601.685 421.973C601.496 422.24 601.435 422.556 601.507 422.863C602.406 428.244 604.442 441.498 604.442 441.498C594.538 433.381 594.607 428.884 592.468 428.699C592.259 428.677 592.042 428.702 591.843 428.771C591.644 428.84 591.469 428.949 591.332 429.097C575.108 445.682 566.001 466.755 565.592 488.649C565.634 488.812 565.733 488.96 565.881 489.066C566.028 489.173 566.214 489.229 566.406 489.229C566.595 489.229 566.78 489.173 566.928 489.066C567.075 488.96 567.178 488.812 567.216 488.649C568.514 467.934 577.237 448.117 592.125 432.043C595.554 437.251 600.062 441.852 605.406 445.604C605.636 445.782 605.921 445.892 606.224 445.917C606.526 445.945 606.831 445.886 607.095 445.751C607.36 445.616 607.569 445.412 607.693 445.168C607.816 444.924 607.851 444.648 607.789 444.388C607.789 444.388 605.303 429.582 604.339 423.562C627.833 419.883 648.015 402.282 654.812 379.849C654.812 392.341 654.328 423.321 654.328 423.625C654.328 425.599 654.328 427.483 652.326 428.366C646.669 430.118 640.912 431.607 635.076 432.836C634.84 432.889 634.62 433.002 634.448 433.155C634.273 433.312 634.15 433.503 634.091 433.716C634.029 433.926 634.036 434.149 634.105 434.356C634.177 434.566 634.311 434.754 634.489 434.901C636.113 436.057 645.427 442.777 648.499 444.933C648.499 444.933 644.29 452.016 642.148 455.513C638.65 452.661 635.753 449.286 633.593 445.541C633.453 445.328 633.237 445.162 632.979 445.068C632.722 444.974 632.437 444.955 632.165 445.018C631.898 445.08 631.657 445.218 631.486 445.412C631.314 445.604 631.218 445.842 631.215 446.089C632.179 466.395 639.563 463.753 633.456 470.409C612.409 493.727 608.719 501.264 586.052 507.162C590.607 488.922 606.199 481.535 612.444 468.372C615.894 461.167 615.135 453.172 617.861 445.936C619.759 440.915 622.862 436.311 626.958 432.441C631.053 428.57 636.045 425.521 641.599 423.502C641.798 423.44 641.966 423.311 642.059 423.145C642.152 422.976 642.165 422.782 642.097 422.606C642.028 422.428 641.884 422.28 641.692 422.199C641.503 422.117 641.28 422.105 641.08 422.164C633.851 424.411 627.469 428.385 622.653 433.638C617.833 438.894 614.764 445.224 613.789 451.925C612.306 461.258 612.619 465.849 605.994 474.026C598.678 482.996 586.708 490.928 582.842 507.924C576.845 509.24 570.704 509.992 564.525 510.171C563.801 504.73 560.004 501.54 557.312 501.417C554.83 497.588 528.645 462.474 518.985 454.783C529.668 437.844 534.577 418.548 533.128 399.211C537.268 404.592 544.343 414.686 545.582 416.661C533.544 457.579 553.21 463.721 558.002 484.24ZM503.599 485.578C503.595 485.365 503.527 485.155 503.393 484.973C503.262 484.795 503.074 484.65 502.854 484.56C502.631 484.472 502.387 484.44 502.147 484.469C501.903 484.5 501.68 484.588 501.495 484.729C497.08 488.587 493.074 492.789 489.521 497.284C487.489 496.237 485.583 495.015 483.829 493.636C492.168 487.249 499.73 480.119 506.393 472.356C543.032 511.083 541.271 509.961 542.308 509.231C542.387 509.18 542.459 509.118 542.51 509.046C542.562 508.974 542.599 508.892 542.613 508.807C542.63 508.72 542.627 508.635 542.603 508.55C542.579 508.466 542.538 508.387 542.479 508.319C540.062 505.097 515.466 477.919 507.979 470.287C511.536 465.959 514.783 461.44 517.708 456.761C531.508 468.645 552.932 499.929 554.934 502.875C553.028 505.291 552.139 508.215 552.414 511.145C548.058 512.217 543.478 512.393 539.029 511.663C533.749 510.751 514.018 502.207 501.079 501.872C501.907 498.559 503.218 488.436 503.702 485.578H503.599ZM413.278 489.439H413.865C416.552 488.891 420.765 488.073 421.764 490.473C422.282 492.116 432.701 582.799 432.701 585.594C432.755 586.036 432.701 586.481 432.539 586.901C432.378 587.321 432.117 587.706 431.767 588.026C422.797 584.986 400.717 504.335 399.855 497.497C403.333 493.705 408.001 490.903 413.278 489.439ZM45.9206 345.892C45.9206 338.928 40.6766 200.913 41.1939 195.927C42.0909 186.534 45.9206 182.308 54.3729 181.335C63.3085 179.815 146.73 177.718 155.838 177.505C156.045 180.545 156.217 182.673 156.286 183.068C156.668 185.46 157.963 187.666 159.957 189.323C161.951 190.98 164.525 191.991 167.257 192.188C167.257 191.884 164.98 192.188 236.257 192.401C236.257 201.886 236.913 246.452 236.947 248.55C216.661 249.218 195.754 249.948 191.752 250.282C191.2 250.282 190.717 251.164 190.924 251.59C196.927 264.662 223.665 317.739 231.151 331.359C231.849 332.907 233.049 334.239 234.601 335.189C235.567 336.468 236.706 337.897 238.051 339.323C227.115 347.017 223.182 355.529 216.834 367.993C187.612 368.538 69.1735 370.697 66.5169 370.606C59.1339 370.331 53.9245 368.447 50.6815 364.859C45.7479 359.691 45.9549 352.639 45.9206 345.892ZM445.052 224.473C445.776 226.783 448.502 228.03 452.711 228.121C459.954 227.847 463.061 233.35 464.372 239.673C457.317 240.888 450.163 241.589 442.982 241.77C442.773 241.772 442.57 241.817 442.385 241.9C442.199 241.983 442.038 242.104 441.914 242.251C441.791 242.398 441.708 242.569 441.671 242.749C441.633 242.929 441.646 243.115 441.705 243.29C442.807 246.761 442.817 250.43 441.736 253.905C440.654 257.38 438.519 260.531 435.564 263.02C426.285 270.894 411.414 266.546 409.241 284.695C406.134 282.324 394.648 273.721 392.299 271.198C388.262 267.094 386.642 260.284 390.782 255.998C399.649 254.721 408.609 254.02 417.589 253.9C417.792 253.9 417.984 253.829 418.125 253.704C418.269 253.579 418.348 253.409 418.348 253.231C418.348 253.054 418.269 252.884 418.125 252.758C417.984 252.633 417.792 252.562 417.589 252.562C407.256 251.917 396.869 252.572 386.745 254.508C382.883 255.45 380.985 256.119 379.258 252.927C378.396 251.316 373.258 237.514 372.358 234.961C370.772 231.647 371.737 232.65 374.638 231.07C377.477 233.184 380.662 234.906 384.088 236.177C384.088 236.542 385.884 241.375 386.158 242.257C386.278 242.987 386.69 243.655 387.325 244.136C387.96 244.617 388.774 244.878 389.608 244.871C397.655 245.522 405.76 244.484 413.264 241.842C420.765 239.2 427.448 235.029 432.769 229.671C432.876 229.544 432.924 229.386 432.903 229.229C432.886 229.072 432.804 228.927 432.67 228.821C432.536 228.715 432.364 228.657 432.186 228.656C432.007 228.656 431.832 228.714 431.698 228.82C426.357 233.579 419.937 237.294 412.859 239.724C405.78 242.154 398.197 243.245 390.611 242.926C388.194 242.774 388.506 243.23 386.471 236.846C395.784 239.156 398.132 236.025 394.819 238.913C394.709 239.027 394.651 239.17 394.651 239.318C394.648 239.466 394.706 239.61 394.812 239.725C394.919 239.84 395.066 239.919 395.231 239.948C395.396 239.978 395.568 239.955 395.715 239.886C408.266 231.618 417.421 219.976 421.798 206.719C421.829 206.633 421.842 206.543 421.832 206.453C421.822 206.363 421.794 206.276 421.746 206.196C421.698 206.117 421.63 206.047 421.551 205.99C421.472 205.934 421.379 205.892 421.279 205.868C419.488 205.321 420.692 208.452 412.275 220.582C408.825 208.422 411.139 195.562 407.411 183.342C407.363 183.168 407.236 183.02 407.061 182.928C406.886 182.837 406.676 182.811 406.481 182.855C406.285 182.9 406.113 183.011 406.01 183.165C405.907 183.319 405.876 183.503 405.928 183.676C406.532 186.262 406.923 188.883 407.102 191.519C399.752 185.105 384.229 174.86 371.981 177.201C369.341 177.273 366.842 178.257 365.019 179.941C363.199 181.625 362.204 183.873 362.252 186.199C359.282 182.673 361.352 177.292 364.044 174.313C371.153 166.135 383.779 162.153 396.371 159.113C407.514 156.498 422.419 156.863 430.871 165.74C434.537 170.17 437.187 175.189 438.667 180.514C443.075 192.515 446.15 204.865 447.846 217.39C447.977 217.895 447.949 218.422 447.767 218.914C447.585 219.407 447.256 219.847 446.809 220.186C446.123 220.706 445.598 221.374 445.289 222.125C444.98 222.876 444.897 223.685 445.052 224.473ZM233.67 330.629C230.427 324.549 198.376 261.926 193.27 251.59C204.69 251.59 333.547 247.425 335.79 247.364C340.171 259.767 365.702 334.672 365.702 335.311C365.702 335.311 335.203 335.979 318.747 336.559C290.974 324.217 265.272 325.552 246.573 334.277C236.016 333.882 235.533 334.064 233.67 330.629ZM364.768 204.53C364.288 195.41 364.768 189.057 366.392 188.418C372.324 186.047 383.398 185.378 395.715 188.814C397.267 189.27 402.238 191.55 407.239 193.404C407.792 203.132 407.239 213.438 410.689 222.862C407.641 227.574 403.721 231.806 399.097 235.386C378.225 237.818 365.702 223.105 364.699 204.53H364.768ZM396.44 386.324C395.612 387.721 409.652 397.023 411.173 398.026C416.141 402.16 410.068 404.41 405.032 400.427C377.432 378.57 353.903 353.52 323.232 338.564C341.103 338.047 363.217 337.47 367.013 337.439C370.841 340.692 415.313 377.385 426.8 386.079C394.716 386.292 396.752 385.835 396.371 386.324H396.44ZM430.318 385.897C429.975 385.625 371.668 339.204 369.427 336.891C368.115 334.948 343.931 262.625 338.377 248.063C341.785 250.111 344.312 253.109 345.555 256.575C347.625 261.774 371.119 331.086 371.222 331.419C371.503 333.105 372.358 334.672 373.669 335.919C382.742 343.61 421.245 374.377 433.768 383.497C433.044 384.286 432.319 385.076 431.629 385.897H430.318ZM427.802 356.682C421.798 356.256 419.9 355.648 418.417 357.259C417.932 357.929 416.552 359.418 414.795 359.083C414.489 359.02 414.201 358.904 413.95 358.738C413.7 358.575 413.49 358.365 413.336 358.127C413.178 357.886 413.082 357.619 413.048 357.346C413.013 357.071 413.044 356.795 413.137 356.532C414.829 355.131 416.587 353.915 418.176 352.426C418.262 352.323 418.303 352.194 418.296 352.066C418.289 351.937 418.235 351.815 418.138 351.715C418.042 351.617 417.915 351.552 417.771 351.527C417.627 351.498 417.479 351.517 417.349 351.577C415.588 352.58 413.899 354.19 411.898 355.253C411.733 355.256 411.568 355.291 411.42 355.353C411.269 355.416 411.139 355.507 411.032 355.62C410.621 355.767 410.174 355.826 409.728 355.798C409.285 355.77 408.853 355.651 408.468 355.45C408.087 355.25 407.758 354.974 407.517 354.645C407.274 354.316 407.119 353.943 407.068 353.551C407.068 351.119 410.034 349.508 411.757 347.716C412.447 347.108 411.414 346.196 410.689 346.772C408.839 348.148 407.122 349.652 405.547 351.273C403.559 351.827 401.53 352.266 399.478 352.58C398.544 352.58 399.478 353.097 395.406 350.025C399.649 346.515 404.273 343.381 409.206 340.661C417.589 335.797 419.141 344.218 426.696 345.193C426.69 349.041 427.06 352.887 427.802 356.682ZM435.564 381.732L400.823 354.372C402.083 354.153 403.326 353.868 404.548 353.52C404.52 354.181 404.668 354.836 404.977 355.438C405.286 356.04 405.753 356.569 406.333 356.986C406.916 357.403 407.6 357.691 408.331 357.835C409.065 357.976 409.824 357.967 410.552 357.807C410.689 358.453 410.998 359.058 411.451 359.578C411.908 360.098 412.495 360.515 413.168 360.797C413.841 361.079 414.579 361.217 415.324 361.198C416.068 361.179 416.796 361.007 417.452 360.697C422.213 358.779 417.452 358.052 425.145 358.66C426.144 358.66 427.215 358.841 428.248 358.873C428.561 360.299 428.869 361.609 429.216 362.853C429.299 363.104 429.47 363.32 429.707 363.473C429.944 363.627 430.232 363.709 430.528 363.705C492.212 362.549 461.921 355.04 435.495 381.732H435.564ZM352.764 268.522C348.864 257.001 346.828 247.698 338.964 245.327C338.964 245.692 341.896 244.932 239.776 248.367C239.776 233.562 239.052 197.751 238.948 192.31H362.63C361.665 205.473 362.63 219.67 372.98 229.458C371.737 229.884 369.53 230.796 369.015 231.556C370.285 236.469 371.994 241.287 374.119 245.966C364.864 251.721 357.456 259.493 352.626 268.522H352.764ZM338.584 174.556C338.584 170.3 337.48 147.409 337.239 143.214H346.035C346.035 147.53 346.691 170.33 346.897 174.526C344.137 174.465 341.344 174.495 338.584 174.556ZM288.042 175.468C288.076 167.199 286.869 97.2792 286.696 88.1592H295.494C295.494 111.263 296.253 169.054 296.391 175.346L288.042 175.468ZM233.601 99.8936H242.433C242.433 119.866 243.157 170.3 243.33 176.289H234.981C235.015 168.81 233.808 108.223 233.601 99.8936ZM158.701 181.73C158.218 179.146 154.216 98.1912 152.595 67.1832C152.215 57.6376 155.079 45.9032 162.358 40.4616C162.358 61.7416 165.463 179.177 166.153 189.817C164.123 189.301 162.32 188.249 160.988 186.803C159.656 185.358 158.858 183.588 158.701 181.73ZM475.237 156.468C474.955 154.484 475.494 152.476 476.758 150.814C479.456 148.94 482.356 147.301 485.415 145.919C481.965 151.391 482.865 149.871 484.691 245.935C481.845 244.024 478.886 242.248 475.824 240.615C475.481 225.294 475.309 169.601 475.343 156.468H475.237ZM505.391 190.242C506.994 188.237 509.126 186.604 511.601 185.481C514.076 184.359 516.822 183.782 519.606 183.798C533.647 183.798 538.755 198.511 541.515 210.489C543.928 219.882 544.099 230.948 551.864 238.609C587.95 267.428 590.676 227.209 612.619 228.759C619.519 229.458 624.105 235.022 629.038 239.034C631.149 241.122 634.108 242.392 637.273 242.568C640.439 242.744 643.552 241.813 645.945 239.977V283.175C637.459 283.175 529.678 282.476 517.845 282.598C514.965 277.284 511.57 272.199 507.705 267.398C508.116 263.719 505.562 193.526 505.494 190.242H505.391ZM519.191 284.665C535.061 284.878 635.766 285.121 646.219 285.121C646.237 286.279 646.316 287.436 646.463 288.586C646.487 288.831 646.614 289.059 646.817 289.228C647.019 289.396 647.287 289.492 647.565 289.498C649.601 289.498 648.67 292.265 648.324 209.82C648.324 209.618 648.235 209.425 648.073 209.282C647.912 209.14 647.692 209.06 647.462 209.06C647.232 209.06 647.016 209.14 646.851 209.282C646.69 209.425 646.601 209.618 646.601 209.82C646.601 215.231 646.219 233.106 646.185 236.633C645.396 237.732 644.318 238.649 643.048 239.311C641.774 239.973 640.342 240.36 638.87 240.44C637.394 240.52 635.918 240.291 634.565 239.772C633.209 239.253 632.014 238.458 631.074 237.454C621.105 228.334 611.239 220.734 596.817 232.468C585.019 243.199 578.531 252.258 562.318 242.986C555.75 239.904 550.804 234.693 548.518 228.455C543.066 211.218 544.583 184.618 521.539 181.092C518.456 180.815 515.346 181.207 512.476 182.235C509.606 183.264 507.066 184.896 505.082 186.99C505.082 182.369 504.701 177.87 504.495 173.188C504.495 172.995 504.406 172.809 504.251 172.672C504.097 172.535 503.887 172.458 503.668 172.458C503.448 172.458 503.235 172.535 503.081 172.672C502.926 172.809 502.84 172.995 502.84 173.188C502.84 178.234 504.632 248.702 505.185 264.175C499.867 258.044 493.753 252.484 486.967 247.607C486.967 236.025 485.796 160.815 485.659 156.164C485.449 147.713 489.281 142.818 498.113 140.782C505.357 139.018 635.629 137.255 648.015 138.745C656.226 139.657 660.919 146.74 662.089 152.881C663.538 160.511 663.953 286.641 663.988 288.313C664.262 303.209 662.265 320.202 644.668 322.299C640.699 322.788 542.548 323.001 528.298 322.879C528.741 309.691 525.645 296.598 519.259 284.665H519.191ZM418.176 48.0312C422.316 54.4152 419.968 52.652 422.903 157.654C408.619 151.969 388.403 157.198 374.603 163.734V73.6584C374.603 72.9592 376.395 73.172 364.253 73.172C363.495 73.172 363.563 66.9096 366.114 168.78C364.044 170.427 362.245 172.32 360.769 174.404H349.176C349.176 170.452 347.865 142.423 347.728 142.18C347.686 142.022 347.587 141.881 347.443 141.781C347.295 141.681 347.117 141.629 346.935 141.633C343.206 141.523 339.474 141.594 335.755 141.846C335.645 141.912 335.557 142.004 335.503 142.111C335.448 142.218 335.428 142.337 335.445 142.454C335.445 145.494 336.066 170.178 336.307 174.556L323.301 174.799C323.956 122.876 324.198 125.612 323.301 125.551C313.951 125.886 313.744 125.734 313.744 126.342V174.982L298.564 175.255C298.564 168.476 297.391 91.868 297.15 87.4296C297.16 87.2296 297.084 87.0337 296.936 86.8814C296.789 86.7291 296.582 86.6316 296.356 86.6088C296.356 86.6088 285.558 86.6088 285.213 86.9128C284.212 87.612 285.765 172.033 285.765 175.498L269.377 175.772V130.385C269.255 130.342 269.119 130.342 268.998 130.385C259.476 130.385 259.579 130.385 259.579 131.054V175.954L245.572 176.319C244.606 97.8264 243.813 99.2552 244.158 99.2552C244.159 99.0605 244.079 98.8722 243.932 98.7261C243.786 98.5804 243.584 98.4873 243.364 98.4648C243.364 98.4648 232.635 98.4648 232.29 98.708C231.117 99.3464 232.773 171.151 232.773 176.562L213.798 176.866C213.901 58.3976 214.281 63.8392 213.384 63.8392L204.931 64.1128C204.345 64.1128 204.552 56.8472 204.552 176.988C190.338 177.231 190.752 176.988 190.545 177.474C190.478 177.569 190.441 177.678 190.437 177.789C190.433 177.9 190.462 178.011 190.522 178.109C190.581 178.207 190.668 178.29 190.775 178.349C190.882 178.409 191.005 178.442 191.131 178.447C212.073 178.447 338.895 177.322 359.561 176.775C357.491 181.426 357.868 186.564 362.664 189.27V189.938C342.724 190.455 172.087 189.938 169.017 189.938C169.017 185.956 165.153 46.876 165.118 39.0936C189.027 39.0936 399.718 39.3672 405.204 40.1576C407.891 40.5415 410.452 41.4469 412.694 42.8086C414.939 44.1701 416.81 45.9539 418.176 48.0312ZM42.1256 184.527C38.1579 189.574 37.9509 196.14 37.9509 202.494C37.9509 203.892 42.7809 353.52 43.5056 357.168C43.9182 359.816 44.969 362.355 46.5876 364.614C48.2061 366.874 50.3551 368.804 52.8895 370.271C48.8343 370.093 44.8698 369.149 41.2629 367.504C33.6041 363.796 30.7061 356.165 29.6711 351.94C27.8426 344.34 25.4276 213.802 25.8416 207.054C25.6001 195.866 29.9126 189.817 42.0566 184.527H42.1256ZM559.626 528.32C573.433 527.474 586.962 524.465 599.578 519.444C608.548 515.796 619.725 510.02 624.349 505.429C625.073 519.78 621.761 529.05 605.029 535.829C582.877 544.949 530.334 556.137 507.632 542.793C505.6 541.06 500.732 527.897 498.803 521.817C508.703 527.621 537.546 529.871 559.558 528.32H559.626ZM247.608 568.144C244.71 567.931 243.33 570.485 242.364 572.34C234.291 587.54 234.394 588.512 226.183 589.001C223.596 589.151 199.239 590.916 197.445 590.916C191.166 591.31 187.681 587.509 192.132 582.858C194.669 581.172 197.484 579.84 200.481 578.906C210.072 574.985 225.252 564.618 228.598 551.791C232.061 555.376 236.785 557.836 242.019 558.783C248.498 559.394 255.033 558.215 260.718 555.407C259.407 561.973 256.371 582.432 255.991 588.847C253.974 588.662 251.947 588.581 249.919 588.603C249.885 586.873 249.229 568.266 247.539 568.144H247.608ZM260.304 552.489C255.82 555.282 250.441 556.742 244.951 556.655C242.047 556.46 239.218 555.742 236.642 554.545C234.066 553.348 231.798 551.697 229.978 549.691C229.978 548.751 229.599 538.565 229.702 533.093C240.88 533.87 252.101 534.064 263.305 533.673C262.753 536.346 260.994 547.199 260.235 552.489H260.304Z" fill="#4F378A"/>
<path d="M603.751 160.086C603.947 160.052 604.122 159.958 604.245 159.822C604.372 159.687 604.441 159.517 604.441 159.342C604.441 159.166 604.372 158.996 604.245 158.861C604.122 158.725 603.947 158.632 603.751 158.597H597.956C554.589 159.782 556.004 159.752 556.038 160.816C556.072 161.88 554.727 162.123 603.751 160.086ZM605.199 167.2C597.472 167.2 567.25 167.565 559.488 168.112C559.213 168.154 558.97 168.279 558.791 168.465C558.612 168.651 558.513 168.887 558.513 169.13C558.513 169.374 558.612 169.61 558.791 169.796C558.97 169.982 559.213 170.107 559.488 170.149C567.387 170.149 597.438 168.781 605.234 168.507C605.402 168.471 605.553 168.386 605.66 168.265C605.766 168.144 605.821 167.994 605.817 167.841C605.811 167.689 605.749 167.542 605.635 167.425C605.526 167.308 605.371 167.229 605.199 167.2ZM597.61 178.387C592.227 178.57 574.942 178.387 558.451 178.387C558.087 178.387 557.734 178.515 557.476 178.743C557.219 178.971 557.071 179.281 557.071 179.603C557.071 179.926 557.219 180.235 557.476 180.463C557.734 180.691 558.087 180.819 558.451 180.819C561.901 181.032 594.262 179.846 597.644 179.725C597.846 179.721 598.035 179.646 598.176 179.518C598.313 179.39 598.392 179.218 598.385 179.041C598.382 178.864 598.296 178.695 598.152 178.572C598.004 178.45 597.812 178.383 597.61 178.387ZM486.451 26.4784C482.407 27.3532 478.71 29.1781 475.751 31.7585C472.792 34.3388 470.684 37.5781 469.651 41.1311C465.82 54.0511 479.101 68.1263 494.384 65.8767C497.724 65.2552 500.886 64.0396 503.673 62.3042C506.464 60.5686 508.819 58.3501 510.601 55.7839C512.341 52.952 513.33 49.8086 513.491 46.5912C513.653 43.3738 512.983 40.1658 511.531 37.2095C509.461 31.9807 503.32 23.6208 486.451 26.4784ZM494.799 52.1055C488.14 56.1487 480.344 48.7919 483.416 44.2623C488.936 36.1759 498.734 42.2863 498.974 45.3263C498.97 46.6761 498.582 48.0037 497.848 49.1877C497.113 50.3718 496.052 51.375 494.765 52.1055H494.799ZM494.384 38.2735C492.057 37.6279 489.551 37.6806 487.261 38.4233C484.971 39.1658 483.021 40.5563 481.724 42.3775C480.663 44.0172 480.261 45.9252 480.588 47.7909C480.914 49.6566 481.947 51.37 483.519 52.6527C484.769 53.7117 486.31 54.4698 487.989 54.8547C489.667 55.2395 491.432 55.2383 493.111 54.8509C494.789 54.4636 496.327 53.7029 497.577 52.6424C498.83 51.5815 499.75 50.2558 500.251 48.7919C503.196 50.4934 506.488 51.6708 509.945 52.2575C508.723 54.8835 506.849 57.2353 504.463 59.1395C502.074 61.0441 499.231 62.4528 496.145 63.2623C482.345 66.7887 470.062 55.7535 471.614 43.8367C472.071 41.0615 473.234 38.4133 475.02 36.0922C476.808 33.7712 479.166 31.8381 481.926 30.4387C484.683 29.0393 487.766 28.2101 490.941 28.0138C494.113 27.8175 497.299 28.2592 500.251 29.3056C497.518 31.8494 495.5 34.9204 494.35 38.2735H494.384Z" fill="#4F378A"/>
<path d="M455.401 78.6741C463.818 78.2789 617.962 77.2453 629.208 74.2965C637.87 72.8981 640.835 69.3717 640.389 61.6805C640.389 59.1269 640.87 29.8519 639.974 24.6535C639.181 18.2391 635.281 15.1991 627.07 14.8039C620.17 14.2263 460.265 16.4151 452.709 17.8439C446.568 18.9079 442.359 20.8839 441.528 26.9639C441.151 28.8183 442.805 63.1397 443.015 66.4837C443.495 73.7189 447.601 78.0053 455.401 78.6741ZM468.854 76.6069C466.822 76.3913 464.872 75.7802 463.142 74.818C461.411 73.8559 459.946 72.5669 458.851 71.0437C456.417 67.3534 455.164 63.151 455.225 58.8838C454.848 53.7158 453.742 34.5637 453.605 29.9431C453.605 28.0583 453.605 21.7959 458.851 19.5463C466.955 18.8167 617.997 16.8407 624.451 17.0231C627.901 17.0231 632.555 17.2663 635.178 19.6071C639.044 23.0423 637.801 28.7271 638.041 61.407C638.8 69.7365 635.212 71.5605 626.38 72.6853C618.446 73.7493 470.234 76.6069 468.922 76.6069H468.854ZM451.261 26.0823C450.811 28.8183 452.641 54.9622 452.812 58.4278C453.224 67.031 456.018 73.1413 461.538 76.6677H458.088C449.671 76.6677 445.844 73.111 445.462 65.5414C445.257 61.2246 443.671 29.0615 444.014 27.2375C444.738 21.7047 448.981 20.4887 454.604 19.8807C452.86 21.6289 451.724 23.7813 451.329 26.0823H451.261Z" fill="#4F378A"/>
<path d="M532.679 33.954C533.953 33.954 573.561 33.0724 573.214 33.0724C573.393 33.0391 573.554 32.953 573.667 32.8285C573.781 32.7038 573.842 32.5483 573.842 32.3882C573.842 32.2281 573.781 32.0726 573.667 31.9482C573.554 31.8234 573.393 31.7376 573.214 31.7044C570.283 31.7044 536.092 31.1874 532.607 31.7044C532.343 31.789 532.113 31.9454 531.955 32.1513C531.797 32.3572 531.715 32.6019 531.722 32.8511C531.728 33.0999 531.825 33.3406 531.996 33.5384C532.168 33.7365 532.408 33.8819 532.679 33.954ZM585.36 43.4996C580.392 43.9252 530.503 42.4356 530.16 44.6548C530.16 45.0804 530.609 45.4148 530.953 45.4756C535.299 45.9316 585.188 44.9892 585.531 44.9588C585.641 44.9487 585.747 44.9199 585.844 44.8741C585.94 44.8281 586.022 44.766 586.091 44.6911C586.159 44.6165 586.211 44.5303 586.242 44.4379C586.276 44.3457 586.283 44.2489 586.273 44.153C586.262 44.0571 586.228 43.9643 586.177 43.8797C586.125 43.7948 586.056 43.7202 585.971 43.6594C585.885 43.5986 585.789 43.5535 585.682 43.5259C585.579 43.4983 585.469 43.4895 585.36 43.4996ZM584.357 55.1732C575.837 55.1732 532.885 54.9908 530.644 55.3252C530.42 55.3766 530.225 55.4909 530.087 55.6505C529.947 55.81 529.871 56.0056 529.871 56.2068C529.871 56.408 529.947 56.6035 530.087 56.7627C530.225 56.9223 530.42 57.0366 530.644 57.0884C533.023 57.4228 580.873 56.45 584.391 56.3588C584.546 56.3246 584.68 56.2462 584.773 56.1366C584.869 56.0265 584.917 55.8915 584.913 55.7536C584.91 55.6157 584.852 55.4831 584.752 55.3778C584.649 55.2722 584.512 55.2001 584.357 55.1732ZM96.5975 249.916C119.954 248.244 132.34 221.735 114.193 207.021C113.537 206.504 114.779 205.349 95.6662 229.7C72.5512 210.396 73.7932 211.125 73.2755 211.46C54.9905 227.359 73.1032 251.618 96.5975 249.916Z" fill="#4F378A"/>
<path d="M94.0479 219.731C94.7036 220.37 94.3929 220.461 110.022 197.235C110.059 197.184 110.084 197.126 110.096 197.066C110.107 197.005 110.105 196.943 110.089 196.884C110.073 196.824 110.044 196.768 110.002 196.719C109.961 196.67 109.909 196.628 109.849 196.597C104.338 194.041 98.0235 193.159 91.8856 194.088C85.7473 195.017 80.1288 197.705 75.9009 201.735C75.4869 202.191 74.8659 201.309 94.0479 219.731ZM57.9956 332.364C58.8806 332.358 59.7439 332.122 60.4772 331.687C61.2104 331.251 61.7806 330.631 62.1164 329.91C62.4521 329.189 62.5379 328.396 62.3632 327.631C62.1888 326.867 61.7614 326.165 61.1349 325.613C62.8599 323.153 74.0379 306.949 77.3156 302.571C78.1649 302.917 79.113 303.03 80.0361 302.895C80.9592 302.759 81.8143 302.382 82.4906 301.811L98.4296 312.634C98.1697 313.311 98.1234 314.039 98.2954 314.738C98.4677 315.437 98.8518 316.079 99.4069 316.603C99.9623 317.123 100.668 317.502 101.448 317.7C102.229 317.897 103.055 317.9 103.839 317.715C104.623 317.53 105.335 317.164 105.9 316.65C106.465 316.136 106.861 315.496 107.046 314.801C107.23 314.102 107.197 313.375 106.95 312.694C106.702 312.013 106.25 311.404 105.64 310.931L111.298 304.365C112.311 304.773 113.459 304.838 114.522 304.546C115.585 304.254 116.489 303.627 117.06 302.784L133.551 307.709C133.461 308.363 133.559 309.026 133.835 309.638C134.111 310.25 134.556 310.792 135.129 311.214C135.703 311.636 136.387 311.925 137.12 312.055C137.853 312.184 138.611 312.151 139.325 311.957C140.039 311.763 140.687 311.414 141.21 310.944C141.732 310.473 142.113 309.894 142.318 309.261C142.522 308.627 142.544 307.959 142.38 307.316C142.217 306.674 141.874 306.077 141.382 305.581C142.762 301.234 154.699 269.101 155.907 266.061C157.065 265.972 158.14 265.493 158.908 264.723C162.186 267.003 172.018 273.479 175.192 275.363C175.011 275.993 175.008 276.652 175.184 277.282C175.361 277.912 175.711 278.495 176.203 278.978C176.695 279.461 177.315 279.829 178.008 280.051C178.7 280.272 179.444 280.34 180.173 280.248C180.903 280.157 181.595 279.908 182.189 279.524C182.784 279.141 183.262 278.634 183.581 278.049C183.9 277.464 184.051 276.818 184.02 276.17C183.989 275.521 183.777 274.889 183.403 274.33C192.58 261.44 192.994 261.653 192.028 261.075C191.846 260.976 191.629 260.94 191.419 260.973C191.208 261.007 191.02 261.108 190.89 261.258C189.268 263.325 181.609 272.81 181.609 272.81C180.793 272.456 179.877 272.322 178.975 272.424C178.072 272.527 177.224 272.862 176.538 273.387C173.329 271.411 163.152 264.997 159.909 262.778C160.047 262.076 159.968 261.355 159.68 260.69C159.391 260.024 158.904 259.44 158.27 258.999C157.636 258.558 156.878 258.275 156.077 258.182C155.276 258.089 154.461 258.188 153.718 258.47C152.976 258.751 152.334 259.204 151.859 259.78C151.385 260.357 151.096 261.035 151.023 261.745C150.951 262.454 151.097 263.167 151.446 263.809C151.795 264.451 152.335 264.998 153.009 265.392C150.042 272.506 141.417 297.13 139.209 304.304C138.38 304.116 137.507 304.136 136.69 304.361C135.873 304.587 135.144 305.009 134.586 305.581C131.136 304.547 120.786 301.781 117.646 300.899C117.646 299.859 117.177 298.862 116.342 298.126C115.508 297.391 114.376 296.978 113.196 296.978C112.015 296.978 110.883 297.391 110.049 298.126C109.214 298.862 108.745 299.859 108.745 300.899C108.752 301.768 109.079 302.61 109.677 303.301L103.501 310.08C102.909 309.966 102.298 309.961 101.704 310.066C101.11 310.17 100.547 310.382 100.051 310.688L83.5946 299.714C83.7741 298.773 83.5582 297.806 82.9873 296.995C82.4161 296.185 81.5291 295.585 80.4927 295.309C79.456 295.034 78.3406 295.1 77.3558 295.497C76.3705 295.893 75.5837 296.593 75.1419 297.464C74.799 298.091 74.6593 298.789 74.7382 299.481C74.8175 300.173 75.1124 300.832 75.5906 301.386C72.3476 305.672 60.5829 322.241 58.8926 324.642C58.2733 324.504 57.6279 324.488 57.0001 324.588C56.3722 324.692 55.7766 324.911 55.2538 325.234C54.7313 325.557 54.2933 325.977 53.9702 326.459C53.6469 326.945 53.4461 327.487 53.3812 328.045C53.3159 328.606 53.3884 329.17 53.5933 329.703C53.7983 330.236 54.1309 330.725 54.5686 331.135C55.0063 331.543 55.5387 331.865 56.1302 332.079C56.7217 332.289 57.3578 332.386 57.9956 332.364ZM118.026 343.126C117.77 343.126 117.524 343.214 117.342 343.374C117.161 343.533 117.06 343.75 117.06 343.975C117.06 344.201 117.161 344.417 117.342 344.577C117.524 344.737 117.77 344.828 118.026 344.828C124.063 344.828 194.926 342.396 197.376 342.364C197.537 342.333 197.68 342.255 197.783 342.142C197.887 342.029 197.943 341.888 197.943 341.741C197.943 341.597 197.887 341.456 197.783 341.343C197.68 341.23 197.537 341.152 197.376 341.117C187.75 341.148 124.201 342.518 118.026 343.126ZM148.351 321.388C148.571 321.388 148.781 321.313 148.937 321.175C149.092 321.037 149.179 320.853 149.179 320.658C149.179 320.467 149.092 320.279 148.937 320.144C148.781 320.006 148.571 319.931 148.351 319.931C145.626 319.931 135.759 319.414 133.447 319.505C133.045 319.505 132.658 319.646 132.374 319.897C132.089 320.147 131.929 320.486 131.929 320.843C131.929 321.197 132.089 321.536 132.374 321.786C132.658 322.037 133.045 322.178 133.447 322.178C135.724 322.423 145.488 321.602 148.351 321.388ZM111.471 325.281H96.6009C96.2796 325.293 95.9679 325.381 95.6991 325.538C95.43 325.695 95.2137 325.911 95.0726 326.165C94.9315 326.422 94.8708 326.704 94.8969 326.989C94.9229 327.271 95.0349 327.541 95.2209 327.772C96.1526 328.988 96.8769 328.045 111.54 326.951C111.722 326.876 111.874 326.754 111.979 326.6C112.083 326.45 112.135 326.274 112.128 326.096C112.12 325.917 112.054 325.748 111.937 325.601C111.821 325.456 111.658 325.344 111.471 325.281ZM52.6479 341.515C53.3726 341.515 63.8606 340.509 66.1719 340.418C66.4284 340.418 66.6741 340.33 66.8551 340.171C67.0363 340.011 67.1379 339.795 67.1379 339.569C67.1379 339.343 67.0363 339.127 66.8551 338.967C66.6741 338.807 66.4284 338.716 66.1719 338.716C64.8266 338.716 53.1656 339.143 52.3719 339.478C52.1615 339.588 51.9919 339.751 51.8838 339.945C51.7756 340.142 51.7338 340.359 51.7629 340.575C51.7921 340.788 51.891 340.992 52.0482 341.158C52.2051 341.327 52.4135 341.449 52.6479 341.515Z" fill="#4F378A"/>
<path d="M174.395 288.8H174.947C189.609 287.645 189.092 288.527 189.713 287.919C189.827 287.8 189.902 287.655 189.93 287.5C189.957 287.346 189.936 287.188 189.868 287.044C189.8 286.899 189.689 286.774 189.546 286.682C189.403 286.589 189.234 286.534 189.057 286.52C183.917 286.52 179.087 286.125 174.464 286.308C172.497 286.338 172.67 288.8 174.395 288.8ZM97.2525 262.261C96.8773 262.261 96.5175 262.393 96.2522 262.626C95.9868 262.86 95.8378 263.177 95.8378 263.508C95.8378 263.838 95.9868 264.155 96.2522 264.389C96.5175 264.623 96.8773 264.754 97.2525 264.754C102.186 264.754 121.403 263.204 126.06 262.778C126.281 262.741 126.48 262.637 126.623 262.484C126.766 262.332 126.844 262.14 126.844 261.942C126.844 261.744 126.766 261.552 126.623 261.4C126.48 261.247 126.281 261.143 126.06 261.106C121.265 261.44 102.014 261.896 97.2525 262.261ZM94.9065 269.375C94.6288 269.436 94.3861 269.583 94.2234 269.791C94.061 269.998 93.9899 270.25 94.0239 270.501C94.0579 270.751 94.1942 270.981 94.4077 271.149C94.6209 271.317 94.8966 271.41 95.1825 271.412C100.634 271.412 122.024 269.709 127.406 269.679C127.643 269.679 127.871 269.595 128.04 269.447C128.208 269.299 128.303 269.098 128.303 268.888C128.303 268.679 128.208 268.478 128.04 268.33C127.871 268.181 127.643 268.098 127.406 268.098C116.552 267.887 105.695 268.314 94.9065 269.375ZM124.646 274.239C115.617 274.124 106.587 274.439 97.5975 275.181C95.9415 275.364 95.8725 277.583 97.5975 277.583C100.668 277.583 117.435 276.063 124.68 275.82C124.798 275.818 124.914 275.795 125.022 275.754C125.13 275.712 125.227 275.652 125.309 275.577C125.391 275.502 125.455 275.414 125.498 275.318C125.541 275.221 125.562 275.118 125.56 275.014C125.557 274.91 125.532 274.808 125.485 274.713C125.437 274.618 125.369 274.532 125.285 274.459C125.2 274.388 125.1 274.331 124.99 274.293C124.88 274.255 124.763 274.237 124.646 274.239ZM135.996 208.757C137.687 208.757 154.902 207.176 158.283 206.964C158.521 206.964 158.749 206.88 158.917 206.732C159.085 206.584 159.18 206.383 159.18 206.173C159.18 205.964 159.085 205.763 158.917 205.614C158.749 205.466 158.521 205.383 158.283 205.383C156.593 205.383 138.135 205.869 136.1 205.991C134.064 206.112 134.064 208.757 135.996 208.757ZM139.55 214.898C144.966 214.898 166.08 213.135 171.428 212.831C171.622 212.796 171.798 212.703 171.924 212.567C172.05 212.431 172.118 212.261 172.118 212.086C172.118 211.911 172.05 211.741 171.924 211.605C171.798 211.469 171.622 211.376 171.428 211.341C166.046 211.554 144.794 211.645 139.515 212.132C139.139 212.185 138.797 212.354 138.552 212.611C138.306 212.867 138.174 213.192 138.178 213.528C138.182 213.863 138.323 214.186 138.575 214.438C138.826 214.689 139.172 214.853 139.55 214.898Z" fill="#4F378A"/>
</svg>
