<svg width="201" height="194" viewBox="0 0 201 194" fill="none" xmlns="http://www.w3.org/2000/svg">
<path d="M112.741 146.858C112.663 146.878 112.598 146.928 112.558 146.995C112.518 147.062 112.508 147.142 112.53 147.217C112.551 147.291 112.602 147.355 112.672 147.393C112.742 147.431 112.824 147.441 112.901 147.42C115.441 146.884 117.822 145.799 119.866 144.248C127.635 138.71 127.233 130.853 131.655 123.665C135.192 118.185 138.298 118.815 138.057 118.107C138.048 118.079 138.033 118.053 138.013 118.031C137.993 118.009 137.969 117.991 137.941 117.978C137.914 117.965 137.884 117.958 137.854 117.957C137.824 117.956 137.793 117.96 137.765 117.971C123.856 122.908 131.715 140.514 112.741 146.858ZM169.031 129.611C169.423 129.213 169.815 128.796 170.196 128.379C173.151 124.916 175.221 119.552 175.02 115.604C175.015 115.562 174.998 115.521 174.971 115.488C174.944 115.454 174.907 115.428 174.866 115.413C174.824 115.398 174.779 115.394 174.735 115.402C174.692 115.41 174.651 115.43 174.618 115.459C174.317 115.74 175.161 117.292 173.041 122.181C171.031 126.818 169.272 128.001 167.292 130.164C165.518 132.141 164.17 134.438 163.326 136.923C162.483 139.408 162.16 142.03 162.378 144.636C162.389 144.691 162.42 144.741 162.465 144.776C162.51 144.811 162.566 144.831 162.624 144.831C162.682 144.831 162.738 144.811 162.783 144.776C162.828 144.741 162.858 144.691 162.87 144.636C162.801 141.861 163.311 139.101 164.369 136.52C165.428 133.939 167.013 131.589 169.031 129.611ZM80.7917 87.7265C81.7967 87.0572 81.7263 85.0105 80.7917 84.2539C80.5274 84.048 80.2193 83.9009 79.8893 83.8229C79.5594 83.745 79.2157 83.7382 78.8828 83.803C78.5498 83.8679 78.2358 84.0027 77.963 84.198C77.6901 84.3933 77.4652 84.6442 77.3043 84.9329C77.1178 85.3842 77.0842 85.8809 77.2084 86.3518C77.3325 86.8226 77.6081 87.2434 77.9954 87.5537C78.3828 87.864 78.8621 88.0479 79.3644 88.079C79.8668 88.11 80.3665 87.9866 80.7917 87.7265ZM78.0279 85.5052C78.3294 84.3994 80.3093 84.2442 80.6108 85.35C80.8118 86.1066 80.7213 86.6401 80.3193 86.9311C80.0777 87.0761 79.8029 87.1617 79.519 87.1803C79.2352 87.1989 78.9509 87.15 78.6912 87.0378C78.4193 86.8905 78.2062 86.6595 78.086 86.3818C77.9658 86.1041 77.9454 85.7955 78.0279 85.5052ZM115.133 69.7815C115.094 69.7789 115.055 69.7839 115.019 69.7963C114.982 69.8088 114.949 69.8284 114.92 69.8539C114.892 69.8794 114.87 69.9102 114.854 69.9445C114.839 69.9788 114.831 70.0158 114.831 70.0531C114.831 71.0231 113.133 71.9931 112.821 72.0901C112.761 72.1043 112.709 72.1408 112.677 72.1918C112.645 72.2427 112.635 72.3038 112.65 72.3617C112.665 72.4196 112.703 72.4695 112.755 72.5004C112.808 72.5313 112.872 72.5408 112.932 72.5266C115.575 72.0028 115.977 69.7621 115.133 69.7815ZM111.605 68.2974C111.484 68.2295 110.952 67.8512 110.761 67.7057C110.761 67.5796 111.233 65.9597 111.324 65.6493C111.414 65.3389 111.002 65.2613 110.891 65.5135C110.471 66.2999 110.134 67.1254 109.886 67.9773C109.967 68.2586 111.364 68.6272 111.464 68.6272C111.506 68.6327 111.549 68.6247 111.585 68.6043C111.622 68.584 111.651 68.5525 111.667 68.5148C111.683 68.4771 111.685 68.4353 111.674 68.3959C111.663 68.3566 111.639 68.322 111.605 68.2974ZM108.288 63.0982C108.274 63.0144 108.229 62.9382 108.162 62.8832C108.095 62.8283 108.01 62.7981 107.922 62.7981C107.834 62.7981 107.748 62.8283 107.681 62.8832C107.614 62.9382 107.569 63.0144 107.555 63.0982C107.517 63.767 107.517 64.4373 107.555 65.1061C107.618 65.2056 107.713 65.2819 107.826 65.323C107.939 65.3642 108.063 65.3678 108.179 65.3333C108.294 65.2987 108.394 65.2281 108.463 65.1325C108.532 65.0369 108.566 64.9218 108.56 64.8054C108.421 64.2446 108.33 63.6736 108.288 63.0982ZM115.313 64.7957C115.185 64.2395 115.094 63.6757 115.042 63.1079C115.042 63.0127 115.003 62.9214 114.933 62.8541C114.863 62.7868 114.769 62.749 114.67 62.749C114.572 62.749 114.477 62.7868 114.407 62.8541C114.338 62.9214 114.298 63.0127 114.298 63.1079C114.262 63.7541 114.262 64.4017 114.298 65.0479C114.304 65.123 114.327 65.196 114.365 65.2617C114.403 65.3274 114.455 65.3843 114.519 65.4282C114.582 65.4722 114.655 65.5022 114.731 65.5161C114.808 65.53 114.887 65.5275 114.962 65.5087C115.038 65.4899 115.108 65.4554 115.169 65.4075C115.229 65.3595 115.277 65.2995 115.311 65.2315C115.344 65.1635 115.362 65.0892 115.362 65.0139C115.363 64.9386 115.346 64.8641 115.313 64.7957Z" fill="black"/>
<path d="M193.965 51.5846C193.894 45.5415 191.794 43.1553 185.312 43.3396C183.462 43.3396 150.488 43.6597 148.127 43.7373C146.543 43.7377 144.977 44.0513 143.524 44.6588C142.69 44.9789 138.328 47.0838 137.846 48.1993C137.323 48.9947 137.936 71.6539 137.846 76.3293C137.147 75.9455 136.43 75.5959 135.695 75.2817C135.562 74.6446 135.28 74.0451 134.871 73.529C134.462 73.0129 133.936 72.5939 133.333 72.3038C132.408 71.9546 131.223 72.3717 130.539 71.7412C129.856 71.1107 131.082 70.7712 131.213 69.8012C131.209 69.1286 131.128 68.4585 130.971 67.803C130.366 64.2868 129.52 60.8131 128.439 57.4046C127.534 54.6013 126.59 52.2248 123.987 50.7019C123.987 45.9877 123.494 18.3621 123.223 16.8974C122.955 15.4519 122.156 14.1479 120.973 13.225C119.79 12.302 118.301 11.8219 116.781 11.8728C116.68 11.8728 47.5161 11.8728 47.4357 11.9504C44.672 13.5412 43.9283 17.0914 43.7474 19.7104C43.6871 21.0199 44.873 47.4621 45.3453 55.8623C40.451 55.9593 15.728 56.5995 14.3109 57.327C11.105 58.0836 7.55735 60.237 6.8639 63.7387C6.43175 65.9891 7.3061 109.222 7.59755 111.269C7.80627 113.479 8.8297 115.544 10.4819 117.089C12.2808 118.612 14.733 118.893 16.8938 118.971L62.7519 118.136C58.2696 127.933 53.1039 141.824 49.6869 150.466C49.6709 150.491 49.6624 150.52 49.6624 150.549C49.6624 150.578 49.6709 150.607 49.6869 150.631C50.6117 151.508 51.6213 152.297 52.7019 152.988C51.0638 158.391 51.2447 158.692 50.8829 159.129C47.7774 162.805 44.0288 164.949 40.3304 165.298C38.6118 165.482 36.9134 165.773 36.3104 167.383C35.8179 168.848 37.1244 169.828 38.652 170.235C39.657 170.497 46.5111 171.962 47.5262 172.078C48.4257 172.224 49.3485 172.025 50.099 171.525C50.8226 171.011 53.2044 168.295 54.119 167.48C52.4607 175.24 51.305 172.767 55.2546 174.425C55.3098 174.454 55.3708 174.47 55.4332 174.473C55.4957 174.476 55.558 174.465 55.6157 174.442C55.6734 174.419 55.725 174.384 55.7668 174.339C55.8087 174.294 55.8397 174.241 55.8576 174.183C56.5611 172.243 61.3248 161.156 63.2645 158.275C63.7368 169.993 63.6564 169.381 63.8273 169.43C64.5006 169.595 65.2343 169.75 65.988 169.896C65.988 171.525 66.0383 173.194 66.179 175.017C66.179 175.075 66.0986 175.172 66.0182 175.328C63.5258 180.604 60.7319 182.758 57.6968 184.058C56.3501 184.64 54.4908 185.435 54.5411 187.229C54.5411 188.781 56.1893 189.276 57.7872 189.218C60.1892 189.14 63.2946 188.83 64.7016 188.762C68.7216 188.529 68.8221 187.792 70.5306 184.465C70.9226 183.699 71.3849 182.787 71.6462 182.341C72.1185 187.792 71.4955 188.597 72.2693 188.558C74.3698 188.452 75.2843 189.005 75.2843 188.277C75.3647 186.279 76.2893 178.422 76.7717 176.492C76.7717 176.268 76.6109 176.142 76.3697 176.094C76.6712 174.29 77.3747 170.739 77.4651 170.09C77.9676 170.022 78.4701 169.944 78.8621 169.857C78.9726 169.857 78.8621 170.371 80.5605 163.61C92.7613 168.256 105.776 169.372 117.454 166.724C117.866 168.266 120.851 178.781 122.479 183.388C123.034 184.894 123.773 186.33 124.68 187.666C124.911 187.879 125.303 188.258 125.685 188.258C126.067 188.258 126.489 187.744 126.59 187.22C126.69 186.696 125.112 171.399 124.58 165.88C126.967 165.309 129.283 164.486 131.484 163.426L134.74 173.863C134.835 174.018 134.979 174.141 135.15 174.214C135.322 174.286 135.512 174.305 135.696 174.268C135.879 174.23 136.045 174.138 136.171 174.005C136.297 173.871 136.377 173.703 136.398 173.523L136.087 161.02C137.608 160.063 139.065 159.013 140.449 157.877C141.077 158.463 141.783 158.966 142.549 159.371C142.628 159.413 142.72 159.423 142.807 159.4C142.893 159.376 142.967 159.32 143.011 159.245C143.847 158.025 144.785 156.873 145.815 155.801C145.614 157.053 145.222 159.614 145.172 160.409C145.171 160.46 145.18 160.511 145.2 160.559C145.219 160.607 145.249 160.65 145.287 160.686C145.324 160.723 145.369 160.751 145.419 160.77C145.468 160.789 145.521 160.798 145.574 160.797C146.641 160.765 147.707 160.899 148.73 161.195C145.453 162.718 143.956 164.008 144.157 165.075C144.55 166.98 145.101 168.852 145.805 170.672C146.348 172.185 146.911 173.756 148.599 174.416C156.338 177.578 167.835 175.269 175.603 172.117C182.196 169.624 183.161 165.589 182.578 159.885C182.457 158.799 181.151 158.673 178.407 158.741L185.091 150.583C187.101 148.265 185.352 148.342 184.719 143.793C185.324 144.659 186.051 145.439 186.879 146.111C186.929 146.148 186.985 146.175 187.046 146.19C187.106 146.205 187.17 146.208 187.231 146.198C187.503 146.15 187.292 146.286 189.784 141.96C189.831 141.881 189.849 141.788 189.835 141.698C189.82 141.608 189.774 141.526 189.704 141.465C188.608 140.592 185.965 138.555 185.965 138.555C187.328 138.244 188.67 137.855 189.985 137.391C190.298 137.313 190.582 137.15 190.803 136.921C191.024 136.693 191.172 136.408 191.231 136.101C191.362 135.344 191.372 120.105 191.392 118.03C191.392 117.69 190.829 117.593 190.769 117.962C189.593 125.654 184.196 132.056 177.302 133.967C177.523 133.103 178.086 131.231 177.774 130.717C176.637 130.027 175.428 129.454 174.166 129.01C175.423 128.321 178.327 126.527 178.538 125.974C178.669 125.654 178.025 110.687 177.995 109.047C177.99 108.98 177.963 108.916 177.918 108.864C177.873 108.812 177.812 108.775 177.744 108.759C177.676 108.743 177.604 108.748 177.539 108.774C177.474 108.799 177.419 108.844 177.382 108.902C175.436 112.61 172.558 115.789 169.011 118.146C168.599 118.418 165.634 119.941 165.403 120.144C164.659 120.833 165.584 121.677 165.975 122.21C166.257 122.579 167.222 123.83 167.413 124.092C163.875 124.509 162.94 123.336 162.759 124.092C162.412 125.08 161.943 126.025 161.363 126.905C161.57 127.755 161.835 128.591 162.156 129.408C161.568 129.501 160.967 129.501 160.378 129.408C160.273 129.386 160.163 129.403 160.07 129.455C159.977 129.507 159.908 129.59 159.875 129.689C159.594 130.572 159.373 131.309 159.172 131.998C157.953 130.004 156.611 128.083 155.152 126.246C154.438 120.988 151.865 114.848 146.428 114.033C150.519 112.384 153.202 108.145 153.845 103.848C155.775 103.848 183.653 103.771 184.779 103.848C190.879 104.013 193.603 101.763 194.176 95.7584C194.407 93.3625 193.965 52.0211 193.965 51.5846ZM55.1843 167.073C55.2096 166.97 55.1937 166.862 55.1396 166.77C55.0855 166.678 54.9973 166.61 54.8928 166.578C54.0788 166.287 53.4557 166.976 53.0034 167.471C51.8586 168.816 50.6015 170.068 49.2447 171.215C48.491 171.564 39.7173 169.808 38.6219 169.478C38.0322 169.349 37.5193 169.001 37.1948 168.508C37.0679 168.15 37.0817 167.76 37.2337 167.411C37.3856 167.062 37.6651 166.78 38.0189 166.617C38.7927 166.161 39.3656 166.2 41.5364 165.812C43.7072 165.424 45.8579 165.046 49.6367 161.612C50.1631 161.125 50.6535 160.603 51.104 160.05C51.7315 161.396 52.7877 162.514 54.119 163.241C55.9026 164.006 57.8944 164.193 59.7972 163.775C58.7922 165.715 56.0184 171.777 55.325 173.63C54.7722 173.417 54.2094 173.223 53.6567 173.067C54.2792 171.098 54.7892 169.096 55.1843 167.073ZM143.443 113.956C142.03 114.014 140.626 114.209 139.253 114.538C134.751 115.029 130.225 115.281 125.695 115.294C125.032 111.414 125.233 112.132 125.062 111.055C124.992 110.59 124.891 109.95 125.243 109.746C130.057 107.67 135.062 105.788 139.856 103.761C140.861 104.469 140.941 104.382 141.031 104.324C141.074 104.279 141.098 104.22 141.098 104.159C141.098 104.097 141.074 104.039 141.031 103.994C140.639 103.611 140.227 103.249 139.795 102.907C135.937 99.5772 133.25 95.1696 132.107 90.2973C132.094 90.2394 132.057 90.189 132.005 90.1572C131.953 90.1254 131.891 90.1147 131.831 90.1276C131.771 90.1404 131.718 90.1758 131.685 90.2258C131.652 90.2758 131.641 90.3364 131.655 90.3943C132.506 95.4613 135.222 100.062 139.303 103.354L125.444 108.883C125.043 108.996 124.691 109.231 124.439 109.552C123.745 109.37 123.118 109.003 122.63 108.495C120.017 106.467 118.972 107.854 115.595 110.435C115.268 110.672 114.959 110.932 114.67 111.211C112.885 109.678 111.106 108.139 109.334 106.593C108.881 105.953 104.761 92.2373 103.073 86.7277C104.378 83.6734 106.483 80.9992 109.183 78.9677C109.495 79.8877 109.888 80.7802 110.359 81.6352C111.113 82.3336 112.087 81.9941 113.032 81.771C112.772 82.2923 112.622 82.8585 112.591 83.4364C112.56 84.0143 112.648 84.5924 112.851 85.1369C113.563 86.6766 114.674 88.013 116.077 89.0169C119.514 91.9269 119.343 91.8493 119.544 91.8493C119.637 91.8449 119.725 91.8079 119.792 91.7455C119.858 91.683 119.899 91.5992 119.906 91.5098C120.248 88.1245 121.374 87.1933 124.549 86.1166C126.286 85.5694 127.756 84.4281 128.681 82.9077C129.607 81.3872 129.925 79.5927 129.574 77.8619C131.675 77.8773 133.768 77.6162 135.795 77.0859C135.891 77.0651 135.974 77.0085 136.027 76.9285C136.08 76.8485 136.098 76.7517 136.077 76.6591C136.077 76.4942 136.006 76.3002 135.956 76.0965C150.619 82.9738 159.554 104.401 147.725 112.365C146.438 113.196 144.975 113.74 143.443 113.956ZM146.82 115.061C149.403 115.595 151.564 117.69 152.971 121.376C159.684 138.885 144.036 160.099 124.61 165.026C124.489 163.852 123.826 157.043 123.695 156.539C123.599 156.093 123.334 155.699 122.951 155.433C121.715 154.773 119.595 155.501 118.469 156.141C117.396 156.829 116.437 157.669 115.625 158.634C115.625 158.944 117.032 164.793 117.333 165.986C105.119 168.452 92.4223 167.4 80.8218 162.96C82.6107 155.782 84.9825 145.956 85.6458 142.91C92.5602 144.986 102.279 144.792 102.379 144.782C102.411 144.774 102.44 144.756 102.46 144.73C102.48 144.705 102.491 144.674 102.491 144.642C102.491 144.609 102.48 144.578 102.46 144.553C102.44 144.527 102.411 144.509 102.379 144.501C96.8013 142.706 91.9874 138.08 88.8317 131.464C83.9775 121.58 73.9074 121.696 69.9879 126.614C64.3197 133.715 63.4052 154.376 63.3147 156.868C62.963 157.489 60.9429 161.301 60.1791 162.853C54.1491 164.24 52.4306 160.913 51.6969 159.487C51.5763 159.245 51.6366 159.885 53.5059 153.512C54.5109 153.988 61.6565 156.422 61.6665 155.704C61.7469 147.459 63.8172 127.846 69.4251 123.336C73.4451 120.154 82.1384 120.707 85.9875 123.462C88.4346 125.617 90.4363 128.201 91.8869 131.076C95.1129 137.759 100.671 142.716 106.841 143.958C114.751 143.288 123.926 131.125 126.549 123.345C131.393 117.419 139.383 114.024 146.82 115.061ZM162.548 154.511C162.562 154.569 162.598 154.62 162.65 154.651C162.702 154.683 162.765 154.694 162.825 154.681C162.885 154.668 162.937 154.633 162.97 154.583C163.003 154.533 163.014 154.472 163.001 154.414C162.368 151.291 160.579 148.594 159.453 145.684C157.503 140.708 158.92 135.364 160.569 130.31C161.304 130.442 162.064 130.347 162.739 130.038C163.292 129.621 162.85 128.913 162.227 127.128C162.739 126.38 163.142 125.568 163.423 124.713C164.994 125.072 166.627 125.092 168.207 124.771C168.268 124.756 168.325 124.727 168.372 124.687C168.42 124.647 168.457 124.596 168.48 124.539C168.504 124.483 168.513 124.421 168.508 124.36C168.502 124.3 168.481 124.241 168.448 124.189C167.774 123.336 165.996 120.998 165.905 120.823C165.815 120.649 165.905 120.668 166.197 120.542C171 118.432 174.939 114.838 177.392 110.328C177.513 113.5 177.905 125.305 177.794 125.78C176.233 126.871 174.586 127.844 172.87 128.69C172.795 128.73 172.734 128.79 172.695 128.864C172.655 128.937 172.64 129.02 172.649 129.102C172.659 129.184 172.694 129.262 172.749 129.325C172.804 129.388 172.878 129.434 172.96 129.456C174.382 129.926 175.76 130.51 177.081 131.202C177.262 131.484 176.628 133.705 176.518 134.277L175.513 134.471C175.413 134.496 175.327 134.558 175.273 134.643C175.218 134.728 175.2 134.829 175.221 134.927C175.483 136.644 176.076 140.873 176.076 140.873C173.191 138.283 173.211 136.848 172.588 136.789C172.527 136.782 172.464 136.79 172.406 136.812C172.348 136.834 172.297 136.869 172.257 136.916C167.531 142.208 164.878 148.932 164.759 155.918C164.771 155.97 164.8 156.017 164.843 156.051C164.886 156.085 164.94 156.103 164.996 156.103C165.051 156.103 165.105 156.085 165.148 156.051C165.191 156.017 165.221 155.97 165.232 155.918C165.61 149.308 168.151 142.985 172.488 137.856C173.487 139.518 174.8 140.986 176.357 142.183C176.424 142.24 176.507 142.275 176.595 142.283C176.683 142.292 176.772 142.273 176.849 142.23C176.926 142.187 176.987 142.122 177.023 142.044C177.059 141.966 177.069 141.878 177.051 141.795C177.051 141.795 176.327 137.071 176.046 135.15C182.89 133.976 188.769 128.36 190.749 121.202C190.749 125.188 190.608 135.073 190.608 135.17C190.608 135.8 190.608 136.401 190.025 136.683C188.377 137.242 186.7 137.717 185 138.109C184.931 138.126 184.867 138.162 184.817 138.211C184.766 138.261 184.73 138.322 184.713 138.39C184.695 138.457 184.697 138.528 184.717 138.594C184.738 138.661 184.777 138.721 184.829 138.768C185.302 139.137 188.015 141.281 188.91 141.969C188.91 141.969 187.684 144.229 187.06 145.345C186.041 144.435 185.197 143.358 184.568 142.163C184.527 142.095 184.464 142.042 184.389 142.012C184.314 141.982 184.231 141.976 184.152 141.996C184.074 142.016 184.004 142.06 183.954 142.122C183.904 142.183 183.876 142.259 183.875 142.338C184.156 148.817 186.307 147.974 184.528 150.098C178.397 157.538 177.322 159.943 170.719 161.825C172.046 156.005 176.588 153.648 178.407 149.448C179.412 147.149 179.191 144.598 179.985 142.289C180.538 140.687 181.442 139.218 182.635 137.983C183.828 136.748 185.282 135.775 186.9 135.131C186.958 135.111 187.007 135.07 187.034 135.017C187.061 134.963 187.065 134.901 187.045 134.845C187.025 134.788 186.983 134.741 186.927 134.715C186.872 134.689 186.807 134.685 186.749 134.704C184.643 135.421 182.784 136.689 181.381 138.365C179.977 140.042 179.083 142.062 178.799 144.2C178.367 147.178 178.458 148.643 176.528 151.252C174.397 154.114 170.91 156.645 169.784 162.068C168.037 162.488 166.248 162.728 164.448 162.785C164.237 161.049 163.131 160.031 162.347 159.992C161.624 158.77 153.996 147.566 151.182 145.112C154.294 139.707 155.724 133.55 155.302 127.38C156.508 129.097 158.569 132.318 158.93 132.948C155.423 146.004 161.152 147.964 162.548 154.511ZM146.7 154.938C146.699 154.87 146.679 154.803 146.64 154.745C146.602 154.688 146.547 154.642 146.483 154.613C146.418 154.585 146.347 154.575 146.277 154.584C146.206 154.594 146.141 154.622 146.087 154.667C144.801 155.898 143.634 157.239 142.599 158.673C142.007 158.339 141.452 157.949 140.941 157.509C143.37 155.471 145.573 153.196 147.514 150.719C158.187 163.076 157.674 162.718 157.976 162.485C157.999 162.469 158.02 162.449 158.035 162.426C158.05 162.403 158.061 162.377 158.065 162.35C158.07 162.322 158.069 162.295 158.062 162.268C158.055 162.241 158.043 162.216 158.026 162.194C157.322 161.166 150.157 152.494 147.976 150.059C149.012 148.678 149.958 147.236 150.81 145.743C154.83 149.535 161.071 159.517 161.654 160.457C161.099 161.228 160.84 162.161 160.92 163.096C159.651 163.438 158.317 163.494 157.021 163.261C155.483 162.97 149.735 160.244 145.966 160.137C146.207 159.08 146.589 155.85 146.73 154.938H146.7ZM120.389 156.17H120.56C121.343 155.995 122.57 155.734 122.861 156.5C123.012 157.024 126.047 185.959 126.047 186.851C126.063 186.992 126.047 187.134 126 187.268C125.953 187.402 125.877 187.525 125.775 187.627C123.162 186.657 116.73 160.923 116.479 158.741C117.492 157.531 118.852 156.637 120.389 156.17ZM13.3763 110.367C13.3763 108.145 11.8487 64.1073 11.9994 62.5165C12.2607 59.5192 13.3763 58.1709 15.8385 57.8605C18.4415 57.3755 42.7424 56.7062 45.3956 56.6383C45.4559 57.6083 45.5061 58.2873 45.5262 58.4134C45.6376 59.1766 46.0148 59.8804 46.5956 60.4093C47.1764 60.9381 47.9263 61.2605 48.7221 61.3234C48.7221 61.2264 48.0588 61.3234 68.8221 61.3913C68.8221 64.4177 69.0131 78.6379 69.0231 79.3072C63.1137 79.5206 57.0234 79.7534 55.8576 79.8601C55.6968 79.8601 55.5561 80.1414 55.6164 80.2772C57.3651 84.4482 65.1539 101.384 67.3347 105.73C67.5382 106.224 67.8877 106.649 68.3397 106.952C68.6211 107.36 68.9528 107.816 69.3447 108.271C66.1589 110.726 65.0132 113.442 63.164 117.419C54.6516 117.593 20.15 118.282 19.3761 118.253C17.2254 118.165 15.7079 117.564 14.7632 116.419C13.326 114.77 13.3863 112.52 13.3763 110.367ZM129.645 71.6248C129.856 72.362 130.65 72.7597 131.876 72.7888C133.986 72.7015 134.891 74.4572 135.273 76.4748C133.218 76.8624 131.134 77.0862 129.042 77.1441C128.981 77.1447 128.922 77.1589 128.868 77.1855C128.814 77.2121 128.767 77.2504 128.731 77.2974C128.695 77.3444 128.671 77.3988 128.66 77.4563C128.649 77.5139 128.653 77.573 128.67 77.6291C128.991 78.7364 128.994 79.9071 128.679 81.0159C128.364 82.1247 127.742 83.1301 126.881 83.9244C124.178 86.4367 119.846 85.0496 119.213 90.8405C118.308 90.0839 114.962 87.3388 114.278 86.5337C113.102 85.2242 112.63 83.0514 113.836 81.6837C116.419 81.2763 119.029 81.0526 121.645 81.0144C121.704 81.0144 121.76 80.9919 121.801 80.9519C121.843 80.9119 121.866 80.8576 121.866 80.801C121.866 80.7444 121.843 80.6901 121.801 80.6501C121.76 80.6101 121.704 80.5876 121.645 80.5876C118.635 80.3816 115.609 80.5907 112.66 81.2084C111.535 81.5091 110.982 81.7225 110.479 80.704C110.228 80.1899 108.731 75.7861 108.469 74.9713C108.007 73.914 108.288 74.2341 109.133 73.7297C109.96 74.4044 110.888 74.9538 111.886 75.3593C111.886 75.4757 112.409 77.018 112.489 77.2993C112.524 77.5324 112.644 77.7455 112.829 77.899C113.014 78.0525 113.251 78.1358 113.494 78.1335C115.838 78.3413 118.199 78.0101 120.385 77.1671C122.57 76.3241 124.517 74.9932 126.067 73.2835C126.098 73.2428 126.112 73.1926 126.106 73.1425C126.101 73.0924 126.077 73.046 126.038 73.0122C125.999 72.9785 125.949 72.9598 125.897 72.9597C125.845 72.9596 125.794 72.9782 125.755 73.0119C124.199 74.5304 122.329 75.7158 120.267 76.4912C118.205 77.2666 115.996 77.6147 113.786 77.5127C113.082 77.4642 113.173 77.6097 112.58 75.5727C115.293 76.3099 115.977 75.3108 115.012 76.2323C114.98 76.2686 114.963 76.3143 114.963 76.3616C114.962 76.4089 114.979 76.4548 115.01 76.4915C115.041 76.5282 115.084 76.5534 115.132 76.5627C115.18 76.5721 115.23 76.565 115.273 76.5427C118.929 73.9047 121.596 70.1901 122.871 65.96C122.88 65.9326 122.884 65.9038 122.881 65.8751C122.878 65.8464 122.87 65.8186 122.856 65.7932C122.842 65.7678 122.822 65.7454 122.799 65.7274C122.776 65.7094 122.749 65.6962 122.72 65.6884C122.198 65.5138 122.549 66.5129 120.097 70.3832C119.092 66.5032 119.766 62.4001 118.68 58.5007C118.666 58.4454 118.629 58.398 118.578 58.3689C118.527 58.3398 118.466 58.3314 118.409 58.3455C118.352 58.3597 118.302 58.3952 118.272 58.4443C118.242 58.4934 118.233 58.5521 118.248 58.6074C118.424 59.4326 118.538 60.269 118.59 61.11C116.449 59.0633 111.927 55.7944 108.359 56.5413C107.59 56.5642 106.862 56.8783 106.331 57.4156C105.801 57.953 105.511 58.6704 105.525 59.4125C104.66 58.2873 105.263 56.5704 106.047 55.6198C108.118 53.0105 111.796 51.7398 115.464 50.7698C118.71 49.9356 123.052 50.052 125.514 52.8844C126.582 54.298 127.354 55.8994 127.785 57.5986C129.069 61.4278 129.965 65.3684 130.459 69.3647C130.497 69.5259 130.489 69.694 130.436 69.8512C130.383 70.0084 130.287 70.1487 130.157 70.2571C129.957 70.4229 129.804 70.636 129.714 70.8757C129.624 71.1154 129.6 71.3735 129.645 71.6248ZM68.0684 105.497C67.1237 103.557 57.7872 83.5752 56.2998 80.2772C59.6264 80.2772 97.1631 78.9483 97.8164 78.9289C99.0928 82.8865 106.53 106.787 106.53 106.991C106.53 106.991 97.6455 107.204 92.8517 107.389C84.7614 103.451 77.2742 103.877 71.8271 106.661C68.7518 106.535 68.6111 106.593 68.0684 105.497ZM106.258 65.2616C106.118 62.3516 106.258 60.3243 106.731 60.1206C108.459 59.364 111.685 59.1506 115.273 60.2467C115.725 60.3922 117.173 61.1197 118.63 61.7114C118.791 64.8154 118.63 68.1037 119.635 71.1107C118.747 72.6143 117.605 73.9648 116.258 75.1071C110.178 75.8831 106.53 71.1883 106.238 65.2616H106.258ZM115.484 123.268C115.243 123.714 119.333 126.682 119.776 127.002C121.223 128.321 119.454 129.039 117.987 127.768C109.947 120.794 103.093 112.801 94.1582 108.029C99.3641 107.864 105.806 107.68 106.912 107.67C108.027 108.708 120.982 120.416 124.328 123.19C114.982 123.258 115.575 123.112 115.464 123.268H115.484ZM125.353 123.132C125.253 123.045 108.268 108.233 107.615 107.495C107.233 106.875 100.188 83.7983 98.5701 79.152C99.5628 79.8054 100.299 80.762 100.661 81.868C101.264 83.5267 108.108 105.643 108.138 105.749C108.22 106.287 108.469 106.787 108.851 107.185C111.494 109.639 122.71 119.456 126.358 122.366C126.147 122.618 125.936 122.87 125.735 123.132H125.353ZM124.62 113.81C122.871 113.674 122.318 113.48 121.886 113.994C121.745 114.208 121.343 114.683 120.831 114.576C120.742 114.556 120.658 114.519 120.585 114.466C120.512 114.414 120.451 114.347 120.406 114.271C120.36 114.194 120.332 114.109 120.322 114.022C120.312 113.934 120.321 113.846 120.348 113.762C120.841 113.315 121.353 112.927 121.816 112.452C121.841 112.419 121.853 112.378 121.851 112.337C121.849 112.296 121.833 112.257 121.805 112.225C121.777 112.194 121.74 112.173 121.698 112.165C121.656 112.156 121.613 112.162 121.575 112.181C121.062 112.501 120.57 113.015 119.987 113.354C119.939 113.355 119.891 113.366 119.848 113.386C119.804 113.406 119.766 113.435 119.735 113.471C119.615 113.518 119.485 113.537 119.355 113.528C119.226 113.519 119.1 113.481 118.988 113.417C118.877 113.353 118.781 113.265 118.711 113.16C118.64 113.055 118.595 112.936 118.58 112.811C118.58 112.035 119.444 111.521 119.946 110.949C120.147 110.755 119.846 110.464 119.635 110.648C119.096 111.087 118.596 111.567 118.137 112.084C117.558 112.261 116.967 112.401 116.369 112.501C116.097 112.501 116.369 112.666 115.183 111.686C116.419 110.566 117.766 109.566 119.203 108.698C121.645 107.146 122.097 109.833 124.298 110.144C124.296 111.372 124.404 112.599 124.62 113.81ZM126.881 121.803L116.761 113.073C117.128 113.003 117.49 112.912 117.846 112.801C117.838 113.012 117.881 113.221 117.971 113.413C118.061 113.605 118.197 113.774 118.366 113.907C118.536 114.04 118.735 114.132 118.948 114.178C119.162 114.223 119.383 114.22 119.595 114.169C119.635 114.375 119.725 114.568 119.857 114.734C119.99 114.9 120.161 115.033 120.357 115.123C120.553 115.213 120.768 115.257 120.985 115.251C121.202 115.245 121.414 115.19 121.605 115.091C122.992 114.479 121.605 114.247 123.846 114.441C124.137 114.441 124.449 114.499 124.75 114.509C124.841 114.964 124.931 115.382 125.032 115.779C125.056 115.859 125.106 115.928 125.175 115.977C125.244 116.026 125.328 116.052 125.414 116.051C143.383 115.682 134.559 113.286 126.861 121.803H126.881ZM102.761 85.6801C101.625 82.0038 101.032 79.0356 98.741 78.279C98.741 78.3954 99.5952 78.1529 69.8472 79.249C69.8472 74.5251 69.6362 63.0985 69.606 61.3622H105.635C105.354 65.5623 105.635 70.0922 108.65 73.2156C108.288 73.3514 107.645 73.6424 107.495 73.8849C107.865 75.4527 108.363 76.99 108.982 78.4827C106.286 80.3193 104.128 82.7991 102.721 85.6801H102.761ZM98.6304 55.6974C98.6304 54.3394 98.3088 47.0353 98.2385 45.6967H100.801C100.801 47.0741 100.992 54.3491 101.052 55.6877C100.248 55.6683 99.4344 55.678 98.6304 55.6974ZM83.9072 55.9884C83.9172 53.35 83.5655 31.04 83.5152 28.13H86.078C86.078 35.502 86.2991 53.9417 86.3393 55.9496L83.9072 55.9884ZM68.0483 31.8742H70.6211C70.6211 38.2471 70.8321 54.3394 70.8824 56.2503H68.4503C68.4603 53.8641 68.1086 34.532 68.0483 31.8742ZM46.2297 57.9866C46.089 57.1621 44.9232 31.331 44.4509 21.437C44.3403 18.3912 45.1745 14.647 47.295 12.9107C47.295 19.7007 48.1995 57.1718 48.4005 60.5668C47.8091 60.4021 47.284 60.0665 46.8959 59.6053C46.5079 59.144 46.2754 58.5792 46.2297 57.9866ZM138.438 49.9259C138.356 49.2927 138.513 48.652 138.881 48.1217C139.667 47.5239 140.512 47.0009 141.403 46.56C140.398 48.306 140.66 47.821 141.192 78.473C140.363 77.8632 139.501 77.2965 138.609 76.7755C138.509 71.8867 138.459 54.1163 138.469 49.9259H138.438ZM147.222 60.7026C147.689 60.0628 148.31 59.5416 149.031 59.1835C149.752 58.8255 150.552 58.6411 151.363 58.6462C155.453 58.6462 156.941 63.341 157.745 67.1628C158.448 70.1601 158.498 73.6909 160.76 76.1353C171.272 85.3309 172.066 72.4978 178.458 72.9925C180.468 73.2156 181.804 74.9907 183.241 76.2711C183.856 76.9371 184.718 77.3423 185.64 77.3986C186.562 77.4549 187.469 77.1578 188.166 76.5718V90.3555C185.694 90.3555 154.297 90.1324 150.85 90.1712C150.011 88.4759 149.022 86.8533 147.896 85.3212C148.016 84.1475 147.272 61.7502 147.252 60.7026H147.222ZM151.242 90.8308C155.865 90.8987 185.201 90.9763 188.246 90.9763C188.251 91.3458 188.274 91.7149 188.317 92.0821C188.324 92.1602 188.361 92.233 188.42 92.2867C188.479 92.3403 188.557 92.3711 188.638 92.3731C189.231 92.3731 188.96 93.2558 188.859 66.9494C188.859 66.8851 188.833 66.8234 188.786 66.7779C188.739 66.7325 188.675 66.7069 188.608 66.7069C188.541 66.7069 188.478 66.7325 188.43 66.7779C188.383 66.8234 188.357 66.8851 188.357 66.9494C188.357 68.676 188.246 74.3796 188.236 75.5048C188.006 75.8554 187.692 76.1483 187.322 76.3595C186.951 76.5706 186.534 76.694 186.105 76.7196C185.675 76.7452 185.245 76.6721 184.851 76.5065C184.456 76.3409 184.108 76.0873 183.834 75.7667C180.93 72.8567 178.056 70.4317 173.855 74.1759C170.418 77.6 168.528 80.4906 163.805 77.5321C161.892 76.5485 160.451 74.8859 159.785 72.8955C158.197 67.3956 158.639 58.9081 151.926 57.7829C151.028 57.6944 150.122 57.8196 149.286 58.1477C148.45 58.4758 147.71 58.9966 147.132 59.6647C147.132 58.1903 147.021 56.7547 146.961 55.2609C146.961 55.1992 146.935 55.14 146.89 55.0963C146.845 55.0526 146.784 55.0281 146.72 55.0281C146.656 55.0281 146.594 55.0526 146.549 55.0963C146.504 55.14 146.479 55.1992 146.479 55.2609C146.479 56.8711 147.001 79.3557 147.162 84.293C145.613 82.3368 143.832 80.5625 141.855 79.0065C141.855 75.3108 141.514 51.313 141.474 49.8289C141.413 47.1323 142.529 45.5706 145.102 44.9207C147.212 44.3581 185.161 43.7955 188.769 44.2708C191.161 44.5618 192.528 46.8219 192.869 48.7813C193.291 51.216 193.412 91.4613 193.422 91.9948C193.502 96.7478 192.92 102.17 187.794 102.839C186.638 102.995 158.046 103.063 153.895 103.024C154.024 98.8161 153.122 94.6386 151.262 90.8308H151.242ZM121.816 15.326C123.022 17.363 122.338 16.8004 123.193 50.3042C119.032 48.4903 113.143 50.1587 109.123 52.2442V23.5031C109.123 23.28 109.645 23.3479 106.108 23.3479C105.887 23.3479 105.907 21.3497 106.65 53.8544C106.047 54.3798 105.523 54.9838 105.093 55.6489H101.716C101.716 54.3879 101.334 45.4445 101.294 45.3669C101.282 45.3165 101.253 45.2715 101.211 45.2397C101.168 45.2078 101.116 45.1911 101.063 45.1923C99.9767 45.1572 98.8896 45.1798 97.8063 45.2602C97.7742 45.2814 97.7488 45.3107 97.7328 45.3449C97.7168 45.3791 97.711 45.417 97.7159 45.4542C97.7159 46.4242 97.8968 54.3006 97.9671 55.6974L94.1783 55.775C94.3692 39.2074 94.4396 40.0804 94.1783 40.061C91.4547 40.1677 91.3944 40.1192 91.3944 40.3132V55.8332L86.9725 55.9205C86.9725 53.7574 86.6307 29.3134 86.5604 27.8972C86.5634 27.8334 86.5412 27.7709 86.4983 27.7223C86.4554 27.6737 86.395 27.6426 86.3292 27.6353C86.3292 27.6353 83.1836 27.6353 83.0831 27.7323C82.7916 27.9554 83.2439 54.8923 83.2439 55.9981L78.4701 56.0854V41.6033C78.4346 41.5898 78.3951 41.5898 78.3596 41.6033C75.5858 41.6033 75.6159 41.6033 75.6159 41.8167V56.1436L71.5356 56.26C71.2542 31.2146 71.0231 31.6705 71.1236 31.6705C71.124 31.6084 71.1007 31.5483 71.058 31.5017C71.0154 31.4552 70.9564 31.4255 70.8924 31.4183C70.8924 31.4183 67.7669 31.4183 67.6664 31.4959C67.3247 31.6996 67.8071 54.611 67.8071 56.3376L62.2796 56.4346C62.3097 18.6337 62.4203 20.37 62.159 20.37L59.6967 20.4573C59.5259 20.4573 59.5862 18.139 59.5862 56.4734C55.4456 56.551 55.5662 56.4734 55.5059 56.6286C55.4866 56.6589 55.4758 56.6935 55.4746 56.729C55.4734 56.7645 55.4819 56.7997 55.4992 56.8311C55.5165 56.8624 55.5419 56.8889 55.5731 56.9078C55.6042 56.9268 55.64 56.9375 55.6767 56.939C61.7771 56.939 98.7209 56.5801 104.741 56.4055C104.138 57.8896 104.248 59.5289 105.645 60.3922V60.6056C99.8364 60.7705 50.1291 60.6056 49.2347 60.6056C49.2347 59.3349 48.1091 14.9574 48.099 12.4742C55.0637 12.4742 116.439 12.5615 118.037 12.8137C118.82 12.9362 119.566 13.2251 120.219 13.6596C120.873 14.094 121.418 14.6632 121.816 15.326ZM12.2708 58.879C11.115 60.4892 11.0547 62.5844 11.0547 64.6117C11.0547 65.0579 12.4617 112.801 12.6728 113.965C12.793 114.81 13.0991 115.62 13.5706 116.341C14.0421 117.062 14.6681 117.678 15.4064 118.146C14.2251 118.089 13.0702 117.788 12.0195 117.263C9.78845 116.08 8.94425 113.645 8.64275 112.297C8.1101 109.872 7.4066 68.2201 7.5272 66.0667C7.45685 62.4971 8.7131 60.5668 12.2507 58.879H12.2708ZM163.021 168.576C167.043 168.306 170.984 167.346 174.659 165.744C177.272 164.58 180.528 162.737 181.875 161.272C182.086 165.851 181.121 168.809 176.247 170.972C169.794 173.882 154.488 177.452 147.875 173.194C147.283 172.641 145.865 168.441 145.303 166.501C148.187 168.353 156.589 169.071 163.001 168.576H163.021ZM72.1286 181.283C71.2844 181.215 70.8824 182.03 70.601 182.622C68.2493 187.472 68.2794 187.782 65.8875 187.938C65.1338 187.986 58.0385 188.549 57.5159 188.549C55.6868 188.675 54.6717 187.462 55.9682 185.978C56.7073 185.44 57.5275 185.015 58.4003 184.717C61.1942 183.466 65.6162 180.158 66.591 176.065C67.5998 177.209 68.976 177.994 70.5005 178.296C72.388 178.491 74.2917 178.115 75.9476 177.219C75.5657 179.314 74.6813 185.842 74.5707 187.889C73.9832 187.83 73.3926 187.804 72.8019 187.811C72.7919 187.259 72.6009 181.322 72.1085 181.283H72.1286ZM75.827 176.288C74.521 177.179 72.9541 177.645 71.3547 177.617C70.5087 177.555 69.6848 177.326 68.9344 176.944C68.184 176.562 67.5232 176.035 66.993 175.395C66.993 175.095 66.8825 171.845 66.9126 170.099C70.1689 170.347 73.4375 170.409 76.7013 170.284C76.5405 171.137 76.028 174.6 75.8069 176.288H75.827Z" fill="black"/>
<path d="M175.875 51.0802C175.932 51.0691 175.983 51.0394 176.019 50.996C176.056 50.9527 176.076 50.8985 176.076 50.8426C176.076 50.7866 176.056 50.7324 176.019 50.6891C175.983 50.6458 175.932 50.6161 175.875 50.6049H174.187C161.554 50.9832 161.966 50.9735 161.976 51.313C161.986 51.6525 161.594 51.7301 175.875 51.0802ZM176.297 53.35C174.046 53.35 165.242 53.4664 162.981 53.641C162.901 53.6543 162.83 53.6942 162.778 53.7536C162.726 53.8131 162.697 53.8883 162.697 53.966C162.697 54.0437 162.726 54.1189 162.778 54.1783C162.83 54.2378 162.901 54.2777 162.981 54.2909C165.282 54.2909 174.036 53.8544 176.307 53.7671C176.356 53.7557 176.4 53.7284 176.431 53.6898C176.462 53.6511 176.478 53.6034 176.477 53.5547C176.475 53.5059 176.457 53.459 176.424 53.4217C176.392 53.3845 176.347 53.3592 176.297 53.35ZM174.086 56.9196C172.518 56.9778 167.483 56.9196 162.679 56.9196C162.573 56.9196 162.47 56.9605 162.395 57.0333C162.32 57.106 162.277 57.2047 162.277 57.3076C162.277 57.4105 162.32 57.5092 162.395 57.582C162.47 57.6548 162.573 57.6956 162.679 57.6956C163.684 57.7635 173.111 57.3852 174.096 57.3464C174.155 57.3451 174.21 57.3214 174.251 57.2805C174.291 57.2396 174.314 57.1848 174.312 57.1282C174.311 57.0716 174.286 57.0178 174.244 56.9787C174.201 56.9396 174.145 56.9183 174.086 56.9196ZM141.705 8.44873C140.527 8.72787 139.45 9.31013 138.588 10.1335C137.726 10.9568 137.112 11.9904 136.811 13.1241C135.695 17.2466 139.564 21.7377 144.016 21.0199C144.989 20.8216 145.91 20.4337 146.722 19.88C147.535 19.3262 148.221 18.6183 148.74 17.7995C149.247 16.8959 149.535 15.8929 149.582 14.8663C149.629 13.8397 149.434 12.8161 149.011 11.8728C148.408 10.2044 146.619 7.53693 141.705 8.44873ZM144.137 16.6258C142.197 17.9159 139.926 15.5685 140.821 14.1232C142.429 11.543 145.283 13.4927 145.353 14.4627C145.352 14.8934 145.239 15.317 145.025 15.6948C144.811 16.0726 144.502 16.3927 144.127 16.6258H144.137ZM144.016 12.2123C143.338 12.0063 142.608 12.0231 141.941 12.2601C141.274 12.497 140.706 12.9407 140.328 13.5218C140.019 14.045 139.902 14.6538 139.997 15.2491C140.092 15.8444 140.393 16.3911 140.851 16.8004C141.215 17.1383 141.664 17.3802 142.153 17.503C142.642 17.6258 143.156 17.6254 143.645 17.5018C144.134 17.3782 144.582 17.1355 144.946 16.7971C145.311 16.4586 145.579 16.0356 145.725 15.5685C146.583 16.1114 147.542 16.4871 148.549 16.6743C148.193 17.5122 147.647 18.2626 146.952 18.8702C146.256 19.4779 145.428 19.9274 144.529 20.1857C140.509 21.3109 136.931 17.7898 137.383 13.9874C137.516 13.1019 137.855 12.2569 138.375 11.5163C138.896 10.7757 139.583 10.1589 140.387 9.71238C141.19 9.26584 142.088 9.00127 143.013 8.93864C143.937 8.87601 144.865 9.01695 145.725 9.35083C144.929 10.1625 144.341 11.1424 144.006 12.2123H144.016Z" fill="black"/>
<path d="M132.66 25.1033C135.112 24.9772 180.015 24.6474 183.291 23.7065C185.814 23.2603 186.678 22.1351 186.548 19.681C186.548 18.8662 186.688 9.52515 186.427 7.86645C186.196 5.81975 185.06 4.84975 182.668 4.72365C180.658 4.53935 134.077 5.23775 131.876 5.69365C130.087 6.03315 128.861 6.66365 128.619 8.60365C128.509 9.19535 128.991 20.1466 129.052 21.2136C129.192 23.5222 130.388 24.8899 132.66 25.1033ZM136.579 24.4437C135.987 24.3749 135.419 24.1799 134.915 23.8729C134.411 23.5659 133.984 23.1546 133.665 22.6686C132.956 21.4911 132.591 20.1502 132.609 18.7886C132.499 17.1396 132.177 11.0286 132.137 9.55425C132.137 8.95285 132.137 6.95465 133.665 6.23685C136.026 6.00405 180.025 5.37355 181.905 5.43175C182.91 5.43175 184.266 5.50935 185.03 6.25625C186.156 7.35235 185.794 9.16625 185.864 19.5937C186.085 22.2515 185.04 22.8335 182.467 23.1924C180.156 23.5319 136.981 24.4437 136.599 24.4437H136.579ZM131.454 8.32235C131.323 9.19535 131.856 17.5373 131.906 18.6431C132.026 21.3882 132.84 23.3379 134.448 24.4631H133.443C130.991 24.4631 129.876 23.3282 129.765 20.9129C129.705 19.5355 129.243 9.27295 129.343 8.69095C129.554 6.92555 130.79 6.53755 132.428 6.34355C131.92 6.90137 131.589 7.58815 131.474 8.32235H131.454Z" fill="black"/>
<path d="M155.172 10.8341C155.543 10.8341 167.081 10.5528 166.98 10.5528C167.032 10.5422 167.079 10.5147 167.112 10.475C167.145 10.4352 167.163 10.3856 167.163 10.3345C167.163 10.2834 167.145 10.2338 167.112 10.1941C167.079 10.1543 167.032 10.1269 166.98 10.1163C166.126 10.1163 156.166 9.95136 155.151 10.1163C155.074 10.1433 155.007 10.1932 154.961 10.2589C154.915 10.3246 154.891 10.4027 154.893 10.4822C154.895 10.5616 154.923 10.6384 154.973 10.7015C155.023 10.7647 155.093 10.8111 155.172 10.8341ZM170.518 13.8799C169.071 14.0157 154.538 13.5404 154.438 14.2485C154.438 14.3843 154.569 14.491 154.669 14.5104C155.935 14.6559 170.468 14.3552 170.568 14.3455C170.6 14.3423 170.631 14.3331 170.659 14.3185C170.687 14.3038 170.711 14.284 170.731 14.2601C170.751 14.2363 170.766 14.2088 170.775 14.1793C170.785 14.1499 170.787 14.119 170.784 14.0884C170.781 14.0578 170.771 14.0282 170.756 14.0012C170.741 13.9741 170.721 13.9503 170.696 13.9309C170.671 13.9115 170.643 13.8971 170.612 13.8883C170.582 13.8795 170.55 13.8767 170.518 13.8799ZM170.226 17.6047C167.744 17.6047 155.232 17.5465 154.579 17.6532C154.514 17.6696 154.457 17.7061 154.417 17.757C154.376 17.8079 154.354 17.8703 154.354 17.9345C154.354 17.9987 154.376 18.0611 154.417 18.1119C154.457 18.1628 154.514 18.1993 154.579 18.2158C155.272 18.3225 169.211 18.0121 170.236 17.983C170.281 17.9721 170.32 17.9471 170.347 17.9121C170.375 17.877 170.389 17.8339 170.388 17.7899C170.387 17.7459 170.37 17.7036 170.341 17.67C170.311 17.6363 170.271 17.6133 170.226 17.6047ZM28.1395 79.7429C34.9434 79.2094 38.5513 70.751 33.265 66.0562C33.0741 65.8913 33.4359 65.5227 27.8682 73.2924C21.1347 67.1329 21.4965 67.3657 21.3457 67.4724C16.0192 72.5455 21.2955 80.2861 28.1395 79.7429Z" fill="black"/>
<path d="M27.3961 70.1114C27.5871 70.3151 27.4966 70.3442 32.0493 62.9334C32.0602 62.9169 32.0676 62.8985 32.071 62.8792C32.0743 62.86 32.0737 62.8402 32.069 62.8212C32.0643 62.8022 32.0557 62.7843 32.0437 62.7686C32.0317 62.7529 32.0165 62.7396 31.999 62.7297C30.3936 61.9142 28.5542 61.6328 26.7662 61.9292C24.9781 62.2256 23.3414 63.0832 22.1098 64.369C21.9892 64.5145 21.8083 64.2332 27.3961 70.1114ZM16.8939 106.05C17.1517 106.048 17.4032 105.973 17.6168 105.834C17.8304 105.695 17.9965 105.497 18.0943 105.267C18.1921 105.037 18.2171 104.784 18.1662 104.54C18.1154 104.296 17.9909 104.072 17.8084 103.896C18.3109 103.111 21.5671 97.9407 22.5219 96.5439C22.7693 96.6543 23.0455 96.6902 23.3144 96.647C23.5833 96.6037 23.8324 96.4833 24.0294 96.3014L28.6725 99.7546C28.5968 99.9708 28.5833 100.203 28.6334 100.426C28.6836 100.649 28.7955 100.854 28.9572 101.021C29.119 101.187 29.3245 101.308 29.5519 101.371C29.7792 101.434 30.02 101.435 30.2484 101.376C30.4767 101.317 30.6842 101.2 30.8487 101.036C31.0132 100.872 31.1285 100.668 31.1824 100.446C31.2362 100.223 31.2266 99.9911 31.1545 99.7738C31.0824 99.5565 30.9505 99.3621 30.7729 99.2114L32.4211 97.1162C32.7161 97.2465 33.0506 97.267 33.3603 97.1739C33.67 97.0808 33.9333 96.8807 34.0995 96.6118L38.9034 98.1832C38.8774 98.3918 38.9059 98.6034 38.9862 98.7987C39.0666 98.9941 39.1962 99.1669 39.3633 99.3016C39.5305 99.4362 39.7298 99.5284 39.9433 99.5698C40.1567 99.6112 40.3775 99.6005 40.5856 99.5385C40.7936 99.4766 40.9823 99.3655 41.1346 99.2153C41.2868 99.065 41.3978 98.8805 41.4573 98.6783C41.5168 98.4762 41.5231 98.2629 41.4755 98.0579C41.4279 97.8528 41.3279 97.6625 41.1847 97.5042C41.5867 96.1171 45.064 85.8642 45.4158 84.8942C45.7533 84.8658 46.0664 84.7129 46.2901 84.4674C47.2449 85.1949 50.1091 87.261 51.0337 87.8624C50.9809 88.0632 50.9801 88.2734 51.0315 88.4745C51.0829 88.6757 51.1848 88.8615 51.3282 89.0156C51.4717 89.1697 51.6522 89.2873 51.854 89.358C52.0557 89.4287 52.2723 89.4504 52.4848 89.4211C52.6973 89.3918 52.899 89.3125 53.0721 89.19C53.2453 89.0676 53.3845 88.9059 53.4775 88.7192C53.5705 88.5325 53.6144 88.3266 53.6054 88.1196C53.5963 87.9127 53.5346 87.711 53.4256 87.5326C56.0989 83.4198 56.2195 83.4877 55.9381 83.3034C55.8852 83.2717 55.822 83.2601 55.7607 83.2708C55.6994 83.2816 55.6445 83.3139 55.6065 83.3616C55.1341 84.0212 52.903 87.0476 52.903 87.0476C52.6653 86.9346 52.3984 86.8918 52.1356 86.9246C51.8728 86.9574 51.6258 87.0643 51.4257 87.2319C50.491 86.6014 47.5263 84.5547 46.5816 83.8466C46.622 83.6227 46.5989 83.3925 46.5149 83.1803C46.4309 82.968 46.289 82.7816 46.1042 82.6408C45.9195 82.5 45.6988 82.4099 45.4654 82.3802C45.232 82.3505 44.9946 82.3822 44.7783 82.4719C44.5621 82.5617 44.375 82.7062 44.2368 82.8901C44.0986 83.0741 44.0144 83.2906 43.9932 83.5169C43.9721 83.7432 44.0146 83.9708 44.1164 84.1757C44.2182 84.3806 44.3755 84.5551 44.5716 84.6808C43.7073 86.9506 41.1948 94.8076 40.5516 97.0968C40.3101 97.0367 40.056 97.043 39.818 97.1149C39.58 97.1869 39.3676 97.3218 39.2049 97.5042C38.1999 97.1744 35.1849 96.2917 34.2703 96.0104C34.2703 95.6785 34.1338 95.3602 33.8906 95.1256C33.6475 94.8909 33.3177 94.7591 32.9739 94.7591C32.6301 94.7591 32.3003 94.8909 32.0572 95.1256C31.814 95.3602 31.6774 95.6785 31.6774 96.0104C31.6796 96.2874 31.7748 96.5563 31.9488 96.7767L30.1498 98.9398C29.9775 98.9033 29.7993 98.9018 29.6263 98.9351C29.4533 98.9685 29.2894 99.0362 29.1448 99.1338L24.351 95.6321C24.4033 95.3318 24.3404 95.0234 24.1741 94.7647C24.0077 94.506 23.7493 94.3147 23.4474 94.2267C23.1454 94.1387 22.8205 94.1599 22.5336 94.2865C22.2466 94.4131 22.0174 94.6363 21.8887 94.9143C21.7888 95.1142 21.7481 95.3369 21.7711 95.5577C21.7942 95.7786 21.8801 95.989 22.0194 96.1656C21.0747 97.5333 17.6476 102.82 17.1552 103.586C16.9748 103.542 16.7868 103.537 16.6039 103.569C16.421 103.602 16.2475 103.672 16.0952 103.775C15.943 103.878 15.8154 104.012 15.7213 104.166C15.6271 104.321 15.5686 104.494 15.5497 104.672C15.5307 104.851 15.5518 105.031 15.6115 105.201C15.6712 105.371 15.7681 105.527 15.8956 105.658C16.0231 105.788 16.1782 105.891 16.3505 105.959C16.5228 106.026 16.7081 106.057 16.8939 106.05ZM34.3809 109.484C34.3063 109.484 34.2347 109.512 34.1819 109.563C34.1291 109.614 34.0995 109.683 34.0995 109.755C34.0995 109.827 34.1291 109.896 34.1819 109.947C34.2347 109.998 34.3063 110.027 34.3809 110.027C36.1396 110.027 56.7823 109.251 57.4959 109.241C57.5428 109.231 57.5847 109.206 57.6147 109.17C57.6448 109.134 57.6612 109.089 57.6612 109.042C57.6612 108.996 57.6448 108.951 57.6147 108.915C57.5847 108.879 57.5428 108.854 57.4959 108.843C54.6919 108.853 36.1798 109.29 34.3809 109.484ZM43.2148 102.548C43.2788 102.548 43.3402 102.524 43.3854 102.48C43.4306 102.436 43.456 102.377 43.456 102.315C43.456 102.254 43.4306 102.194 43.3854 102.151C43.3402 102.107 43.2788 102.083 43.2148 102.083C42.4209 102.083 39.5466 101.918 38.8732 101.947C38.756 101.947 38.6435 101.992 38.5606 102.072C38.4776 102.152 38.431 102.26 38.431 102.374C38.431 102.487 38.4776 102.595 38.5606 102.675C38.6435 102.755 38.756 102.8 38.8732 102.8C39.5365 102.878 42.3807 102.616 43.2148 102.548ZM32.4714 103.79H28.1398C28.0462 103.794 27.9554 103.822 27.8771 103.872C27.7987 103.922 27.7357 103.991 27.6946 104.072C27.6535 104.154 27.6358 104.244 27.6434 104.335C27.651 104.425 27.6836 104.511 27.7378 104.585C28.0092 104.973 28.2202 104.672 32.4915 104.323C32.5445 104.299 32.589 104.26 32.6194 104.211C32.6498 104.163 32.6649 104.107 32.6628 104.05C32.6606 103.993 32.6414 103.939 32.6074 103.892C32.5734 103.846 32.5261 103.81 32.4714 103.79ZM15.3361 108.97C15.5472 108.97 18.6024 108.649 19.2757 108.62C19.3504 108.62 19.422 108.592 19.4747 108.541C19.5275 108.49 19.5571 108.421 19.5571 108.349C19.5571 108.277 19.5275 108.208 19.4747 108.157C19.422 108.106 19.3504 108.077 19.2757 108.077C18.8838 108.077 15.4869 108.213 15.2557 108.32C15.1944 108.355 15.145 108.407 15.1135 108.469C15.082 108.532 15.0698 108.601 15.0783 108.67C15.0868 108.738 15.1156 108.803 15.1614 108.856C15.2071 108.91 15.2678 108.949 15.3361 108.97Z" fill="black"/>
<path d="M50.8024 92.15H50.9632C55.2344 91.7814 55.0837 92.0627 55.2646 91.8687C55.298 91.8307 55.3198 91.7845 55.3279 91.7352C55.3359 91.686 55.3297 91.6355 55.3099 91.5895C55.2902 91.5434 55.2577 91.5034 55.216 91.474C55.1744 91.4445 55.1251 91.4267 55.0736 91.4225C53.5762 91.4225 52.1692 91.2964 50.8225 91.3546C50.2496 91.3643 50.2999 92.15 50.8024 92.15ZM28.3306 83.6819C28.2213 83.6819 28.1165 83.7238 28.0392 83.7984C27.9619 83.873 27.9185 83.9741 27.9185 84.0796C27.9185 84.1851 27.9619 84.2862 28.0392 84.3608C28.1165 84.4354 28.2213 84.4773 28.3306 84.4773C29.7677 84.4773 35.3656 83.9826 36.7223 83.8468C36.7866 83.8349 36.8446 83.8018 36.8863 83.7531C36.9279 83.7044 36.9508 83.6432 36.9508 83.5801C36.9508 83.5169 36.9279 83.4557 36.8863 83.407C36.8446 83.3583 36.7866 83.3252 36.7223 83.3133C35.3254 83.42 29.7175 83.5655 28.3306 83.6819ZM27.6472 85.9517C27.5663 85.9711 27.4956 86.0182 27.4482 86.0844C27.4009 86.1505 27.3802 86.2311 27.3901 86.3109C27.4 86.3907 27.4397 86.4643 27.5019 86.5179C27.564 86.5714 27.6443 86.6012 27.7276 86.6016C29.3155 86.6016 35.5465 86.0584 37.1143 86.0487C37.1836 86.0487 37.25 86.0221 37.299 85.9748C37.348 85.9275 37.3756 85.8634 37.3756 85.7965C37.3756 85.7296 37.348 85.6655 37.299 85.6182C37.25 85.5709 37.1836 85.5443 37.1143 85.5443C33.9527 85.4771 30.79 85.6132 27.6472 85.9517ZM36.3103 87.5037C33.6802 87.4671 31.0499 87.5675 28.4311 87.8044C27.9487 87.8626 27.9286 88.5707 28.4311 88.5707C29.3255 88.5707 34.2098 88.0857 36.3203 88.0081C36.3546 88.0075 36.3885 88.0003 36.4199 87.9871C36.4514 87.9738 36.4798 87.9547 36.5036 87.9308C36.5274 87.9069 36.5461 87.8788 36.5586 87.8479C36.5711 87.8171 36.5772 87.7842 36.5766 87.7511C36.5759 87.7179 36.5685 87.6853 36.5548 87.6549C36.541 87.6246 36.5212 87.5971 36.4965 87.5741C36.4718 87.5512 36.4426 87.5331 36.4106 87.521C36.3787 87.509 36.3446 87.5031 36.3103 87.5037ZM39.6167 66.6099C40.1092 66.6099 45.1241 66.1055 46.109 66.0376C46.1783 66.0376 46.2448 66.011 46.2938 65.9637C46.3428 65.9164 46.3703 65.8523 46.3703 65.7854C46.3703 65.7185 46.3428 65.6544 46.2938 65.6071C46.2448 65.5598 46.1783 65.5332 46.109 65.5332C45.6166 65.5332 40.2398 65.6884 39.6469 65.7272C39.0539 65.766 39.0539 66.6099 39.6167 66.6099ZM40.6519 68.5693C42.2297 68.5693 48.3803 68.0067 49.9381 67.9097C49.9949 67.8986 50.0459 67.8688 50.0826 67.8255C50.1193 67.7822 50.1393 67.728 50.1393 67.6721C50.1393 67.6161 50.1193 67.5619 50.0826 67.5186C50.0459 67.4753 49.9949 67.4455 49.9381 67.4344C48.3703 67.5023 42.1795 67.5314 40.6418 67.6866C40.5323 67.7035 40.4328 67.7577 40.3613 67.8395C40.2898 67.9213 40.2511 68.0251 40.2523 68.1321C40.2536 68.2391 40.2946 68.3421 40.3679 68.4224C40.4412 68.5026 40.542 68.5548 40.6519 68.5693Z" fill="black"/>
</svg>
