<svg xmlns="http://www.w3.org/2000/svg" style="width: 100%; height: 100%;"><polygon fill="hsl(224.5544041148465, 100%, 70%)" points="16,450 14,459 6,462 13,466 14,475 20,469 29,472 25,464 30,457 22,457" transform="rotate(183, 19, 463)"></polygon><polygon fill="hsl(122.00048336557593, 100%, 70%)" points="241,114 239,119 234,120 238,124 238,129 242,126 247,128 246,123 249,119 244,119" transform="rotate(267, 242, 122)"></polygon><polygon fill="hsl(63.30038562070471, 100%, 70%)" points="164,201 164,214 152,214 152,201" stroke="none"></polygon><polygon fill="hsl(161.5961853140544, 100%, 70%)" points="484,306 469,313 463,299 477,292" stroke="none"></polygon><path d="M 410 380 Q 414 373, 406 375 Q 398 378, 402 371 Q 407 364, 399 367 Q 391 370, 395 363" fill="none" stroke="hsl(134.30696017609185, 100%, 70%)" stroke-linecap="round" stroke-width="4" transform="translate(7.5,8.5)"></path><path d="M 414 242 Q 423 240, 416 234 Q 410 228, 419 227 Q 427 226, 421 220 Q 414 214, 423 212" fill="none" stroke="hsl(159.64852937335772, 100%, 70%)" stroke-linecap="round" stroke-width="3" transform="translate(-4.5,15)"></path><polygon fill="hsl(56.46453483389817, 100%, 70%)" points="506,126 509,135 493,140 490,130" stroke="none"></polygon><ellipse cx="295" cy="440" fill="hsl(243.9048939080162, 100%, 70%)" rx="11" ry="7" transform="rotate(140, 295, 440)"></ellipse><path d="M 407 57 Q 415 63, 418 54 Q 421 45, 429 51 Q 436 57, 440 47 Q 442 38, 450 44" fill="none" stroke="hsl(320.9259387175645, 100%, 70%)" stroke-linecap="round" stroke-width="3" transform="translate(-21.5,6.5)"></path><polygon fill="hsl(76.62880169346339, 100%, 70%)" points="435,448 428,437 439,430 446,441" stroke="none"></polygon><polygon fill="hsl(69.51856129369995, 100%, 70%)" points="16,315 13,320 7,322 12,326 11,331 16,328 22,331 20,325 24,321 19,320" transform="rotate(85, 16, 324)"></polygon><ellipse cx="354" cy="436" fill="hsl(108.68260676460449, 100%, 70%)" rx="11" ry="8" transform="rotate(165, 354, 436)"></ellipse><ellipse cx="38" cy="179" fill="hsl(339.8750447160383, 100%, 70%)" rx="5" ry="5" transform="rotate(227, 38, 179)"></ellipse><polygon fill="hsl(119.80358705015557, 100%, 70%)" points="61,23 64,13 71,21"></polygon><polygon fill="hsl(127.10250359045756, 100%, 70%)" points="233,405 230,388 245,389"></polygon><polygon fill="hsl(183.22116356165702, 100%, 70%)" points="165,264 169,250 184,254 179,269" stroke="none"></polygon><polygon fill="hsl(176.26776607645363, 100%, 70%)" points="374,116 385,123 379,131 368,124" stroke="none"></polygon><polygon fill="hsl(126.05990343540691, 100%, 70%)" points="76,414 72,427 62,424 66,411" stroke="none"></polygon><line fill="none" stroke="hsl(160.8911421010256, 100%, 70%)" stroke-linecap="round" stroke-width="3" x1="146" x2="182" y1="368" y2="396"></line><path d="M 310 12 Q 304 5, 300 13 Q 296 22, 290 15 Q 284 8, 280 16 Q 276 25, 270 18" fill="none" stroke="hsl(66.16069873456654, 100%, 70%)" stroke-linecap="round" stroke-width="4" transform="translate(20,-3)"></path><polygon fill="hsl(183.4012930003259, 100%, 70%)" points="91,350 87,361 79,352"></polygon><line fill="none" stroke="hsl(192.38262807872295, 100%, 70%)" stroke-linecap="round" stroke-width="4" x1="328" x2="318" y1="369" y2="343"></line><polygon fill="hsl(209.39193040842142, 100%, 70%)" points="478,408 491,412 481,421"></polygon><polygon fill="hsl(72.61328540483585, 100%, 70%)" points="132,151 134,139 149,141 147,153" stroke="none"></polygon><polygon fill="hsl(260.89911976565315, 100%, 70%)" points="273,239 271,243 266,243 269,246 267,251 271,249 275,252 275,248 279,245 275,244" transform="rotate(207, 272, 246)"></polygon><polygon fill="hsl(301.26573199533163, 100%, 70%)" points="383,174 378,186 363,179 368,167" stroke="none"></polygon><polygon fill="hsl(205.80340827017014, 100%, 70%)" points="69,68 65,82 48,78 53,63" stroke="none"></polygon><path d="M 248 508 Q 252 501, 245 504 Q 237 507, 241 500 Q 246 493, 238 496 Q 230 500, 234 492" fill="none" stroke="hsl(110.75158774353078, 100%, 70%)" stroke-linecap="round" stroke-width="3" transform="translate(7,8)"></path><line fill="none" stroke="hsl(227.74110989235382, 100%, 70%)" stroke-linecap="round" stroke-width="4" x1="365" x2="363" y1="2" y2="40"></line><polygon fill="hsl(216.7367988563891, 100%, 70%)" points="477,221 493,217 491,232"></polygon><polygon fill="hsl(2.6593448651349227, 100%, 70%)" points="189,134 185,139 179,138 182,143 179,148 185,147 189,152 190,146 195,143 190,140" transform="rotate(59, 186, 143)"></polygon><polygon fill="hsl(255.67486583332624, 100%, 70%)" points="131,429 127,438 118,440 125,447 124,457 132,451 141,456 139,446 146,439 136,438" transform="rotate(173, 132, 444)"></polygon><polygon fill="hsl(37.2743231876607, 100%, 70%)" points="497,491 491,499 482,498 487,506 483,514 492,512 499,518 500,509 508,504 499,500" transform="rotate(252, 494, 505)"></polygon><path d="M 476 59 Q 481 67, 487 59 Q 492 51, 497 59 Q 502 67, 508 59 Q 513 51, 518 59" fill="none" stroke="hsl(179.14760742090303, 100%, 70%)" stroke-linecap="round" stroke-width="4" transform="translate(-21,0)"></path><polygon fill="hsl(176.06230675310573, 100%, 70%)" points="285,53 299,64 292,73 278,61" stroke="none"></polygon><ellipse cx="109" cy="492" fill="hsl(284.5585061699457, 100%, 70%)" rx="13" ry="7" transform="rotate(116, 109, 492)"></ellipse><ellipse cx="345" cy="232" fill="hsl(135.59514312429025, 100%, 70%)" rx="13" ry="6" transform="rotate(312, 345, 232)"></ellipse><ellipse cx="364" cy="300" fill="hsl(255.82116184301043, 100%, 70%)" rx="10" ry="10" transform="rotate(100, 364, 300)"></ellipse><path d="M 93 106 Q 96 98, 88 100 Q 80 103, 83 95 Q 87 86, 78 89 Q 70 92, 73 83" fill="none" stroke="hsl(354.27673164177014, 100%, 70%)" stroke-linecap="round" stroke-width="4" transform="translate(10,11.5)"></path><polygon fill="hsl(281.5635620090958, 100%, 70%)" points="139,55 126,41 141,32"></polygon><polygon fill="hsl(262.24843902588316, 100%, 70%)" points="97,283 99,273 107,278"></polygon><polygon fill="hsl(190.5310803465786, 100%, 70%)" points="92,226 88,216 105,208 110,218" stroke="none"></polygon><path d="M 228 7 Q 222 0, 217 9 Q 213 17, 206 10 Q 200 3, 196 12 Q 192 20, 185 13" fill="none" stroke="hsl(130.4738208669401, 100%, 70%)" stroke-linecap="round" stroke-width="4" transform="translate(21.5,-3)"></path><polygon fill="hsl(215.53649117139383, 100%, 70%)" points="316,120 299,122 297,109 314,107" stroke="none"></polygon><ellipse cx="46" cy="276" fill="hsl(251.65439701187452, 100%, 70%)" rx="13" ry="7" transform="rotate(174, 46, 276)"></ellipse><polygon fill="hsl(221.52324393232857, 100%, 70%)" points="257,312 258,296 272,303"></polygon><polygon fill="hsl(271.7524451144413, 100%, 70%)" points="447,524 449,506 464,512"></polygon><polygon fill="hsl(137.81422712808694, 100%, 70%)" points="346,542 336,545 331,528 341,525" stroke="none"></polygon><ellipse cx="402" cy="485" fill="hsl(307.0838130347674, 100%, 70%)" rx="7" ry="6" transform="rotate(154, 402, 485)"></ellipse><polygon fill="hsl(152.7187513376012, 100%, 70%)" points="51,532 46,522 57,523"></polygon><line fill="none" stroke="hsl(257.9730179791645, 100%, 70%)" stroke-linecap="round" stroke-width="4" x1="239" x2="225" y1="170" y2="192"></line><polygon fill="hsl(311.8163262505346, 100%, 70%)" points="164,344 151,358 148,337"></polygon><polygon fill="hsl(341.19932822743283, 100%, 70%)" points="470,356 488,351 493,367 475,372" stroke="none"></polygon><polygon fill="hsl(258.8156858050873, 100%, 70%)" points="208,494 204,478 220,483"></polygon><line fill="none" stroke="hsl(350.4205957137077, 100%, 70%)" stroke-linecap="round" stroke-width="4" x1="432" x2="412" y1="198" y2="182"></line><polygon fill="hsl(97.53902509150575, 100%, 70%)" points="460,149 449,161 438,151 449,139" stroke="none"></polygon><polygon fill="hsl(177.85581027640518, 100%, 70%)" points="310,505 300,489 315,483"></polygon><polygon fill="hsl(191.06639692254794, 100%, 70%)" points="109,235 105,240 99,239 103,244 100,250 106,248 110,252 111,246 116,243 110,241" transform="rotate(360, 107, 244)"></polygon><path d="M 294 172 Q 288 165, 285 173 Q 281 182, 276 175 Q 270 167, 267 176 Q 263 184, 258 177" fill="none" stroke="hsl(318.70840525540643, 100%, 70%)" stroke-linecap="round" stroke-width="4" transform="translate(18,-2.5)"></path><path d="M 169 2 Q 164 9, 173 8 Q 181 6, 177 14 Q 171 21, 180 19 Q 189 18, 184 25" fill="none" stroke="hsl(207.2990067062236, 100%, 70%)" stroke-linecap="round" stroke-width="4" transform="translate(-7.5,-11.5)"></path><polygon fill="hsl(218.72658842003915, 100%, 70%)" points="417,343 398,346 395,327 414,324" stroke="none"></polygon><path d="M 372 452 Q 378 459, 379 450 Q 380 441, 386 448 Q 392 455, 393 446 Q 394 437, 400 444" fill="none" stroke="hsl(326.99417450227713, 100%, 70%)" stroke-linecap="round" stroke-width="3" transform="translate(-14,4)"></path><polygon fill="hsl(20.625547824230086, 100%, 70%)" points="38,503 40,513 22,515 20,505" stroke="none"></polygon><polygon fill="hsl(86.17417675883824, 100%, 70%)" points="350,454 348,458 344,458 347,462 346,466 350,464 354,467 353,462 357,459 352,458" transform="rotate(4, 350, 461)"></polygon><polygon fill="hsl(125.4711377891584, 100%, 70%)" points="407,266 406,256 415,258"></polygon><polygon fill="hsl(86.43834176162548, 100%, 70%)" points="128,524 138,539 129,545 119,530" stroke="none"></polygon><ellipse cx="23" cy="384" fill="hsl(343.0655876845675, 100%, 70%)" rx="9" ry="8" transform="rotate(270, 23, 384)"></ellipse><line fill="none" stroke="hsl(42.53570718075004, 100%, 70%)" stroke-linecap="round" stroke-width="4" x1="9" x2="13" y1="10" y2="46"></line><polygon fill="hsl(139.07406346262601, 100%, 70%)" points="158,63 156,71 147,74 154,79 154,87 161,82 169,86 166,77 172,71 163,70" transform="rotate(272, 160, 76)"></polygon><polygon fill="hsl(288.28308225956306, 100%, 70%)" points="210,316 204,323 202,312"></polygon><path d="M 125 197 Q 121 206, 130 205 Q 140 205, 136 215 Q 132 223, 142 223 Q 151 223, 147 232" fill="none" stroke="hsl(278.2479178160118, 100%, 70%)" stroke-linecap="round" stroke-width="4" transform="translate(-11,-17.5)"></path><ellipse cx="444" cy="113" fill="hsl(120.31296864024563, 100%, 70%)" rx="11" ry="9" transform="rotate(269, 444, 113)"></ellipse><line fill="none" stroke="hsl(20.397904317611804, 100%, 70%)" stroke-linecap="round" stroke-width="4" x1="416" x2="416" y1="-15" y2="27"></line><polygon fill="hsl(23.241933133187178, 100%, 70%)" points="216,229 214,232 211,233 214,235 213,238 216,236 219,238 218,235 221,232 217,232" transform="rotate(311, 216, 234)"></polygon><polygon fill="hsl(14.222062620484763, 100%, 70%)" points="147,64 158,76 145,83"></polygon><polygon fill="hsl(86.77783669288472, 100%, 70%)" points="325,390 322,394 318,394 321,398 319,402 323,400 327,403 327,399 331,396 326,395" transform="rotate(251, 324, 397)"></polygon><line fill="none" stroke="hsl(32.99890115575173, 100%, 70%)" stroke-linecap="round" stroke-width="3" x1="204" x2="246" y1="16" y2="20"></line><line fill="none" stroke="hsl(222.25645235304455, 100%, 70%)" stroke-linecap="round" stroke-width="3" x1="167" x2="171" y1="432" y2="466"></line><line fill="none" stroke="hsl(74.6287423322636, 100%, 70%)" stroke-linecap="round" stroke-width="3" x1="251" x2="243" y1="535" y2="505"></line><line fill="none" stroke="hsl(233.59796265161032, 100%, 70%)" stroke-linecap="round" stroke-width="4" x1="355" x2="335" y1="71" y2="69"></line><ellipse cx="85" cy="289" fill="hsl(207.15249542757562, 100%, 70%)" rx="11" ry="6" transform="rotate(276, 85, 289)"></ellipse><polygon fill="hsl(105.8493014945633, 100%, 70%)" points="39,129 43,117 51,127"></polygon><line fill="none" stroke="hsl(320.42940189286963, 100%, 70%)" stroke-linecap="round" stroke-width="3" x1="508" x2="490" y1="17" y2="1"></line><ellipse cx="339" cy="537" fill="hsl(25.43544082028, 100%, 70%)" rx="8" ry="6" transform="rotate(183, 339, 537)"></ellipse><polygon fill="hsl(356.02788664600547, 100%, 70%)" points="302,288 301,293 297,295 301,297 302,302 305,298 310,299 307,295 310,291 305,292" transform="rotate(308, 304, 295)"></polygon><ellipse cx="482" cy="33" fill="hsl(19.453091517551478, 100%, 70%)" rx="8" ry="6" transform="rotate(329, 482, 33)"></ellipse><polygon fill="hsl(30.44568569148784, 100%, 70%)" points="448,415 447,420 442,423 447,425 447,430 451,427 456,428 454,423 457,419 451,419" transform="rotate(37, 450, 423)"></polygon><line fill="none" stroke="hsl(269.47375726740324, 100%, 70%)" stroke-linecap="round" stroke-width="4" x1="-11" x2="31" y1="201" y2="175"></line><path d="M 26 253 Q 23 262, 32 263 Q 42 264, 39 273 Q 35 283, 45 283 Q 55 284, 52 293" fill="none" stroke="hsl(359.56802851416484, 100%, 70%)" stroke-linecap="round" stroke-width="4" transform="translate(-13,-20)"></path><ellipse cx="240" cy="372" fill="hsl(62.3255863481294, 100%, 70%)" rx="11" ry="8" transform="rotate(177, 240, 372)"></ellipse><line fill="none" stroke="hsl(116.32918618934889, 100%, 70%)" stroke-linecap="round" stroke-width="4" x1="67" x2="61" y1="339" y2="363"></line><polygon fill="hsl(295.96926244919894, 100%, 70%)" points="513,472 497,461 515,454"></polygon><ellipse cx="362" cy="474" fill="hsl(284.3230086925483, 100%, 70%)" rx="8" ry="8" transform="rotate(1, 362, 474)"></ellipse><line fill="none" stroke="hsl(279.8568766225752, 100%, 70%)" stroke-linecap="round" stroke-width="3" x1="22" x2="6" y1="180" y2="156"></line><polygon fill="hsl(19.846029817163576, 100%, 70%)" points="229,349 243,358 237,368 222,359" stroke="none"></polygon><polygon fill="hsl(325.65854852779313, 100%, 70%)" points="62,170 68,180 51,191 45,182" stroke="none"></polygon><path d="M 118 319 Q 115 328, 124 329 Q 134 330, 131 339 Q 127 349, 137 349 Q 147 350, 144 359" fill="none" stroke="hsl(116.96743279371967, 100%, 70%)" stroke-linecap="round" stroke-width="4" transform="translate(-13,-20)"></path><polygon fill="hsl(12.149794640624476, 100%, 70%)" points="80,442 78,445 74,446 77,449 76,453 80,451 83,453 83,449 86,446 82,446" transform="rotate(286, 80, 448)"></polygon><line fill="none" stroke="hsl(198.7389352508465, 100%, 70%)" stroke-linecap="round" stroke-width="4" x1="14" x2="20" y1="380" y2="400"></line><ellipse cx="222" cy="121" fill="hsl(157.5550587069105, 100%, 70%)" rx="14" ry="6" transform="rotate(246, 222, 121)"></ellipse></svg>