<svg width="125" height="145" viewBox="0 0 125 145" fill="none" xmlns="http://www.w3.org/2000/svg">
<path d="M60.1063 68.6134C60.3349 68.6943 60.5814 68.6724 60.7967 68.5518C61.0119 68.4313 61.1801 68.221 61.2676 67.963C61.3552 67.705 61.3557 67.4182 61.269 67.1598C61.1823 66.9014 61.0149 66.6904 60.8 66.5689C60.6066 66.4806 60.3977 66.4477 60.191 66.473C59.9843 66.4982 59.7858 66.5808 59.6125 66.7139C59.4811 66.854 59.3864 67.0343 59.3393 67.2341C59.2921 67.4338 59.2944 67.6449 59.346 67.8432C59.3975 68.0415 59.4962 68.2189 59.6306 68.3551C59.7651 68.4913 59.93 68.5808 60.1063 68.6134ZM59.75 67.4969C59.75 66.8879 60.7938 66.8154 60.8938 67.4969C61.0875 68.4466 59.7188 68.3886 59.75 67.4969ZM59.375 22.2134C58.4125 23.5256 58.6438 25.2149 60.1563 26.0414C60.4985 25.939 60.8477 25.8711 61.2 25.8384C61.6016 25.8689 62.0006 25.9344 62.3938 26.0341C62.8107 25.7434 63.135 25.3034 63.3176 24.7803C63.5002 24.2572 63.5313 23.6795 63.4063 23.1341C63.2899 22.6598 63.0627 22.2321 62.7499 21.8982C62.4371 21.5642 62.0508 21.3371 61.6337 21.2418C61.2166 21.1465 60.7849 21.1869 60.3863 21.3583C59.9877 21.5298 59.6377 21.8257 59.375 22.2134ZM59.025 34.7994C59.0177 34.7566 58.9978 34.7181 58.9687 34.6905C58.9397 34.6628 58.9032 34.6477 58.8656 34.6477C58.828 34.6477 58.7916 34.6628 58.7626 34.6905C58.7335 34.7181 58.7136 34.7566 58.7063 34.7994C58.6598 35.2033 58.6327 35.61 58.625 36.0174C58.6415 36.0754 58.6733 36.1259 58.7159 36.1617C58.7586 36.1975 58.8099 36.2168 58.8625 36.2168C58.9152 36.2168 58.9665 36.1975 59.0091 36.1617C59.0518 36.1259 59.0836 36.0754 59.1 36.0174C59.1313 35.8941 59.025 34.9226 59.025 34.7994ZM63.9563 34.9299C63.9489 34.8871 63.929 34.8486 63.9 34.821C63.8709 34.7933 63.8345 34.7782 63.7969 34.7782C63.7593 34.7782 63.7229 34.7933 63.6938 34.821C63.6647 34.8486 63.6448 34.8871 63.6375 34.9299C63.6375 35.0314 63.5313 36.0101 63.5625 36.1479C63.5789 36.2059 63.6108 36.2564 63.6534 36.2922C63.6961 36.328 63.7474 36.3473 63.8 36.3473C63.8527 36.3473 63.904 36.328 63.9466 36.2922C63.9893 36.2564 64.0211 36.2059 64.0375 36.1479C64.0688 36.0101 63.9563 35.0386 63.9563 34.9299ZM59.0688 32.4141C58.3188 32.3416 57.975 33.6901 57.9625 33.7481C57.9517 33.7895 57.9556 33.8341 57.9731 33.8722C57.9907 33.9102 58.0206 33.9386 58.0563 33.9511C58.0919 33.9636 58.1304 33.9592 58.1632 33.9388C58.196 33.9184 58.2205 33.8837 58.2313 33.8424C58.2688 33.7336 58.6688 32.9434 59.1375 32.9724C59.375 32.9941 59.4938 32.4504 59.0688 32.4141ZM64.1438 33.9439C64.1322 33.6884 64.0535 33.4431 63.9184 33.241C63.7832 33.0388 63.598 32.8894 63.3875 32.8129C63.3245 32.7936 63.2575 32.8042 63.2013 32.8423C63.145 32.8804 63.1041 32.9428 63.0875 33.0159C63.0709 33.0889 63.0801 33.1667 63.1129 33.2319C63.1457 33.2972 63.1995 33.3447 63.2625 33.3639C63.4161 33.4272 63.5537 33.534 63.6628 33.6745C63.7719 33.815 63.8492 33.9848 63.8875 34.1686C63.8975 34.208 63.9205 34.2413 63.9516 34.261C63.9826 34.2807 64.0192 34.2853 64.0531 34.2738C64.0871 34.2622 64.1158 34.2355 64.1327 34.1995C64.1497 34.1634 64.1537 34.121 64.1438 34.0816C64.1438 34.0816 64.1563 34.0019 64.1438 33.9439ZM61.25 37.7936C61.275 37.7841 61.2968 37.7656 61.3122 37.7409C61.3277 37.7162 61.336 37.6864 61.336 37.6559C61.336 37.6253 61.3277 37.5956 61.3122 37.5709C61.2968 37.5461 61.275 37.5277 61.25 37.5181C60.9625 37.4529 60.625 37.4311 60.625 37.1049C60.658 36.6979 60.7123 36.2935 60.7875 35.8941C60.791 35.8581 60.7833 35.8218 60.7657 35.7918C60.7482 35.7618 60.722 35.74 60.6919 35.7304C60.6617 35.7208 60.6296 35.7239 60.6013 35.7393C60.573 35.7547 60.5504 35.7813 60.5375 35.8144C60.3821 36.2818 60.273 36.7683 60.2125 37.2644C60.225 37.6994 60.625 38.0256 61.25 37.7936ZM62.0313 38.7434C61.8937 38.9161 61.7248 39.0512 61.5367 39.139C61.3486 39.2268 61.1461 39.265 60.9438 39.2509C60.8051 39.2239 60.6728 39.1635 60.5554 39.0736C60.4381 38.9837 60.3383 38.8663 60.2625 38.7289C60.2451 38.6914 60.2156 38.6634 60.1804 38.6512C60.1453 38.639 60.1073 38.6434 60.075 38.6636C60.0427 38.6838 60.0186 38.7181 60.0081 38.7589C59.9975 38.7997 60.0014 38.8436 60.0188 38.8811C60.1187 39.1325 60.2754 39.3479 60.4721 39.5045C60.6689 39.6612 60.8985 39.7533 61.1366 39.7711C61.3747 39.7889 61.6126 39.7318 61.8251 39.6058C62.0376 39.4798 62.2168 39.2895 62.3438 39.0551C62.425 38.8159 62.2 38.5694 62.0313 38.7434ZM61.9625 81.8229C61.9781 81.8354 61.9967 81.842 62.0156 81.842C62.0346 81.842 62.0531 81.8354 62.0688 81.8229C62.7375 81.3371 67.7688 76.6971 68.1813 76.2839C68.195 76.2691 68.2046 76.2499 68.2089 76.2287C68.2131 76.2075 68.2118 76.1854 68.205 76.1651C68.1983 76.1448 68.1865 76.1273 68.1711 76.1149C68.1557 76.1025 68.1375 76.0957 68.1188 76.0954C68.1188 76.0954 57.8063 75.8634 55.9875 75.7909C55.8813 75.7909 55.8625 75.9214 55.9188 75.9794C56.25 76.3564 60.2438 80.2931 61.9625 81.8229ZM83.6875 137.67C84.1563 136.56 83.2813 134.697 82.8875 133.943C82.8798 133.925 82.8678 133.909 82.8529 133.898C82.838 133.888 82.8207 133.882 82.8031 133.882C82.7855 133.882 82.7683 133.888 82.7533 133.898C82.7384 133.909 82.7264 133.925 82.7188 133.943C82.4 134.668 81.7313 136.568 82.3688 137.662C82.8 138.474 83.35 138.532 83.6875 137.67ZM45.625 129.876C45.5625 129.919 40.9875 132.972 40.8125 133.283C40.6375 133.595 40.6438 133.827 40.8813 133.849C42.7563 133.987 43.475 134.168 43.55 134.269C43.6688 134.755 43.8 136.727 44.05 137.119C44.0767 137.167 44.1148 137.205 44.1597 137.229C44.2047 137.253 44.2546 137.261 44.3035 137.252C44.3524 137.244 44.3981 137.219 44.4352 137.181C44.4723 137.144 44.4991 137.094 44.5125 137.039C44.775 135.893 45.6 132.326 45.7625 131.739C45.925 131.152 46.2 129.637 45.625 129.876ZM45.5375 130.557C45.475 131.036 45.175 132.421 44.2875 135.959C44.2141 135.221 44.0802 134.492 43.8875 133.784C43.1396 133.524 42.3673 133.371 41.5875 133.327C42.875 132.399 44.225 131.507 45.5188 130.557H45.5375ZM48.8563 132.87C48.9077 132.865 48.9558 132.839 48.9927 132.797C49.0296 132.755 49.0529 132.699 49.0588 132.64C49.0646 132.58 49.0527 132.52 49.0249 132.47C48.9971 132.419 48.9552 132.382 48.9063 132.363C48.6751 132.284 48.4344 132.25 48.1938 132.261V131.21C48.1938 131.16 48.1766 131.112 48.1462 131.077C48.1157 131.041 48.0744 131.021 48.0313 131.021C47.9882 131.021 47.9468 131.041 47.9164 131.077C47.8859 131.112 47.8688 131.16 47.8688 131.21C47.8688 131.587 47.8125 131.935 47.7875 132.29C47.4938 132.29 47.2 132.355 46.8938 132.406C46.5875 132.457 46.7188 132.863 46.9438 132.841C47.2081 132.823 47.4732 132.823 47.7375 132.841C47.7375 133.16 47.6813 133.501 47.6688 133.827C47.6786 133.903 47.7115 133.971 47.7614 134.021C47.8113 134.071 47.8749 134.098 47.9406 134.098C48.0064 134.098 48.07 134.071 48.1199 134.021C48.1698 133.971 48.2026 133.903 48.2125 133.827V132.863C48.4267 132.881 48.6418 132.884 48.8563 132.87ZM63.9125 128.904C63.859 128.722 63.7595 128.562 63.6269 128.446C63.4944 128.329 63.3348 128.262 63.1688 128.252C62.5938 128.252 62.0563 129.071 61.6 129.832H61.5563C61.1125 129.47 60.975 129.47 60.5625 129.977C60.0125 130.666 60.2438 130.789 60.9563 131.427C60.475 132.203 59.2625 134.204 59.0813 134.567C58.9 134.929 58.3688 135.951 58.9563 136.517C59.0769 136.617 59.2228 136.668 59.371 136.661C59.5192 136.655 59.6613 136.591 59.775 136.481C60.6828 135.204 61.5179 133.86 62.275 132.457C62.9 132.892 62.95 132.979 63.4375 132.515C63.5083 132.461 63.5675 132.39 63.6109 132.305C63.6542 132.221 63.6804 132.127 63.6875 132.029C63.6875 131.674 63.3188 131.427 63.0625 131.188C63.2813 130.818 63.475 130.463 63.65 130.093C63.7661 129.93 63.8497 129.738 63.8951 129.533C63.9404 129.327 63.9464 129.113 63.9125 128.904ZM61.9375 130.101C62.1445 129.776 62.3656 129.464 62.6 129.165C62.9063 128.781 63.1313 128.687 63.3375 128.854C63.6875 129.122 63.4938 129.361 62.775 130.876L61.9375 130.101ZM59.2813 136.147C58.925 136.053 59.1563 135.422 59.325 135.045C59.4938 134.668 60.7625 132.537 61.25 131.674C61.4438 131.833 61.7688 132.08 61.925 132.189C61.5 133.03 60.2938 135.089 60.05 135.408C59.8063 135.727 59.5813 136.227 59.2813 136.147ZM61.0625 129.999L61.1625 130.043C61.2625 130.086 63.3 132.015 63.3 132.058C63.2091 132.214 63.0896 132.346 62.95 132.442C62.7125 132.225 61.2375 131.065 60.6875 130.565C60.8021 130.367 60.9273 130.178 61.0625 129.999ZM74.85 133.617C74.85 133.617 77.6875 137.148 77.9375 137.242C78.3563 137.372 80.6188 134.342 80.9188 133.936C81.2125 134.226 81.3625 134.277 81.6938 133.892C81.8987 133.644 82.0694 133.36 82.2 133.051C82.2219 133.004 82.23 132.949 82.2233 132.896C82.2165 132.842 82.1952 132.793 82.1625 132.754C78.9813 129.013 78.4125 128.317 78.2813 128.259C77.8688 128.056 77.6563 128.643 77.4125 128.854C77.075 129.231 76.8938 129.347 77.45 130.072C74.9125 133.262 74.7125 133.24 74.85 133.617ZM77.525 129.361C77.6915 129.138 77.878 128.937 78.0813 128.759C78.0813 128.759 79.9563 130.934 81.7313 132.964C81.6178 133.21 81.4793 133.439 81.3188 133.646C81.25 133.566 77.625 129.484 77.5 129.361H77.525ZM80.65 133.602C77.925 136.952 78.2 136.821 77.9125 136.502C77.7438 136.336 75.65 133.834 75.3313 133.407C75.5563 133.117 77.6313 130.507 77.7688 130.362C77.7375 130.391 80.2 133.153 80.625 133.602H80.65Z" fill="black"/>
<path d="M77.35 132.073C76.725 132.841 76.2375 133.066 76.3063 133.479C76.6115 134.004 76.9635 134.49 77.3563 134.929C77.3802 134.952 77.4101 134.964 77.441 134.965C77.472 134.966 77.5021 134.954 77.5267 134.932C77.5513 134.91 77.5688 134.88 77.5764 134.845C77.5841 134.81 77.5814 134.773 77.5688 134.741C77.5688 134.741 77.075 133.762 76.8625 133.436C76.9125 133.363 77.4438 132.537 77.5875 132.348C77.619 132.312 77.6367 132.262 77.6367 132.21C77.6367 132.159 77.619 132.109 77.5875 132.073C77.556 132.036 77.5133 132.016 77.4688 132.016C77.4242 132.016 77.3815 132.036 77.35 132.073Z" fill="black"/>
<path d="M86.5749 140.969L71.2499 140.853C71.2499 139.613 70.9062 129.318 70.8812 128.441C70.8812 128.173 70.5124 128.173 70.5249 128.441C70.5249 129.166 70.7499 140.171 70.7812 140.846H54.0999C54.0999 139.671 53.9374 130.456 53.9249 129.826C53.9249 129.774 53.9071 129.724 53.8755 129.687C53.8438 129.65 53.8009 129.63 53.7562 129.63C53.7114 129.63 53.6685 129.65 53.6368 129.687C53.6052 129.724 53.5874 129.774 53.5874 129.826V140.846C52.2874 140.846 38.5874 140.846 36.7124 141.005C36.6724 141.014 36.6364 141.039 36.6105 141.075C36.5845 141.111 36.5703 141.157 36.5703 141.204C36.5703 141.252 36.5845 141.297 36.6105 141.334C36.6364 141.37 36.6724 141.395 36.7124 141.404C38.3812 141.491 85.0749 141.592 86.6062 141.179C86.6264 141.17 86.6434 141.153 86.6541 141.131C86.6648 141.109 86.6687 141.084 86.665 141.059C86.6613 141.034 86.6503 141.012 86.6339 140.995C86.6174 140.979 86.5966 140.969 86.5749 140.969ZM41.6249 10.1498C41.7687 10.4398 43.2312 10.534 43.3624 10.476C43.4487 10.4409 43.5231 10.3749 43.5749 10.2875C44.0707 10.7672 44.5903 11.2126 45.1312 11.6215C45.2083 11.6938 45.2977 11.7467 45.3935 11.7766C45.4892 11.8066 45.5894 11.813 45.6874 11.7955C45.9499 11.7085 50.8812 8.30101 50.9562 8.24301C51.2812 8.01101 51.2874 7.77901 51.2437 7.62676C51.1499 7.32951 46.1124 4.58901 45.3062 3.56676C45.2828 3.54715 45.2563 3.53308 45.2283 3.52538C45.2002 3.51767 45.1711 3.51648 45.1426 3.52187C45.1142 3.52726 45.0869 3.53913 45.0624 3.55679C45.0379 3.57444 45.0167 3.59755 44.9999 3.62476C44.3749 4.45851 43.8187 5.31401 43.2499 6.16226C42.6773 6.1418 42.105 6.21502 41.5499 6.37976C41.4887 7.63675 41.5137 8.89739 41.6249 10.1498ZM45.9187 7.97476C45.8549 8.17724 45.7337 8.34854 45.5749 8.46051C45.2624 8.58376 44.9499 8.24301 44.8437 8.09076C44.4999 7.62676 45.2812 6.64076 45.7999 7.41651C45.8647 7.49502 45.91 7.59243 45.9309 7.69838C45.9518 7.80433 45.9476 7.91487 45.9187 8.01826V7.97476ZM45.4687 6.63351C45.2816 6.59539 45.0891 6.6183 44.9126 6.69969C44.7362 6.78107 44.5826 6.91773 44.4692 7.09443C44.3558 7.27112 44.2869 7.48089 44.2702 7.70035C44.2536 7.9198 44.2898 8.14031 44.3749 8.33726C44.5025 8.58076 44.6891 8.77526 44.9114 8.89647C45.1337 9.01767 45.3819 9.06021 45.6249 9.01876C45.7927 8.94774 45.9419 8.82767 46.0579 8.67018C46.174 8.51268 46.253 8.32309 46.2874 8.11976C46.9749 8.11976 49.3374 8.11976 50.2812 8.06901L45.6249 11.2155C45.3624 11.085 43.8249 9.76551 43.6374 9.59151C43.6374 9.19276 43.6374 6.80751 43.5937 6.42326C44.1187 5.69826 44.6562 4.92251 45.1687 4.14676C45.9312 4.87176 49.4499 7.04676 50.4812 7.67751H46.3062C46.279 7.42796 46.1826 7.19543 46.0315 7.01497C45.8804 6.83451 45.6829 6.7159 45.4687 6.67701V6.63351ZM41.9687 6.76401L43.1249 6.71326C43.1249 6.93801 43.1999 9.61326 43.1687 9.99026C42.7741 10.0204 42.3778 9.99855 41.9874 9.92501C42.0249 9.42476 41.9937 7.37301 41.9687 6.80751V6.76401ZM22.3999 44.8773C22.4655 44.9212 22.5398 44.9443 22.6155 44.9443C22.6912 44.9443 22.7656 44.9212 22.8312 44.8773C23.3249 44.5945 24.3062 43.6013 27.1687 41.4045C27.2527 41.3516 27.3251 41.277 27.3804 41.1865C27.4356 41.096 27.4722 40.992 27.4874 40.8825C27.4874 40.8825 27.5937 37.7868 27.4437 37.6853C26.9624 37.3373 25.5687 36.2353 25.1687 36.3078C25.1187 36.3078 19.8437 40.1213 19.8312 40.3025C19.7789 41.0937 19.7685 41.8878 19.7999 42.6805C20.6244 43.4777 21.4929 44.2115 22.3999 44.8773ZM20.1812 40.8028C20.6624 41.1798 22.0062 42.2528 22.3749 42.4703V44.1233C20.0374 42.3108 20.1874 42.6153 20.2062 42.0788C20.2124 41.7815 20.1937 41.0855 20.1812 40.8028ZM22.6312 41.8685C22.5914 41.9027 22.5432 41.9211 22.4937 41.9211C22.4442 41.9211 22.396 41.9027 22.3562 41.8685C22.2562 41.796 20.8562 40.636 20.4812 40.3243C25.3937 36.6993 25.2187 36.6558 25.4812 36.7645C25.6062 36.8225 26.1937 37.2575 26.9874 37.8665C26.0499 38.7945 22.7249 41.796 22.6312 41.8685ZM27.0062 40.9043C26.8749 41.0493 23.4937 43.652 22.7437 44.2175V42.405C23.1874 42.0135 26.1187 39.3455 27.0312 38.4393C27.0562 40.8318 27.0937 40.8318 27.0374 40.9043H27.0062ZM91.6749 45.3195C92.8421 45.2879 93.9777 44.8731 94.9499 44.1233C95.4349 43.7688 95.8001 43.2318 95.9844 42.6023C96.1688 41.9727 96.161 41.2887 95.9624 40.665C96.3749 40.3025 97.6937 39.0048 97.9499 38.722C98.4812 38.7583 99.0999 37.6635 99.4312 37.069C99.5687 36.8225 99.7499 36.5688 99.6562 36.286C98.8124 35.2501 97.9194 34.2698 96.9812 33.3498C96.9184 33.2728 96.837 33.2198 96.7477 33.1978C96.6584 33.1758 96.5655 33.1858 96.4812 33.2265C95.8588 33.9265 95.2977 34.6964 94.8062 35.5248C94.7846 35.6321 94.7956 35.7448 94.8374 35.8438C94.8374 35.8945 93.9687 38.8163 93.8624 39.1715C93.3947 39.2263 92.9604 39.4777 92.6414 39.8784C92.3225 40.2791 92.141 40.8013 92.1312 41.3465C92.0562 43.4635 93.4999 44.145 91.6187 44.928C91.5926 44.954 91.5727 44.9874 91.561 45.0249C91.5492 45.0624 91.5461 45.1028 91.5517 45.1421C91.5574 45.1815 91.5717 45.2185 91.5933 45.2496C91.6148 45.2806 91.643 45.3047 91.6749 45.3195ZM95.2874 35.6553C95.6936 34.9633 96.1722 34.3326 96.7124 33.7775C97.0499 34.0893 98.9999 36.1773 99.2124 36.518C99.0562 36.8298 98.1812 38.1493 97.9624 38.1783C97.9437 38.1565 95.3687 35.7423 95.2874 35.6553ZM95.7374 40.1938C95.4188 39.652 94.9295 39.2771 94.3749 39.1498C94.4999 38.664 94.9562 36.8878 95.1124 36.17C95.5874 36.6413 96.7624 37.7868 97.4812 38.4465C97.1999 38.7728 96.1374 39.824 95.7374 40.1938ZM92.6749 44.7468C93.1624 44.232 93.0437 43.5578 92.8187 42.9125C92.4187 41.4625 92.5374 40.5273 93.2062 40.0125C93.3788 39.8855 93.5715 39.7997 93.773 39.7601C93.9745 39.7205 94.1809 39.728 94.3799 39.782C94.5789 39.836 94.7667 39.9355 94.9322 40.0747C95.0976 40.2138 95.2375 40.3899 95.3437 40.5925C96.3312 42.3978 94.4812 44.3335 92.6749 44.7468ZM52.5999 7.97476C52.8562 7.97476 54.3562 7.75001 55.7249 7.58326C55.773 7.58326 55.8191 7.56111 55.8531 7.52168C55.8871 7.48225 55.9062 7.42878 55.9062 7.37301C55.9062 7.31725 55.8871 7.26377 55.8531 7.22434C55.8191 7.18491 55.773 7.16276 55.7249 7.16276C55.2124 7.22076 52.8062 7.38751 52.5437 7.45276C52.493 7.47238 52.4497 7.51177 52.4212 7.56423C52.3927 7.61669 52.3807 7.67898 52.3874 7.7405C52.394 7.80203 52.4188 7.85899 52.4576 7.9017C52.4963 7.94441 52.5466 7.97023 52.5999 7.97476ZM57.4999 7.51076C57.6687 7.51076 60.9874 7.19176 61.7187 7.23526C61.9624 7.23526 61.9812 6.82201 61.7187 6.80026C60.2902 6.71946 58.8585 6.7728 57.4374 6.95976C57.3834 6.9803 57.3373 7.02208 57.307 7.07787C57.2768 7.13367 57.2643 7.19997 57.2717 7.26533C57.2791 7.33069 57.306 7.39098 57.3476 7.4358C57.3893 7.48061 57.4432 7.50713 57.4999 7.51076ZM63.5999 7.09751L66.2937 7.01051C66.3383 7.0011 66.3787 6.97381 66.4078 6.9334C66.4368 6.89299 66.4528 6.84202 66.4528 6.78939C66.4528 6.73675 66.4368 6.68579 66.4078 6.64538C66.3787 6.60497 66.3383 6.57768 66.2937 6.56826L63.6124 6.48126C63.5487 6.49073 63.4899 6.52639 63.4469 6.58178C63.4039 6.63717 63.3794 6.70861 63.3779 6.78316C63.3764 6.8577 63.3979 6.9304 63.4387 6.98808C63.4794 7.04575 63.5366 7.08458 63.5999 7.09751ZM68.4374 7.19901C69.5874 7.19901 73.7374 7.42376 74.7499 7.62676C74.9999 7.68476 75.0874 7.23526 74.8374 7.18451C72.7172 6.8105 70.5758 6.62147 68.4312 6.61901C68.3649 6.61997 68.3016 6.65145 68.2553 6.70652C68.209 6.76158 68.1835 6.83573 68.1843 6.91264C68.1851 6.98955 68.2123 7.06293 68.2597 7.11664C68.3072 7.17034 68.3711 7.19998 68.4374 7.19901ZM76.7687 8.45326C78.4233 9.02095 79.9521 9.99797 81.2499 11.317C81.4499 11.5273 81.7312 11.1865 81.5374 10.9763C80.2265 9.51948 78.6311 8.45236 76.8874 7.86601C76.8243 7.85925 76.7613 7.87918 76.7099 7.92213C76.6585 7.96507 76.6222 8.02814 76.6077 8.09968C76.5932 8.17123 76.6016 8.24643 76.6311 8.31142C76.6607 8.3764 76.7096 8.42678 76.7687 8.45326ZM82.3124 18.1248C82.2606 18.1394 82.2152 18.1756 82.1848 18.2263C82.1543 18.2771 82.1409 18.339 82.147 18.4005C82.1532 18.4619 82.1784 18.5187 82.2181 18.56C82.2578 18.6014 82.3091 18.6245 82.3624 18.625C83.1874 18.625 84.1562 17.5085 84.2374 15.9643C84.3187 14.42 83.4062 13.1803 82.5312 12.1435C82.4939 12.0993 82.443 12.0741 82.3896 12.0734C82.3363 12.0727 82.2849 12.0966 82.2468 12.1399C82.2087 12.1832 82.1869 12.2422 82.1863 12.3041C82.1857 12.3659 82.2064 12.4255 82.2437 12.4698C83.2312 13.6588 83.7124 14.7463 83.7187 15.8048C83.7353 16.3167 83.6067 16.8208 83.3527 17.2398C83.0987 17.6588 82.7333 17.9697 82.3124 18.1248ZM75.4937 20.481C76.1187 20.481 80.2374 19.3863 80.9187 19.1978C80.9664 19.1795 81.0064 19.1411 81.0308 19.0902C81.0552 19.0392 81.0622 18.9795 81.0504 18.9229C81.0386 18.8663 81.0088 18.8168 80.9671 18.7845C80.9253 18.7521 80.8745 18.7392 80.8249 18.7483C79.8937 18.9948 76.6062 19.6618 75.4499 19.8938C75.3892 19.9093 75.3354 19.9499 75.2986 20.008C75.2617 20.0661 75.2444 20.1378 75.2497 20.2096C75.2551 20.2815 75.2828 20.3487 75.3277 20.3986C75.3726 20.4485 75.4316 20.4778 75.4937 20.481ZM73.7999 20.0025C72.4687 20.1693 71.0749 20.3143 69.7312 20.5463C69.6747 20.5659 69.6258 20.6075 69.5926 20.6641C69.5595 20.7207 69.5443 20.7888 69.5494 20.8569C69.5545 20.9251 69.5798 20.9891 69.6209 21.0381C69.6619 21.0872 69.7164 21.1183 69.7749 21.1263C70.1562 21.1263 73.2062 20.6623 73.8187 20.5753C74.1374 20.5245 74.1187 19.9518 73.7999 20.0025ZM64.3749 21.8585C64.7374 21.8585 67.2374 21.3873 67.8187 21.293C67.8674 21.2788 67.91 21.2444 67.9384 21.1963C67.9668 21.1481 67.9791 21.0897 67.973 21.0318C67.9668 20.9739 67.9427 20.9206 67.9051 20.882C67.8674 20.8433 67.8189 20.8219 67.7687 20.8218C67.0062 20.9233 65.0749 21.119 64.3249 21.2713C64.2639 21.2871 64.2099 21.3283 64.1732 21.3871C64.1366 21.446 64.1197 21.5183 64.1259 21.5906C64.132 21.6628 64.1607 21.7299 64.2066 21.7793C64.2525 21.8286 64.3124 21.8568 64.3749 21.8585ZM53.9437 22.9025C55.2812 22.9025 56.6499 22.627 57.9749 22.482C58.2499 22.482 58.2499 21.9528 57.9749 21.9818C56.6437 22.105 55.2499 22.1703 53.9062 22.3878C53.6374 22.424 53.6687 22.9025 53.9437 22.9025ZM47.3562 23.5695C47.3013 23.5846 47.253 23.6224 47.2205 23.6759C47.188 23.7293 47.1735 23.7947 47.1796 23.8598C47.1857 23.9248 47.2122 23.985 47.2539 24.029C47.2956 24.073 47.3498 24.0978 47.4062 24.0988C47.8312 24.0988 51.2624 23.5115 51.7812 23.4318C51.8358 23.4168 51.8837 23.3788 51.9153 23.325C51.947 23.2713 51.9603 23.2058 51.9524 23.1413C51.9446 23.0768 51.9163 23.0181 51.873 22.9766C51.8298 22.9351 51.7747 22.9138 51.7187 22.917C50.8999 23.033 48.0499 23.4028 47.3562 23.5695ZM37.8374 25.643C40.2629 25.0526 42.7145 24.6169 45.1812 24.338C45.5062 24.338 45.4937 23.7218 45.1812 23.758C42.6837 23.9306 40.206 24.3773 37.7812 25.092C37.7274 25.1121 37.6814 25.1533 37.6509 25.2084C37.6204 25.2636 37.6074 25.3293 37.614 25.3943C37.6206 25.4594 37.6465 25.5198 37.6873 25.5651C37.728 25.6105 37.7811 25.638 37.8374 25.643ZM29.4749 29.384C31.1416 28.2257 32.962 27.3952 34.8624 26.9263C35.1937 26.8465 35.0624 26.2665 34.7374 26.3463C32.7804 26.797 30.905 27.6358 29.1937 28.8258C29.1401 28.8744 29.1035 28.9439 29.0907 29.0214C29.0779 29.099 29.0897 29.1792 29.1241 29.2474C29.1584 29.3156 29.2129 29.367 29.2774 29.3921C29.3419 29.4172 29.4121 29.4143 29.4749 29.384ZM24.1937 35.213C24.8835 33.0578 26.2131 31.2584 27.9437 30.138C28.1749 29.993 27.9812 29.5943 27.7437 29.732C25.8594 30.8185 24.4121 32.7106 23.7062 35.01C23.5874 35.416 24.0749 35.5755 24.1937 35.213ZM25.5562 43.884C25.3687 43.6375 25.0687 43.9783 25.2437 44.2175C25.6812 44.8048 27.9874 46.8638 28.4562 46.8638C28.5054 46.8633 28.553 46.8441 28.5919 46.8092C28.6309 46.7743 28.6588 46.7256 28.6716 46.6705C28.6843 46.6154 28.6812 46.557 28.6626 46.5041C28.644 46.4513 28.611 46.407 28.5687 46.378C27.5085 45.6417 26.5011 44.8076 25.5562 43.884ZM34.2687 48.5313C32.8579 48.3695 31.4771 47.9562 30.1749 47.306C29.8874 47.161 29.6499 47.654 29.9437 47.8135C31.2968 48.5571 32.7567 49.0044 34.2499 49.133C34.5937 49.1548 34.5937 48.5748 34.2687 48.5313ZM35.6249 49.5245C36.3499 49.6478 39.3062 50.206 40.0562 50.2495C40.1183 50.2516 40.1789 50.2269 40.2261 50.18C40.2733 50.1332 40.3038 50.0676 40.3116 49.9961C40.3194 49.9245 40.304 49.8522 40.2683 49.7932C40.2326 49.7341 40.1793 49.6926 40.1187 49.6768C39.3999 49.5028 36.4687 49.0968 35.7437 48.9518C35.4499 48.9445 35.3312 49.4665 35.6249 49.5245ZM45.2562 50.409C44.0437 50.5339 42.8218 50.4162 41.6437 50.061C41.5946 50.0546 41.5452 50.0687 41.5044 50.1009C41.4636 50.1331 41.4341 50.1811 41.4213 50.2364C41.4084 50.2917 41.4131 50.3504 41.4344 50.4021C41.4557 50.4537 41.4923 50.4947 41.5374 50.5178C42.7538 50.9289 44.0246 51.0788 45.2874 50.96C45.5687 50.9238 45.5624 50.3873 45.2562 50.409ZM86.7937 46.8493C88.0962 46.6837 89.3803 46.3605 90.6249 45.885C90.8874 45.7835 90.7749 45.305 90.5062 45.3993C89.2921 45.8086 88.0467 46.0805 86.7874 46.2113C86.4249 46.2548 86.4312 46.8855 86.7937 46.8493ZM80.9937 47.4003C80.9433 47.4189 80.9 47.457 80.8709 47.5083C80.8418 47.5595 80.8288 47.6207 80.8339 47.6818C80.839 47.7428 80.862 47.8 80.899 47.8437C80.9361 47.8875 80.9849 47.9152 81.0374 47.9223C81.4937 47.9223 84.6124 47.2843 85.1437 47.1973C85.4499 47.132 85.3312 46.6173 85.0374 46.668C83.4249 46.9363 82.2249 47.1248 80.9937 47.4003ZM79.3749 47.625C77.8187 47.944 76.2499 48.1325 74.7624 48.2993C74.4374 48.3428 74.4499 48.9228 74.7624 48.8938C76.3368 48.7467 77.9035 48.5047 79.4562 48.1688C79.4869 48.1626 79.5164 48.1494 79.5428 48.13C79.5692 48.1106 79.592 48.0854 79.61 48.0558C79.628 48.0262 79.6408 47.9927 79.6476 47.9574C79.6545 47.922 79.6553 47.8855 79.6499 47.8498C79.6446 47.8141 79.6332 47.7799 79.6165 47.7493C79.5998 47.7187 79.5781 47.6922 79.5525 47.6713C79.527 47.6504 79.4982 47.6356 79.4677 47.6277C79.4372 47.6197 79.4057 47.6188 79.3749 47.625ZM33.7124 73.464C33.9874 73.464 33.9999 73.0145 33.7124 72.971C32.4444 72.7519 31.1554 72.7519 29.8874 72.971C29.8274 72.9863 29.7745 73.0274 29.7395 73.0861C29.7045 73.1447 29.6898 73.2165 29.6985 73.2871C29.7072 73.3577 29.7386 73.4219 29.7864 73.4668C29.8342 73.5117 29.8948 73.534 29.9562 73.5293C31.2041 73.3782 32.4611 73.3564 33.7124 73.464ZM89.2062 73.0798C89.1543 73.0987 89.1096 73.1376 89.0795 73.1902C89.0494 73.2428 89.0358 73.3057 89.0409 73.3685C89.046 73.4314 89.0696 73.4902 89.1076 73.5353C89.1457 73.5804 89.1959 73.609 89.2499 73.6162C89.3124 73.6162 92.6062 73.5075 93.3999 73.6162C93.6124 73.6525 93.6812 73.2755 93.4687 73.2393C92.0542 73.0477 90.6283 72.9944 89.2062 73.0798ZM87.4999 73.6525C87.5497 73.6525 87.5973 73.6296 87.6325 73.5888C87.6677 73.548 87.6874 73.4927 87.6874 73.435C87.6874 73.3773 87.6677 73.322 87.6325 73.2812C87.5973 73.2404 87.5497 73.2175 87.4999 73.2175C86.5787 73.1482 85.6537 73.2238 84.7499 73.4423C84.4812 73.5075 84.5562 73.9642 84.8124 73.9642C85.694 73.7337 86.5965 73.6291 87.4999 73.6525ZM101.725 82.6497C101.675 82.9398 102.037 83.121 102.144 82.8382C102.681 81.4318 102.95 79.2785 102.275 77.7633C102.144 77.4733 101.769 77.7197 101.894 78.0098C102.65 79.7497 101.925 81.526 101.725 82.6497ZM26.2499 104.4C25.3706 105.247 24.6351 106.277 24.0812 107.438C24.0689 107.461 24.0607 107.488 24.0572 107.515C24.0537 107.543 24.0548 107.571 24.0606 107.598C24.0724 107.652 24.1022 107.699 24.1437 107.728C24.1851 107.756 24.2347 107.765 24.2816 107.751C24.3285 107.738 24.3688 107.703 24.3937 107.655C24.9655 106.562 25.6973 105.593 26.5562 104.791C26.8062 104.581 26.4999 104.204 26.2499 104.4ZM30.4249 100.144C29.5685 100.887 28.7544 101.694 27.9874 102.558C27.9501 102.602 27.9295 102.662 27.9301 102.724C27.9307 102.786 27.9524 102.845 27.9905 102.888C28.0287 102.931 28.08 102.955 28.1334 102.955C28.1867 102.954 28.2376 102.929 28.2749 102.885C28.6249 102.457 30.5062 100.753 30.6937 100.572C30.8812 100.391 30.6562 100.05 30.4249 100.144ZM32.2999 98.8245C32.4312 98.8245 32.0437 98.9695 34.3749 97.186C34.4235 97.147 34.4579 97.0883 34.4712 97.0215C34.4845 96.9547 34.4759 96.8845 34.447 96.8247C34.4181 96.7649 34.371 96.7197 34.3149 96.698C34.2588 96.6764 34.1977 96.6797 34.1437 96.7075C33.4549 97.252 32.7973 97.8478 32.1749 98.491C32.1539 98.5199 32.1403 98.5551 32.1356 98.5925C32.1309 98.6299 32.1353 98.668 32.1483 98.7027C32.1613 98.7374 32.1824 98.7671 32.2092 98.7887C32.2359 98.8102 32.2674 98.8226 32.2999 98.8245Z" fill="black"/>
<path d="M35.4938 95.9535C35.6563 96.0333 35.55 95.9535 37.5188 94.5035C37.392 96.3241 37.4151 98.1545 37.5875 99.97C36.6124 99.3553 35.6766 98.6599 34.7875 97.8893C34.6188 97.737 34.3938 98.0125 34.5688 98.1793C35.5401 99.1446 36.5862 100.004 37.6938 100.746C38.5129 107.963 41.6872 114.541 46.5625 119.125C44.325 119.734 42.9125 120.074 42.3625 120.14C42.125 120.14 42.125 120.589 42.3625 120.589C42.9063 120.589 46.3688 119.806 47.1 119.632C56.075 127.919 67.875 127.107 76.475 119.473C78.1967 120.001 79.9463 120.398 81.7125 120.662C81.7673 120.657 81.819 120.63 81.8588 120.586C81.8985 120.542 81.9239 120.483 81.9305 120.42C81.9372 120.357 81.9247 120.293 81.8952 120.239C81.8657 120.185 81.821 120.145 81.7688 120.125C80.9938 119.973 78.8188 119.494 76.9438 119.045C81.6459 114.725 84.7796 108.516 85.725 101.645C85.9625 101.471 86.1938 101.282 86.4188 101.087C86.6438 100.891 86.4188 100.434 86.175 100.615L85.8188 100.869C86.5813 93.1695 84.2438 85.499 80.1125 79.7353C81.2875 78.2345 82.1063 76.4583 81.625 74.4863C82.2173 74.2768 82.8207 74.1122 83.4313 73.9933C83.7063 73.9498 83.6063 73.4785 83.3438 73.522C82.7108 73.6159 82.0842 73.7612 81.4688 73.957C81.0122 72.6441 80.2282 71.5191 79.2172 70.7261C78.2062 69.933 77.0142 69.5081 75.7938 69.5055C76.7922 68.2879 77.5248 66.8108 77.9303 65.1976C78.3359 63.5844 78.4027 61.882 78.125 60.2328C76.9688 54.0703 72.8375 48.2123 67.6375 44.841C67.7649 44.0251 67.7264 43.1861 67.525 42.3905C67.3875 41.6655 66.975 41.419 66.4938 41.0565C66.2438 40.868 66.0063 40.694 65.7438 40.52C66.4334 39.2752 66.7941 37.8236 66.7813 36.344C68.1875 36.1845 68.2375 33.8065 66.6938 33.444C68.2625 24.9035 54.6438 23.4535 55.4438 33.7195C55.1664 33.8114 54.9178 33.9944 54.7282 34.2466C54.5385 34.4988 54.4159 34.8092 54.375 35.1405C54.338 35.3676 54.3498 35.6018 54.4094 35.8224C54.469 36.0429 54.5745 36.243 54.7166 36.405C54.8587 36.567 55.0331 36.6859 55.2242 36.7511C55.4154 36.8163 55.6174 36.8259 55.8125 36.779C55.7551 37.7178 55.9239 38.6566 56.3 39.4905C55.9874 39.5739 55.6962 39.7423 55.4507 39.9818C55.2051 40.2213 55.0121 40.525 54.8875 40.868C54.6105 41.783 54.5564 42.7689 54.7313 43.7173C49.7625 46.3467 45.7898 50.986 43.5563 56.7673C41.7875 61.4435 42.65 64.8655 45.775 68.4325C44.3755 67.909 42.863 67.9628 41.4938 68.5848C40.6351 69.0132 39.8671 69.6535 39.2432 70.461C38.6194 71.2686 38.1546 72.224 37.8813 73.261C37.2801 73.1495 36.6696 73.1203 36.0625 73.174C36.021 73.1831 35.9835 73.2087 35.9565 73.2464C35.9296 73.2841 35.9148 73.3316 35.9148 73.3806C35.9148 73.4296 35.9296 73.4771 35.9565 73.5149C35.9835 73.5526 36.021 73.5782 36.0625 73.5873C36.6383 73.5589 37.2143 73.6372 37.7688 73.8193C37.3375 76.8715 39.5688 79.4525 41.7375 81.265C39.41 84.9333 37.9765 89.2606 37.5875 93.793C36.8541 94.3115 36.1467 94.8779 35.4688 95.4895C35.4331 95.514 35.404 95.5495 35.3846 95.592C35.3651 95.6345 35.3563 95.6824 35.3588 95.7304C35.3614 95.7784 35.3754 95.8246 35.3992 95.864C35.423 95.9034 35.4558 95.9344 35.4938 95.9535ZM63.125 42.4848L63.3875 42.3905C63.5313 42.5645 63.9188 42.956 64.1563 43.188C62.3 44.319 60 44.2248 57.6 42.869C57.8688 42.5863 58.3063 42.0715 58.4688 41.854C58.8985 42.0449 59.3366 42.2095 59.7813 42.347C59.9637 42.6608 60.2076 42.92 60.4929 43.1036C60.7782 43.2872 61.0969 43.3899 61.4229 43.4033C61.749 43.4167 62.0732 43.3405 62.369 43.1809C62.6648 43.0213 62.9239 42.7827 63.125 42.4848ZM58.125 41.651C57.9125 41.9265 57.4375 42.5138 57.2813 42.666C57.1063 42.5548 56.9313 42.4388 56.7563 42.318C56.7223 42.294 56.6815 42.2866 56.6428 42.2975C56.6041 42.3083 56.5708 42.3366 56.55 42.376C56.5293 42.4154 56.5229 42.4628 56.5323 42.5076C56.5417 42.5525 56.566 42.5912 56.6 42.6153C58.1188 43.7463 59.6 44.6018 61.3938 44.6018C62.1205 44.6417 62.8457 44.4925 63.5162 44.1651C64.1867 43.8377 64.7855 43.3403 65.2688 42.7095C65.2945 42.6787 65.3086 42.6374 65.308 42.5946C65.3074 42.5517 65.2922 42.5109 65.2657 42.4811C65.2391 42.4513 65.2035 42.435 65.1666 42.4356C65.1297 42.4363 65.0945 42.454 65.0688 42.4848C64.8996 42.6467 64.7222 42.7968 64.5375 42.9343C64.3688 42.7675 63.9813 42.405 63.7938 42.2093C64.4297 41.9308 65.0071 41.4983 65.4875 40.9405C66.1125 41.248 66.6731 41.7079 67.1313 42.289C67.3609 43.0788 67.3977 43.927 67.2375 44.7395C66.6625 46.7985 62.0125 48.8358 57.2375 45.943C55.5563 44.9643 54.85 44.1595 55.15 41.7235C55.1724 41.2928 55.315 40.8823 55.5563 40.554C55.7976 40.2257 56.1245 39.9975 56.4875 39.9038C56.8993 40.6354 57.4622 41.236 58.125 41.651ZM63.2125 47.8498C64.2313 47.7048 66.65 47.1683 67.5063 45.334C72.475 48.524 77.6563 55.658 77.775 62.1613C77.8178 63.5906 77.5716 65.0118 77.0561 66.311C76.5406 67.6102 75.7701 68.7514 74.8063 69.6433C73.9223 69.8319 73.0752 70.2053 72.3063 70.7453C72.8563 60.8925 72.875 61.487 72.8125 61.4145C72.75 61.342 71.8 61.3348 70.25 61.2913C70.4438 61.0085 70.9625 60.211 71.0813 60.0515C71.1103 60.0159 71.1259 59.9685 71.1248 59.9195C71.1236 59.8706 71.1057 59.8242 71.075 59.7905C71.0444 59.7569 71.0034 59.7387 70.9612 59.7401C70.919 59.7414 70.879 59.7622 70.85 59.7978C70.4554 60.306 70.0381 60.79 69.6 61.2478H69.4688C69.6282 59.0489 69.67 56.8406 69.5938 54.6358C69.5938 54.4618 69.3313 54.4618 69.3438 54.6358C69.4063 55.6725 68.9875 60.3198 68.9375 61.2115C64.2813 61.1028 56.5188 61.0085 51.8313 60.9578C51.2568 58.7034 51.0138 56.353 51.1125 54.005C51.1125 53.7585 50.8125 53.7585 50.7938 54.005C50.5917 56.3405 50.759 58.6992 51.2875 60.965H51.1563C50.53 60.2388 49.9355 59.4765 49.375 58.6813C49.3523 58.645 49.3187 58.6198 49.2809 58.6105C49.243 58.6013 49.2036 58.6086 49.1701 58.6312C49.1367 58.6537 49.1117 58.6899 49.0999 58.7326C49.0881 58.7753 49.0904 58.8216 49.1063 58.8625C49.175 59.0148 49.925 60.3125 50.4188 60.994H47.9938C47.8125 60.994 47.8688 60.994 47.8563 61.1608C47.7938 61.98 48.0188 66.504 48.1938 69.723C47.8169 69.4504 47.4243 69.2081 47.0188 68.998C43.8 65.3295 42.0875 62.473 43.8375 57.572C45.9267 51.6693 49.8629 46.9014 54.8563 44.2248C55.5563 45.9575 59.1125 48.4153 63.2125 47.8498ZM48.2563 61.5088C48.9688 61.5088 70.8938 61.7335 72.425 61.893C72.1313 64.7495 71.5875 73.1885 71.4 76.0233H70.0313C69.2563 76.799 63.5063 82.338 63.0938 82.744C62.95 82.8745 63.2125 82.9833 63.8313 83.6285C64.2205 83.9599 64.5467 84.3806 64.7898 84.8646C65.0328 85.3485 65.1873 85.8853 65.2438 86.4415C65.2454 86.4672 65.2553 86.4911 65.2715 86.5086C65.2878 86.5261 65.3091 86.5358 65.3313 86.5358C67.5563 86.6445 69.4375 88.9428 67.8938 90.3638C66.475 91.6688 64.2813 90.3638 63.1938 89.1603C64.175 87.674 64.75 86.3763 63.65 85.035C63.5188 84.8755 62.1063 83.5415 60.3125 81.845C53.5188 75.4143 54.0625 75.7768 53.975 75.7768C53.625 75.7768 49.9125 75.4795 49.2438 75.436C48.75 70.796 48.3875 64.0173 48.2563 61.5088ZM54.7938 90.1028C53.875 90.1825 52.3313 90.3203 51.6688 89.24C51.2375 88.515 51.8813 87.6668 52.575 87.4348C54.0938 88.0728 56.4813 88.9645 57.2563 89.2473C56.4852 89.6982 55.6516 89.9878 54.7938 90.1028ZM51.5438 89.9578C52.1688 90.6828 53.2313 90.7698 54.0813 90.7553C55.4681 90.7473 56.8286 90.3146 58.025 89.501C59.3938 89.965 60.75 90.3638 62.1625 90.7118C62.1794 90.7185 62.1978 90.7186 62.2147 90.7121C62.2316 90.7055 62.2463 90.6927 62.2563 90.6755C62.4938 90.3348 62.725 89.9505 62.9375 89.6243C64.375 91.1758 66.775 92.198 68.25 90.8785C69.3375 89.8998 69.1688 88.225 68.0813 87.1883C73.2563 85.4265 77.375 82.8963 79.6875 80.2355C81.8458 83.1062 83.4431 86.4845 84.3698 90.1387C85.2965 93.7929 85.5307 97.6364 85.0563 101.406C83.736 102.407 82.3694 103.325 80.9625 104.153C80.9286 104.174 80.9016 104.207 80.8859 104.247C80.8702 104.287 80.8668 104.333 80.8762 104.376C80.8857 104.419 80.9074 104.457 80.9378 104.483C80.9682 104.51 81.0056 104.524 81.0438 104.523C81.125 104.523 83.625 103.124 84.9438 102.218C83.8644 108.769 80.8335 114.672 76.3813 118.893C75.375 118.646 74.5063 118.414 74.0938 118.269C73.8688 118.182 73.7688 118.574 73.9875 118.668C74.3688 118.827 75.0813 119.052 75.9313 119.306C71.8999 122.869 66.9759 124.809 61.9074 124.83C56.839 124.851 51.9032 122.952 47.85 119.422C48.5991 119.24 49.3364 118.998 50.0563 118.697C50.3313 118.559 50.1625 118.088 49.8813 118.16L47.2813 118.885C42.5179 114.45 39.3259 108.139 38.3125 101.152L38.4375 101.217C38.725 101.362 38.95 100.905 38.6813 100.724L38.2188 100.412C37.3923 93.7951 38.7836 87.0621 42.1063 81.5985C45.2188 83.9084 48.554 85.7869 52.0438 87.1955C51.0563 87.7755 50.725 89.0225 51.5438 89.9578ZM66.4563 36.1555C66.325 37.6055 66.1375 39.0555 65.3625 40.172C64.9375 40.7883 64.0313 41.7018 63.2875 41.7235C62.7938 41.7235 62.6188 41.39 62.3 40.9985C61.8813 40.433 61.675 40.1358 61.45 40.1793C60.95 40.2518 61.0375 41.3465 60.2375 41.8903C59.9938 42.0498 59.1438 41.767 58.4938 41.4045C57.7318 40.9661 57.1037 40.2679 56.6937 39.4035C56.2837 38.5391 56.1115 37.55 56.2 36.5688C56.2 36.3948 55.9813 36.286 55.8938 36.3368C55.7579 36.3913 55.6124 36.4046 55.4708 36.3755C55.3293 36.3464 55.1965 36.2759 55.0851 36.1706C54.9737 36.0653 54.8873 35.9287 54.8341 35.7738C54.7809 35.6189 54.7627 35.4508 54.7813 35.2855C55.0188 33.8355 56.4188 34.198 56.7875 35.039C56.7998 35.0602 56.8182 35.0757 56.8394 35.0828C56.8606 35.0899 56.8832 35.0881 56.9034 35.0777C56.9235 35.0673 56.9399 35.049 56.9496 35.026C56.9592 35.003 56.9616 34.9768 56.9563 34.952C56.7045 34.1898 56.6732 33.3533 56.8671 32.5686C57.061 31.7839 57.4696 31.0937 58.0313 30.602C58.9241 31.3211 59.985 31.7065 61.0719 31.7065C62.1588 31.7065 63.2197 31.3211 64.1125 30.602C65.3188 31.6895 65.3625 33.9515 65.275 34.7418C65.274 34.7609 65.2769 34.78 65.2834 34.7977C65.2899 34.8153 65.2999 34.8309 65.3125 34.8433C65.4188 34.9375 65.5938 34.691 65.6813 34.575C65.7937 34.3726 65.955 34.2131 66.145 34.1164C66.3351 34.0197 66.5455 33.9901 66.75 34.0313C66.9543 34.0659 67.1405 34.1862 67.2735 34.3693C67.4064 34.5525 67.4769 34.7859 67.4715 35.0253C67.4661 35.2647 67.3853 35.4934 67.2442 35.6683C67.1032 35.8432 66.9118 35.9521 66.7063 35.9743C66.6625 35.9308 66.4688 36.0033 66.4563 36.1555Z" fill="black"/>
<path d="M57.4999 115.674C57.4999 115.768 57.5624 115.848 57.4999 115.674C55.7343 116.502 53.9083 117.145 52.0436 117.595C51.8186 117.646 51.8936 118.03 52.1186 118.001C54.0492 117.749 55.9307 117.129 57.6874 116.167C57.9436 116 57.7749 115.558 57.4999 115.674ZM66.2499 112.593C66.3999 112.593 71.4624 110.287 71.9561 109.917C72.1999 109.729 72.0311 109.243 71.7436 109.366C71.2374 109.584 67.2124 111.788 66.2061 112.201C66.1694 112.217 66.1385 112.247 66.1183 112.287C66.0981 112.326 66.0899 112.372 66.095 112.417C66.1 112.462 66.118 112.504 66.1461 112.536C66.1742 112.568 66.2108 112.588 66.2499 112.593ZM73.9874 108.75C74.1499 108.75 78.3624 106.524 78.7561 106.176C78.9499 106.002 78.8186 105.589 78.5624 105.705C78.1811 105.872 74.7249 107.88 73.9311 108.264C73.8867 108.286 73.8497 108.324 73.8257 108.372C73.8018 108.421 73.7923 108.477 73.7987 108.532C73.8051 108.587 73.8271 108.639 73.8612 108.678C73.8953 108.718 73.9396 108.743 73.9874 108.75ZM86.2499 94.1775C86.5999 94.4385 87.8999 95.6275 88.2499 95.8885C88.3034 95.9244 88.3663 95.9367 88.427 95.9231C88.4877 95.9094 88.5421 95.8708 88.5802 95.8143C88.6182 95.7577 88.6374 95.6871 88.6341 95.6155C88.6309 95.5439 88.6054 95.476 88.5624 95.4245C88.2311 95.0983 86.7999 94.0615 86.4436 93.815C86.4022 93.7852 86.3522 93.7757 86.3047 93.7886C86.2573 93.8015 86.2162 93.8358 86.1905 93.8839C86.1648 93.9319 86.1566 93.9899 86.1677 94.045C86.1789 94.1 86.2084 94.1477 86.2499 94.1775ZM94.0936 100.195C93.8999 100.014 93.6374 100.34 93.8374 100.529C94.2811 100.956 96.0436 102.769 96.5311 103.153C96.5828 103.183 96.6418 103.191 96.698 103.176C96.7542 103.161 96.8042 103.123 96.8396 103.071C96.8749 103.018 96.8933 102.952 96.8918 102.885C96.8903 102.818 96.8688 102.754 96.8311 102.704C96.4311 102.225 94.6124 100.674 94.0936 100.195ZM98.1249 104.357C98.0876 104.314 98.0373 104.291 97.9851 104.292C97.933 104.292 97.8832 104.317 97.8467 104.36C97.8103 104.403 97.7901 104.462 97.7907 104.522C97.7913 104.583 97.8126 104.64 97.8499 104.683C98.6347 105.604 99.3401 106.611 99.9561 107.692C100.156 108.018 100.612 107.692 100.419 107.358C99.766 106.25 98.9953 105.241 98.1249 104.357ZM89.3749 121.075C88.5374 121.075 84.9311 120.8 84.0436 120.589C84.003 120.578 83.9601 120.585 83.9244 120.611C83.8886 120.636 83.8629 120.676 83.853 120.723C83.843 120.77 83.8496 120.82 83.8713 120.862C83.893 120.903 83.928 120.933 83.9686 120.945C85.7537 121.334 87.5603 121.576 89.3749 121.67C89.4428 121.67 89.508 121.638 89.5561 121.582C89.6041 121.527 89.6311 121.451 89.6311 121.372C89.6311 121.293 89.6041 121.218 89.5561 121.162C89.508 121.106 89.4428 121.075 89.3749 121.075ZM67.0374 115.862C66.8186 115.739 66.6374 116.116 66.8624 116.247C68.4368 117.169 70.1226 117.809 71.8624 118.146C72.1999 118.219 72.3311 117.617 71.9874 117.552C70.2775 117.259 68.6114 116.69 67.0374 115.862ZM59.7124 115.362C60.4936 115.166 62.0874 114.637 62.3374 114.594C62.5749 114.702 64.0999 115.369 64.9124 115.594C64.9732 115.61 65.037 115.598 65.0905 115.561C65.1439 115.523 65.1831 115.464 65.1999 115.394C65.2168 115.325 65.2099 115.25 65.1808 115.186C65.1518 115.122 65.1026 115.074 65.0436 115.05C64.4186 114.789 63.7936 114.572 63.0999 114.325C63.6038 114.131 64.093 113.888 64.5624 113.6C64.5965 113.558 64.6192 113.505 64.6277 113.448C64.6362 113.391 64.6301 113.332 64.6102 113.279C64.5902 113.226 64.5574 113.18 64.5155 113.149C64.4737 113.117 64.4248 113.1 64.3749 113.1C63.6749 113.376 62.9874 113.724 62.3061 114.028C61.5311 113.709 60.8186 113.383 60.1374 113.035C59.9124 112.919 59.7311 113.303 59.9624 113.426C60.5311 113.738 61.0999 114.035 61.6624 114.304C60.998 114.571 60.3221 114.799 59.6374 114.985C59.6086 115.009 59.5867 115.043 59.5742 115.081C59.5618 115.12 59.5594 115.162 59.5674 115.202C59.5754 115.242 59.5934 115.279 59.6192 115.307C59.645 115.336 59.6774 115.355 59.7124 115.362ZM31.7374 95.149C31.1124 94.5835 28.7686 92.249 28.2499 91.611C28.0811 91.4008 27.7999 91.7125 27.9686 91.9228C28.9887 93.3147 30.1538 94.5543 31.4374 95.613C31.6874 95.8088 31.9749 95.3665 31.7374 95.149ZM24.3124 129.456C23.9223 125.454 23.2194 121.501 22.2124 117.646C22.7825 118.646 23.6616 119.354 24.6686 119.625C24.7117 119.646 24.7603 119.647 24.8036 119.626C24.847 119.606 24.8816 119.566 24.8999 119.516C24.9181 119.466 24.9185 119.41 24.9009 119.36C24.8833 119.309 24.8492 119.269 24.8061 119.248C24.0061 118.69 22.7749 118.124 22.3936 116.769C22.6022 116.327 22.6536 115.808 22.5368 115.323C22.42 114.838 22.1443 114.425 21.7686 114.173C21.9935 112.633 22.4686 111.157 23.1686 109.823C23.2499 109.642 23.0374 109.453 22.9186 109.613C22.0267 110.903 21.4812 112.468 21.3499 114.115C21.1871 114.129 21.0271 114.17 20.8749 114.238C19.219 109.273 16.8664 104.661 13.9124 100.587C14.0261 100.362 14.0703 100.098 14.0376 99.8405C14.005 99.5826 13.8974 99.3452 13.7328 99.1678C13.5681 98.9903 13.3562 98.8833 13.132 98.8644C12.9079 98.8456 12.6849 98.916 12.4999 99.064C12.2887 99.2306 12.1353 99.4785 12.0667 99.7638C11.998 100.049 12.0186 100.353 12.1249 100.623C12.1956 100.766 12.2908 100.892 12.4045 100.992C12.5183 101.092 12.6483 101.164 12.7867 101.204C12.9251 101.244 13.0691 101.251 13.2099 101.224C13.3507 101.198 13.4855 101.139 13.6061 101.051C16.5024 105.079 18.8235 109.619 20.4811 114.499C19.4624 115.543 20.3499 117.501 21.6311 117.341C22.6875 121.331 23.424 125.425 23.8311 129.572C23.6436 129.687 23.4983 129.877 23.4218 130.107C23.3454 130.337 23.3429 130.59 23.4149 130.822C23.4869 131.054 23.6286 131.247 23.8138 131.367C23.999 131.488 24.2154 131.526 24.4232 131.476C24.631 131.426 24.8162 131.291 24.9448 131.095C25.0735 130.899 25.1369 130.656 25.1234 130.41C25.1099 130.165 25.0204 129.933 24.8715 129.757C24.7225 129.582 24.5239 129.475 24.3124 129.456ZM13.5749 100.05C13.5968 100.146 13.5995 100.246 13.5828 100.343C13.5661 100.44 13.5304 100.531 13.4784 100.609C13.4265 100.688 13.3597 100.751 13.2832 100.795C13.2067 100.839 13.1226 100.861 13.0374 100.861C12.9521 100.861 12.868 100.839 12.7915 100.795C12.715 100.751 12.6482 100.688 12.5963 100.609C12.5443 100.531 12.5086 100.44 12.4919 100.343C12.4752 100.246 12.4779 100.146 12.4999 100.05C12.4779 99.9544 12.4752 99.8543 12.4919 99.7573C12.5086 99.6604 12.5443 99.5691 12.5963 99.4907C12.6482 99.4123 12.715 99.3488 12.7915 99.3051C12.868 99.2614 12.9521 99.2386 13.0374 99.2386C13.1226 99.2386 13.2067 99.2614 13.2832 99.3051C13.3597 99.3488 13.4265 99.4123 13.4784 99.4907C13.5304 99.5691 13.5661 99.6604 13.5828 99.7573C13.5995 99.8543 13.5968 99.9544 13.5749 100.05ZM24.8249 130.435C24.8249 131.16 23.7936 131.16 23.7936 130.435C23.7936 129.71 24.7999 129.775 24.7999 130.5L24.8249 130.435ZM22.0874 116.225C21.7499 117.436 20.4936 116.587 20.5124 115.601C20.5124 114.731 21.5561 114.151 21.9499 114.985C22.0507 115.173 22.1133 115.384 22.1328 115.604C22.1523 115.824 22.1282 116.046 22.0624 116.254L22.0874 116.225ZM112.987 87.0653C112.984 86.8558 112.931 86.6515 112.834 86.4751C112.736 86.2987 112.599 86.1571 112.436 86.0662C112.273 85.9752 112.092 85.9384 111.912 85.96C111.733 85.9815 111.562 86.0604 111.419 86.188C107.901 83.7993 104.877 80.548 102.556 76.6615C102.726 76.4356 102.842 76.1629 102.895 75.8696C102.947 75.5764 102.934 75.2723 102.856 74.9868C102.796 74.7652 102.688 74.5653 102.542 74.4068C102.396 74.2483 102.216 74.1366 102.022 74.0825C101.827 74.0284 101.624 74.0339 101.431 74.0983C101.239 74.1628 101.065 74.2841 100.925 74.4503C97.917 69.7304 95.7673 64.3508 94.6061 58.638C94.7234 58.4839 94.7951 58.2903 94.8109 58.0855C94.8266 57.8808 94.7855 57.6755 94.6936 57.4998C94.6245 57.3182 94.5064 57.1677 94.3571 57.071C94.2078 56.9743 94.0353 56.9366 93.8659 56.9636C93.6964 56.9906 93.5392 57.0809 93.4179 57.2208C93.2966 57.3607 93.2179 57.5426 93.1936 57.739C93.1539 57.904 93.1535 58.0784 93.1923 58.2438C93.2311 58.4091 93.3077 58.5591 93.4141 58.678C93.5204 58.7969 93.6525 58.8802 93.7963 58.9191C93.9402 58.958 94.0904 58.9511 94.2311 58.899C95.3826 64.6777 97.5673 70.1116 100.644 74.849C100.578 74.9723 100.529 75.1069 100.5 75.2478C99.7061 74.8055 95.7624 73.3555 95.3499 73.486C95.1749 73.544 95.2561 73.7905 95.3499 73.8195C97.0756 74.3727 98.7705 75.0482 100.425 75.8423C100.46 76.0642 100.538 76.2741 100.653 76.4558C100.768 76.6376 100.918 76.7865 101.09 76.8913C101.262 76.9961 101.453 77.0541 101.647 77.0607C101.842 77.0674 102.035 77.0226 102.212 76.9298C105.062 81.6278 107.981 84.796 111.131 86.6158C111.064 86.7917 111.035 86.9843 111.048 87.1763C111.061 87.3683 111.114 87.5536 111.204 87.7154C111.294 87.8773 111.417 88.0106 111.563 88.1034C111.708 88.1962 111.871 88.2456 112.037 88.247C112.17 88.2544 112.302 88.2282 112.425 88.1703C112.548 88.1124 112.658 88.0241 112.749 87.9116C112.839 87.7991 112.907 87.6652 112.948 87.519C112.99 87.3728 113.003 87.218 112.987 87.0653ZM111.6 87.4278C111.546 87.3358 111.514 87.2292 111.507 87.1185C111.5 87.0078 111.517 86.8968 111.558 86.7965C111.599 86.6962 111.662 86.61 111.741 86.5465C111.819 86.483 111.911 86.4444 112.006 86.4345C112.156 86.4401 112.298 86.5126 112.403 86.6369C112.508 86.7612 112.567 86.9276 112.569 87.1015C112.569 87.2335 112.532 87.3621 112.464 87.4677C112.395 87.5733 112.299 87.6504 112.19 87.6872C112.081 87.724 111.964 87.7186 111.858 87.6718C111.751 87.625 111.661 87.5394 111.6 87.4278ZM102.025 76.5093C101.832 76.5815 101.623 76.5765 101.433 76.495C101.243 76.4135 101.081 76.2602 100.975 76.0598C100.916 75.8986 100.892 75.7234 100.905 75.549C100.917 75.3747 100.965 75.2064 101.046 75.0584C101.126 74.9104 101.236 74.7871 101.366 74.6989C101.496 74.6107 101.643 74.5602 101.794 74.5518C102.594 74.5518 102.731 76.1685 102.025 76.5093ZM94.4061 58C94.4133 58.0683 94.408 58.1376 94.3904 58.2033C94.3728 58.269 94.3434 58.3296 94.3041 58.3811C94.2648 58.4326 94.2165 58.4739 94.1625 58.5021C94.1084 58.5304 94.0498 58.545 93.9905 58.545C93.9312 58.545 93.8726 58.5304 93.8185 58.5021C93.7644 58.4739 93.7161 58.4326 93.6768 58.3811C93.6376 58.3296 93.6081 58.269 93.5906 58.2033C93.573 58.1376 93.5676 58.0683 93.5749 58C93.5676 57.9317 93.573 57.8625 93.5906 57.7968C93.6081 57.7311 93.6376 57.6704 93.6768 57.6189C93.7161 57.5674 93.7644 57.5261 93.8185 57.4979C93.8726 57.4696 93.9312 57.455 93.9905 57.455C94.0498 57.455 94.1084 57.4696 94.1625 57.4979C94.2165 57.5261 94.2648 57.5674 94.3041 57.6189C94.3434 57.6704 94.3728 57.7311 94.3904 57.7968C94.408 57.8625 94.4133 57.9317 94.4061 58ZM104.375 116.993C104.392 116.943 104.393 116.886 104.379 116.835C104.364 116.783 104.334 116.739 104.294 116.711C103.981 116.486 103.469 116.863 103.381 117.291C103.594 117.312 104.244 117.283 104.375 116.993Z" fill="black"/>
<path d="M102.887 112.201C102.481 111.203 102.024 110.235 101.519 109.301C101.491 109.253 101.448 109.22 101.4 109.207C101.351 109.195 101.301 109.205 101.258 109.235C101.216 109.264 101.185 109.312 101.172 109.367C101.158 109.423 101.164 109.482 101.187 109.533C101.609 110.392 101.974 111.286 102.281 112.208C101.584 112.296 100.921 112.605 100.365 113.101C99.8091 113.598 99.3818 114.262 99.13 115.021C98.8782 115.781 98.8116 116.606 98.9375 117.407C99.0634 118.207 99.3769 118.952 99.8437 119.559C97.681 120.536 95.3938 121.089 93.075 121.198C93.0335 121.207 92.996 121.233 92.969 121.27C92.942 121.308 92.9272 121.355 92.9272 121.404C92.9272 121.453 92.942 121.501 92.969 121.539C92.996 121.576 93.0335 121.602 93.075 121.611C95.5474 121.672 98.0043 121.144 100.294 120.06C100.762 120.491 101.311 120.788 101.897 120.926C102.483 121.065 103.088 121.042 103.665 120.859C104.242 120.676 104.773 120.338 105.216 119.872C105.659 119.406 106.001 118.826 106.214 118.178C106.428 117.53 106.507 116.833 106.445 116.144C106.383 115.454 106.182 114.791 105.858 114.208C105.534 113.625 105.096 113.139 104.58 112.789C104.064 112.439 103.484 112.235 102.887 112.193V112.201ZM102.094 118.9C102.031 118.414 102.006 117.921 101.931 117.45H101.012C100.956 117.877 100.956 118.305 100.9 118.733C100.897 118.763 100.888 118.793 100.875 118.819C100.862 118.846 100.845 118.87 100.824 118.888C100.803 118.907 100.779 118.921 100.753 118.929C100.728 118.937 100.701 118.94 100.675 118.936C100.649 118.932 100.623 118.922 100.6 118.907C100.577 118.892 100.557 118.872 100.541 118.847C100.525 118.823 100.513 118.795 100.506 118.766C100.499 118.736 100.497 118.705 100.5 118.675C100.5 118.196 100.844 115.151 100.912 114.724C101 114.122 101.275 114.071 101.431 114.093C101.756 114.136 101.844 114.528 101.912 114.818C102.094 115.594 102.537 117.957 102.65 118.74C102.7 119.132 102.15 119.291 102.094 118.9ZM104.9 118.341C103.894 119.153 102.625 118.182 103.025 117.058C103.281 116.333 104.275 115.84 104.694 116.594C104.744 116.716 104.769 116.85 104.766 116.985C104.763 117.12 104.733 117.253 104.677 117.371C104.622 117.49 104.543 117.592 104.447 117.669C104.351 117.745 104.24 117.794 104.125 117.812C103.918 117.844 103.707 117.844 103.5 117.812C103.579 117.914 103.672 117.999 103.775 118.066C104.4 118.37 104.819 117.827 104.944 118.131C104.953 118.162 104.954 118.195 104.947 118.226C104.939 118.258 104.922 118.285 104.9 118.305V118.341Z" fill="black"/>
<path d="M101.338 114.862C101.244 115.413 101.138 116.399 101.088 116.856H101.831C101.763 116.486 101.581 115.449 101.456 114.884C101.438 114.79 101.35 114.768 101.338 114.862ZM47.1876 104.009C46.8126 103.748 45.9876 103.719 45.9376 104.292C45.9001 104.611 45.9376 105.887 45.9376 106.227C46.2227 106.218 46.5031 106.14 46.7612 105.999C47.0193 105.858 47.2495 105.657 47.4376 105.408C47.5079 105.3 47.5575 105.176 47.5831 105.044C47.6088 104.912 47.6098 104.775 47.5861 104.643C47.5624 104.51 47.5146 104.385 47.4459 104.276C47.3772 104.166 47.2891 104.075 47.1876 104.009Z" fill="black"/>
<path d="M57.8684 111.889C56.1409 111.155 54.4507 110.308 52.8059 109.351C53.1342 108.573 53.3272 107.727 53.3737 106.862C53.4202 105.998 53.3195 105.131 53.0772 104.311C52.8349 103.491 52.4558 102.735 51.9615 102.085C51.4673 101.436 50.8675 100.905 50.1965 100.524C49.5256 100.144 48.7965 99.9197 48.051 99.8657C47.3054 99.8117 46.558 99.9286 45.8514 100.21C45.1448 100.491 44.4929 100.931 43.9328 101.504C43.3727 102.077 42.9155 102.773 42.5872 103.551C41.831 103.084 41.0966 102.571 40.3872 102.014C40.1934 101.869 40.0122 102.21 40.1934 102.362C41.0372 103.087 41.7434 103.595 42.3997 104.059C40.1559 111.657 48.8747 116.521 52.5872 109.793C54.2164 110.867 55.9607 111.686 57.7747 112.229C57.8113 112.236 57.8487 112.227 57.8801 112.204C57.9115 112.181 57.9349 112.146 57.9462 112.105C57.9575 112.064 57.9558 112.02 57.9416 111.98C57.9273 111.941 57.9014 111.908 57.8684 111.889ZM47.8684 106.089C47.3622 106.651 46.6942 106.977 45.9934 107.002V109.032C45.9934 109.115 45.9651 109.194 45.9147 109.253C45.8643 109.311 45.7959 109.344 45.7247 109.344C45.6534 109.344 45.585 109.311 45.5346 109.253C45.4842 109.194 45.4559 109.115 45.4559 109.032C45.4559 108.684 45.3497 105.806 45.3434 105.574C45.3434 104.849 45.1059 103.609 45.9684 103.21C47.5559 102.435 49.0559 104.472 47.8372 106.081L47.8684 106.089ZM50.7434 108.264C50.6559 109.424 49.3122 109.924 48.5122 109.235C48.4552 109.183 48.4168 109.108 48.4046 109.025C48.3924 108.942 48.4071 108.857 48.4459 108.786C48.4848 108.714 48.545 108.662 48.6149 108.64C48.6849 108.617 48.7596 108.625 48.8247 108.662C49.0056 108.803 49.2231 108.866 49.4398 108.841C49.6564 108.816 49.8588 108.704 50.0122 108.525C50.1997 108.3 50.1247 107.85 49.8184 107.901C49.581 107.98 49.3334 108.009 49.0872 107.988C48.9624 107.955 48.8467 107.886 48.7505 107.787C48.6543 107.689 48.5806 107.565 48.5361 107.425C48.4915 107.286 48.4774 107.136 48.495 106.989C48.5127 106.842 48.5615 106.702 48.6372 106.582C48.7427 106.409 48.8818 106.267 49.0433 106.168C49.2048 106.069 49.3841 106.016 49.5667 106.012C49.7494 106.009 49.9301 106.055 50.0944 106.148C50.2586 106.24 50.4018 106.377 50.5122 106.545C50.6997 106.828 50.3122 107.169 50.1247 106.893C50.0373 106.776 49.9217 106.691 49.7926 106.649C49.6635 106.608 49.5267 106.612 49.3997 106.661C48.8559 106.893 49.1997 107.517 49.5622 107.386C49.6434 107.357 50.7934 107.147 50.7122 108.235L50.7434 108.264ZM101.35 84.1502C101.147 84.6864 100.915 85.207 100.656 85.709C100.166 84.9196 99.5322 84.2655 98.7991 83.7936C98.066 83.3217 97.2521 83.0436 96.4155 82.9793C95.579 82.915 94.7405 83.066 93.9602 83.4215C93.1798 83.777 92.4768 84.3283 91.9016 85.0358C91.3264 85.7433 90.8932 86.5896 90.6329 87.5141C90.3726 88.4386 90.2917 89.4184 90.396 90.3834C90.5004 91.3483 90.7873 92.2746 91.2364 93.0959C91.6854 93.9172 92.2854 94.6131 92.9934 95.134C92.3684 95.7792 91.0747 96.9247 90.8122 97.164L90.3497 96.9175C90.1434 96.8087 89.9747 97.164 90.1872 97.28C90.2835 97.3321 90.3774 97.3902 90.4684 97.454C89.6816 98.116 88.8659 98.7307 88.0247 99.2955C87.9807 99.3243 87.9485 99.3722 87.935 99.4286C87.9215 99.4851 87.9279 99.5454 87.9528 99.5963C87.9777 99.6473 88.0189 99.6847 88.0676 99.7003C88.1162 99.716 88.1682 99.7086 88.2122 99.6797C89.2434 99.0127 90.1309 98.382 90.9122 97.7657C91.4826 98.2259 92.0142 98.7478 92.4997 99.3245C92.5486 99.3691 92.6099 99.3914 92.6721 99.3874C92.7343 99.3834 92.793 99.3532 92.8374 99.3026C92.8819 99.252 92.9089 99.1844 92.9134 99.1123C92.918 99.0403 92.8997 98.9688 92.8622 98.9112C92.3748 98.3782 91.8501 97.8932 91.2934 97.4612C91.6747 97.1422 92.8934 96.091 93.5059 95.4675C94.5988 96.0914 95.8354 96.2923 97.0341 96.0406C98.2327 95.7889 99.3302 95.098 100.165 94.0693C101 93.0406 101.529 91.7283 101.674 90.3253C101.818 88.9223 101.571 87.5025 100.968 86.2745C101.29 85.6516 101.558 84.9935 101.768 84.3097C101.875 83.998 101.456 83.8457 101.35 84.1502ZM96.0934 92.2267C95.968 91.7367 95.8699 91.2378 95.7997 90.7332L94.4809 90.8855C94.4059 91.3422 94.3309 91.799 94.2684 92.2557C94.2059 92.7125 93.6934 92.524 93.7434 92.1325C93.8559 91.1682 94.5247 87.0575 94.6559 86.666C95.0247 85.825 95.5809 86.405 95.9059 87.3547C96.2211 88.927 96.4673 90.5168 96.6434 92.118C96.6559 92.2026 96.6388 92.2894 96.596 92.3595C96.5532 92.4295 96.4882 92.4769 96.4153 92.4913C96.3424 92.5058 96.2675 92.486 96.2071 92.4364C96.1467 92.3867 96.1059 92.3113 96.0934 92.2267ZM97.1622 87.5215C97.1938 87.4359 97.2407 87.3591 97.2998 87.296C97.3589 87.233 97.4288 87.1852 97.505 87.1557C97.5811 87.1263 97.6618 87.1159 97.7417 87.1252C97.8216 87.1345 97.8988 87.1633 97.9684 87.2097C98.0305 87.258 98.0828 87.3212 98.1219 87.3951C98.1609 87.469 98.1857 87.5518 98.1946 87.6379C98.2035 87.7239 98.1963 87.8112 98.1735 87.8937C98.1506 87.9762 98.1126 88.0521 98.0622 88.116C97.9837 88.2278 97.8737 88.3037 97.7515 88.3302C97.6294 88.3568 97.5031 88.3322 97.3951 88.2609C97.2871 88.1895 97.2045 88.0761 97.1618 87.9407C97.1192 87.8053 97.1193 87.6568 97.1622 87.5215ZM98.2497 92.1542C98.2486 92.2374 98.222 92.3174 98.1745 92.3797C98.127 92.442 98.0618 92.4825 97.9908 92.4939C97.9198 92.5053 97.8476 92.4868 97.7873 92.4418C97.727 92.3968 97.6826 92.3282 97.6622 92.2485C97.6122 92.089 97.5184 89.856 97.5184 89.595C97.5184 89.52 97.5441 89.4481 97.5898 89.395C97.6355 89.342 97.6975 89.3122 97.7622 89.3122C97.8268 89.3122 97.8888 89.342 97.9345 89.395C97.9802 89.4481 98.0059 89.52 98.0059 89.595C98.0247 90.0082 98.2559 92.031 98.2497 92.1542Z" fill="black"/>
<path d="M94.6063 90.1678L95.6938 90.0301C95.5849 89.1459 95.4007 88.2765 95.1438 87.4346C95.0001 88.1596 94.7376 89.4501 94.6063 90.1678ZM34.3751 121.394C33.8501 121.756 34.2813 122.742 35.0001 122.372C35.0001 121.894 34.9626 121.539 34.9501 121.372C34.8597 121.322 34.7604 121.298 34.6603 121.301C34.5602 121.305 34.4624 121.337 34.3751 121.394Z" fill="black"/>
<path d="M40.4122 120.474C39.3777 120.661 38.3339 120.773 37.2872 120.807C37.006 115.101 29.9685 115.094 29.681 120.807C28.5952 120.685 27.5266 120.408 26.4997 119.981C26.4805 119.969 26.4594 119.962 26.4378 119.96C26.4162 119.958 26.3945 119.961 26.3739 119.969C26.3533 119.977 26.3342 119.989 26.3178 120.005C26.3013 120.022 26.2877 120.042 26.2779 120.064C26.268 120.086 26.2621 120.111 26.2604 120.136C26.2586 120.161 26.2612 120.186 26.2679 120.21C26.2745 120.234 26.2852 120.256 26.2992 120.275C26.3133 120.294 26.3305 120.31 26.3497 120.321C27.3912 120.961 28.5322 121.353 29.706 121.474C29.8243 122.538 30.2728 123.516 30.9675 124.225C31.6623 124.934 32.5558 125.325 33.481 125.325C34.4062 125.325 35.2997 124.934 35.9944 124.225C36.6892 123.516 37.1377 122.538 37.256 121.474C38.3442 121.345 39.4251 121.144 40.4935 120.872C40.5302 120.851 40.5598 120.816 40.5772 120.773C40.5947 120.73 40.599 120.682 40.5896 120.635C40.5802 120.589 40.5575 120.548 40.5253 120.519C40.4931 120.489 40.4532 120.473 40.4122 120.474ZM32.9122 122.786C32.9037 122.835 32.8864 122.882 32.8614 122.922C32.8364 122.963 32.8043 122.997 32.7671 123.023C32.7299 123.048 32.6886 123.064 32.6457 123.069C32.6029 123.075 32.5595 123.07 32.5185 123.055C32.331 122.989 32.3622 122.866 32.0622 122.373C31.9685 122.554 31.8747 122.743 31.7872 122.931C31.753 122.996 31.6986 123.043 31.6352 123.063C31.5718 123.083 31.5044 123.074 31.4467 123.037C31.389 123.001 31.3455 122.941 31.3251 122.868C31.3048 122.796 31.3091 122.717 31.3372 122.649C31.456 122.388 31.5747 122.119 31.706 121.858C31.5518 121.672 31.3799 121.507 31.1935 121.365C31.1324 121.315 31.0899 121.241 31.0747 121.156C31.0596 121.071 31.0729 120.982 31.1119 120.909C31.1509 120.835 31.2127 120.781 31.2848 120.758C31.3568 120.735 31.4337 120.745 31.4997 120.785C32.281 121.344 31.7997 121.409 32.3935 120.553C32.6372 120.205 33.0997 120.633 32.8997 120.988C32.7622 121.235 32.5872 121.489 32.4372 121.713C32.7435 122.17 32.9435 122.525 32.906 122.786H32.9122ZM35.5747 122.873C35.4417 123.013 35.2844 123.117 35.1136 123.179C34.9427 123.242 34.7623 123.261 34.5844 123.236C34.4066 123.21 34.2356 123.141 34.083 123.032C33.9303 122.923 33.7996 122.778 33.6997 122.605C33.5725 122.387 33.505 122.13 33.5061 121.867C33.5072 121.603 33.5769 121.347 33.706 121.13C33.8351 120.914 34.0176 120.748 34.2295 120.654C34.4414 120.56 34.6729 120.543 34.8935 120.604C34.8394 119.82 34.8207 119.034 34.8372 118.248C34.8382 118.164 34.8658 118.083 34.9148 118.022C34.9638 117.96 35.0307 117.921 35.1027 117.913C35.1747 117.905 35.2467 117.928 35.305 117.978C35.3633 118.028 35.4037 118.1 35.4185 118.183C35.5497 119.132 35.6497 121.916 35.6622 122.235C35.6747 122.402 35.7372 122.678 35.5685 122.873H35.5747ZM23.8935 80.0113C24.006 80.0113 24.0372 80.0113 24.0435 79.9678C24.0435 79.8446 23.831 78.2133 23.806 78.0176C22.031 78.3003 22.256 80.1998 23.8935 80.0113Z" fill="black"/>
<path d="M28.3122 73.1381C27.5713 73.2559 26.8367 73.4229 26.1122 73.6383C25.5297 72.9819 24.8193 72.498 24.0414 72.2275C23.2634 71.957 22.4407 71.9078 21.6429 72.0842C20.8451 72.2605 20.0957 72.6572 19.458 73.2407C18.8204 73.8241 18.3133 74.5772 17.9796 75.4361C17.646 76.295 17.4956 77.2346 17.5412 78.1752C17.5868 79.1158 17.8271 80.0298 18.2417 80.8399C18.6563 81.65 19.233 82.3323 19.9231 82.8291C20.6131 83.326 21.3962 83.6226 22.206 83.6941C22.9112 85.9971 24.1399 88.0362 25.7623 89.5956C25.777 89.6122 25.7945 89.6254 25.8136 89.6342C25.8328 89.643 25.8532 89.6474 25.8738 89.6471C25.8944 89.6467 25.9148 89.6417 25.9337 89.6322C25.9526 89.6228 25.9698 89.6091 25.9841 89.592C25.9985 89.5748 26.0098 89.5546 26.0174 89.5324C26.025 89.5102 26.0288 89.4864 26.0285 89.4625C26.0282 89.4386 26.0239 89.415 26.0157 89.3931C26.0076 89.3711 25.9958 89.3512 25.981 89.3346C24.628 87.6919 23.5324 85.7881 22.7435 83.7086C23.6855 83.6674 24.599 83.3227 25.3816 82.7131C26.1642 82.1035 26.7849 81.2531 27.1743 80.2572C27.5636 79.2614 27.7061 78.1594 27.5859 77.0748C27.4657 75.9903 27.0874 74.966 26.4935 74.1168C27.156 73.9138 27.7435 73.7326 28.3685 73.5948C28.6685 73.5368 28.5622 73.0801 28.3122 73.1381ZM20.5122 80.4751V75.0811C20.5219 75.0093 20.5533 74.9439 20.6009 74.8966C20.6484 74.8494 20.709 74.8234 20.7716 74.8234C20.8342 74.8234 20.8948 74.8494 20.9424 74.8966C20.9899 74.9439 21.0214 75.0093 21.031 75.0811C21.031 76.1541 21.1372 79.7501 21.156 80.4751C21.1344 80.5545 21.0916 80.6238 21.0337 80.6731C20.9758 80.7223 20.9059 80.7488 20.8341 80.7488C20.7624 80.7488 20.6924 80.7223 20.6346 80.6731C20.5767 80.6238 20.5338 80.5545 20.5122 80.4751ZM24.3372 80.5476C23.0872 81.3233 21.4185 79.9386 22.206 78.3218C22.3787 78.034 22.6099 77.8001 22.8792 77.6407C23.1485 77.4814 23.4475 77.4015 23.7498 77.4083C23.6453 76.6184 23.5827 75.8219 23.5623 75.0231C23.5655 74.9445 23.5927 74.8698 23.6388 74.8122C23.685 74.7546 23.7472 74.7178 23.8145 74.7083C23.8818 74.6987 23.9499 74.7171 24.0066 74.7601C24.0634 74.8031 24.1052 74.868 24.1247 74.9433C24.231 75.4653 24.531 78.9381 24.5622 79.3948C24.5747 79.7501 24.7122 80.2793 24.3372 80.5113V80.5476Z" fill="black"/>
</svg>
