<svg width="671" height="523" viewBox="0 0 671 523" fill="none" xmlns="http://www.w3.org/2000/svg">
<g clip-path="url(#clip0_550_12036)">
<path d="M371.109 321.212C371.109 410.683 10.7685 477.267 21.2206 530.845C31.6726 584.424 239.073 647.336 406.63 487.006C579.898 321.212 409.521 243.734 463.867 167.094C538.09 62.4214 379.256 130.161 352.131 180.359C329.395 222.434 371.109 241.289 371.109 321.212Z" fill="#D6CFFF"/>
<path d="M401.719 171.515L408.455 163.855L410.287 165.616L403.551 173.275L401.719 171.515Z" fill="#6D5BA6"/>
<path d="M412.67 159.03L419.406 151.371L421.238 153.131L414.502 160.791L412.67 159.03Z" fill="#6D5BA6"/>
<path d="M393.754 188.536L398.625 179.463L400.795 180.736L395.925 189.809L393.754 188.536Z" fill="#6D5BA6"/>
<path d="M388.778 207.149L391.521 197.148L393.914 197.865L391.17 207.866L388.778 207.149Z" fill="#6D5BA6"/>
<path d="M392.594 225.038L390.27 214.922L392.689 214.314L395.014 224.43L392.594 225.038Z" fill="#6D5BA6"/>
<path d="M399.25 243.01L396.072 233.15L398.431 232.32L401.608 242.18L399.25 243.01Z" fill="#6D5BA6"/>
<path d="M408.44 259.905L403.211 251.053L405.328 249.686L410.558 258.539L408.44 259.905Z" fill="#6D5BA6"/>
<path d="M417.065 271.056L411.174 262.67L413.18 261.131L419.071 269.516L417.065 271.056Z" fill="#6D5BA6"/>
<path d="M421.937 284.813L418.641 274.996L420.989 274.135L424.285 283.951L421.937 284.813Z" fill="#6D5BA6"/>
<path d="M424.313 301.406L422.627 291.152L425.08 290.712L426.766 300.965L424.313 301.406Z" fill="#6D5BA6"/>
<path d="M424.288 317.464L423.615 307.084L426.098 306.908L426.771 317.288L424.288 317.464Z" fill="#6D5BA6"/>
<path d="M423.792 333.589L423.119 323.209L425.602 323.033L426.275 333.413L423.792 333.589Z" fill="#6D5BA6"/>
<path d="M421.129 351L422.648 340.719L425.108 341.116L423.588 351.398L421.129 351Z" fill="#6D5BA6"/>
<path d="M416.651 366.797L419.547 356.844L421.928 357.6L419.032 367.554L416.651 366.797Z" fill="#6D5BA6"/>
<path d="M409.184 379.599L414.627 370.889L416.711 372.311L411.268 381.022L409.184 379.599Z" fill="#6D5BA6"/>
<path d="M398.733 393.836L404.631 385.455L406.636 386.996L400.738 395.377L398.733 393.836Z" fill="#6D5BA6"/>
<path d="M388.778 406.289L395.332 398.459L397.205 400.172L390.65 408.001L388.778 406.289Z" fill="#6D5BA6"/>
<path d="M376.832 419.976L383.758 412.504L385.545 414.314L378.619 421.786L376.832 419.976Z" fill="#6D5BA6"/>
<path d="M363.395 430.572L371.07 423.947L372.655 425.953L364.98 432.577L363.395 430.572Z" fill="#6D5BA6"/>
<path d="M350.454 441.079L358.441 434.871L359.926 436.958L351.939 443.166L350.454 441.079Z" fill="#6D5BA6"/>
<path d="M335.083 452.742L342.842 446.225L344.401 448.252L336.642 454.769L335.083 452.742Z" fill="#6D5BA6"/>
<path d="M320.743 459.346L329.436 454.275L330.648 456.547L321.956 461.617L320.743 459.346Z" fill="#6D5BA6"/>
<path d="M307.213 466.725L316.27 462.408L317.302 464.775L308.245 469.092L307.213 466.725Z" fill="#6D5BA6"/>
<path d="M294.711 473.52L303.768 469.203L304.8 471.57L295.743 475.886L294.711 473.52Z" fill="#6D5BA6"/>
<path d="M279.779 480.284L288.836 475.967L289.869 478.333L280.812 482.65L279.779 480.284Z" fill="#6D5BA6"/>
<path d="M264.847 487.047L273.904 482.73L274.937 485.097L265.88 489.414L264.847 487.047Z" fill="#6D5BA6"/>
<path d="M249.916 493.807L258.973 489.49L260.005 491.857L250.948 496.174L249.916 493.807Z" fill="#6D5BA6"/>
<path d="M234.984 500.569L244.041 496.252L245.074 498.618L236.017 502.935L234.984 500.569Z" fill="#6D5BA6"/>
<path d="M220.053 507.333L229.109 503.016L230.142 505.382L221.085 509.699L220.053 507.333Z" fill="#6D5BA6"/>
<path d="M205.123 514.094L214.18 509.777L215.212 512.144L206.155 516.461L205.123 514.094Z" fill="#6D5BA6"/>
<path d="M190.193 520.856L199.25 516.539L200.283 518.906L191.226 523.222L190.193 520.856Z" fill="#6D5BA6"/>
<path d="M55.4743 83.8969L42.3711 101.952H222.148L210.093 83.8969H187.686L180.348 65.9212H162.528L151.39 49.6084H140.252L133.701 38.918L127.149 49.6084H116.011L108.542 65.9212H89.0187L75.9154 83.8969H55.4743Z" fill="#F4F1FF"/>
<path d="M194.552 64.436L181.449 82.4909H361.226L349.171 64.436H326.764L319.426 46.4602H301.606L290.468 30.1474H279.33L272.779 19.457L266.227 30.1474H255.089L247.621 46.4602H228.097L214.994 64.436H194.552Z" fill="#F4F1FF"/>
<path d="M177.912 298.307L164.809 316.362H344.585L332.53 298.307H310.124L302.786 280.331H284.965L273.828 264.019H262.69L256.138 253.328L249.587 264.019H238.449L230.98 280.331H211.456L198.353 298.307H177.912Z" fill="#F4F1FF"/>
<path d="M522.326 205.715L509.223 223.77H688.999L676.944 205.715H654.538L647.2 187.74H629.379L618.242 171.427H607.104L600.552 160.736L594.001 171.427H582.863L575.394 187.74H555.87L542.767 205.715H522.326Z" fill="#F4F1FF"/>
<path d="M138.095 218.2L124.992 236.255H304.769L292.714 218.2H270.307L262.969 200.224H245.149L234.011 183.911H222.873L216.322 173.221L209.77 183.911H198.632L191.164 200.224H171.64L158.537 218.2H138.095Z" fill="#F4F1FF"/>
<path d="M389.451 44.9789L376.348 63.0339H556.124L544.069 44.9789H521.663L514.325 27.0032H496.504L485.367 10.6904H474.229L467.677 0L461.126 10.6904H449.988L442.519 27.0032H422.995L409.892 44.9789H389.451Z" fill="#F4F1FF"/>
<path d="M378.419 116.343L355.43 145.086H670.843L649.693 116.343H610.381L597.507 87.7254H566.242L546.701 61.7555H527.16L515.665 44.7363L504.171 61.7555H484.63L471.526 87.7254H437.272L414.282 116.343H378.419Z" fill="#A89FE3"/>
<path d="M173.686 129.33L158.338 155.979H368.92L354.799 129.33H328.553L319.958 102.798H299.084L286.038 78.7205H272.992L265.317 62.9414L257.643 78.7205H244.597L235.848 102.798H212.979L197.63 129.33H173.686Z" fill="#D6CFFF"/>
<path d="M513.203 50.7782V13.0039H516.091V50.7782H513.203Z" fill="#6D5BA6"/>
<path d="M517.055 25.2138V13.0039L533.417 18.5716L517.055 25.2138Z" fill="#6D5BA6"/>
<path d="M241.634 250.609L231.303 250.609C231.303 250.609 229.698 253.962 234.126 262.573C238.554 271.184 241.634 277.418 241.634 277.418L249.852 290.476L258.1 300.338C258.1 300.338 267.06 310.833 264.625 318.221C264.107 319.791 274.498 327.053 275.296 325.32C276.094 323.588 275.333 316.93 273.194 315.639C271.803 312.786 270.832 310.196 270.832 310.196C270.832 310.196 257.216 288.512 254.856 280.022C252.189 270.427 251.058 271.568 250.365 266.67C249.672 261.772 241.634 250.609 241.634 250.609Z" fill="url(#paint0_linear_550_12036)"/>
<path d="M271.342 320.457C271.543 320.68 273.245 325.285 273.245 325.285C273.245 325.285 272.194 324.862 271.87 324.389C270.933 323.014 271.289 323.412 270.933 323.014C270.714 322.77 269.877 320.59 269.946 320.544" stroke="#422713"/>
<path d="M267.244 317.391C267.175 317.437 267.354 319.354 267.572 319.598C267.928 319.995 268.03 321.67 268.498 322.015C268.807 322.242 269.056 322.956 269.776 323.425C270.677 324.013 270.861 323.555 270.861 323.555C270.861 323.555 269.597 320.013 269.395 319.79L268.482 317.343" stroke="#422713"/>
<path d="M272.798 318.982C272.798 318.982 272.579 319.848 273.275 320.92C273.487 321.249 274.049 322.675 274.049 322.675C274.049 322.675 275.409 326.374 275.273 326.408C274.168 326.684 272.298 323.34 272.298 323.34C272.298 323.34 271.817 321.106 271.442 320.523L270.635 318.556" stroke="#422713"/>
<path d="M272.749 319.029C272.749 319.029 274.302 320.582 274.45 321.686C274.495 322.023 274.655 323.016 274.655 323.016C274.655 323.016 275.291 324.39 275.383 324.288C275.836 323.786 276.663 324.191 275.893 323.025C275.52 322.461 276.094 321.305 276.01 320.705C276.01 320.705 274.117 317.483 273.718 316.626" stroke="#422713"/>
<path d="M266.816 315.857L267.545 319.111C267.545 319.111 267.621 319.015 267.795 320.339C267.838 320.667 268.527 322.212 268.527 322.212C268.527 322.212 268.006 322.271 267.222 321.759C266.437 321.248 266.151 320.494 266.03 319.787L265.928 318.057L265.698 315.151" stroke="#422713"/>
<path d="M252.697 222.883L256.879 205.488C256.879 205.488 261.266 206.435 265.242 206.435C269.218 206.435 273.605 211.798 273.605 211.798L271.813 222.883C271.813 222.883 266.28 226.624 262.255 226.624C258.23 226.624 252.697 222.883 252.697 222.883Z" fill="url(#paint1_linear_550_12036)"/>
<path d="M218.264 460.286C216.418 455.364 222.504 447.848 222.504 447.848C222.504 447.848 228.225 448.656 231.366 446.762C233.592 445.42 236.305 441.647 236.305 441.647L256.087 443.732C256.851 447.612 256.371 455.616 248.349 456.599L234.356 458.314C234.356 458.314 230.258 464.348 226.71 464.727C223.243 465.097 219.875 464.58 218.264 460.286Z" fill="black" stroke="black"/>
<path d="M306.323 433.994C303.355 429.837 307.385 420.714 307.385 420.714C307.385 420.714 313.082 419.71 315.643 416.91C317.458 414.927 319.152 410.454 319.152 410.454L338.679 406.299C340.353 409.791 341.832 417.636 334.357 421.08L321.318 427.087C321.318 427.087 318.841 434.165 315.52 435.634C312.276 437.069 308.913 437.621 306.323 433.994Z" fill="black" stroke="black"/>
<path d="M254.321 428.508C244.147 454.389 203.827 458.192 200.428 446.193C198.219 438.391 209.642 402.469 212.286 394.155L212.369 393.892C220.732 367.59 231.79 326.541 231.79 326.541L268.52 326.541C268.52 326.541 255.52 370.882 250.72 386.106C248.351 393.619 257.87 419.478 254.321 428.508Z" fill="#6D5BA6"/>
<path d="M302.62 327.822L267.672 326.541C267.672 326.541 278.399 368.181 286.594 394.358C291.666 410.56 288.288 422.952 290.459 427.791C297.88 444.338 332.401 410.121 335.582 397.456C339.738 380.909 325.482 380.608 318.645 372.67C311.809 364.731 302.62 327.822 302.62 327.822Z" fill="#6D5BA6"/>
<path d="M231.791 326.859C231.791 326.859 237.163 303.134 241.397 298.037C244.436 294.379 294.275 295.549 295.361 301.24C296.77 308.623 302.707 327.82 302.707 327.82L231.791 326.859Z" fill="#6D5BA6"/>
<path d="M272.837 219.58C266.001 226.715 261.338 226.715 252.508 219.58C252.508 219.58 238.657 220.436 235.239 230.426C231.821 240.415 232.391 245.838 232.391 245.838H241.506C241.506 245.838 235.522 295.501 238.655 300.067C241.789 304.634 287.904 307.827 295.053 300.067C298.471 296.357 285.939 254.686 285.939 254.686L283.945 238.703C283.945 238.703 292.206 230.997 287.363 225.288C282.521 219.58 272.837 219.58 272.837 219.58Z" fill="#CBC1DC"/>
<path d="M279.067 229.944C275.86 235.475 278.318 248.268 278.318 248.268L292.092 248.991C292.092 248.991 295.583 236.511 292.841 230.667C291.103 226.964 288.881 224.637 286.191 224.496C283.502 224.354 281.099 226.438 279.067 229.944Z" fill="#6D5BA6"/>
<path d="M234.263 235.115C233.227 240.493 231.363 250.814 231.363 250.814L241.676 250.814C241.676 250.814 242.056 246.171 241.676 240.716C240.561 224.736 244.781 220.618 240.545 224.384C236.308 228.149 234.919 231.705 234.263 235.115Z" fill="#6D5BA6"/>
<path d="M291.875 248.336L278.407 248.336C278.407 248.336 278.464 264.183 279.35 270.439C280.927 281.578 288.764 290.836 288.764 290.836L299.989 309.72C299.989 309.72 300.076 314.309 297.852 322.085C297.211 324.326 303.931 330.327 306.782 324.795C309.634 319.263 308.242 318.341 308.242 318.341C308.242 318.341 303.917 289.742 298.094 281.889C293.172 275.251 292.544 275.603 292.907 269.357C293.27 263.112 291.875 248.336 291.875 248.336Z" fill="url(#paint2_linear_550_12036)"/>
<path d="M300.658 318.185C300.332 318.514 298.527 321.202 298.527 321.202C298.527 321.202 298.367 321.545 298.337 321.727C298.301 321.95 298.88 321.763 299.373 321.489C300.121 321.073 302.008 319.572 302.585 318.985C302.939 318.623 303.321 314.834 303.217 314.7" stroke="#422713"/>
<path d="M303.522 314.835C303.522 314.835 303.659 318.341 302.122 319.605C301.652 319.992 299.089 322.186 299.089 322.186C299.089 322.186 298.843 322.646 298.788 322.906C298.721 323.226 299.523 323.129 300.217 322.877C301.267 322.494 303.953 320.856 304.785 320.163" stroke="#422713"/>
<path d="M305.849 315.479C305.849 315.479 305.174 319.678 304.448 320.241C304.004 320.584 301.116 323.072 301.116 323.072C301.116 323.072 300.627 323.873 300.561 324.087C300.48 324.35 301.2 324.22 301.833 323.97C302.792 323.593 305.29 322.094 306.075 321.48" stroke="#422713"/>
<path d="M307.501 317.345C307.501 317.345 306.626 321.284 305.215 322.082C304.784 322.326 301.598 324.416 301.598 324.416C301.598 324.416 301.335 324.77 301.253 324.988C301.153 325.255 301.806 325.334 302.396 325.253C303.29 325.131 305.672 324.239 306.437 323.8C306.907 323.531 308.175 320.758 308.518 319.684" stroke="#422713"/>
<path d="M284.392 197.924C284.953 200.229 283.539 200.403 281.702 200.63C279.706 200.875 281.344 213.242 278.952 213.537C277.797 213.679 274.856 214.13 272.031 212.713C270.371 211.88 264.555 209.444 264.555 209.444C264.555 209.444 265.762 203.054 266.53 198.029C261.63 195.979 263.356 189.082 264.735 189.173C270.628 189.565 272.389 180.131 272.389 180.131C272.389 180.131 283.505 179.168 282.879 183.727C281.202 195.943 283.832 195.619 284.392 197.924Z" fill="url(#paint3_linear_550_12036)"/>
<path d="M280.862 189.513C281.594 189.546 282.545 189.589 281.627 188.778C280.437 187.727 279.037 187.605 278.712 187.658C278.219 187.739 278.002 188.115 277.538 188.326C277.538 188.326 277.21 189.179 277.259 189.349C277.308 189.519 276.903 190.32 277.223 190.205C277.543 190.09 278.928 189.146 279.19 189.158C280.874 189.234 280.361 189.49 280.862 189.513Z" fill="black" stroke="#422713"/>
<path d="M279.55 206.391C279.55 206.391 280.204 206.836 279.92 207.32C279.636 207.804 279.208 208.058 278.603 208.167C277.995 208.276 277.631 208.077 277.099 207.821C276.61 207.586 275.664 206.967 274.886 206.464C274.487 206.385 274.127 206.235 273.858 205.979C273.29 205.441 273.971 205.873 274.886 206.464C276.042 206.693 277.524 206.32 278.067 206.171C278.797 205.969 278.691 205.574 279.57 205.332C280.449 205.089 279.55 206.391 279.55 206.391Z" fill="#702739"/>
<path d="M279.55 206.391C279.55 206.391 280.204 206.836 279.92 207.32C279.636 207.804 279.208 208.058 278.603 208.167C277.995 208.276 277.631 208.077 277.099 207.821C276.036 207.31 272.806 204.983 273.858 205.979C274.909 206.976 277.337 206.372 278.067 206.171C278.797 205.969 278.691 205.574 279.57 205.332C280.449 205.089 279.55 206.391 279.55 206.391Z" stroke="#422713"/>
<path d="M279.196 194.379C277.847 194.414 277.974 193.892 278.273 192.658C278.572 191.423 279.09 190.522 279.43 190.645C279.771 190.768 279.805 191.868 279.506 193.102C279.207 194.337 279.196 194.379 279.196 194.379Z" fill="black"/>
<path d="M279.892 199.709C279.892 199.709 280.936 198.623 281.458 199.769" stroke="#422713"/>
<path d="M271.906 205.509C271.906 205.509 271.892 203.828 272.944 204.04" stroke="#422713"/>
<path d="M267.233 193.857C267.233 193.857 267.173 192.179 268.23 192.346" stroke="#422713"/>
<path d="M258.738 219.504C259.04 222.326 262.247 217.301 262.47 214.775C262.695 212.219 260.97 209.527 261.799 208.509L262.006 206.439C262.006 206.439 261.744 206.304 261.559 206.195C261.643 206.167 261.653 206.138 261.542 206.101C261.274 206.011 261.381 206.091 261.559 206.195C261.229 206.307 259.749 206.419 259.817 207.055C260.026 209.007 261.436 211.662 260.697 215.273C259.79 219.704 258.663 218.802 258.738 219.504Z" fill="black"/>
<path d="M248.676 206.002C248.001 211.615 250.683 215.05 251.969 220.847C253.618 228.277 245.472 211.729 247.748 201.822C248.433 198.84 252.484 191.964 254.435 190.05C255.634 188.874 260.115 191.213 258.979 190.871C257.844 190.53 259.933 191.567 259.933 191.567L255.316 194.022C253.482 196.372 249.359 200.322 248.676 206.002Z" fill="black"/>
<path d="M272.883 201.728C272.883 201.728 270.866 198.102 271.3 195.215C271.808 191.829 271.5 190.3 273.964 184.353L277.497 181.035C277.497 181.035 276.288 180.898 276.07 180.796C276.597 180.68 276.857 180.679 276.373 180.706C276.047 180.724 275.987 180.758 276.07 180.796C275.312 180.964 274.005 181.368 273.566 182.265C272.357 184.739 270.3 191.248 270.178 194.25C269.802 203.479 273.071 206.282 272.883 201.728Z" fill="black"/>
<path d="M246.664 193.094C245.989 198.707 248.671 202.142 249.957 207.939C251.606 215.369 243.461 198.821 245.736 188.914C246.421 185.932 250.472 179.056 252.423 177.142C253.623 175.966 258.104 178.305 256.968 177.963C255.832 177.621 257.921 178.658 257.921 178.658L253.305 181.113C251.471 183.463 247.347 187.414 246.664 193.094Z" fill="black"/>
<path d="M278.125 190.637C277.761 193.657 280.146 201.744 279.701 202.781C278.736 205.032 277.107 202.727 277.276 192.132C277.326 189.001 277.742 186.619 279.25 184.224C281.275 181.006 279.496 178.17 280.701 178.226C281.906 178.282 282.928 182.497 282.928 182.497L281.418 183.184C279.584 185.533 278.807 184.957 278.125 190.637Z" fill="black"/>
<path d="M267.925 205.942C269.535 209.158 268.658 211.838 269.128 215.616C269.731 220.457 271.081 208.644 267.586 203.218C266.534 201.585 262.62 198.388 261.036 197.687C260.062 197.257 257.867 199.694 258.477 199.227C259.087 198.76 258.053 199.864 258.053 199.864L261.358 200.275C262.966 201.265 266.295 202.688 267.925 205.942Z" fill="black"/>
<path d="M262.604 219.044C263.311 223.056 266.526 216.603 266.641 213.075C266.757 209.504 265.111 205.278 266.28 203.948L266.411 201.06C266.411 201.06 266.002 200.836 265.711 200.66C265.837 200.63 265.848 200.591 265.677 200.525C265.263 200.364 265.432 200.49 265.711 200.66C265.221 200.776 262.986 200.747 263.145 201.65C263.634 204.426 266.006 208.342 265.203 213.334C264.217 219.459 262.429 218.046 262.604 219.044Z" fill="black"/>
<path d="M252.568 210.932C252.453 214.461 254.618 216.915 255.932 220.748C257.615 225.66 250.635 214.293 251.621 208.168C251.917 206.325 254.386 202.309 255.668 201.27C256.456 200.631 259.847 202.555 259.004 202.228C258.161 201.901 259.739 202.764 259.739 202.764L256.568 203.896C255.4 205.225 252.684 207.362 252.568 210.932Z" fill="black"/>
<path d="M253.048 181.512C252.934 185.041 255.099 187.495 256.412 191.328C258.096 196.24 251.116 184.873 252.101 178.749C252.398 176.905 254.866 172.889 256.148 171.85C256.936 171.211 260.328 173.135 259.485 172.808C258.642 172.481 260.219 173.344 260.219 173.344L257.048 174.476C255.88 175.805 253.164 177.942 253.048 181.512Z" fill="black"/>
<path d="M256.767 212.835C256.652 216.363 258.817 218.817 260.131 222.65C261.815 227.563 254.834 216.195 255.82 210.071C256.117 208.227 258.585 204.211 259.867 203.172C260.655 202.534 264.046 204.457 263.203 204.13C262.36 203.804 263.938 204.666 263.938 204.666L260.767 205.798C259.599 207.128 256.883 209.264 256.767 212.835Z" fill="black"/>
<path d="M249.756 191.683C249.46 199.804 257.319 211.33 257.319 211.33C257.319 211.33 257.589 211.571 261.422 209.143C263.738 207.677 263.045 209.933 265.159 206.948C266.168 205.524 268.155 199.818 266.787 197.519C265.837 195.921 262.956 193.599 264.431 191.108C266.403 187.776 269.114 190.423 270.185 188.503C271.327 186.457 272.799 185.862 273.885 183.732C276.177 179.236 282.196 181.516 282.196 181.516C280.353 175.352 275.952 172.797 270.447 172.068C265.356 171.395 259.334 169.322 255.656 173.571C251.826 177.996 250.021 184.434 249.756 191.683Z" fill="black" stroke="black"/>
<path d="M264.219 232.084H251.977C246.876 232.084 245.93 236.736 243.67 242.309C239.871 251.676 242.269 267.298 243.67 273.702C245.071 280.107 249.83 285.002 255.242 285.231C261.379 285.491 273.889 286.832 272.672 271.281C272.023 262.997 276.17 250.343 272.672 242.309C269.174 234.275 268.11 232.084 264.219 232.084Z" fill="#4F378A"/>
<path d="M283.21 222.141L280.882 220.859C280.882 220.859 275.733 222.184 273.321 224.063C269.289 227.204 267.107 234.31 267.107 234.31L269.367 235.912C269.367 235.912 270.701 229.126 274.734 225.984C277.145 224.105 283.21 222.141 283.21 222.141Z" fill="#4F378A"/>
<path d="M278.694 256.726L278.694 262.17C278.694 262.17 278.679 265.089 277.448 268.099C275.391 273.131 269.576 276.759 269.576 276.759L267.805 274.502C267.805 274.502 273.483 271.874 275.54 266.842C276.771 263.832 278.694 256.726 278.694 256.726Z" fill="#4F378A"/>
<path d="M240.411 254.967L240.003 260.391C240.003 260.391 239.799 263.301 240.799 266.418C242.472 271.63 247.994 275.806 247.994 275.806L249.928 273.727C249.928 273.727 244.467 270.562 242.794 265.35C241.794 262.233 240.411 254.967 240.411 254.967Z" fill="#4F378A"/>
<path d="M250.978 219.373L248.794 220.169C248.794 220.169 247.916 221.718 247.613 223.743C247.108 227.128 248.794 233.991 248.794 233.991L251.066 232.112C251.066 232.112 249.651 227.128 250.156 223.743C250.459 221.718 250.978 219.373 250.978 219.373Z" fill="#4F378A"/>
</g>
<defs>
<linearGradient id="paint0_linear_550_12036" x1="251.651" y1="294.898" x2="261.169" y2="211.111" gradientUnits="userSpaceOnUse">
<stop stop-color="#7E5334"/>
<stop offset="1" stop-color="#E4965E"/>
</linearGradient>
<linearGradient id="paint1_linear_550_12036" x1="262.255" y1="207.066" x2="262.255" y2="226.624" gradientUnits="userSpaceOnUse">
<stop stop-color="#7E5334"/>
<stop offset="1" stop-color="#E4965E"/>
</linearGradient>
<linearGradient id="paint2_linear_550_12036" x1="291.376" y1="301.772" x2="288.727" y2="192.018" gradientUnits="userSpaceOnUse">
<stop stop-color="#7E5334"/>
<stop offset="1" stop-color="#E4965E"/>
</linearGradient>
<linearGradient id="paint3_linear_550_12036" x1="278.144" y1="180.995" x2="198.613" y2="275.92" gradientUnits="userSpaceOnUse">
<stop stop-color="#7E5334"/>
<stop offset="1" stop-color="#E4965E"/>
</linearGradient>
<clipPath id="clip0_550_12036">
<rect width="720" height="523" fill="white" transform="translate(-49)"/>
</clipPath>
</defs>
</svg>
