<svg width="854" height="717" viewBox="0 0 854 717" fill="none" xmlns="http://www.w3.org/2000/svg">
<g clip-path="url(#clip0_550_12296)">
<path d="M430.893 463.961C430.893 586.229 -32.1899 677.22 -18.7577 750.438C-5.32544 823.656 261.211 909.629 476.542 690.529C699.214 463.961 480.258 358.083 550.099 253.35C645.485 110.308 441.364 202.878 406.505 271.477C377.286 328.975 430.893 354.742 430.893 463.961Z" fill="#D6CFFF"/>
<path d="M470.232 259.385L478.889 248.918L481.243 251.323L472.586 261.79L470.232 259.385Z" fill="#6D5BA6"/>
<path d="M484.302 242.324L492.959 231.857L495.313 234.263L486.656 244.73L484.302 242.324Z" fill="#6D5BA6"/>
<path d="M459.995 282.643L466.254 270.244L469.043 271.983L462.784 284.382L459.995 282.643Z" fill="#6D5BA6"/>
<path d="M453.599 308.083L457.125 294.416L460.199 295.396L456.673 309.062L453.599 308.083Z" fill="#6D5BA6"/>
<path d="M458.507 332.529L455.52 318.705L458.629 317.875L461.617 331.699L458.507 332.529Z" fill="#6D5BA6"/>
<path d="M467.058 357.079L462.975 343.605L466.005 342.471L470.089 355.944L467.058 357.079Z" fill="#6D5BA6"/>
<path d="M478.869 380.168L472.148 368.07L474.87 366.203L481.59 378.3L478.869 380.168Z" fill="#6D5BA6"/>
<path d="M489.952 395.407L482.381 383.947L484.959 381.844L492.53 393.303L489.952 395.407Z" fill="#6D5BA6"/>
<path d="M496.211 414.208L491.975 400.793L494.992 399.616L499.229 413.031L496.211 414.208Z" fill="#6D5BA6"/>
<path d="M499.269 436.883L497.102 422.871L500.253 422.269L502.421 436.281L499.269 436.883Z" fill="#6D5BA6"/>
<path d="M499.236 458.825L498.371 444.641L501.562 444.4L502.427 458.585L499.236 458.825Z" fill="#6D5BA6"/>
<path d="M498.599 480.859L497.734 466.674L500.925 466.434L501.79 480.618L498.599 480.859Z" fill="#6D5BA6"/>
<path d="M495.176 504.656L497.129 490.605L500.29 491.148L498.336 505.199L495.176 504.656Z" fill="#6D5BA6"/>
<path d="M489.421 526.245L493.143 512.643L496.202 513.677L492.48 527.279L489.421 526.245Z" fill="#6D5BA6"/>
<path d="M479.828 543.751L486.822 531.848L489.5 533.791L482.505 545.695L479.828 543.751Z" fill="#6D5BA6"/>
<path d="M466.391 563.205L473.971 551.752L476.547 553.858L468.968 565.311L466.391 563.205Z" fill="#6D5BA6"/>
<path d="M453.6 580.223L462.023 569.523L464.43 571.864L456.007 582.564L453.6 580.223Z" fill="#6D5BA6"/>
<path d="M438.251 598.926L447.152 588.715L449.449 591.188L440.549 601.399L438.251 598.926Z" fill="#6D5BA6"/>
<path d="M420.98 613.408L430.844 604.355L432.88 607.096L423.016 616.149L420.98 613.408Z" fill="#6D5BA6"/>
<path d="M404.35 627.765L414.615 619.281L416.524 622.133L406.258 630.617L404.35 627.765Z" fill="#6D5BA6"/>
<path d="M384.595 643.703L394.566 634.797L396.57 637.567L386.599 646.474L384.595 643.703Z" fill="#6D5BA6"/>
<path d="M366.166 652.728L377.336 645.799L378.895 648.902L367.724 655.831L366.166 652.728Z" fill="#6D5BA6"/>
<path d="M348.779 662.811L360.418 656.912L361.745 660.146L350.106 666.045L348.779 662.811Z" fill="#6D5BA6"/>
<path d="M332.71 672.1L344.35 666.201L345.677 669.435L334.037 675.334L332.71 672.1Z" fill="#6D5BA6"/>
<path d="M313.521 681.339L325.16 675.439L326.487 678.673L314.848 684.573L313.521 681.339Z" fill="#6D5BA6"/>
<path d="M294.332 690.583L305.971 684.684L307.298 687.917L295.659 693.817L294.332 690.583Z" fill="#6D5BA6"/>
<path d="M275.144 699.823L286.783 693.924L288.11 697.158L276.471 703.057L275.144 699.823Z" fill="#6D5BA6"/>
<path d="M255.957 709.065L267.596 703.166L268.923 706.4L257.284 712.299L255.957 709.065Z" fill="#6D5BA6"/>
<path d="M236.769 718.306L248.408 712.406L249.735 715.64L238.096 721.539L236.769 718.306Z" fill="#6D5BA6"/>
<path d="M349.848 597.982C313.852 627.112 269.183 618.587 245.383 645.544C211.43 684 350.63 689.003 375.316 642.374C394.111 606.872 443.776 628.206 471.19 604.529C514.332 567.268 409.602 549.625 349.848 597.982Z" fill="#A89FE3"/>
<path d="M507.138 496.159C491.791 509.204 472.093 504.449 462.058 516.684C447.742 534.136 508.811 538.844 518.946 517.403C526.663 501.078 548.738 511.923 560.404 501.288C578.764 484.552 532.615 474.502 507.138 496.159Z" fill="#A89FE3"/>
<path d="M25.2651 139.652L8.42578 164.325H239.462L223.969 139.652H195.174L185.744 115.087H162.843L148.529 92.7946H134.216L125.796 78.1855L117.376 92.7946H103.063L93.4644 115.087H68.3738L51.5345 139.652H25.2651Z" fill="#F4F1FF"/>
<path d="M203.998 113.06L187.158 137.733H418.194L402.702 113.06H373.906L364.476 88.4952H341.575L327.262 66.2028H312.948L304.528 51.5938L296.109 66.2028H281.795L272.197 88.4952H247.106L230.267 113.06H203.998Z" fill="#F4F1FF"/>
<path d="M182.611 432.656L165.771 457.329H396.807L381.315 432.656H352.52L343.09 408.091H320.188L305.875 385.799H291.561L283.142 371.189L274.722 385.799H260.409L250.81 408.091H225.72L208.88 432.656H182.611Z" fill="#F4F1FF"/>
<path d="M625.228 306.121L608.389 330.794H839.424L823.932 306.121H795.137L785.707 281.556H762.805L748.492 259.263H734.179L725.759 244.654L717.339 259.263H703.026L693.427 281.556H668.337L651.497 306.121H625.228Z" fill="#F4F1FF"/>
<path d="M131.441 323.183L114.602 347.856H345.637L330.145 323.183H301.35L291.92 298.618H269.018L254.705 276.326H240.391L231.972 261.717L223.552 276.326H209.239L199.64 298.618H174.55L157.71 323.183H131.441Z" fill="#F4F1FF"/>
<path d="M454.466 86.4664L437.627 111.14H668.663L653.17 86.4664H624.375L614.945 61.9015H592.044L577.73 39.6091H563.417L554.997 25L546.577 39.6091H532.264L522.666 61.9015H497.575L480.736 86.4664H454.466Z" fill="#F4F1FF"/>
<path d="M440.288 183.989L410.744 223.269H816.091L788.91 183.989H738.389L721.845 144.882H681.665L656.552 109.392H631.439L616.667 86.1348L601.895 109.392H576.783L559.942 144.882H515.922L486.377 183.989H440.288Z" fill="#A89FE3"/>
<path d="M177.184 201.74L157.459 238.158H428.084L409.937 201.74H376.208L365.162 165.482H338.336L321.57 132.579H304.804L294.941 111.016L285.079 132.579H268.313L257.069 165.482H227.679L207.955 201.74H177.184Z" fill="#D6CFFF"/>
<path d="M613.504 94.3923V42.7715H617.215V94.3923H613.504Z" fill="#6D5BA6"/>
<path d="M618.453 59.457V42.7715L639.48 50.3801L618.453 59.457Z" fill="#6D5BA6"/>
<path d="M765.39 389.161C734.978 388.443 701.96 389.628 680.045 391.906C648.781 395.157 736.074 414.522 765.875 415.225C789.654 415.786 814.963 414.574 845.938 408.361C861.214 405.297 809.499 390.201 765.39 389.161Z" fill="#D6CFFF"/>
<ellipse cx="760.698" cy="366.176" rx="90.1863" ry="19.2305" fill="#4F378A"/>
<ellipse cx="760.701" cy="364.437" rx="32.5975" ry="32.9665" fill="#4F378A"/>
<ellipse cx="733.347" cy="308.851" rx="7.24388" ry="7.3259" fill="#4F378A"/>
<path d="M734.793 310.684L740.769 337.606" stroke="#4F378A" stroke-width="6"/>
<ellipse cx="7.24388" cy="7.3259" rx="7.24388" ry="7.3259" transform="matrix(-1 0 0 1 791.117 301.525)" fill="#4F378A"/>
<path d="M782.424 310.684L776.448 337.606" stroke="#4F378A" stroke-width="6"/>
<path d="M313.117 354.673L299.84 354.673C299.84 354.673 297.778 359.256 303.468 371.023C309.159 382.791 313.117 391.31 313.117 391.31L323.678 409.154L334.278 422.631C334.278 422.631 345.792 436.974 342.663 447.069C341.997 449.216 355.352 459.139 356.377 456.771C357.403 454.403 356.425 445.305 353.675 443.542C351.888 439.642 350.64 436.102 350.64 436.102C350.64 436.102 333.141 406.471 330.109 394.868C326.681 381.756 325.228 383.316 324.337 376.622C323.447 369.928 313.117 354.673 313.117 354.673Z" fill="url(#paint0_linear_550_12296)"/>
<path d="M351.295 450.119C351.553 450.424 353.741 456.717 353.741 456.717C353.741 456.717 352.39 456.139 351.974 455.492C350.769 453.614 351.226 454.157 350.769 453.614C350.488 453.28 349.412 450.301 349.501 450.238" stroke="#422713"/>
<path d="M346.031 445.928C345.942 445.992 346.172 448.61 346.453 448.944C346.91 449.487 347.04 451.775 347.642 452.247C348.039 452.558 348.36 453.534 349.284 454.175C350.442 454.977 350.679 454.352 350.679 454.352C350.679 454.352 349.054 449.511 348.795 449.206L347.622 445.862" stroke="#422713"/>
<path d="M353.166 448.103C353.166 448.103 352.884 449.287 353.778 450.752C354.052 451.201 354.773 453.151 354.773 453.151C354.773 453.151 356.521 458.206 356.347 458.252C354.927 458.629 352.523 454.059 352.523 454.059C352.523 454.059 351.905 451.006 351.423 450.209L350.386 447.521" stroke="#422713"/>
<path d="M353.101 448.168C353.101 448.168 355.097 450.291 355.287 451.799C355.345 452.26 355.551 453.616 355.551 453.616C355.551 453.616 356.369 455.494 356.487 455.355C357.069 454.669 358.131 455.223 357.141 453.629C356.662 452.858 357.401 451.279 357.293 450.458C357.293 450.458 354.859 446.056 354.347 444.884" stroke="#422713"/>
<path d="M345.478 443.83L346.415 448.276C346.415 448.276 346.512 448.145 346.736 449.955C346.791 450.403 347.677 452.514 347.677 452.514C347.677 452.514 347.007 452.594 345.999 451.896C344.991 451.197 344.623 450.166 344.468 449.2L344.337 446.836L344.041 442.865" stroke="#422713"/>
<path d="M327.33 316.79L332.704 293.02C332.704 293.02 338.342 294.313 343.451 294.313C348.561 294.313 354.199 301.642 354.199 301.642L351.896 316.79C351.896 316.79 344.786 321.903 339.613 321.903C334.44 321.903 327.33 316.79 327.33 316.79Z" fill="url(#paint1_linear_550_12296)"/>
<path d="M283.078 641.212C280.705 634.486 288.527 624.215 288.527 624.215C288.527 624.215 295.879 625.319 299.916 622.731C302.777 620.897 306.263 615.741 306.263 615.741L331.685 618.591C332.666 623.892 332.051 634.83 321.741 636.174L303.758 638.517C303.758 638.517 298.492 646.763 293.931 647.281C289.476 647.786 285.148 647.081 283.078 641.212Z" fill="black" stroke="black"/>
<path d="M396.244 605.283C392.43 599.602 397.61 587.136 397.61 587.136C397.61 587.136 404.93 585.763 408.222 581.937C410.555 579.227 412.732 573.115 412.732 573.115L437.825 567.436C439.977 572.208 441.878 582.93 432.271 587.636L415.514 595.844C415.514 595.844 412.331 605.516 408.064 607.524C403.895 609.486 399.573 610.24 396.244 605.283Z" fill="black" stroke="black"/>
<path d="M329.416 597.787C316.342 633.154 264.525 638.352 260.157 621.954C257.317 611.293 271.998 562.203 275.396 550.841L275.503 550.482C286.249 514.538 300.461 458.442 300.461 458.442L347.663 458.442C347.663 458.442 330.957 519.037 324.789 539.842C321.744 550.109 333.977 585.446 329.416 597.787Z" fill="#6D5BA6"/>
<path d="M391.487 460.194L346.574 458.443C346.574 458.443 360.36 515.347 370.892 551.12C377.41 573.26 373.069 590.195 375.858 596.808C385.396 619.42 429.759 572.66 433.847 555.352C439.188 532.741 420.867 532.329 412.082 521.481C403.296 510.633 391.487 460.194 391.487 460.194Z" fill="#6D5BA6"/>
<path d="M300.465 458.878C300.465 458.878 307.369 426.457 312.81 419.491C316.716 414.491 380.765 416.091 382.161 423.868C383.972 433.957 391.601 460.191 391.601 460.191L300.465 458.878Z" fill="#6D5BA6"/>
<path d="M353.211 312.273C344.426 322.024 338.434 322.024 327.086 312.273C327.086 312.273 309.285 313.444 304.893 327.095C300.5 340.746 301.233 348.157 301.233 348.157H312.947C312.947 348.157 305.257 416.023 309.284 422.264C313.31 428.505 372.575 432.868 381.761 422.264C386.154 417.194 370.049 360.248 370.049 360.248L367.487 338.406C367.487 338.406 378.103 327.875 371.88 320.074C365.657 312.273 353.211 312.273 353.211 312.273Z" fill="#CBC1DC"/>
<path d="M361.22 326.435C357.099 333.994 360.257 351.476 360.257 351.476L377.959 352.464C377.959 352.464 382.445 335.41 378.921 327.424C376.688 322.362 373.832 319.183 370.376 318.99C366.919 318.797 363.832 321.644 361.22 326.435Z" fill="#6D5BA6"/>
<path d="M303.641 333.503C302.31 340.853 299.914 354.957 299.914 354.957L313.168 354.957C313.168 354.957 313.657 348.612 313.168 341.157C311.736 319.32 317.159 313.692 311.714 318.838C306.27 323.984 304.485 328.844 303.641 333.503Z" fill="#6D5BA6"/>
<path d="M377.679 351.574L360.371 351.574C360.371 351.574 360.444 373.229 361.582 381.779C363.609 397.001 373.68 409.653 373.68 409.653L388.106 435.459C388.106 435.459 388.219 441.73 385.36 452.357C384.536 455.418 393.172 463.62 396.837 456.06C400.502 448.5 398.712 447.24 398.712 447.24C398.712 447.24 393.155 408.158 385.671 397.427C379.345 388.355 378.539 388.836 379.005 380.301C379.471 371.766 377.679 351.574 377.679 351.574Z" fill="url(#paint2_linear_550_12296)"/>
<path d="M388.971 447.023C388.551 447.473 386.232 451.147 386.232 451.147C386.232 451.147 386.025 451.616 385.988 451.864C385.941 452.169 386.685 451.913 387.319 451.539C388.28 450.971 390.705 448.92 391.446 448.117C391.902 447.623 392.393 442.445 392.259 442.262" stroke="#422713"/>
<path d="M392.652 442.45C392.652 442.45 392.828 447.24 390.853 448.968C390.249 449.497 386.955 452.495 386.955 452.495C386.955 452.495 386.64 453.123 386.569 453.479C386.483 453.916 387.514 453.784 388.405 453.439C389.755 452.915 393.207 450.677 394.276 449.731" stroke="#422713"/>
<path d="M395.644 443.324C395.644 443.324 394.777 449.063 393.842 449.831C393.272 450.3 389.56 453.7 389.56 453.7C389.56 453.7 388.933 454.795 388.848 455.088C388.744 455.447 389.668 455.269 390.482 454.928C391.715 454.412 394.924 452.363 395.934 451.524" stroke="#422713"/>
<path d="M397.769 445.875C397.769 445.875 396.644 451.258 394.831 452.349C394.276 452.682 390.182 455.539 390.182 455.539C390.182 455.539 389.844 456.022 389.739 456.32C389.61 456.685 390.45 456.792 391.208 456.682C392.357 456.515 395.418 455.296 396.401 454.697C397.005 454.328 398.634 450.539 399.076 449.072" stroke="#422713"/>
<path d="M368.067 282.681C368.787 285.831 366.97 286.069 364.609 286.378C362.045 286.714 364.149 303.614 361.075 304.016C359.591 304.211 355.812 304.827 352.181 302.891C350.048 301.753 342.573 298.424 342.573 298.424C342.573 298.424 344.125 289.691 345.111 282.825C338.815 280.023 341.033 270.597 342.804 270.722C350.378 271.257 352.641 258.365 352.641 258.365C352.641 258.365 366.926 257.05 366.122 263.279C363.967 279.974 367.347 279.531 368.067 282.681Z" fill="url(#paint3_linear_550_12296)"/>
<path d="M363.528 271.183C364.47 271.229 365.692 271.288 364.511 270.179C362.982 268.743 361.184 268.577 360.765 268.649C360.131 268.759 359.853 269.274 359.257 269.561C359.257 269.561 358.835 270.728 358.898 270.96C358.961 271.192 358.441 272.286 358.852 272.129C359.263 271.972 361.043 270.682 361.38 270.698C363.543 270.803 362.885 271.152 363.528 271.183Z" fill="black" stroke="#422713"/>
<path d="M361.838 294.252C361.838 294.252 362.679 294.859 362.314 295.521C361.949 296.183 361.398 296.53 360.62 296.678C359.839 296.827 359.371 296.555 358.688 296.205C358.06 295.884 356.843 295.039 355.844 294.351C355.331 294.243 354.869 294.038 354.522 293.689C353.792 292.953 354.668 293.543 355.844 294.351C357.33 294.664 359.234 294.155 359.932 293.95C360.87 293.675 360.734 293.135 361.864 292.804C362.993 292.472 361.838 294.252 361.838 294.252Z" fill="#702739"/>
<path d="M361.838 294.252C361.838 294.252 362.679 294.859 362.314 295.521C361.949 296.183 361.398 296.53 360.62 296.678C359.839 296.827 359.371 296.555 358.688 296.205C357.322 295.507 353.171 292.327 354.522 293.689C355.873 295.051 358.994 294.225 359.932 293.95C360.87 293.675 360.734 293.135 361.864 292.804C362.993 292.472 361.838 294.252 361.838 294.252Z" stroke="#422713"/>
<path d="M361.383 277.835C359.65 277.882 359.812 277.169 360.197 275.482C360.581 273.795 361.247 272.564 361.684 272.731C362.122 272.899 362.165 274.403 361.781 276.09C361.397 277.776 361.383 277.835 361.383 277.835Z" fill="black"/>
<path d="M362.28 285.121C362.28 285.121 363.621 283.637 364.292 285.203" stroke="#422713"/>
<path d="M352.018 293.041C352.018 293.041 352 290.744 353.351 291.033" stroke="#422713"/>
<path d="M346.01 277.119C346.01 277.119 345.932 274.825 347.291 275.054" stroke="#422713"/>
<path d="M335.097 312.175C335.485 316.031 339.607 309.164 339.892 305.712C340.182 302.219 337.965 298.541 339.031 297.149L339.297 294.321C339.297 294.321 338.96 294.136 338.722 293.987C338.831 293.948 338.842 293.909 338.7 293.858C338.356 293.735 338.493 293.844 338.722 293.987C338.298 294.14 336.397 294.294 336.484 295.162C336.752 297.83 338.564 301.458 337.614 306.393C336.448 312.448 335 311.215 335.097 312.175Z" fill="black"/>
<path d="M322.167 293.723C321.3 301.394 324.747 306.087 326.4 314.01C328.518 324.163 318.051 301.549 320.975 288.011C321.855 283.936 327.061 274.539 329.569 271.924C331.11 270.316 336.868 273.513 335.409 273.046C333.949 272.579 336.634 273.996 336.634 273.996L330.701 277.351C328.344 280.562 323.045 285.961 322.167 293.723Z" fill="black"/>
<path d="M353.278 287.88C353.278 287.88 350.687 282.925 351.244 278.979C351.897 274.352 351.501 272.262 354.668 264.136L359.208 259.602C359.208 259.602 357.654 259.414 357.374 259.276C358.051 259.117 358.386 259.115 357.763 259.152C357.345 259.177 357.267 259.223 357.374 259.276C356.4 259.504 354.72 260.057 354.157 261.282C352.603 264.664 349.959 273.558 349.802 277.661C349.319 290.273 353.52 294.104 353.278 287.88Z" fill="black"/>
<path d="M319.581 276.081C318.714 283.751 322.161 288.445 323.814 296.367C325.932 306.52 315.465 283.907 318.389 270.368C319.269 266.294 324.475 256.896 326.983 254.281C328.524 252.674 334.282 255.87 332.823 255.403C331.363 254.936 334.048 256.353 334.048 256.353L328.115 259.708C325.758 262.92 320.459 268.319 319.581 276.081Z" fill="black"/>
<path d="M360.014 272.72C359.547 276.848 362.611 287.898 362.04 289.316C360.8 292.393 358.707 289.243 358.923 274.764C358.987 270.485 359.523 267.229 361.46 263.957C364.063 259.56 361.777 255.684 363.325 255.76C364.873 255.837 366.186 261.597 366.186 261.597L364.247 262.535C361.89 265.746 360.892 264.958 360.014 272.72Z" fill="black"/>
<path d="M346.908 293.64C348.978 298.034 347.851 301.697 348.455 306.859C349.229 313.476 350.964 297.332 346.472 289.917C345.121 287.685 340.091 283.316 338.055 282.359C336.803 281.771 333.983 285.101 334.767 284.463C335.551 283.825 334.222 285.333 334.222 285.333L338.469 285.896C340.535 287.248 344.813 289.193 346.908 293.64Z" fill="black"/>
<path d="M340.067 311.543C340.975 317.025 345.107 308.207 345.254 303.385C345.404 298.505 343.288 292.73 344.79 290.913L344.959 286.967C344.959 286.967 344.432 286.661 344.059 286.419C344.221 286.379 344.235 286.326 344.015 286.235C343.484 286.016 343.7 286.187 344.059 286.419C343.429 286.578 340.557 286.539 340.761 287.773C341.39 291.566 344.439 296.918 343.406 303.74C342.139 312.109 339.841 310.179 340.067 311.543Z" fill="black"/>
<path d="M327.169 300.456C327.022 305.278 329.804 308.631 331.493 313.869C333.656 320.582 324.686 305.048 325.952 296.679C326.333 294.16 329.506 288.672 331.154 287.252C332.166 286.379 336.524 289.008 335.441 288.561C334.358 288.114 336.385 289.293 336.385 289.293L332.31 290.84C330.809 292.657 327.319 295.576 327.169 300.456Z" fill="black"/>
<path d="M327.791 260.255C327.643 265.077 330.425 268.43 332.114 273.668C334.277 280.381 325.307 264.847 326.573 256.478C326.954 253.959 330.127 248.471 331.775 247.05C332.787 246.177 337.145 248.806 336.062 248.36C334.979 247.913 337.006 249.092 337.006 249.092L332.931 250.639C331.43 252.456 327.94 255.375 327.791 260.255Z" fill="black"/>
<path d="M332.566 303.059C332.418 307.881 335.201 311.234 336.889 316.473C339.053 323.186 330.082 307.652 331.349 299.282C331.73 296.763 334.902 291.275 336.55 289.855C337.563 288.982 341.921 291.611 340.837 291.164C339.754 290.718 341.781 291.897 341.781 291.897L337.707 293.444C336.205 295.261 332.715 298.18 332.566 303.059Z" fill="black"/>
<path d="M323.555 274.152C323.174 285.25 333.274 301 333.274 301C333.274 301 333.621 301.33 338.547 298.012C341.524 296.008 340.633 299.091 343.35 295.012C344.646 293.066 347.199 285.269 345.442 282.127C344.221 279.944 340.518 276.77 342.413 273.366C344.949 268.813 348.432 272.43 349.808 269.807C351.276 267.01 353.169 266.197 354.564 263.286C357.509 257.143 365.244 260.258 365.244 260.258C362.876 251.834 357.221 248.343 350.145 247.347C343.603 246.427 335.863 243.594 331.137 249.4C326.215 255.448 323.895 264.245 323.555 274.152Z" fill="black" stroke="black"/>
<path d="M342.136 329.359H326.403C319.848 329.359 318.632 335.717 315.727 343.333C310.845 356.133 313.927 377.481 315.727 386.234C317.528 394.986 323.644 401.675 330.599 401.988C338.487 402.343 354.563 404.176 352.999 382.925C352.165 371.604 357.494 354.312 352.999 343.333C348.504 332.354 347.137 329.359 342.136 329.359Z" fill="#4F378A"/>
<path d="M366.545 315.775L363.553 314.022C363.553 314.022 356.935 315.833 353.836 318.4C348.654 322.694 345.849 332.404 345.849 332.404L348.754 334.593C348.754 334.593 350.469 325.319 355.651 321.026C358.75 318.458 366.545 315.775 366.545 315.775Z" fill="#4F378A"/>
<path d="M360.737 363.037L360.737 370.476C360.737 370.476 360.717 374.465 359.136 378.577C356.492 385.454 349.019 390.413 349.019 390.413L346.743 387.328C346.743 387.328 354.041 383.737 356.684 376.86C358.266 372.747 360.737 363.037 360.737 363.037Z" fill="#4F378A"/>
<path d="M311.538 360.633L311.014 368.046C311.014 368.046 310.752 372.022 312.038 376.282C314.187 383.405 321.284 389.111 321.284 389.111L323.769 386.27C323.769 386.27 316.751 381.945 314.602 374.822C313.316 370.562 311.538 360.633 311.538 360.633Z" fill="#4F378A"/>
<path d="M325.122 311.992L322.315 313.08C322.315 313.08 321.187 315.197 320.799 317.964C320.149 322.59 322.315 331.968 322.315 331.968L325.235 329.401C325.235 329.401 323.417 322.59 324.066 317.964C324.455 315.197 325.122 311.992 325.122 311.992Z" fill="#4F378A"/>
<path d="M486.236 388.688C486.236 388.688 487.892 382.609 490.363 379.239C492.835 375.869 499.832 375.677 504.825 374.272C509.817 372.867 518.598 360.942 541.999 384.973C554.592 397.905 558.677 406.313 571.585 415.713C578.317 420.617 584.443 423.256 580.407 433.352C576.987 441.909 569.433 445.792 567.62 442.171C565.807 438.549 567.319 436.156 569.266 430.715C570.859 426.263 566.79 425.583 563.404 423.984C545.037 415.309 530.737 400.087 530.737 400.087C530.737 400.087 534.027 407.11 536.204 413.484C538.381 419.857 539.151 428.134 537.43 436.215C535.709 444.297 532.221 449.599 525.201 455.377C518.18 461.156 511.234 466.326 511.234 466.326C511.234 466.326 501.616 471.916 499.095 477.154C499.095 477.154 499.737 489.061 496.616 499.167C494.855 504.869 501.602 512.411 496.587 514.619C491.742 516.752 492.616 514.884 476.065 515.986C468.759 516.473 469.385 508.336 472.987 506.897C481.326 503.565 485.382 501.047 486.335 496.472C488.476 486.19 482.337 480.679 484.933 470.493C487.432 460.691 498.427 461.214 494.294 452.125C492.311 447.762 492.459 446.091 490.233 440.808C488.26 436.124 491.002 427.468 488.565 431.866C484.536 439.135 479.433 446.476 475.327 448.319C471.22 450.162 453.466 454.845 449.146 438.717C447.912 434.11 453.256 431.688 457.449 432.732C461.274 433.684 472.614 430.344 476.713 422.034C478.559 418.289 480.674 411.51 482.925 403.272C484.732 396.665 486.236 388.688 486.236 388.688Z" fill="#4F378A"/>
<path d="M530.158 448.373C526.296 448.997 514.115 451.788 514.115 451.788C514.115 451.788 538.455 475.095 540.048 484.911C540.629 488.487 538.914 492.467 538.219 495.969C537.643 498.869 535.591 505.636 537.753 506.252C543.413 507.865 548.43 499.491 549.708 496.622C554.032 486.913 549.998 488.583 555.269 482.497C557.177 480.293 558.398 475.383 553.194 472.157C550.381 470.412 549.321 471.724 546.495 470.027C541.306 466.909 535.663 447.484 530.158 448.373Z" fill="#4F378A"/>
<path d="M478.899 345.608C477.954 341.777 478.895 340.111 481.163 336.142C483.43 332.173 488.615 329.292 497.53 329.382C506.445 329.472 509.215 332.756 512.892 336.362C516.569 339.968 518.18 347.079 518.633 350.772C519.336 356.506 516.879 363.302 514.878 365.776C512.877 368.25 510.595 370.439 507.921 372.118C501.753 375.991 494.909 375.053 492.741 375.01C490.572 374.967 488.95 375.328 487.866 373.454C486.662 371.372 486.504 369.581 487.96 367.569C491.384 362.837 496.573 365.181 501.944 363.693C505.733 362.642 507.841 354.908 505.133 348.37C501.92 340.609 495.891 340.533 492.92 341.899C489.95 343.264 487.686 345.023 486.411 346.482C483.506 349.811 479.844 349.44 478.899 345.608Z" fill="#4F378A"/>
<path d="M497.621 338.094C492.145 337.039 484.39 338.788 481.429 343.755C479.223 347.455 480.513 355.192 482.258 359.124C484.042 363.143 486.869 366.916 491.043 367.702C496.385 368.708 505.459 364.59 506.633 359.027C507.68 354.071 507.307 352.568 505.969 346.701C505.105 342.918 501.278 338.799 497.621 338.094Z" fill="#A89FE3"/>
<path d="M485.438 351.346C485.37 351.968 483.763 352.276 483.53 351.473C483.297 350.67 483.178 346.54 484.259 346.468C485.341 346.396 485.505 350.724 485.438 351.346Z" fill="black"/>
<path d="M496.443 349.697C496.376 350.32 494.769 350.627 494.536 349.825C494.303 349.022 494.184 344.891 495.265 344.819C496.347 344.747 496.511 349.075 496.443 349.697Z" fill="black"/>
<path d="M501.47 329.674C500.841 331.192 489.542 332.424 488.117 330.564C486.691 328.704 486.879 318.805 494.45 318.301C502.022 317.797 502.098 328.157 501.47 329.674Z" fill="#4F378A"/>
<path d="M488.326 349.809C488.856 351.126 489.158 352.535 489.327 354.005C489.445 355.024 489.187 357.117 489.772 357.864C490.357 358.611 493.039 357.427 493.039 357.427" stroke="black" stroke-linecap="round"/>
<path d="M488.098 361.789C488.098 361.789 490.791 363.951 492.652 363.609C494.156 363.333 495.953 361.266 495.953 361.266" stroke="black"/>
</g>
<defs>
<linearGradient id="paint0_linear_550_12296" x1="325.99" y1="415.197" x2="339.798" y2="300.888" gradientUnits="userSpaceOnUse">
<stop stop-color="#7E5334"/>
<stop offset="1" stop-color="#E4965E"/>
</linearGradient>
<linearGradient id="paint1_linear_550_12296" x1="339.613" y1="295.175" x2="339.613" y2="321.903" gradientUnits="userSpaceOnUse">
<stop stop-color="#7E5334"/>
<stop offset="1" stop-color="#E4965E"/>
</linearGradient>
<linearGradient id="paint2_linear_550_12296" x1="377.038" y1="424.598" x2="373.189" y2="274.624" gradientUnits="userSpaceOnUse">
<stop stop-color="#7E5334"/>
<stop offset="1" stop-color="#E4965E"/>
</linearGradient>
<linearGradient id="paint3_linear_550_12296" x1="360.037" y1="259.546" x2="250.38" y2="382.63" gradientUnits="userSpaceOnUse">
<stop stop-color="#7E5334"/>
<stop offset="1" stop-color="#E4965E"/>
</linearGradient>
<clipPath id="clip0_550_12296">
<rect width="854" height="717" fill="white"/>
</clipPath>
</defs>
</svg>
