<svg width="1255" height="1020" viewBox="0 0 1255 1020" fill="none" xmlns="http://www.w3.org/2000/svg">
<ellipse cx="70.5261" cy="80.1403" rx="70.5261" ry="80.1403" transform="matrix(0.826587 -0.562809 0.544615 0.838686 3.61719 206.388)" fill="#4F378A"/>
<ellipse cx="70.9302" cy="79.6868" rx="70.9302" ry="79.6868" transform="matrix(0.664339 0.747431 -0.731553 0.681784 233.621 119.87)" fill="#4F378A"/>
<ellipse cx="70.0071" cy="80.715" rx="70.0071" ry="80.715" transform="matrix(0.999996 -0.00289164 0.00275779 0.999996 91.918 104.406)" fill="#4F378A"/>
<ellipse cx="71.5436" cy="78.9885" rx="71.5436" ry="78.9885" transform="matrix(-0.286405 0.958109 -0.954225 -0.299089 328.004 281.156)" fill="#4F378A"/>
<ellipse cx="71.6606" cy="78.854" rx="71.6606" ry="78.854" transform="matrix(-0.120571 -0.992705 0.991988 -0.126331 17.2812 404.647)" fill="#4F378A"/>
<path d="M152.956 399.885L163.243 568H183.817C183.817 568 167.833 424.208 177.487 399.885C198.786 346.218 231.034 330.493 231.034 330.493L177.487 356.604L163.243 261.101L152.956 356.604C137.656 356.604 96.9813 327.917 97.8254 330.493C98.6695 333.068 126.313 344.4 152.956 399.885Z" fill="#A89FE3"/>
<ellipse cx="70.5261" cy="80.1403" rx="70.5261" ry="80.1403" transform="matrix(0.826587 -0.562809 0.544615 0.838686 476.621 102.386)" fill="#4F378A"/>
<ellipse cx="70.9302" cy="79.6868" rx="70.9302" ry="79.6868" transform="matrix(0.664339 0.747431 -0.731553 0.681784 706.625 15.8682)" fill="#4F378A"/>
<ellipse cx="70.0071" cy="80.715" rx="70.0071" ry="80.715" transform="matrix(0.999996 -0.00289164 0.00275779 0.999996 564.918 0.404297)" fill="#4F378A"/>
<ellipse cx="71.5436" cy="78.9885" rx="71.5436" ry="78.9885" transform="matrix(-0.286405 0.958109 -0.954225 -0.299089 801.008 177.154)" fill="#4F378A"/>
<ellipse cx="71.6606" cy="78.854" rx="71.6606" ry="78.854" transform="matrix(-0.120571 -0.992705 0.991988 -0.126331 490.285 300.646)" fill="#4F378A"/>
<path d="M625.956 295.884L636.243 463.999H656.817C656.817 463.999 640.833 320.207 650.487 295.884C671.786 242.217 704.034 226.492 704.034 226.492L650.487 252.603L636.243 157.1L625.956 252.603C610.656 252.603 569.981 223.916 570.825 226.492C571.67 229.067 599.313 240.399 625.956 295.884Z" fill="#A89FE3"/>
<ellipse cx="70.5261" cy="80.1403" rx="70.5261" ry="80.1403" transform="matrix(0.826587 -0.562809 0.544615 0.838686 930.617 183.387)" fill="#4F378A"/>
<ellipse cx="70.9302" cy="79.6868" rx="70.9302" ry="79.6868" transform="matrix(0.664339 0.747431 -0.731553 0.681784 1160.62 96.8691)" fill="#4F378A"/>
<ellipse cx="70.0071" cy="80.715" rx="70.0071" ry="80.715" transform="matrix(0.999996 -0.00289164 0.00275779 0.999996 1018.91 81.4053)" fill="#4F378A"/>
<ellipse cx="71.5436" cy="78.9885" rx="71.5436" ry="78.9885" transform="matrix(-0.286405 0.958109 -0.954225 -0.299089 1255 258.155)" fill="#4F378A"/>
<ellipse cx="71.6606" cy="78.854" rx="71.6606" ry="78.854" transform="matrix(-0.120571 -0.992705 0.991988 -0.126331 944.281 381.646)" fill="#4F378A"/>
<path d="M1079.95 376.884L1090.24 544.999H1110.81C1110.81 544.999 1094.83 401.207 1104.48 376.884C1125.78 323.217 1158.03 307.492 1158.03 307.492L1104.48 333.603L1090.24 238.1L1079.95 333.603C1064.65 333.603 1023.98 304.916 1024.82 307.492C1025.67 310.067 1053.31 321.399 1079.95 376.884Z" fill="#A89FE3"/>
<path d="M503.74 497.4L301.519 497.762C301.519 497.762 283.538 258.88 391.284 244.246C537.751 224.353 503.74 497.4 503.74 497.4Z" fill="#A89FE3"/>
<path d="M517.49 500.068L321.501 497.765C321.501 497.765 301.48 244.157 435.471 245.731C546.889 247.041 517.49 500.068 517.49 500.068Z" fill="#D6CFFF"/>
<path d="M389.498 341.599C389.427 340.912 389.132 340.38 388.614 340.002C388.095 339.624 387.393 339.438 386.506 339.443C385.904 339.446 385.396 339.534 384.982 339.707C384.568 339.874 384.25 340.106 384.03 340.403C383.815 340.699 383.709 341.035 383.71 341.41C383.7 341.723 383.767 341.995 383.91 342.227C384.058 342.459 384.261 342.66 384.517 342.829C384.773 342.992 385.069 343.135 385.405 343.259C385.741 343.376 386.099 343.476 386.48 343.559L388.05 343.926C388.812 344.092 389.512 344.315 390.149 344.596C390.787 344.876 391.339 345.222 391.807 345.635C392.274 346.047 392.637 346.533 392.895 347.094C393.159 347.655 393.295 348.3 393.303 349.027C393.302 350.095 393.033 351.023 392.496 351.81C391.965 352.591 391.195 353.201 390.186 353.638C389.182 354.07 387.969 354.29 386.549 354.298C385.14 354.306 383.912 354.097 382.865 353.671C381.823 353.245 381.008 352.61 380.419 351.767C379.836 350.918 379.528 349.865 379.495 348.61L383.066 348.59C383.108 349.175 383.277 349.663 383.574 350.053C383.877 350.438 384.279 350.728 384.78 350.924C385.286 351.114 385.858 351.208 386.494 351.204C387.119 351.201 387.661 351.107 388.121 350.922C388.586 350.738 388.946 350.483 389.2 350.158C389.454 349.833 389.581 349.46 389.579 349.039C389.577 348.647 389.46 348.318 389.226 348.053C388.997 347.787 388.661 347.561 388.217 347.376C387.779 347.191 387.241 347.024 386.604 346.874L384.702 346.407C383.229 346.058 382.065 345.505 381.209 344.748C380.354 343.991 379.927 342.968 379.927 341.678C379.917 340.622 380.195 339.697 380.76 338.904C381.33 338.111 382.115 337.49 383.113 337.041C384.111 336.592 385.247 336.364 386.519 336.357C387.815 336.35 388.946 336.565 389.914 337.003C390.887 337.441 391.646 338.053 392.189 338.84C392.732 339.626 393.014 340.54 393.035 341.579L389.498 341.599ZM395.083 339.591L395.071 336.548L409.406 336.468L409.418 339.51L404.074 339.54L404.132 353.952L400.485 353.972L400.427 339.561L395.083 339.591ZM412.712 353.904L408.758 353.926L414.713 336.438L419.469 336.411L425.556 353.832L421.601 353.854L417.175 340.413L417.039 340.413L412.712 353.904ZM412.438 347.044L421.778 346.992L421.79 349.873L412.449 349.925L412.438 347.044ZM427.657 353.82L427.587 336.366L434.473 336.327C435.791 336.32 436.917 336.549 437.851 337.015C438.79 337.476 439.506 338.134 439.998 338.989C440.495 339.839 440.747 340.84 440.751 341.994C440.756 343.153 440.51 344.151 440.013 344.989C439.517 345.822 438.795 346.462 437.848 346.91C436.906 347.359 435.765 347.587 434.424 347.594L429.814 347.62L429.802 344.654L433.816 344.632C434.52 344.628 435.105 344.528 435.57 344.332C436.035 344.137 436.381 343.845 436.607 343.457C436.838 343.07 436.953 342.589 436.95 342.015C436.948 341.435 436.829 340.947 436.595 340.551C436.366 340.154 436.015 339.855 435.543 339.653C435.076 339.446 434.488 339.344 433.778 339.348L431.289 339.362L431.347 353.799L427.657 353.82ZM437.051 345.824L441.421 353.743L437.347 353.766L433.071 345.846L437.051 345.824ZM442.684 339.324L442.672 336.281L457.007 336.201L457.019 339.243L451.675 339.273L451.733 353.685L448.085 353.705L448.027 339.294L442.684 339.324ZM468.001 353.594L464.046 353.616L470.001 336.128L474.757 336.101L480.844 353.522L476.89 353.544L472.463 340.103L472.327 340.103L468.001 353.594ZM467.726 346.734L477.067 346.682L477.078 349.563L467.737 349.615L467.726 346.734ZM413.743 370.464C413.672 369.777 413.377 369.244 412.859 368.866C412.34 368.489 411.638 368.302 410.751 368.307C410.149 368.31 409.641 368.399 409.227 368.571C408.813 368.738 408.496 368.97 408.275 369.267C408.06 369.564 407.954 369.899 407.955 370.274C407.945 370.587 408.012 370.859 408.155 371.092C408.303 371.324 408.506 371.524 408.762 371.693C409.018 371.857 409.315 372 409.65 372.123C409.986 372.24 410.344 372.341 410.725 372.424L412.295 372.79C413.057 372.956 413.757 373.18 414.394 373.46C415.032 373.741 415.584 374.087 416.052 374.499C416.519 374.911 416.882 375.398 417.14 375.959C417.404 376.52 417.54 377.164 417.548 377.891C417.547 378.959 417.278 379.887 416.741 380.674C416.211 381.456 415.44 382.065 414.431 382.503C413.427 382.934 412.214 383.154 410.794 383.162C409.385 383.17 408.157 382.961 407.11 382.535C406.068 382.109 405.253 381.474 404.665 380.631C404.082 379.782 403.773 378.73 403.74 377.474L407.311 377.454C407.353 378.039 407.523 378.527 407.82 378.917C408.122 379.302 408.524 379.592 409.025 379.789C409.531 379.979 410.103 380.072 410.739 380.069C411.364 380.065 411.906 379.971 412.366 379.787C412.831 379.602 413.191 379.348 413.445 379.022C413.699 378.697 413.826 378.324 413.824 377.904C413.823 377.512 413.705 377.183 413.471 376.917C413.242 376.651 412.906 376.426 412.462 376.241C412.024 376.056 411.486 375.888 410.849 375.738L408.947 375.272C407.474 374.922 406.31 374.369 405.454 373.612C404.599 372.856 404.172 371.833 404.172 370.543C404.162 369.486 404.44 368.561 405.005 367.768C405.576 366.975 406.36 366.354 407.358 365.906C408.356 365.457 409.492 365.229 410.765 365.222C412.06 365.214 413.192 365.43 414.159 365.867C415.133 366.305 415.891 366.917 416.434 367.704C416.977 368.491 417.259 369.404 417.28 370.444L413.743 370.464ZM423.671 365.388L423.741 382.842L420.051 382.863L419.981 365.409L423.671 365.388ZM432.965 382.791L426.777 382.825L426.707 365.371L432.946 365.336C434.701 365.326 436.214 365.667 437.484 366.359C438.754 367.045 439.732 368.037 440.419 369.334C441.112 370.631 441.462 372.186 441.469 373.999C441.476 375.817 441.139 377.381 440.457 378.692C439.78 380.002 438.804 381.011 437.528 381.717C436.259 382.423 434.737 382.781 432.965 382.791ZM430.455 379.643L432.798 379.63C433.889 379.624 434.806 379.425 435.549 379.035C436.297 378.638 436.857 378.03 437.229 377.21C437.606 376.384 437.793 375.32 437.787 374.019C437.782 372.729 437.588 371.677 437.204 370.86C436.825 370.044 436.263 369.445 435.517 369.063C434.772 368.681 433.853 368.493 432.762 368.499L430.41 368.512L430.455 379.643ZM444.238 382.727L444.168 365.273L455.929 365.207L455.941 368.25L447.87 368.295L447.887 372.454L455.353 372.412L455.365 375.455L447.899 375.497L447.916 379.664L456.021 379.619L456.033 382.661L444.238 382.727ZM384.004 412.066L383.934 394.611L387.624 394.591L387.653 401.792L395.144 401.75L395.115 394.549L398.797 394.528L398.867 411.982L395.185 412.003L395.156 404.793L387.665 404.835L387.694 412.045L384.004 412.066ZM412.621 394.45L416.311 394.43L416.357 405.765C416.362 407.038 416.062 408.153 415.458 409.111C414.86 410.069 414.019 410.818 412.936 411.358C411.853 411.892 410.59 412.164 409.146 412.172C407.698 412.18 406.43 411.923 405.342 411.401C404.255 410.873 403.408 410.133 402.802 409.182C402.196 408.231 401.89 407.119 401.885 405.846L401.84 394.511L405.53 394.49L405.574 405.51C405.577 406.175 405.724 406.765 406.016 407.28C406.314 407.796 406.73 408.2 407.265 408.492C407.8 408.784 408.423 408.929 409.133 408.925C409.849 408.921 410.471 408.769 410.998 408.471C411.531 408.173 411.941 407.764 412.229 407.245C412.522 406.727 412.668 406.135 412.665 405.47L412.621 394.45ZM428.836 399.379C428.765 398.692 428.47 398.16 427.952 397.782C427.433 397.404 426.731 397.218 425.844 397.223C425.242 397.226 424.734 397.314 424.32 397.487C423.906 397.654 423.588 397.886 423.368 398.183C423.153 398.479 423.047 398.815 423.048 399.19C423.038 399.503 423.105 399.775 423.248 400.007C423.396 400.239 423.599 400.44 423.855 400.609C424.111 400.772 424.407 400.916 424.743 401.039C425.079 401.156 425.437 401.256 425.818 401.34L427.388 401.706C428.15 401.872 428.85 402.095 429.487 402.376C430.125 402.656 430.677 403.003 431.145 403.415C431.612 403.827 431.975 404.314 432.233 404.875C432.497 405.436 432.633 406.08 432.641 406.807C432.64 407.875 432.371 408.803 431.834 409.59C431.303 410.371 430.533 410.981 429.524 411.418C428.52 411.85 427.307 412.07 425.887 412.078C424.478 412.086 423.25 411.877 422.203 411.451C421.161 411.025 420.346 410.39 419.757 409.547C419.174 408.698 418.866 407.646 418.833 406.39L422.404 406.37C422.446 406.955 422.615 407.443 422.912 407.833C423.215 408.218 423.617 408.508 424.118 408.704C424.624 408.895 425.196 408.988 425.832 408.984C426.457 408.981 426.999 408.887 427.459 408.703C427.924 408.518 428.284 408.263 428.538 407.938C428.792 407.613 428.919 407.24 428.917 406.819C428.915 406.427 428.798 406.098 428.564 405.833C428.335 405.567 427.999 405.342 427.555 405.157C427.117 404.972 426.579 404.804 425.942 404.654L424.04 404.188C422.567 403.838 421.403 403.285 420.547 402.528C419.692 401.772 419.265 400.748 419.265 399.459C419.255 398.402 419.533 397.477 420.098 396.684C420.668 395.891 421.453 395.27 422.451 394.821C423.449 394.373 424.585 394.145 425.857 394.138C427.153 394.13 428.284 394.345 429.252 394.783C430.225 395.221 430.984 395.833 431.527 396.62C432.07 397.407 432.352 398.32 432.373 399.36L428.836 399.379ZM434.421 397.371L434.409 394.328L448.744 394.248L448.756 397.29L443.412 397.32L443.47 411.732L439.823 411.753L439.765 397.341L434.421 397.371ZM451.175 411.689L451.104 394.235L454.795 394.214L454.853 408.626L462.336 408.584L462.348 411.626L451.175 411.689ZM464.792 411.613L464.721 394.158L476.483 394.092L476.495 397.135L468.424 397.18L468.441 401.339L475.906 401.297L475.919 404.34L468.453 404.382L468.47 408.549L476.575 408.504L476.587 411.546L464.792 411.613Z" fill="#4F378A"/>
<path d="M382.762 470.613C341.19 470.896 264.003 512.442 264.003 512.442L470.74 511.689C470.74 511.689 424.666 470.326 382.762 470.613Z" fill="#6D5BA6"/>
<path d="M813.004 951.365H610.782C610.782 951.365 593.229 712.451 701.001 698.01C847.504 678.38 813.004 951.365 813.004 951.365Z" fill="#A89FE3"/>
<path d="M793.504 951.365H597.502C597.502 951.365 574.502 698.01 708.502 698.01C819.928 698.01 793.504 951.365 793.504 951.365Z" fill="#D6CFFF"/>
<path d="M667.714 832.561L667.675 815.106L671.365 815.092L671.397 829.504L678.88 829.475L678.887 832.518L667.714 832.561ZM681.331 832.509L681.292 815.054L693.053 815.009L693.06 818.052L684.989 818.083L684.999 822.242L692.464 822.213L692.471 825.256L685.005 825.284L685.015 829.452L693.12 829.421L693.126 832.464L681.331 832.509ZM699.035 832.441L695.08 832.456L701.067 814.979L705.823 814.961L711.878 832.392L707.924 832.407L703.522 818.958L703.385 818.959L699.035 832.441ZM698.772 825.581L708.113 825.546L708.12 828.426L698.779 828.462L698.772 825.581ZM713.979 832.384L713.94 814.93L720.827 814.903C722.145 814.898 723.27 815.13 724.203 815.598C725.142 816.06 725.856 816.719 726.347 817.575C726.843 818.426 727.092 819.428 727.095 820.581C727.098 821.74 726.85 822.738 726.352 823.575C725.854 824.407 725.131 825.046 724.183 825.493C723.24 825.94 722.099 826.166 720.758 826.171L716.147 826.188L716.141 823.222L720.155 823.207C720.859 823.204 721.444 823.106 721.91 822.911C722.375 822.716 722.721 822.425 722.948 822.037C723.18 821.65 723.295 821.17 723.294 820.596C723.293 820.016 723.175 819.528 722.941 819.131C722.713 818.734 722.363 818.434 721.891 818.232C721.425 818.023 720.836 817.92 720.126 817.923L717.637 817.933L717.67 832.37L713.979 832.384ZM723.388 824.405L727.743 832.332L723.67 832.347L719.408 824.42L723.388 824.405ZM744.29 814.814L744.328 832.268L741.141 832.28L733.523 821.324L733.395 821.324L733.419 832.31L729.729 832.324L729.69 814.87L732.929 814.857L740.487 825.806L740.641 825.805L740.616 814.828L744.29 814.814ZM657.33 849.788C657.21 849.374 657.041 849.008 656.825 848.69C656.608 848.367 656.343 848.096 656.03 847.875C655.723 847.649 655.37 847.477 654.972 847.359C654.58 847.242 654.145 847.184 653.668 847.185C652.776 847.189 651.992 847.413 651.317 847.859C650.648 848.305 650.127 848.952 649.753 849.8C649.38 850.642 649.195 851.671 649.198 852.887C649.201 854.103 649.387 855.137 649.759 855.987C650.13 856.838 650.654 857.487 651.331 857.933C652.008 858.374 652.807 858.592 653.728 858.589C654.563 858.586 655.276 858.435 655.866 858.137C656.462 857.834 656.915 857.409 657.227 856.862C657.544 856.316 657.701 855.67 657.7 854.926L658.45 855.034L653.95 855.051L653.944 852.273L661.248 852.245L661.252 854.443C661.256 855.978 660.935 857.297 660.29 858.402C659.644 859.501 658.754 860.351 657.619 860.952C656.484 861.547 655.184 861.847 653.718 861.853C652.081 861.859 650.643 861.504 649.403 860.787C648.163 860.065 647.194 859.037 646.498 857.704C645.808 856.366 645.461 854.777 645.456 852.936C645.453 851.521 645.655 850.259 646.062 849.149C646.474 848.034 647.051 847.089 647.794 846.313C648.537 845.537 649.402 844.946 650.389 844.539C651.377 844.132 652.448 843.926 653.601 843.922C654.59 843.918 655.511 844.059 656.363 844.346C657.216 844.626 657.973 845.027 658.633 845.547C659.299 846.067 659.843 846.687 660.265 847.407C660.687 848.122 660.959 848.91 661.08 849.774L657.33 849.788ZM664.04 861.575L664.001 844.12L675.763 844.076L675.77 847.118L667.699 847.149L667.708 851.308L675.174 851.28L675.18 854.322L667.715 854.351L667.724 858.518L675.829 858.487L675.836 861.53L664.04 861.575ZM678.736 861.519L678.697 844.064L685.583 844.038C686.901 844.033 688.027 844.265 688.96 844.733C689.898 845.195 690.613 845.854 691.103 846.71C691.599 847.561 691.849 848.562 691.851 849.716C691.854 850.875 691.606 851.873 691.108 852.71C690.61 853.542 689.887 854.181 688.939 854.628C687.997 855.074 686.855 855.3 685.514 855.305L680.904 855.323L680.897 852.357L684.911 852.342C685.616 852.339 686.201 852.24 686.666 852.045C687.132 851.85 687.478 851.559 687.704 851.172C687.936 850.785 688.051 850.304 688.05 849.73C688.049 849.151 687.931 848.663 687.698 848.266C687.469 847.869 687.119 847.569 686.647 847.366C686.181 847.158 685.593 847.055 684.882 847.058L682.394 847.067L682.426 861.505L678.736 861.519ZM688.144 853.54L692.5 861.466L688.426 861.482L684.164 853.555L688.144 853.54ZM694.447 844.004L698.998 843.987L703.831 855.696L704.035 855.695L708.816 843.949L713.367 843.932L713.406 861.386L709.826 861.4L709.801 850.039L709.656 850.04L705.164 861.333L702.727 861.342L698.184 850.041L698.04 850.042L698.065 861.445L694.485 861.459L694.447 844.004ZM719.455 861.363L715.5 861.379L721.487 843.901L726.242 843.883L732.298 861.314L728.344 861.329L723.942 847.88L723.805 847.881L719.455 861.363ZM719.192 854.504L728.533 854.468L728.54 857.349L719.199 857.384L719.192 854.504ZM748.96 843.796L748.999 861.251L745.811 861.263L738.193 850.306L738.065 850.307L738.09 861.292L734.399 861.306L734.36 843.852L737.599 843.839L745.157 854.788L745.311 854.787L745.286 843.81L748.96 843.796ZM750.986 843.788L755.119 843.773L759.116 851.274L759.287 851.274L763.25 843.742L767.384 843.726L761.042 855.034L761.056 861.205L757.391 861.219L757.377 855.048L750.986 843.788Z" fill="#4F378A"/>
<path d="M595.758 913.613C554.186 913.896 476.999 955.442 476.999 955.442L683.736 954.689C683.736 954.689 637.662 913.326 595.758 913.613Z" fill="#6D5BA6"/>
<path d="M740.758 915.613C699.186 915.896 621.999 957.442 621.999 957.442L828.736 956.689C828.736 956.689 782.662 915.326 740.758 915.613Z" fill="#6D5BA6"/>
<path d="M1136.68 802.689L940.281 792.093C940.281 792.093 945.174 592.234 1053.51 592.234C1221.25 592.234 1136.68 802.689 1136.68 802.689Z" fill="#A89FE3"/>
<path d="M1123.4 802.689L927 792.093C927 792.093 939.93 604.291 1040.23 592.234C1206.87 572.201 1123.4 802.689 1123.4 802.689Z" fill="#D6CFFF"/>
<path d="M1011.94 683.515C1011.98 682.825 1011.77 682.252 1011.32 681.797C1010.86 681.341 1010.2 681.045 1009.32 680.909C1008.73 680.817 1008.21 680.823 1007.78 680.928C1007.34 681.027 1006.99 681.205 1006.73 681.463C1006.47 681.722 1006.31 682.037 1006.25 682.407C1006.19 682.714 1006.22 682.994 1006.32 683.246C1006.43 683.499 1006.6 683.729 1006.83 683.937C1007.05 684.139 1007.32 684.327 1007.64 684.502C1007.95 684.672 1008.29 684.828 1008.65 684.97L1010.14 685.582C1010.87 685.867 1011.52 686.199 1012.11 686.577C1012.69 686.956 1013.19 687.385 1013.58 687.867C1013.98 688.348 1014.26 688.886 1014.43 689.481C1014.6 690.077 1014.63 690.735 1014.53 691.455C1014.36 692.509 1013.94 693.383 1013.29 694.075C1012.64 694.762 1011.79 695.241 1010.72 695.513C1009.66 695.779 1008.43 695.804 1007.03 695.586C1005.63 695.369 1004.45 694.968 1003.49 694.381C1002.53 693.794 1001.82 693.038 1001.37 692.112C1000.93 691.18 1000.79 690.092 1000.96 688.847L1004.49 689.395C1004.44 689.98 1004.53 690.488 1004.76 690.921C1005 691.349 1005.35 691.7 1005.81 691.973C1006.28 692.241 1006.83 692.424 1007.46 692.522C1008.08 692.618 1008.63 692.611 1009.11 692.502C1009.6 692.394 1009.99 692.2 1010.3 691.919C1010.6 691.638 1010.78 691.29 1010.85 690.875C1010.91 690.487 1010.84 690.144 1010.65 689.844C1010.47 689.545 1010.17 689.269 1009.76 689.016C1009.36 688.764 1008.86 688.513 1008.25 688.263L1006.45 687.5C1005.05 686.921 1003.98 686.189 1003.26 685.306C1002.53 684.423 1002.27 683.344 1002.48 682.071C1002.63 681.026 1003.05 680.156 1003.73 679.463C1004.42 678.771 1005.3 678.283 1006.35 677.998C1007.41 677.714 1008.56 677.669 1009.82 677.864C1011.1 678.063 1012.19 678.456 1013.07 679.042C1013.96 679.629 1014.62 680.354 1015.03 681.217C1015.44 682.081 1015.58 683.027 1015.43 684.057L1011.94 683.515ZM1017.77 682.419L1018.23 679.413L1032.4 681.613L1031.93 684.619L1026.65 683.799L1024.44 698.04L1020.84 697.48L1023.05 683.239L1017.77 682.419ZM1032.92 699.357L1029.01 698.75L1037.64 682.427L1042.34 683.157L1045.61 701.329L1041.7 700.722L1039.45 686.744L1039.32 686.723L1032.92 699.357ZM1033.73 692.54L1042.96 693.973L1042.52 696.82L1033.29 695.386L1033.73 692.54ZM1047.69 701.651L1050.37 684.403L1057.17 685.46C1058.47 685.662 1059.55 686.068 1060.4 686.677C1061.25 687.281 1061.86 688.045 1062.21 688.968C1062.56 689.886 1062.65 690.915 1062.48 692.054C1062.3 693.2 1061.9 694.147 1061.28 694.895C1060.66 695.638 1059.84 696.156 1058.84 696.448C1057.84 696.741 1056.67 696.785 1055.35 696.579L1050.79 695.872L1051.25 692.941L1055.21 693.557C1055.91 693.665 1056.5 693.659 1056.99 693.54C1057.48 693.421 1057.87 693.188 1058.15 692.841C1058.44 692.495 1058.63 692.038 1058.72 691.471C1058.81 690.898 1058.77 690.398 1058.6 689.969C1058.44 689.541 1058.14 689.19 1057.7 688.915C1057.28 688.636 1056.71 688.442 1056.01 688.333L1053.55 687.951L1051.33 702.217L1047.69 701.651ZM1058.22 695.249L1061.29 703.764L1057.26 703.138L1054.29 694.638L1058.22 695.249ZM1064.81 689.725L1065.27 686.719L1079.44 688.919L1078.97 691.925L1073.69 691.105L1071.48 705.346L1067.87 704.786L1070.09 690.545L1064.81 689.725ZM1087.55 707.843L1083.65 707.236L1092.28 690.913L1096.98 691.643L1100.25 709.814L1096.34 709.207L1094.08 695.23L1093.95 695.209L1087.55 707.843ZM1088.36 701.026L1097.59 702.459L1097.15 705.306L1087.92 703.872L1088.36 701.026ZM996.222 723.005L998.901 705.757L1005.81 706.83C1007.08 707.027 1008.1 707.379 1008.89 707.887C1009.68 708.395 1010.24 709.016 1010.56 709.751C1010.89 710.479 1010.98 711.276 1010.85 712.141C1010.74 712.815 1010.52 713.386 1010.17 713.855C1009.82 714.318 1009.38 714.676 1008.86 714.929C1008.35 715.176 1007.78 715.321 1007.15 715.362L1007.13 715.531C1007.78 715.661 1008.37 715.942 1008.89 716.373C1009.41 716.805 1009.81 717.358 1010.07 718.032C1010.33 718.699 1010.4 719.457 1010.27 720.305C1010.13 721.22 1009.77 722.002 1009.21 722.65C1008.65 723.293 1007.89 723.754 1006.95 724.033C1006 724.311 1004.88 724.35 1003.59 724.15L996.222 723.005ZM1000.33 720.59L1003.3 721.052C1004.32 721.21 1005.09 721.131 1005.62 720.816C1006.14 720.495 1006.46 720.009 1006.56 719.358C1006.63 718.881 1006.58 718.442 1006.41 718.041C1006.24 717.641 1005.95 717.303 1005.56 717.029C1005.17 716.756 1004.68 716.574 1004.1 716.484L1001.04 716.009L1000.33 720.59ZM1001.43 713.541L1004.13 713.961C1004.63 714.039 1005.09 714.02 1005.5 713.907C1005.92 713.788 1006.27 713.583 1006.54 713.293C1006.83 713.003 1007 712.63 1007.07 712.176C1007.17 711.552 1007.03 711.015 1006.64 710.565C1006.26 710.115 1005.67 709.827 1004.86 709.702L1002.09 709.271L1001.43 713.541ZM1025.23 709.847L1028.88 710.414L1027.14 721.615C1026.94 722.872 1026.47 723.926 1025.73 724.776C1024.98 725.627 1024.04 726.233 1022.88 726.594C1021.73 726.95 1020.44 727.017 1019.01 726.795C1017.58 726.573 1016.37 726.117 1015.38 725.428C1014.39 724.734 1013.67 723.869 1013.22 722.833C1012.77 721.798 1012.64 720.651 1012.84 719.394L1014.58 708.193L1018.23 708.759L1016.54 719.648C1016.43 720.305 1016.49 720.911 1016.69 721.467C1016.91 722.023 1017.25 722.488 1017.74 722.862C1018.22 723.236 1018.81 723.477 1019.51 723.586C1020.22 723.696 1020.86 723.646 1021.42 723.435C1022 723.225 1022.47 722.887 1022.83 722.42C1023.2 721.955 1023.44 721.394 1023.54 720.737L1025.23 709.847ZM1040.47 717.293C1040.5 716.604 1040.3 716.031 1039.84 715.575C1039.39 715.12 1038.73 714.824 1037.85 714.688C1037.26 714.596 1036.74 714.602 1036.31 714.707C1035.87 714.806 1035.52 714.984 1035.26 715.242C1035 715.501 1034.84 715.816 1034.78 716.186C1034.72 716.493 1034.75 716.773 1034.85 717.025C1034.96 717.278 1035.13 717.508 1035.36 717.716C1035.58 717.918 1035.85 718.106 1036.16 718.281C1036.48 718.451 1036.82 718.607 1037.18 718.749L1038.67 719.36C1039.4 719.646 1040.05 719.978 1040.64 720.356C1041.22 720.734 1041.71 721.164 1042.11 721.646C1042.51 722.127 1042.79 722.665 1042.95 723.26C1043.13 723.856 1043.16 724.514 1043.05 725.233C1042.88 726.288 1042.47 727.161 1041.82 727.853C1041.17 728.541 1040.32 729.02 1039.25 729.291C1038.19 729.558 1036.96 729.583 1035.56 729.365C1034.16 729.148 1032.98 728.747 1032.02 728.159C1031.06 727.573 1030.35 726.817 1029.9 725.89C1029.46 724.959 1029.32 723.871 1029.49 722.626L1033.02 723.174C1032.96 723.758 1033.06 724.267 1033.29 724.7C1033.53 725.128 1033.88 725.478 1034.34 725.752C1034.81 726.02 1035.36 726.203 1035.99 726.301C1036.61 726.397 1037.16 726.39 1037.64 726.281C1038.13 726.173 1038.52 725.979 1038.82 725.698C1039.13 725.417 1039.31 725.069 1039.37 724.653C1039.44 724.266 1039.37 723.923 1039.18 723.623C1039 723.324 1038.7 723.048 1038.29 722.795C1037.89 722.542 1037.38 722.292 1036.78 722.042L1034.97 721.279C1033.57 720.699 1032.51 719.968 1031.79 719.085C1031.06 718.202 1030.8 717.123 1031 715.85C1031.16 714.805 1031.58 713.935 1032.26 713.242C1032.95 712.55 1033.82 712.061 1034.88 711.777C1035.94 711.492 1037.09 711.448 1038.35 711.643C1039.63 711.842 1040.71 712.235 1041.6 712.821C1042.49 713.408 1043.14 714.133 1043.56 714.996C1043.97 715.86 1044.1 716.806 1043.96 717.836L1040.47 717.293ZM1051.07 713.86L1048.39 731.108L1044.74 730.541L1047.42 713.293L1051.07 713.86ZM1068.49 716.567L1065.81 733.814L1062.67 733.325L1056.85 721.304L1056.72 721.284L1055.03 732.14L1051.39 731.574L1054.07 714.326L1057.27 714.823L1063.03 726.826L1063.18 726.85L1064.86 716.003L1068.49 716.567ZM1068.83 734.282L1071.51 717.035L1083.13 718.84L1082.66 721.846L1074.69 720.608L1074.05 724.717L1081.43 725.863L1080.96 728.87L1073.58 727.724L1072.94 731.842L1080.95 733.086L1080.48 736.093L1068.83 734.282ZM1094.61 725.704C1094.65 725.014 1094.44 724.441 1093.99 723.986C1093.54 723.53 1092.88 723.234 1092 723.098C1091.4 723.006 1090.89 723.012 1090.45 723.117C1090.02 723.216 1089.67 723.395 1089.4 723.652C1089.15 723.911 1088.99 724.226 1088.93 724.597C1088.87 724.904 1088.89 725.183 1089 725.435C1089.11 725.688 1089.28 725.918 1089.5 726.126C1089.73 726.328 1090 726.517 1090.31 726.691C1090.62 726.861 1090.96 727.017 1091.33 727.159L1092.82 727.771C1093.54 728.056 1094.2 728.388 1094.79 728.766C1095.37 729.145 1095.86 729.575 1096.26 730.056C1096.65 730.537 1096.94 731.075 1097.1 731.671C1097.27 732.267 1097.31 732.924 1097.2 733.644C1097.03 734.698 1096.62 735.572 1095.97 736.264C1095.32 736.951 1094.46 737.43 1093.4 737.702C1092.34 737.968 1091.11 737.993 1089.7 737.775C1088.31 737.559 1087.13 737.157 1086.16 736.57C1085.2 735.983 1084.5 735.227 1084.05 734.301C1083.61 733.37 1083.47 732.281 1083.63 731.036L1087.16 731.584C1087.11 732.169 1087.2 732.677 1087.43 733.11C1087.67 733.538 1088.02 733.889 1088.49 734.162C1088.96 734.43 1089.51 734.614 1090.14 734.711C1090.75 734.807 1091.3 734.801 1091.79 734.692C1092.27 734.583 1092.67 734.389 1092.97 734.108C1093.27 733.827 1093.46 733.479 1093.52 733.064C1093.58 732.676 1093.52 732.333 1093.33 732.033C1093.15 731.734 1092.85 731.458 1092.44 731.205C1092.04 730.953 1091.53 730.702 1090.93 730.453L1089.12 729.689C1087.72 729.11 1086.66 728.378 1085.93 727.495C1085.21 726.612 1084.95 725.534 1085.15 724.26C1085.31 723.215 1085.73 722.346 1086.41 721.652C1087.1 720.96 1087.97 720.472 1089.03 720.187C1090.08 719.903 1091.24 719.858 1092.5 720.054C1093.78 720.252 1094.86 720.645 1095.75 721.231C1096.64 721.818 1097.29 722.543 1097.7 723.407C1098.12 724.27 1098.25 725.216 1098.11 726.247L1094.61 725.704ZM1110.15 728.117C1110.19 727.428 1109.99 726.855 1109.53 726.399C1109.08 725.944 1108.42 725.648 1107.54 725.512C1106.94 725.42 1106.43 725.426 1105.99 725.531C1105.56 725.63 1105.21 725.808 1104.94 726.066C1104.69 726.325 1104.53 726.64 1104.47 727.01C1104.41 727.317 1104.43 727.597 1104.54 727.849C1104.65 728.102 1104.82 728.332 1105.04 728.54C1105.27 728.742 1105.54 728.93 1105.85 729.105C1106.17 729.275 1106.5 729.431 1106.87 729.573L1108.36 730.184C1109.08 730.47 1109.74 730.802 1110.33 731.18C1110.91 731.558 1111.4 731.988 1111.8 732.47C1112.19 732.951 1112.48 733.489 1112.64 734.084C1112.81 734.68 1112.85 735.338 1112.74 736.058C1112.57 737.112 1112.16 737.985 1111.51 738.677C1110.86 739.365 1110 739.844 1108.94 740.115C1107.88 740.382 1106.65 740.407 1105.24 740.189C1103.85 739.972 1102.67 739.571 1101.7 738.983C1100.74 738.397 1100.04 737.641 1099.59 736.714C1099.15 735.783 1099.01 734.695 1099.17 733.45L1102.7 733.998C1102.65 734.582 1102.74 735.091 1102.97 735.524C1103.21 735.952 1103.56 736.302 1104.03 736.576C1104.5 736.844 1105.05 737.027 1105.68 737.125C1106.29 737.221 1106.84 737.214 1107.33 737.105C1107.81 736.997 1108.21 736.803 1108.51 736.522C1108.81 736.241 1109 735.893 1109.06 735.477C1109.12 735.09 1109.06 734.747 1108.87 734.447C1108.69 734.148 1108.39 733.872 1107.98 733.619C1107.58 733.366 1107.07 733.116 1106.47 732.866L1104.66 732.103C1103.26 731.523 1102.2 730.792 1101.48 729.909C1100.75 729.026 1100.49 727.947 1100.69 726.674C1100.85 725.629 1101.27 724.759 1101.95 724.066C1102.64 723.374 1103.51 722.885 1104.57 722.601C1105.62 722.317 1106.78 722.272 1108.04 722.467C1109.32 722.666 1110.4 723.059 1111.29 723.645C1112.18 724.232 1112.83 724.957 1113.25 725.82C1113.66 726.684 1113.79 727.63 1113.65 728.66L1110.15 728.117Z" fill="#4F378A"/>
<path d="M988.758 765.613C947.186 765.896 869.999 807.442 869.999 807.442L1076.74 806.689C1076.74 806.689 1030.66 765.326 988.758 765.613Z" fill="#6D5BA6"/>
<path d="M1162.76 765.613C1121.19 765.896 1044 807.442 1044 807.442L1250.74 806.689C1250.74 806.689 1204.66 765.326 1162.76 765.613Z" fill="#6D5BA6"/>
<path d="M922.683 454.689L726.281 444.093C726.281 444.093 731.174 244.234 839.509 244.234C1007.25 244.234 922.683 454.689 922.683 454.689Z" fill="#A89FE3"/>
<path d="M909.402 454.689L713 444.093C713 444.093 725.93 256.291 826.228 244.234C992.875 224.201 909.402 454.689 909.402 454.689Z" fill="#D6CFFF"/>
<path d="M778.439 340.36C778.422 339.669 778.17 339.115 777.683 338.697C777.196 338.278 776.51 338.036 775.627 337.97C775.026 337.925 774.512 337.972 774.086 338.111C773.66 338.244 773.326 338.45 773.083 338.728C772.845 339.006 772.713 339.332 772.685 339.706C772.65 340.017 772.695 340.294 772.819 340.537C772.949 340.78 773.135 340.996 773.377 341.186C773.62 341.369 773.903 341.536 774.228 341.685C774.554 341.829 774.903 341.958 775.276 342.072L776.812 342.563C777.559 342.79 778.238 343.068 778.852 343.399C779.465 343.73 779.989 344.12 780.422 344.568C780.856 345.017 781.179 345.531 781.392 346.111C781.611 346.691 781.696 347.345 781.647 348.07C781.561 349.135 781.22 350.038 780.623 350.78C780.032 351.516 779.217 352.062 778.176 352.417C777.141 352.766 775.916 352.888 774.499 352.782C773.094 352.677 771.886 352.37 770.876 351.861C769.871 351.353 769.109 350.654 768.589 349.766C768.074 348.873 767.85 347.799 767.916 346.545L771.477 346.812C771.473 347.399 771.603 347.898 771.868 348.312C772.14 348.719 772.517 349.041 773.001 349.277C773.491 349.507 774.053 349.646 774.688 349.694C775.311 349.74 775.859 349.69 776.331 349.543C776.81 349.397 777.188 349.172 777.468 348.868C777.747 348.564 777.902 348.203 777.933 347.783C777.963 347.392 777.871 347.055 777.659 346.771C777.452 346.488 777.135 346.236 776.707 346.016C776.285 345.797 775.762 345.586 775.139 345.386L773.279 344.768C771.839 344.301 770.722 343.656 769.929 342.833C769.136 342.01 768.79 340.956 768.893 339.67C768.966 338.616 769.315 337.716 769.941 336.971C770.572 336.226 771.403 335.67 772.433 335.303C773.464 334.936 774.614 334.8 775.883 334.895C777.174 334.992 778.285 335.297 779.216 335.812C780.151 336.326 780.859 336.997 781.338 337.825C781.817 338.653 782.026 339.586 781.966 340.624L778.439 340.36ZM784.164 338.806L784.391 335.772L798.686 336.844L798.459 339.878L793.13 339.478L792.053 353.85L788.415 353.577L789.493 339.206L784.164 338.806ZM800.609 354.492L796.666 354.196L803.979 337.241L808.722 337.596L813.417 355.452L809.473 355.156L806.12 341.401L805.984 341.391L800.609 354.492ZM800.875 347.631L810.19 348.33L809.975 351.202L800.66 350.504L800.875 347.631ZM815.512 355.609L816.817 338.203L823.684 338.718C824.998 338.816 826.102 339.136 826.996 339.675C827.897 340.21 828.558 340.924 828.981 341.816C829.41 342.702 829.582 343.721 829.496 344.871C829.409 346.027 829.085 347.003 828.524 347.798C827.964 348.588 827.194 349.168 826.214 349.54C825.241 349.911 824.085 350.047 822.748 349.946L818.15 349.602L818.372 346.644L822.375 346.944C823.077 346.997 823.668 346.944 824.147 346.786C824.626 346.629 824.994 346.366 825.249 345.997C825.51 345.629 825.662 345.159 825.705 344.587C825.749 344.009 825.669 343.513 825.466 343.099C825.269 342.685 824.944 342.359 824.489 342.12C824.04 341.875 823.461 341.727 822.753 341.674L820.271 341.487L819.192 355.885L815.512 355.609ZM825.505 348.392L829.238 356.638L825.175 356.333L821.536 348.095L825.505 348.392ZM831.632 342.365L831.86 339.331L846.155 340.402L845.927 343.436L840.599 343.037L839.521 357.409L835.884 357.136L836.961 342.764L831.632 342.365ZM865.168 347.486C865.08 347.063 864.94 346.685 864.749 346.352C864.558 346.012 864.314 345.721 864.019 345.476C863.73 345.227 863.392 345.028 863.004 344.879C862.622 344.731 862.193 344.639 861.717 344.603C860.828 344.536 860.029 344.699 859.322 345.09C858.62 345.482 858.051 346.086 857.614 346.902C857.177 347.713 856.913 348.724 856.822 349.937C856.731 351.149 856.838 352.194 857.143 353.072C857.447 353.949 857.92 354.637 858.56 355.135C859.202 355.628 859.981 355.908 860.899 355.977C861.732 356.04 862.454 355.946 863.065 355.695C863.683 355.439 864.168 355.051 864.52 354.531C864.878 354.011 865.085 353.379 865.141 352.637L865.88 352.804L861.393 352.467L861.601 349.697L868.884 350.243L868.72 352.435C868.605 353.965 868.184 355.255 867.455 356.306C866.727 357.351 865.774 358.129 864.597 358.639C863.419 359.143 862.1 359.34 860.638 359.231C859.006 359.109 857.6 358.641 856.418 357.829C855.238 357.011 854.352 355.911 853.76 354.527C853.175 353.139 852.951 351.527 853.089 349.691C853.194 348.28 853.493 347.038 853.983 345.963C854.48 344.884 855.129 343.987 855.929 343.272C856.729 342.557 857.637 342.035 858.653 341.707C859.669 341.378 860.752 341.257 861.902 341.344C862.888 341.417 863.795 341.631 864.623 341.983C865.452 342.33 866.175 342.789 866.793 343.36C867.417 343.931 867.912 344.592 868.277 345.343C868.643 346.088 868.853 346.896 868.907 347.766L865.168 347.486ZM870.534 342.23L874.656 342.539L878.063 350.332L878.233 350.345L882.764 343.147L886.886 343.456L879.693 354.232L879.232 360.385L875.578 360.112L876.039 353.958L870.534 342.23ZM888.896 343.606L893.434 343.947L897.351 356L897.555 356.016L903.225 344.681L907.763 345.021L906.458 362.427L902.889 362.159L903.738 350.83L903.594 350.819L898.246 361.725L895.816 361.543L892.157 349.919L892.013 349.908L891.16 361.28L887.591 361.012L888.896 343.606Z" fill="#4F378A"/>
<path d="M801.758 436.613C760.186 436.896 682.999 478.442 682.999 478.442L889.736 477.689C889.736 477.689 843.662 436.326 801.758 436.613Z" fill="#6D5BA6"/>
<path d="M991.758 420.613C950.186 420.896 872.999 462.442 872.999 462.442L1079.74 461.689C1079.74 461.689 1033.66 420.326 991.758 420.613Z" fill="#6D5BA6"/>
<path d="M543.911 444.227C435.39 472.385 284.997 600.364 284.997 600.364L825.497 461.55C825.497 461.55 653.301 415.844 543.911 444.227Z" fill="#6D5BA6"/>
<path d="M170.098 471.302L149.48 468.907C149.48 468.907 145.532 474.938 152.46 492.408C159.388 509.877 164.151 522.495 164.151 522.495L177.657 549.336L191.931 570.08C191.931 570.08 207.484 592.199 200.985 605.741C199.603 608.62 218.732 624.896 220.709 621.772C222.686 618.648 222.644 605.758 218.66 602.798C216.518 597.027 215.154 591.856 215.154 591.856C215.154 591.856 192.788 547.293 189.962 530.533C186.767 511.592 184.257 513.51 183.961 503.996C183.664 494.481 170.098 471.302 170.098 471.302Z" fill="url(#paint0_linear_563_9064)"/>
<path d="M229.054 612.049C229.458 612.479 232.878 621.331 232.878 621.331C232.878 621.331 230.765 620.519 230.116 619.608C228.232 616.966 228.947 617.73 228.232 616.966C227.793 616.496 226.11 612.305 226.249 612.216" stroke="#422713"/>
<path d="M220.821 606.15C220.682 606.239 221.041 609.922 221.481 610.392C222.195 611.156 222.399 614.375 223.34 615.038C223.961 615.476 224.462 616.848 225.908 617.75C227.718 618.879 228.088 618 228.088 618C228.088 618 225.548 611.19 225.144 610.761L223.309 606.056" stroke="#422713"/>
<path d="M231.98 609.212C231.98 609.212 231.539 610.877 232.937 612.938C233.365 613.569 234.494 616.312 234.494 616.312C234.494 616.312 237.225 623.423 236.953 623.488C234.733 624.019 230.976 617.591 230.976 617.591C230.976 617.591 230.009 613.296 229.255 612.174L227.634 608.393" stroke="#422713"/>
<path d="M231.875 609.3C231.875 609.3 234.996 612.286 235.292 614.408C235.383 615.057 235.705 616.964 235.705 616.964C235.705 616.964 236.983 619.606 237.168 619.41C238.079 618.445 239.739 619.224 238.191 616.983C237.443 615.898 238.597 613.676 238.428 612.522C238.428 612.522 234.623 606.329 233.822 604.68" stroke="#422713"/>
<path d="M219.962 603.203L221.428 609.458C221.428 609.458 221.579 609.274 221.929 611.819C222.015 612.45 223.401 615.419 223.401 615.419C223.401 615.419 222.354 615.533 220.778 614.549C219.201 613.566 218.626 612.116 218.384 610.757L218.179 607.432L217.716 601.846" stroke="#422713"/>
<path d="M244.423 842.322C184.423 877.627 116.087 858.893 75.3608 893.012C17.2634 941.685 233.175 969.876 277.971 908.35C312.079 861.505 386.436 898.934 432.335 869.957C504.567 824.356 344.024 783.714 244.423 842.322Z" fill="#4F378A"/>
<path d="M191.59 424.474L199.991 391.035C199.991 391.035 208.806 392.855 216.794 392.855C224.783 392.855 233.597 403.164 233.597 403.164L229.997 424.474C229.997 424.474 218.881 431.667 210.793 431.667C202.706 431.667 191.59 424.474 191.59 424.474Z" fill="url(#paint1_linear_563_9064)"/>
<path d="M122.403 880.856C118.694 871.395 130.923 856.946 130.923 856.946C130.923 856.946 142.416 858.499 148.729 854.858C153.201 852.278 158.652 845.025 158.652 845.025L198.398 849.034C199.932 856.491 198.969 871.878 182.85 873.768L154.735 877.065C154.735 877.065 146.503 888.665 139.372 889.393C132.406 890.105 125.639 889.112 122.403 880.856Z" fill="black" stroke="black"/>
<path d="M299.334 830.312C293.371 822.32 301.469 804.783 301.469 804.783C301.469 804.783 312.914 802.852 318.061 797.47C321.708 793.657 325.111 785.059 325.111 785.059L364.343 777.071C367.707 783.784 370.679 798.866 355.659 805.486L329.462 817.033C329.462 817.033 324.485 830.64 317.813 833.465C311.295 836.224 304.538 837.286 299.334 830.312Z" fill="black" stroke="black"/>
<path d="M194.847 819.768C174.407 869.521 93.3957 876.832 86.5665 853.765C82.1265 838.768 105.078 769.71 110.39 753.727L110.558 753.222C127.36 702.658 149.579 623.746 149.579 623.746L223.376 623.746C223.376 623.746 197.257 708.988 187.613 738.254C182.854 752.698 201.979 802.408 194.847 819.768Z" fill="#4F378A"/>
<path d="M291.889 626.209L221.672 623.746C221.672 623.746 243.225 703.795 259.69 754.118C269.882 785.265 263.095 809.087 267.455 818.389C282.367 850.199 351.725 784.42 358.117 760.073C366.467 728.263 337.823 727.684 324.088 712.424C310.353 697.163 291.889 626.209 291.889 626.209Z" fill="#4F378A"/>
<path d="M149.578 624.36C149.578 624.36 160.372 578.752 168.879 568.953C174.985 561.92 275.122 564.17 277.304 575.11C280.135 589.303 292.063 626.207 292.063 626.207L149.578 624.36Z" fill="#4F378A"/>
<path d="M232.05 418.123C218.315 431.84 208.947 431.84 191.206 418.123C191.206 418.123 163.375 419.769 156.508 438.973C149.64 458.177 150.787 468.602 150.787 468.602H169.1C169.1 468.602 157.077 564.073 163.373 572.852C169.668 581.631 262.324 587.769 276.686 572.852C283.554 565.719 258.376 485.611 258.376 485.611L254.37 454.885C254.37 454.885 270.966 440.07 261.237 429.097C251.508 418.123 232.05 418.123 232.05 418.123Z" fill="#CBC1DC"/>
<path d="M244.569 438.044C238.126 448.678 243.064 473.27 243.064 473.27L270.739 474.66C270.739 474.66 277.753 450.669 272.245 439.435C268.753 432.314 264.288 427.842 258.884 427.57C253.48 427.298 248.653 431.304 244.569 438.044Z" fill="#4F378A"/>
<path d="M153.809 445.675C151.311 454.721 146.761 472.067 146.761 472.067L167.14 471.003C167.14 471.003 168.281 463.247 167.987 454.22C167.125 427.777 175.809 420.498 167.121 427.193C158.434 433.888 155.392 439.941 153.809 445.675Z" fill="#4F378A"/>
<path d="M270.307 473.403L243.246 473.403C243.246 473.403 243.361 503.867 245.14 515.894C248.309 537.308 264.055 555.107 264.055 555.107L286.608 591.408C286.608 591.408 286.784 600.23 282.315 615.18C281.027 619.487 294.529 631.024 300.258 620.388C305.988 609.753 303.191 607.981 303.191 607.981C303.191 607.981 294.502 553.003 282.802 537.907C272.912 525.146 271.651 525.822 272.379 513.815C273.108 501.809 270.307 473.403 270.307 473.403Z" fill="url(#paint2_linear_563_9064)"/>
<path d="M287.951 607.682C287.295 608.315 283.669 613.482 283.669 613.482C283.669 613.482 283.347 614.142 283.287 614.491C283.215 614.92 284.377 614.56 285.369 614.033C286.872 613.235 290.662 610.35 291.822 609.219C292.534 608.525 293.301 601.241 293.092 600.983" stroke="#422713"/>
<path d="M293.706 601.246C293.706 601.246 293.982 607.985 290.894 610.416C289.949 611.16 284.8 615.376 284.8 615.376C284.8 615.376 284.306 616.26 284.196 616.761C284.061 617.375 285.673 617.19 287.066 616.704C289.176 615.968 294.574 612.819 296.245 611.488" stroke="#422713"/>
<path d="M298.383 602.48C298.383 602.48 297.027 610.553 295.567 611.634C294.675 612.294 288.872 617.077 288.872 617.077C288.872 617.077 287.891 618.618 287.758 619.029C287.595 619.534 289.041 619.284 290.313 618.804C292.24 618.078 297.259 615.196 298.837 614.016" stroke="#422713"/>
<path d="M301.7 606.069C301.7 606.069 299.941 613.641 297.107 615.175C296.239 615.644 289.839 619.662 289.839 619.662C289.839 619.662 289.31 620.342 289.145 620.761C288.944 621.274 290.258 621.426 291.443 621.271C293.238 621.036 298.025 619.321 299.561 618.478C300.506 617.959 303.053 612.629 303.743 610.565" stroke="#422713"/>
<path d="M255.272 376.493C256.398 380.924 253.557 381.259 249.866 381.694C245.857 382.166 249.147 405.94 244.341 406.506C242.02 406.78 236.112 407.647 230.436 404.923C227.1 403.322 215.414 398.639 215.414 398.639C215.414 398.639 217.84 386.354 219.382 376.695C209.538 372.754 213.007 359.494 215.776 359.67C227.617 360.422 231.154 342.287 231.154 342.287C231.154 342.287 253.489 340.436 252.232 349.2C248.862 372.684 254.146 372.062 255.272 376.493Z" fill="url(#paint3_linear_563_9064)"/>
<path d="M248.178 360.323C249.65 360.387 251.56 360.47 249.714 358.91C247.324 356.89 244.512 356.656 243.858 356.758C242.867 356.913 242.432 357.637 241.499 358.041C241.499 358.041 240.841 359.682 240.939 360.008C241.037 360.334 240.224 361.874 240.867 361.654C241.51 361.433 244.293 359.618 244.82 359.641C248.201 359.788 247.172 360.279 248.178 360.323Z" fill="black" stroke="#422713"/>
<path d="M245.537 392.77C245.537 392.77 246.851 393.625 246.28 394.555C245.71 395.486 244.85 395.975 243.633 396.183C242.412 396.393 241.68 396.01 240.611 395.518C239.63 395.066 237.728 393.877 236.165 392.91C235.364 392.758 234.641 392.469 234.099 391.978C232.958 390.943 234.328 391.773 236.165 392.91C238.488 393.349 241.466 392.634 242.557 392.346C244.024 391.958 243.81 391.199 245.577 390.733C247.343 390.267 245.537 392.77 245.537 392.77Z" fill="#702739" stroke="#422713"/>
<path d="M244.826 369.677C242.116 369.743 242.37 368.74 242.97 366.367C243.571 363.994 244.613 362.262 245.297 362.498C245.981 362.734 246.048 364.849 245.447 367.222C244.847 369.595 244.826 369.677 244.826 369.677Z" fill="black"/>
<path d="M246.225 379.924C246.225 379.924 248.322 377.836 249.371 380.039" stroke="#422713"/>
<path d="M230.182 391.072C230.182 391.072 230.154 387.842 232.267 388.248" stroke="#422713"/>
<path d="M220.794 368.67C220.794 368.67 220.673 365.444 222.797 365.765" stroke="#422713"/>
<path d="M203.723 417.981C204.33 423.405 210.774 413.745 211.221 408.889C211.673 403.976 208.208 398.801 209.874 396.843L210.289 392.865C210.289 392.865 209.763 392.604 209.391 392.395C209.561 392.34 209.579 392.285 209.356 392.214C208.819 392.041 209.033 392.194 209.391 392.395C208.728 392.611 205.755 392.827 205.892 394.048C206.312 397.801 209.144 402.905 207.659 409.847C205.836 418.365 203.572 416.631 203.723 417.981Z" fill="black"/>
<path d="M183.507 392.026C182.151 402.817 187.541 409.42 190.125 420.564C193.437 434.847 177.072 403.036 181.644 383.991C183.02 378.259 191.159 365.039 195.079 361.36C197.489 359.099 206.492 363.596 204.21 362.938C201.928 362.281 206.125 364.275 206.125 364.275L196.85 368.995C193.165 373.512 184.88 381.107 183.507 392.026Z" fill="black"/>
<path d="M232.152 383.808C232.152 383.808 228.1 376.836 228.97 371.286C229.991 364.777 229.373 361.837 234.323 350.406L241.422 344.027C241.422 344.027 238.992 343.763 238.554 343.568C239.613 343.345 240.137 343.342 239.163 343.395C238.509 343.43 238.387 343.494 238.554 343.568C237.032 343.89 234.405 344.667 233.524 346.391C231.095 351.148 226.962 363.66 226.716 369.432C225.961 387.174 232.529 392.563 232.152 383.808Z" fill="black"/>
<path d="M179.464 367.209C178.108 378 183.498 384.602 186.082 395.747C189.394 410.03 173.029 378.218 177.601 359.173C178.977 353.441 187.116 340.221 191.037 336.542C193.446 334.281 202.449 338.778 200.167 338.121C197.885 337.464 202.082 339.458 202.082 339.458L192.807 344.177C189.122 348.695 180.837 356.29 179.464 367.209Z" fill="black"/>
<path d="M242.677 362.484C241.947 368.291 246.738 383.836 245.844 385.831C243.906 390.159 240.633 385.727 240.972 365.36C241.072 359.34 241.908 354.76 244.938 350.156C249.007 343.971 245.433 338.518 247.854 338.626C250.274 338.733 252.327 346.836 252.327 346.836L249.295 348.157C245.61 352.674 244.049 351.565 242.677 362.484Z" fill="black"/>
<path d="M222.183 391.909C225.419 398.091 223.657 403.243 224.601 410.506C225.812 419.813 228.525 397.103 221.502 386.672C219.388 383.533 211.526 377.386 208.341 376.04C206.384 375.213 201.975 379.897 203.201 378.999C204.427 378.102 202.348 380.224 202.348 380.224L208.988 381.015C212.219 382.917 218.908 385.653 222.183 391.909Z" fill="black"/>
<path d="M211.494 417.097C212.913 424.809 219.374 412.404 219.605 405.621C219.838 398.757 216.531 390.632 218.878 388.076L219.142 382.525C219.142 382.525 218.319 382.094 217.736 381.755C217.988 381.698 218.011 381.623 217.667 381.495C216.836 381.187 217.175 381.429 217.736 381.755C216.75 381.978 212.26 381.923 212.58 383.659C213.562 388.995 218.329 396.524 216.715 406.12C214.735 417.894 211.14 415.178 211.494 417.097Z" fill="black"/>
<path d="M191.329 401.501C191.099 408.284 195.449 413.001 198.088 420.37C201.471 429.814 187.446 407.962 189.426 396.188C190.022 392.644 194.983 384.924 197.558 382.926C199.141 381.698 205.955 385.396 204.261 384.768C202.568 384.139 205.737 385.798 205.737 385.798L199.367 387.974C197.019 390.53 191.563 394.637 191.329 401.501Z" fill="black"/>
<path d="M192.298 344.946C192.068 351.73 196.418 356.446 199.057 363.815C202.44 373.259 188.415 351.407 190.395 339.633C190.991 336.089 195.951 328.369 198.527 326.371C200.11 325.143 206.924 328.841 205.23 328.213C203.536 327.585 206.706 329.243 206.706 329.243L200.335 331.419C197.988 333.975 192.532 338.082 192.298 344.946Z" fill="black"/>
<path d="M199.767 405.163C199.536 411.946 203.886 416.663 206.526 424.032C209.909 433.476 195.883 411.624 197.864 399.85C198.46 396.306 203.42 388.586 205.996 386.588C207.579 385.36 214.392 389.058 212.699 388.43C211.005 387.802 214.174 389.46 214.174 389.46L207.804 391.636C205.457 394.192 200 398.299 199.767 405.163Z" fill="black"/>
<path d="M185.678 364.499C185.082 380.111 200.872 402.268 200.872 402.268C200.872 402.268 201.414 402.731 209.116 398.065C213.77 395.245 212.377 399.582 216.625 393.844C218.652 391.106 222.644 380.138 219.896 375.718C217.987 372.647 212.198 368.181 215.161 363.394C219.125 356.988 224.57 362.076 226.723 358.386C229.017 354.452 231.976 353.308 234.158 349.213C238.762 340.572 250.856 344.954 250.856 344.954C247.153 333.103 238.311 328.192 227.249 326.791C217.02 325.496 204.92 321.511 197.531 329.68C189.835 338.187 186.209 350.563 185.678 364.499Z" fill="black" stroke="black"/>
<path d="M545.73 626.921C520.056 642.441 490.433 633.605 473.072 648.707C448.306 670.249 541.7 684.222 560.641 656.819C575.062 635.954 607.406 653.234 627.033 640.476C657.921 620.4 588.35 601.159 545.73 626.921Z" fill="#4F378A"/>
<path d="M614.875 464.463C583.198 459.57 563.218 446.085 556.896 440.504C550.574 434.923 536.191 437.409 525.454 436.703C514.716 435.997 495.7 412.856 456.896 469.428C456.896 469.428 478.103 512.876 476.051 526.231C473.999 539.587 464.111 566.174 485.69 576.297C507.269 586.419 531.328 586.618 556.481 556.319C581.634 526.02 552.288 474.738 563.048 474.815C573.808 474.893 605.981 491.192 615.072 493.117C624.163 495.042 670.531 479.526 670.531 479.526C670.531 479.526 696.038 499.034 702.216 465.096C706.495 441.588 679.32 448.27 670.352 453.536C653.061 463.689 646.552 469.356 614.875 464.463Z" fill="#4F378A"/>
<path d="M567.671 370.035C568.161 362.155 565.61 359.281 559.478 352.445C553.346 345.609 541.66 342.096 523.463 345.917C505.266 349.739 500.838 357.296 494.676 365.853C488.515 374.41 487.9 388.975 488.364 396.385C489.084 407.888 496.669 420.175 501.692 424.195C506.715 428.216 512.206 431.564 518.308 433.755C532.379 438.807 546.021 434.173 550.439 433.202C554.857 432.231 558.31 432.276 559.821 428.166C561.499 423.601 561.148 420.033 557.413 416.694C548.629 408.84 538.901 415.547 527.356 414.831C519.212 414.326 511.991 400.061 515.065 386.165C518.713 369.672 531.014 367.058 537.603 368.514C544.191 369.969 549.484 372.484 552.639 374.817C559.834 380.138 567.182 377.916 567.671 370.035Z" fill="#4F378A"/>
<path d="M526.553 363.001C537.354 358.698 553.87 358.947 561.795 367.45C567.7 373.785 567.976 389.447 565.888 397.851C563.753 406.441 559.394 414.978 551.155 418.221C540.609 422.373 520.503 418.029 516.006 407.63C511.999 398.363 512.196 395.272 512.724 383.25C513.065 375.496 519.34 365.875 526.553 363.001Z" fill="#A89FE3"/>
<path d="M556.463 383.937C556.836 385.126 560.238 385.071 560.411 383.406C560.585 381.74 559.274 373.612 557.035 373.914C554.796 374.215 556.09 382.748 556.463 383.937Z" fill="black"/>
<path d="M533.334 385.215C533.707 386.404 537.109 386.349 537.283 384.683C537.456 383.017 536.145 374.89 533.906 375.191C531.667 375.493 532.961 384.025 533.334 385.215Z" fill="black"/>
<path d="M515.515 348.105C517.371 350.816 540.941 348.605 543.156 344.384C545.371 340.162 541.259 320.878 525.586 322.988C509.913 325.098 513.659 345.394 515.515 348.105Z" fill="#4F378A"/>
<path d="M549.973 382.116C549.385 384.91 549.299 387.788 549.506 390.733C549.649 392.774 550.965 396.762 550.049 398.462C549.134 400.163 543.203 398.944 543.203 398.944" stroke="black" stroke-linecap="round"/>
<path d="M546.33 410.875C550.264 410.783 554.957 405.452 554.957 405.452C554.957 405.452 552.263 415.864 547.323 416.032C542.791 416.185 538.697 407.641 538.697 407.641C538.697 407.641 543.149 410.95 546.33 410.875Z" stroke="black"/>
<path d="M495.083 446.006L490.724 440.675C488.719 438.225 485.245 437.855 482.786 439.831L459.078 458.88C445.203 470.029 443.474 491.354 455.37 504.618L475.304 526.846C477.528 529.325 481.253 529.395 483.476 526.878C487.258 522.595 491.965 516.657 489.832 515.797C483.441 513.219 465.696 486.469 470.205 484.389C477.996 480.796 486.826 473.904 493.596 468.026C499.996 462.469 500.456 452.575 495.083 446.006Z" fill="#4F378A"/>
<path d="M485.367 441.025C485.367 441.025 496.425 447.825 500.327 455.568C505.319 465.475 488.676 470.462 483.278 477.866C476.279 487.465 478.713 499.716 484.141 505.128C489.569 510.54 500.939 511.409 511.993 516.163C520.565 519.849 522.9 502.148 532.298 501.273C541.697 500.397 563.734 505.815 540.341 514.824C516.947 523.833 517.882 546.75 476.9 527.512" stroke="black"/>
<path d="M700.153 536L705.8 502H666L672.264 536H700.153Z" fill="#F4F1FF"/>
<path d="M672.746 542C666.568 542 672.746 536 672.746 536H700.027C700.027 536 706.717 542 700.027 542H672.746Z" fill="#A89FE3"/>
<path d="M672.496 483L667 501.5H704.5L697.297 483H672.496Z" fill="#A89FE3"/>
<path d="M683 536C683 536 683 530.16 686.938 520.815C687.932 518.458 688.382 516.844 688.569 515.925C688.587 514.712 688.823 514.671 688.569 515.925C688.547 517.347 688.826 520.377 690.547 524.82C692.079 536 689.235 536 689.235 536H683Z" fill="#E4CB0C"/>
<path d="M674 486C674 477.5 676.41 470 687.43 470C698.449 470 695.694 486 695.694 486" stroke="#A89FE3" stroke-width="2"/>
<defs>
<linearGradient id="paint0_linear_563_9064" x1="180.265" y1="558.197" x2="216.279" y2="400.051" gradientUnits="userSpaceOnUse">
<stop stop-color="#7E5334"/>
<stop offset="1" stop-color="#E4965E"/>
</linearGradient>
<linearGradient id="paint1_linear_563_9064" x1="210.793" y1="394.067" x2="210.793" y2="431.667" gradientUnits="userSpaceOnUse">
<stop stop-color="#7E5334"/>
<stop offset="1" stop-color="#E4965E"/>
</linearGradient>
<linearGradient id="paint2_linear_563_9064" x1="269.304" y1="576.129" x2="264.432" y2="365.128" gradientUnits="userSpaceOnUse">
<stop stop-color="#7E5334"/>
<stop offset="1" stop-color="#E4965E"/>
</linearGradient>
<linearGradient id="paint3_linear_563_9064" x1="242.718" y1="343.948" x2="91.1483" y2="533.025" gradientUnits="userSpaceOnUse">
<stop stop-color="#7E5334"/>
<stop offset="1" stop-color="#E4965E"/>
</linearGradient>
</defs>
</svg>
