<svg width="853" height="1000" viewBox="0 0 853 1000" fill="none" xmlns="http://www.w3.org/2000/svg">
<path fill-rule="evenodd" clip-rule="evenodd" d="M-7 -8H1433V1016H-7V-8ZM-4.75 -6.17143H170.75V136.457H-4.75V-6.17143ZM175.25 -6.17143H350.75V136.457H175.25V-6.17143ZM530.75 -6.17143H355.25V136.457H530.75V-6.17143ZM535.25 -6.17143H710.75V136.457H535.25V-6.17143ZM890.75 -6.17143H715.25V136.457H890.75V-6.17143ZM895.25 -6.17143H1070.75V136.457H895.25V-6.17143ZM1250.75 -6.17143H1075.25V136.457H1250.75V-6.17143ZM1255.25 -6.17143H1430.75V136.457H1255.25V-6.17143ZM170.75 140.114H-4.75V282.743H170.75V140.114ZM175.25 140.114H350.75V282.743H175.25V140.114ZM530.75 140.114H355.25V282.743H530.75V140.114ZM535.25 140.114H710.75V282.743H535.25V140.114ZM890.75 140.114H715.25V282.743H890.75V140.114ZM895.25 140.114H1070.75V282.743H895.25V140.114ZM1250.75 140.114H1075.25V282.743H1250.75V140.114ZM1255.25 140.114H1430.75V282.743H1255.25V140.114ZM170.75 286.4H-4.75V429.029H170.75V286.4ZM175.25 286.4H350.75V429.029H175.25V286.4ZM530.75 286.4H355.25V429.029H530.75V286.4ZM535.25 286.4H710.75V429.029H535.25V286.4ZM890.75 286.4H715.25V429.029H890.75V286.4ZM895.25 286.4H1070.75V429.029H895.25V286.4ZM1250.75 286.4H1075.25V429.029H1250.75V286.4ZM1255.25 286.4H1430.75V429.029H1255.25V286.4ZM170.75 432.686H-4.75V575.314H170.75V432.686ZM175.25 432.686H350.75V575.314H175.25V432.686ZM530.75 432.686H355.25V575.314H530.75V432.686ZM535.25 432.686H710.75V575.314H535.25V432.686ZM890.75 432.686H715.25V575.314H890.75V432.686ZM895.25 432.686H1070.75V575.314H895.25V432.686ZM1250.75 432.686H1075.25V575.314H1250.75V432.686ZM1255.25 432.686H1430.75V575.314H1255.25V432.686ZM170.75 578.971H-4.75V721.6H170.75V578.971ZM175.25 578.971H350.75V721.6H175.25V578.971ZM530.75 578.971H355.25V721.6H530.75V578.971ZM535.25 578.971H710.75V721.6H535.25V578.971ZM890.75 578.971H715.25V721.6H890.75V578.971ZM895.25 578.971H1070.75V721.6H895.25V578.971ZM1250.75 578.971H1075.25V721.6H1250.75V578.971ZM1255.25 578.971H1430.75V721.6H1255.25V578.971ZM170.75 725.257H-4.75V867.886H170.75V725.257ZM175.25 725.257H350.75V867.886H175.25V725.257ZM530.75 725.257H355.25V867.886H530.75V725.257ZM535.25 725.257H710.75V867.886H535.25V725.257ZM890.75 725.257H715.25V867.886H890.75V725.257ZM895.25 725.257H1070.75V867.886H895.25V725.257ZM1250.75 725.257H1075.25V867.886H1250.75V725.257ZM1255.25 725.257H1430.75V867.886H1255.25V725.257ZM170.75 871.543H-4.75V1014.17H170.75V871.543ZM175.25 871.543H350.75V1014.17H175.25V871.543ZM530.75 871.543H355.25V1014.17H530.75V871.543ZM535.25 871.543H710.75V1014.17H535.25V871.543ZM890.75 871.543H715.25V1014.17H890.75V871.543ZM895.25 871.543H1070.75V1014.17H895.25V871.543ZM1250.75 871.543H1075.25V1014.17H1250.75V871.543ZM1255.25 871.543H1430.75V1014.17H1255.25V871.543Z" fill="url(#paint0_linear_584_9375)" fill-opacity="0.28"/>
<defs>
<linearGradient id="paint0_linear_584_9375" x1="713" y1="1016" x2="713" y2="-8" gradientUnits="userSpaceOnUse">
<stop stop-color="#AC7FE4"/>
<stop offset="1" stop-color="#D6CFFF"/>
</linearGradient>
</defs>
</svg>
