<svg width="120" height="261" viewBox="0 0 120 261" fill="none" xmlns="http://www.w3.org/2000/svg">
<path d="M15.2186 199.761L17.2186 199.759L17.2186 199.759L15.2186 199.761ZM65.512 249.705L65.5237 251.705L65.5237 251.705L65.512 249.705ZM109 238.783C103.109 238.783 98.3333 243.559 98.3333 249.45C98.3333 255.341 103.109 260.117 109 260.117C114.891 260.117 119.667 255.341 119.667 249.45C119.667 243.559 114.891 238.783 109 238.783ZM13 0.00218882L13.0046 4.16387L17.0046 4.15949L17 -0.00218882L13 0.00218882ZM13.0137 12.4872L13.0228 20.8106L17.0228 20.8062L17.0137 12.4829L13.0137 12.4872ZM13.0319 29.134L13.041 37.4573L17.041 37.4529L17.0319 29.1296L13.0319 29.134ZM13.0501 45.7807L13.0592 54.104L17.0592 54.0997L17.0501 45.7763L13.0501 45.7807ZM13.0683 62.4274L13.0774 70.7508L17.0774 70.7464L17.0683 62.423L13.0683 62.4274ZM13.0865 79.0741L13.0956 87.3975L17.0956 87.3931L17.0865 79.0698L13.0865 79.0741ZM13.1048 95.7209L13.1139 104.044L17.1139 104.04L17.1048 95.7165L13.1048 95.7209ZM13.123 112.368L13.1321 120.691L17.1321 120.687L17.123 112.363L13.123 112.368ZM13.1412 129.014L13.1503 137.338L17.1503 137.333L17.1412 129.01L13.1412 129.014ZM13.1594 145.661L13.1685 153.984L17.1685 153.98L17.1594 145.657L13.1594 145.661ZM13.1776 162.308L13.1867 170.631L17.1867 170.627L17.1776 162.303L13.1776 162.308ZM13.1958 178.955L13.205 187.278L17.205 187.273L17.1958 178.95L13.1958 178.955ZM13.2141 195.601L13.2186 199.763L17.2186 199.759L17.2141 195.597L13.2141 195.601ZM13.2186 199.763C13.2201 201.14 13.2752 202.506 13.382 203.857L17.3695 203.542C17.271 202.294 17.22 201.032 17.2186 199.759L13.2186 199.763ZM14.6663 211.94C15.3128 214.621 16.1669 217.221 17.2106 219.722L20.902 218.181C19.9391 215.874 19.1512 213.476 18.5548 211.003L14.6663 211.94ZM20.951 227.003C22.3908 229.333 24.0092 231.541 25.7869 233.606L28.8188 230.997C27.1771 229.09 25.6829 227.051 24.3538 224.901L20.951 227.003ZM31.5935 239.373C33.6717 241.136 35.8903 242.739 38.2303 244.163L40.3092 240.745C38.1492 239.431 36.1006 237.951 34.1814 236.323L31.5935 239.373ZM45.5378 247.852C48.0456 248.878 50.6512 249.714 53.3366 250.342L54.2472 246.447C51.77 245.868 49.3663 245.097 47.0528 244.15L45.5378 247.852ZM61.4287 251.57C62.7805 251.668 64.1462 251.713 65.5237 251.705L65.5003 247.705C64.2265 247.713 62.9645 247.671 61.716 247.581L61.4287 251.57ZM65.5237 251.705L69.1477 251.684L69.1243 247.684L65.5003 247.705L65.5237 251.705ZM76.3957 251.641L83.6437 251.599L83.6203 247.599L76.3723 247.641L76.3957 251.641ZM90.8917 251.556L98.1397 251.514L98.1163 247.514L90.8683 247.556L90.8917 251.556ZM105.388 251.471L109.012 251.45L108.988 247.45L105.364 247.471L105.388 251.471ZM15.2186 199.761L17.2186 199.759L17.2186 199.759L15.2186 199.761ZM65.512 249.705L65.5237 251.705L65.5237 251.705L65.512 249.705ZM109 238.783C103.109 238.783 98.3333 243.559 98.3333 249.45C98.3333 255.341 103.109 260.117 109 260.117C114.891 260.117 119.667 255.341 119.667 249.45C119.667 243.559 114.891 238.783 109 238.783ZM13 0.00218882L13.0046 4.16387L17.0046 4.15949L17 -0.00218882L13 0.00218882ZM13.0137 12.4872L13.0228 20.8106L17.0228 20.8062L17.0137 12.4829L13.0137 12.4872ZM13.0319 29.134L13.041 37.4573L17.041 37.4529L17.0319 29.1296L13.0319 29.134ZM13.0501 45.7807L13.0592 54.104L17.0592 54.0997L17.0501 45.7763L13.0501 45.7807ZM13.0683 62.4274L13.0774 70.7508L17.0774 70.7464L17.0683 62.423L13.0683 62.4274ZM13.0865 79.0741L13.0956 87.3975L17.0956 87.3931L17.0865 79.0698L13.0865 79.0741ZM13.1048 95.7209L13.1139 104.044L17.1139 104.04L17.1048 95.7165L13.1048 95.7209ZM13.123 112.368L13.1321 120.691L17.1321 120.687L17.123 112.363L13.123 112.368ZM13.1412 129.014L13.1503 137.338L17.1503 137.333L17.1412 129.01L13.1412 129.014ZM13.1594 145.661L13.1685 153.984L17.1685 153.98L17.1594 145.657L13.1594 145.661ZM13.1776 162.308L13.1867 170.631L17.1867 170.627L17.1776 162.303L13.1776 162.308ZM13.1958 178.955L13.205 187.278L17.205 187.273L17.1958 178.95L13.1958 178.955ZM13.2141 195.601L13.2186 199.763L17.2186 199.759L17.2141 195.597L13.2141 195.601ZM13.2186 199.763C13.2201 201.14 13.2752 202.506 13.382 203.857L17.3695 203.542C17.271 202.294 17.22 201.032 17.2186 199.759L13.2186 199.763ZM14.6663 211.94C15.3128 214.621 16.1669 217.221 17.2106 219.722L20.902 218.181C19.9391 215.874 19.1512 213.476 18.5548 211.003L14.6663 211.94ZM20.951 227.003C22.3908 229.333 24.0092 231.541 25.7869 233.606L28.8188 230.997C27.1771 229.09 25.6829 227.051 24.3538 224.901L20.951 227.003ZM31.5935 239.373C33.6717 241.136 35.8903 242.739 38.2303 244.163L40.3092 240.745C38.1492 239.431 36.1006 237.951 34.1814 236.323L31.5935 239.373ZM45.5378 247.852C48.0456 248.878 50.6512 249.714 53.3366 250.342L54.2472 246.447C51.77 245.868 49.3663 245.097 47.0528 244.15L45.5378 247.852ZM61.4287 251.57C62.7805 251.668 64.1462 251.713 65.5237 251.705L65.5003 247.705C64.2265 247.713 62.9645 247.671 61.716 247.581L61.4287 251.57ZM65.5237 251.705L69.1477 251.684L69.1243 247.684L65.5003 247.705L65.5237 251.705ZM76.3957 251.641L83.6437 251.599L83.6203 247.599L76.3723 247.641L76.3957 251.641ZM90.8917 251.556L98.1397 251.514L98.1163 247.514L90.8683 247.556L90.8917 251.556ZM105.388 251.471L109.012 251.45L108.988 247.45L105.364 247.471L105.388 251.471Z" fill="#4F378A"/>
<circle cx="15" cy="219" r="13" fill="white" stroke="#4F378A" stroke-width="4"/>
</svg>
