<svg width="117" height="177" viewBox="0 0 117 177" fill="none" xmlns="http://www.w3.org/2000/svg">
<path d="M15.1925 118.882L13.6925 118.885L13.6925 118.885L15.1925 118.882ZM65.3907 168.801L65.3967 170.301L65.3967 170.301L65.3907 168.801ZM109 160.628C104.582 160.628 101 164.21 101 168.628C101 173.046 104.582 176.628 109 176.628C113.418 176.628 117 173.046 117 168.628C117 164.21 113.418 160.628 109 160.628ZM13.5 0.00242835L13.5069 4.24823L16.5069 4.24337L16.5 -0.00242835L13.5 0.00242835ZM13.5206 12.7398L13.5344 21.2314L16.5344 21.2266L16.5206 12.735L13.5206 12.7398ZM13.5481 29.723L13.5619 38.2147L16.5619 38.2098L16.5481 29.7182L13.5481 29.723ZM13.5756 46.7063L13.5894 55.1979L16.5894 55.193L16.5756 46.7014L13.5756 46.7063ZM13.6031 63.6895L13.6169 72.1811L16.6168 72.1762L16.6031 63.6846L13.6031 63.6895ZM13.6306 80.6727L13.6443 89.1643L16.6443 89.1594L16.6306 80.6678L13.6306 80.6727ZM13.6581 97.6559L13.6718 106.147L16.6718 106.143L16.6581 97.651L13.6581 97.6559ZM13.6856 114.639L13.6925 118.885L16.6925 118.88L16.6856 114.634L13.6856 114.639ZM13.6925 118.885C13.6947 120.247 13.7498 121.598 13.8559 122.934L16.8465 122.696C16.7465 121.437 16.6945 120.165 16.6925 118.88L13.6925 118.885ZM15.1282 130.927C15.7679 133.577 16.6125 136.148 17.6443 138.62L20.413 137.465C19.4417 135.138 18.6466 132.718 18.0445 130.223L15.1282 130.927ZM21.3415 145.822C22.7644 148.126 24.3638 150.31 26.1206 152.354L28.3957 150.398C26.7407 148.473 25.2342 146.416 23.8941 144.245L21.3415 145.822ZM31.859 158.06C33.9128 159.806 36.1053 161.393 38.4177 162.803L39.9795 160.241C37.8018 158.913 35.7366 157.418 33.8018 155.774L31.859 158.06ZM45.6393 166.46C48.1177 167.478 50.693 168.308 53.3471 168.933L54.0346 166.013C51.5362 165.424 49.1122 164.643 46.7791 163.685L45.6393 166.46ZM61.347 170.16C62.6837 170.259 64.0343 170.307 65.3967 170.301L65.3848 167.301C64.1001 167.306 62.8272 167.261 61.5679 167.168L61.347 170.16ZM65.3967 170.301L69.0308 170.287L69.0189 167.287L65.3848 167.301L65.3967 170.301ZM76.299 170.258L83.5672 170.229L83.5553 167.229L76.2871 167.258L76.299 170.258ZM90.8354 170.2L98.1036 170.171L98.0917 167.171L90.8235 167.2L90.8354 170.2ZM105.372 170.143L109.006 170.128L108.994 167.128L105.36 167.143L105.372 170.143ZM15.1925 118.882L13.6925 118.885L13.6925 118.885L15.1925 118.882ZM65.3907 168.801L65.3967 170.301L65.3967 170.301L65.3907 168.801ZM109 160.628C104.582 160.628 101 164.21 101 168.628C101 173.046 104.582 176.628 109 176.628C113.418 176.628 117 173.046 117 168.628C117 164.21 113.418 160.628 109 160.628ZM13.5 0.00242835L13.5069 4.24823L16.5069 4.24337L16.5 -0.00242835L13.5 0.00242835ZM13.5206 12.7398L13.5344 21.2314L16.5344 21.2266L16.5206 12.735L13.5206 12.7398ZM13.5481 29.723L13.5619 38.2147L16.5619 38.2098L16.5481 29.7182L13.5481 29.723ZM13.5756 46.7063L13.5894 55.1979L16.5894 55.193L16.5756 46.7014L13.5756 46.7063ZM13.6031 63.6895L13.6169 72.1811L16.6168 72.1762L16.6031 63.6846L13.6031 63.6895ZM13.6306 80.6727L13.6443 89.1643L16.6443 89.1594L16.6306 80.6678L13.6306 80.6727ZM13.6581 97.6559L13.6718 106.147L16.6718 106.143L16.6581 97.651L13.6581 97.6559ZM13.6856 114.639L13.6925 118.885L16.6925 118.88L16.6856 114.634L13.6856 114.639ZM13.6925 118.885C13.6947 120.247 13.7498 121.598 13.8559 122.934L16.8465 122.696C16.7465 121.437 16.6945 120.165 16.6925 118.88L13.6925 118.885ZM15.1282 130.927C15.7679 133.577 16.6125 136.148 17.6443 138.62L20.413 137.465C19.4417 135.138 18.6466 132.718 18.0445 130.223L15.1282 130.927ZM21.3415 145.822C22.7644 148.126 24.3638 150.31 26.1206 152.354L28.3957 150.398C26.7407 148.473 25.2342 146.416 23.8941 144.245L21.3415 145.822ZM31.859 158.06C33.9128 159.806 36.1053 161.393 38.4177 162.803L39.9795 160.241C37.8018 158.913 35.7366 157.418 33.8018 155.774L31.859 158.06ZM45.6393 166.46C48.1177 167.478 50.693 168.308 53.3471 168.933L54.0346 166.013C51.5362 165.424 49.1122 164.643 46.7791 163.685L45.6393 166.46ZM61.347 170.16C62.6837 170.259 64.0343 170.307 65.3967 170.301L65.3848 167.301C64.1001 167.306 62.8272 167.261 61.5679 167.168L61.347 170.16ZM65.3967 170.301L69.0308 170.287L69.0189 167.287L65.3848 167.301L65.3967 170.301ZM76.299 170.258L83.5672 170.229L83.5553 167.229L76.2871 167.258L76.299 170.258ZM90.8354 170.2L98.1036 170.171L98.0917 167.171L90.8235 167.2L90.8354 170.2ZM105.372 170.143L109.006 170.128L108.994 167.128L105.36 167.143L105.372 170.143Z" fill="#4F378A"/>
<circle cx="15" cy="143" r="13.5" fill="white" stroke="#4F378A" stroke-width="3"/>
</svg>
