<svg width="211" height="270" viewBox="0 0 211 270" fill="none" xmlns="http://www.w3.org/2000/svg">
<path d="M20.4227 208.942L18.4227 208.947L18.4227 208.947L20.4227 208.942ZM70.5813 258.841L70.5876 260.841L70.5876 260.841L70.5813 258.841ZM200 247.764C194.109 247.764 189.333 252.539 189.333 258.43C189.333 264.321 194.109 269.097 200 269.097C205.891 269.097 210.667 264.321 210.667 258.43C210.667 252.539 205.891 247.764 200 247.764ZM18 0.00404563L18.0081 4.02217L22.0081 4.01408L22 -0.00404563L18 0.00404563ZM18.0244 12.0584L18.0406 20.0947L22.0406 20.0866L22.0244 12.0503L18.0244 12.0584ZM18.0569 28.1309L18.0732 36.1672L22.0731 36.1591L22.0569 28.1228L18.0569 28.1309ZM18.0894 44.2034L18.1057 52.2397L22.1057 52.2316L22.0894 44.1953L18.0894 44.2034ZM18.1219 60.2759L18.1382 68.3122L22.1382 68.3041L22.1219 60.2678L18.1219 60.2759ZM18.1544 76.3484L18.1707 84.3847L22.1707 84.3766L22.1544 76.3403L18.1544 76.3484ZM18.1869 92.4209L18.2032 100.457L22.2032 100.449L22.1869 92.4128L18.1869 92.4209ZM18.2195 108.493L18.2357 116.53L22.2357 116.522L22.2195 108.485L18.2195 108.493ZM18.252 124.566L18.2682 132.602L22.2682 132.594L22.252 124.558L18.252 124.566ZM18.2845 140.638L18.3007 148.675L22.3007 148.667L22.2845 140.63L18.2845 140.638ZM18.317 156.711L18.3332 164.747L22.3332 164.739L22.317 156.703L18.317 156.711ZM18.3495 172.783L18.3658 180.82L22.3658 180.812L22.3495 172.775L18.3495 172.783ZM18.382 188.856L18.3983 196.892L22.3983 196.884L22.382 188.848L18.382 188.856ZM18.4145 204.928L18.4227 208.947L22.4226 208.938L22.4145 204.92L18.4145 204.928ZM18.4227 208.947C18.4254 210.321 18.4815 211.683 18.5891 213.031L22.5764 212.713C22.4771 211.468 22.4252 210.209 22.4226 208.938L18.4227 208.947ZM19.8751 221.095C20.5212 223.769 21.3739 226.363 22.4152 228.858L26.1066 227.317C25.1458 225.015 24.3593 222.623 23.7633 220.156L19.8751 221.095ZM26.1458 236.123C27.5815 238.449 29.1949 240.652 30.9671 242.714L34.0009 240.107C32.3643 238.203 30.8746 236.168 29.5493 234.022L26.1458 236.123ZM36.7553 248.472C38.8269 250.234 41.0384 251.836 43.371 253.259L45.4547 249.845C43.3015 248.531 41.2595 247.052 39.3465 245.425L36.7553 248.472ZM50.6558 256.952C53.1561 257.98 55.7541 258.82 58.4317 259.452L59.3508 255.559C56.8806 254.976 54.484 254.202 52.1774 253.253L50.6558 256.952ZM66.5024 260.696C67.8509 260.796 69.2133 260.845 70.5876 260.841L70.5749 256.841C69.3042 256.845 68.0452 256.8 66.7998 256.707L66.5024 260.696ZM70.5876 260.841L74.632 260.828L74.6193 256.828L70.5749 256.841L70.5876 260.841ZM82.7206 260.803L90.8093 260.777L90.7966 256.777L82.7079 256.803L82.7206 260.803ZM98.898 260.751L106.987 260.726L106.974 256.726L98.8853 256.751L98.898 260.751ZM115.075 260.7L123.164 260.674L123.151 256.674L115.063 256.7L115.075 260.7ZM131.253 260.648L139.341 260.623L139.329 256.623L131.24 256.648L131.253 260.648ZM147.43 260.597L155.519 260.571L155.506 256.571L147.417 256.597L147.43 260.597ZM163.607 260.546L171.696 260.52L171.683 256.52L163.595 256.546L163.607 260.546ZM179.785 260.494L187.873 260.469L187.861 256.469L179.772 256.494L179.785 260.494ZM195.962 260.443L200.006 260.43L199.994 256.43L195.949 256.443L195.962 260.443ZM20.4227 208.942L18.4227 208.947L18.4227 208.947L20.4227 208.942ZM70.5813 258.841L70.5876 260.841L70.5876 260.841L70.5813 258.841ZM200 247.764C194.109 247.764 189.333 252.539 189.333 258.43C189.333 264.321 194.109 269.097 200 269.097C205.891 269.097 210.667 264.321 210.667 258.43C210.667 252.539 205.891 247.764 200 247.764ZM18 0.00404563L18.0081 4.02217L22.0081 4.01408L22 -0.00404563L18 0.00404563ZM18.0244 12.0584L18.0406 20.0947L22.0406 20.0866L22.0244 12.0503L18.0244 12.0584ZM18.0569 28.1309L18.0732 36.1672L22.0731 36.1591L22.0569 28.1228L18.0569 28.1309ZM18.0894 44.2034L18.1057 52.2397L22.1057 52.2316L22.0894 44.1953L18.0894 44.2034ZM18.1219 60.2759L18.1382 68.3122L22.1382 68.3041L22.1219 60.2678L18.1219 60.2759ZM18.1544 76.3484L18.1707 84.3847L22.1707 84.3766L22.1544 76.3403L18.1544 76.3484ZM18.1869 92.4209L18.2032 100.457L22.2032 100.449L22.1869 92.4128L18.1869 92.4209ZM18.2195 108.493L18.2357 116.53L22.2357 116.522L22.2195 108.485L18.2195 108.493ZM18.252 124.566L18.2682 132.602L22.2682 132.594L22.252 124.558L18.252 124.566ZM18.2845 140.638L18.3007 148.675L22.3007 148.667L22.2845 140.63L18.2845 140.638ZM18.317 156.711L18.3332 164.747L22.3332 164.739L22.317 156.703L18.317 156.711ZM18.3495 172.783L18.3658 180.82L22.3658 180.812L22.3495 172.775L18.3495 172.783ZM18.382 188.856L18.3983 196.892L22.3983 196.884L22.382 188.848L18.382 188.856ZM18.4145 204.928L18.4227 208.947L22.4226 208.938L22.4145 204.92L18.4145 204.928ZM18.4227 208.947C18.4254 210.321 18.4815 211.683 18.5891 213.031L22.5764 212.713C22.4771 211.468 22.4252 210.209 22.4226 208.938L18.4227 208.947ZM19.8751 221.095C20.5212 223.769 21.3739 226.363 22.4152 228.858L26.1066 227.317C25.1458 225.015 24.3593 222.623 23.7633 220.156L19.8751 221.095ZM26.1458 236.123C27.5815 238.449 29.1949 240.652 30.9671 242.714L34.0009 240.107C32.3643 238.203 30.8746 236.168 29.5493 234.022L26.1458 236.123ZM36.7553 248.472C38.8269 250.234 41.0384 251.836 43.371 253.259L45.4547 249.845C43.3015 248.531 41.2595 247.052 39.3465 245.425L36.7553 248.472ZM50.6558 256.952C53.1561 257.98 55.7541 258.82 58.4317 259.452L59.3508 255.559C56.8806 254.976 54.484 254.202 52.1774 253.253L50.6558 256.952ZM66.5024 260.696C67.8509 260.796 69.2133 260.845 70.5876 260.841L70.5749 256.841C69.3042 256.845 68.0452 256.8 66.7998 256.707L66.5024 260.696ZM70.5876 260.841L74.632 260.828L74.6193 256.828L70.5749 256.841L70.5876 260.841ZM82.7206 260.803L90.8093 260.777L90.7966 256.777L82.7079 256.803L82.7206 260.803ZM98.898 260.751L106.987 260.726L106.974 256.726L98.8853 256.751L98.898 260.751ZM115.075 260.7L123.164 260.674L123.151 256.674L115.063 256.7L115.075 260.7ZM131.253 260.648L139.341 260.623L139.329 256.623L131.24 256.648L131.253 260.648ZM147.43 260.597L155.519 260.571L155.506 256.571L147.417 256.597L147.43 260.597ZM163.607 260.546L171.696 260.52L171.683 256.52L163.595 256.546L163.607 260.546ZM179.785 260.494L187.873 260.469L187.861 256.469L179.772 256.494L179.785 260.494ZM195.962 260.443L200.006 260.43L199.994 256.43L195.949 256.443L195.962 260.443Z" fill="#4F378A"/>
<circle cx="20" cy="233" r="18" fill="white" stroke="#4F378A" stroke-width="4"/>
</svg>
