<svg width="720" height="755" viewBox="0 0 720 755" fill="none" xmlns="http://www.w3.org/2000/svg">
<path d="M465.221 511.358V353.016H473.444V511.358H465.221Z" fill="#D6CFFF"/>
<path d="M82.1217 299.47C94.2525 298.041 100.041 306.628 110.743 312.914C197.907 364.113 104.272 477.962 199.461 508.64C250.91 525.221 325.029 490.429 333.514 530.156C337.447 548.572 333.514 562.07 314.064 570.193C225.171 607.318 103.21 585.593 88.5027 549.265C73.7951 512.937 65.6548 459.63 65.6548 358.708C65.6548 334.638 59.7304 302.109 82.1217 299.47Z" fill="#4F378A"/>
<path d="M279.199 599.257C182.609 632.143 91.4371 576.986 22.6291 615.264C-75.529 669.869 222.439 795.431 305.794 715.626C369.259 654.864 463.017 741.659 537.536 713.408C654.808 668.95 439.541 544.666 279.199 599.257Z" fill="#D6CFFF"/>
<path d="M422.071 378.974C388.421 374.314 249.767 386.476 249.767 386.476L221.899 406.22C221.899 406.22 207.002 420.058 208.585 436.23C210.53 456.109 221.899 467.03 237.171 467.03C264.192 467.03 307.637 453.43 313.142 449.655C322.932 442.943 375.885 433.068 387.938 436.23C399.991 439.392 407.855 441.04 416.916 449.655C424.798 457.148 429.063 462.998 431.014 473.742C432.033 479.355 432.033 482.74 431.014 488.353C429.063 499.096 406.482 628.239 406.482 640.48C406.482 652.721 438.201 660.618 438.201 660.618L474.62 650.747C474.62 650.747 511.164 648.93 516.13 640.48C526.804 622.316 502.815 595.86 494.517 555.188C490.561 535.796 501.631 448.365 494.517 429.912C488.211 413.554 482.279 404.013 468.28 393.584C453.069 382.252 440.807 381.568 422.071 378.974Z" fill="#6D5BA6"/>
<path d="M158.455 444.521C158.455 444.521 193.274 411.894 203.986 409.596C214.698 407.298 229.573 413.513 235.626 413.513C241.678 413.513 323.493 409.596 323.493 409.596C323.493 409.596 362.689 409.596 378.535 409.596C394.381 409.596 400.813 411.037 412.609 413.513C419.352 414.928 432.828 419.735 441.066 426.495C449.303 433.254 449.267 430.438 459.039 444.521C468.81 458.603 465.611 492.027 465.611 501.485V580.459C465.611 593.095 479.708 620.974 479.708 634.162C479.708 643.059 472.975 644.55 455.429 655.09C437.024 666.146 433.108 663.229 417.444 660.223C408.259 658.46 391.598 658.249 385.724 651.141C379.85 644.033 352.705 633.021 368.886 606.916C378.676 591.121 392.09 529.258 385.724 520.003C379.359 510.748 374.407 507.493 363.281 510.748C349.753 514.705 326.044 520.607 310.536 528.337C298.291 534.44 264.39 544.914 251.404 548.08C235.124 552.049 204.804 558.755 186.79 558.755C168.777 558.755 140.973 548.08 140.973 548.08C113.03 528.337 122.694 537.482 113.03 520.003C102.065 500.17 107.296 485.691 107.296 480.162C107.296 469.545 158.455 444.521 158.455 444.521Z" fill="#A89FE3"/>
<path d="M207.407 289.047C197.635 289.064 191.608 288.137 185.693 278.782C179.779 269.427 197.308 253.94 197.308 253.94C197.308 253.94 165.116 256.805 154.647 264.502C149.909 267.985 134.767 274.615 130.674 278.877C116.756 293.369 110.191 310.485 108.162 321.246C102.693 350.251 99.4667 374.338 99.4667 411.851C99.4667 427.543 108.093 481.744 108.093 481.744C108.093 481.744 181.991 490.508 202.707 473.056C222.244 456.598 238.343 431.595 238.343 431.595L228.303 398.03C228.303 398.03 218.825 373.154 224.243 357.359C229.661 341.564 233.975 343.538 233.975 343.538L233.975 278.698L224.243 275.621C214.512 272.543 217.179 289.03 207.407 289.047Z" fill="#CBC1DC"/>
<path d="M135.398 375.662C129.97 369.077 120.854 338.979 130.333 312.456C130.333 312.456 142.937 296.481 158.913 298.444C174.888 300.407 180.248 316.345 180.248 316.345C186.591 342.546 187.954 363.854 187.954 363.854L135.398 375.662Z" fill="#4F378A"/>
<path d="M229.889 300.498C229.889 293.848 234.316 279.57 234.316 279.57C257.248 296.55 253.068 297.569 257.248 303.707C261.427 309.844 262.142 315.304 262.984 323.363C264.107 334.108 259.298 348.008 259.298 350.742C259.298 357.583 248.83 352.457 244.555 350.742C240.28 349.026 234.316 343.539 234.316 343.539C234.316 343.539 230.763 328.802 229.889 323.363C228.961 317.591 229.889 309.186 229.889 300.498Z" fill="#4F378A"/>
<path d="M212.71 233.046L195.083 244.964C195.083 244.964 188.785 247.716 185.993 250.927C181.959 255.567 181.067 259.765 181.093 265.935C181.126 273.543 183.387 278.451 188.717 283.836C193.5 288.668 197.573 291.308 204.342 291.409C208.483 291.471 211.167 291.106 214.63 288.817C216.932 287.295 217.541 285.625 219.536 283.713C226.414 277.123 239.343 269.527 239.343 269.527C234.866 265.943 226.789 265.416 220.701 256.805C216.927 251.466 214.202 238.882 212.71 233.046Z" fill="url(#paint0_linear_547_11550)"/>
<path d="M377.947 652.225C379.7 649.208 385.444 647.429 385.444 647.429C385.444 647.429 404.956 656.555 421.973 659.283C438.989 662.011 453.396 651.526 453.396 651.526C453.396 651.526 478.308 661.899 474.633 667.725C467.761 678.618 436.048 673.534 436.048 673.534C436.048 673.534 416.483 674.396 386.704 669.622C381.097 668.723 375.078 657.164 377.947 652.225Z" fill="black" stroke="black"/>
<path d="M493.872 668.122C513.007 663.779 518.429 652.328 498.655 648.379H471.486L459.738 656.276C459.738 656.276 481.546 667.623 484.409 668.122C491.368 669.335 493.872 668.122 493.872 668.122Z" fill="black" stroke="black"/>
<path d="M286.51 252.276C284.517 258.787 279.82 256.372 273.718 253.235C267.089 249.827 252.127 282.026 244.181 277.941C240.343 275.968 230.429 271.154 223.91 262.2C220.078 256.938 205.872 239.629 205.872 239.629C205.872 239.629 220.014 227.09 230.568 216.867C218.597 202.292 235.184 189.601 239.339 192.566C257.104 205.245 277.914 186.691 277.914 186.691C277.914 186.691 314.185 206.628 304.831 216.043C279.765 241.274 288.502 245.766 286.51 252.276Z" fill="url(#paint1_linear_547_11550)"/>
<path d="M290.413 221.1C291.332 221.182 292.133 220.829 292.44 220.421C292.817 219.92 291.718 219.04 290.625 218.688C288.969 218.154 283.178 217.877 281.51 218.16C280.484 218.334 279.144 219.01 279.099 219.523C279.054 220.035 279.276 221.115 280.423 221.299C281.571 221.484 283.894 220.605 284.847 220.602C285.848 220.599 288.596 220.937 290.413 221.1Z" fill="black" stroke="#422713"/>
<path d="M261.629 263.518C261.977 265.177 259.367 265.405 259.367 265.405C259.367 265.405 260.736 270.058 258.202 268.183C255.667 266.308 256.465 265.433 254.36 263.876C252.255 262.32 249.461 260.747 244.938 261.844C240.415 262.941 249.175 258.043 253.172 258.221C255.173 258.311 256.57 258.31 258.391 259.454C260.204 260.593 261.282 261.86 261.629 263.518Z" fill="#702739" stroke="#422713"/>
<path d="M279.287 235.441C274.981 233.503 275.995 232.343 278.395 229.6C280.796 226.856 283.497 225.304 284.429 226.133C285.362 226.963 284.171 229.859 281.771 232.602C279.371 235.346 279.287 235.441 279.287 235.441Z" fill="black"/>
<path d="M275.21 250.28C275.21 250.28 279.793 249.041 280.095 252.791" stroke="#422713"/>
<path d="M241.035 264.765C241.035 264.765 236.613 263.029 238.571 259.826" stroke="#422713"/>
<path d="M267.256 212.603C267.256 212.603 267.199 212.696 267.107 212.856C266.723 213.567 265.807 215.671 267.015 217.805C268.501 220.429 264.433 222.878 265.687 216.185C265.902 215.038 266.759 213.463 267.107 212.856C267.196 212.693 267.256 212.603 267.256 212.603Z" fill="white"/>
<path d="M267.256 212.603C267.256 212.603 265.959 214.735 265.687 216.185C264.433 222.878 268.501 220.429 267.015 217.805C265.529 215.181 267.256 212.603 267.256 212.603Z" stroke="#49454F"/>
<path d="M237.924 210.605C237.924 210.605 239.711 206.174 242.858 208.196" stroke="#422713"/>
<path d="M220.72 210.425C216.172 219.064 233.222 212.482 238.869 206.121C244.582 199.684 247.356 189.069 252.001 188.562L256.706 183.42C256.706 183.42 256.132 182.315 255.752 181.5C256.078 181.656 256.164 181.602 255.881 181.19C255.201 180.198 255.387 180.715 255.752 181.5C254.477 180.891 249.522 177.082 248.499 179.027C245.352 185.004 244.677 196.265 235.255 204.187C223.694 213.906 221.851 208.276 220.72 210.425Z" fill="black"/>
<path d="M185.861 245.697C182.226 251.446 197.076 247.502 201.432 243.184C205.84 238.815 206.093 230.917 209.504 230.419L213.128 226.923C213.128 226.923 212.749 226.231 212.501 225.718C212.733 225.806 212.798 225.769 212.607 225.513C212.146 224.897 212.263 225.224 212.501 225.718C211.592 225.371 208.11 223.093 207.292 224.388C204.777 228.365 203.875 235.665 196.705 241.131C187.908 247.836 186.765 244.267 185.861 245.697Z" fill="black"/>
<path d="M195.433 213.965C189.786 220.326 190.881 228.522 187.964 237.849C184.226 249.803 185.976 216.959 197.536 207.24C201.015 204.315 212.672 201.004 217.127 201.228C219.865 201.366 224.512 210.638 223.126 208.614C221.74 206.591 223.95 210.844 223.95 210.844L215.129 207.618C210.484 208.124 201.147 207.528 195.433 213.965Z" fill="black"/>
<path d="M178.357 211.089C168.273 220.381 169.027 231.268 163.049 244.197C155.387 260.767 162.445 216.343 182.668 201.767C188.755 197.379 208.32 191.414 215.608 191.139C220.088 190.969 226.538 202.845 224.519 200.301C222.5 197.757 225.589 203.194 225.589 203.194L211.513 199.996C203.821 201.279 188.561 201.687 178.357 211.089Z" fill="black"/>
<path d="M192.252 201.538C182.168 210.83 182.922 221.717 176.943 234.646C169.281 251.216 176.339 206.792 196.563 192.216C202.649 187.829 222.215 181.863 229.503 181.588C233.982 181.419 240.432 193.294 238.413 190.75C236.395 188.207 239.483 193.643 239.483 193.643L225.407 190.445C217.715 191.728 202.456 192.136 192.252 201.538Z" fill="black"/>
<path d="M213.535 176.271C203.451 185.562 204.205 196.449 198.226 209.379C190.564 225.949 197.622 181.525 217.846 166.948C223.933 162.561 243.347 157.959 250.635 157.684C255.115 157.515 265.782 157.415 266.235 157.987C266.689 158.558 260.767 168.376 260.767 168.376L246.69 165.178C238.999 166.461 223.739 166.869 213.535 176.271Z" fill="black"/>
<path d="M253.445 206.572C243.361 215.863 244.115 226.75 238.136 239.679C230.475 256.249 237.532 211.826 257.756 197.249C263.843 192.862 283.408 186.897 290.696 186.621C295.176 186.452 301.625 198.327 299.607 195.783C297.588 193.24 300.677 198.676 300.677 198.676L286.6 195.479C278.909 196.761 263.649 197.169 253.445 206.572Z" fill="black"/>
<path d="M263.777 213.892C253.693 223.183 254.447 234.07 248.468 247C240.807 263.57 247.865 219.146 268.088 204.569C274.175 200.182 293.74 194.217 301.028 193.941C305.508 193.772 311.958 205.647 309.939 203.104C307.92 200.56 311.009 205.997 311.009 205.997L296.933 202.799C289.241 204.082 273.981 204.49 263.777 213.892Z" fill="black"/>
<path d="M307.857 227.65C305.875 241.278 296.511 246.75 289.241 258.988C279.924 274.672 312.458 243.884 313.098 218.826C313.291 211.284 307.227 191.601 303.369 185.36C300.998 181.524 287.63 182.792 290.85 183.052C294.071 183.313 287.874 183.78 287.874 183.78L298.389 193.744C301.645 200.887 309.861 213.859 307.857 227.65Z" fill="black"/>
<path d="M191.407 254.892C186.86 263.531 203.909 256.949 209.556 250.588C215.27 244.151 218.044 233.535 222.688 233.029L227.393 227.886C227.393 227.886 226.819 226.782 226.44 225.967C226.766 226.123 226.851 226.069 226.569 225.657C225.889 224.665 226.074 225.182 226.44 225.967C225.165 225.358 220.21 221.549 219.186 223.494C216.04 229.471 215.364 240.732 205.942 248.654C194.382 258.373 192.539 252.743 191.407 254.892Z" fill="black"/>
<path d="M197.657 222.309C192.011 228.67 193.105 236.866 190.189 246.193C186.451 258.147 188.2 225.303 199.76 215.584C203.24 212.658 214.896 209.348 219.352 209.572C222.09 209.71 226.737 218.982 225.35 216.958C223.964 214.934 226.175 219.187 226.175 219.187L217.353 215.962C212.709 216.468 203.371 215.872 197.657 222.309Z" fill="black"/>
<path d="M196.83 186.107C186.746 195.398 187.5 206.285 181.521 219.215C173.859 235.785 180.917 191.361 201.141 176.784C207.227 172.397 226.793 166.432 234.081 166.156C238.56 165.987 245.01 177.862 242.992 175.319C240.973 172.775 244.061 178.211 244.061 178.211L229.985 175.014C222.294 176.297 207.034 176.704 196.83 186.107Z" fill="black"/>
<path d="M221.219 182.099C208.152 196.685 205.74 241.838 205.74 241.838C205.74 241.838 233.625 229.721 233.17 218.001C232.999 213.57 228.888 211.802 229.193 207.378C229.491 203.071 233.476 198.195 237.648 197.224C242.315 196.138 243.46 195.88 246.661 199.473C250.284 203.54 252.05 206.975 257.379 205.21C263.059 203.328 264.875 199.502 270.224 196.809C291.345 186.177 309.314 217.731 309.314 217.731C314.608 203.184 308.666 191.043 297.463 180.437C287.105 170.631 276.8 156.66 262.083 158.372C246.756 160.155 232.885 169.079 221.219 182.099Z" fill="black" stroke="black"/>
<path d="M555.598 322.215L281.362 325.649L92.0979 536.479C92.0979 536.479 468.414 610.61 409.677 443.043C382.808 366.39 555.598 322.215 555.598 322.215Z" fill="#D6CFFF"/>
<path d="M265.609 395.663C262.132 395.662 260.312 391.531 262.658 388.964L315.251 331.426C316.009 330.597 317.081 330.124 318.204 330.125L404.989 330.14C408.245 330.141 410.136 333.824 408.239 336.47L366.992 394.011C366.24 395.059 365.03 395.681 363.74 395.68L265.609 395.663Z" fill="#1D1B20"/>
<path d="M362.648 286.806C362.648 285.953 362.921 285.122 363.427 284.435L402.811 230.938C405.1 227.828 410.032 229.447 410.032 233.309V327.646C410.032 328.48 409.772 329.293 409.287 329.971L369.903 385.109C367.642 388.276 362.648 386.676 362.648 382.784V286.806Z" fill="#49454F"/>
<path d="M323.07 268.909C317.96 277.465 307.406 297.735 307.406 297.735C304.037 302.235 298.565 320.053 291.825 323.211C285.084 326.368 283.518 314.714 258.847 306.817C258.847 306.817 253.349 312.388 252.241 321.238C248.405 351.881 255.224 351.881 255.224 351.881C255.224 351.881 262.947 356.998 268.497 358.836C279.248 362.398 286.794 358.836 297.475 358.836C308.832 358.836 318.68 343.416 326.602 329.221C333.617 316.653 332.872 311.95 336.561 293.683C340.249 275.415 338.774 269.991 346.567 257.355C347.024 256.615 353.138 250.071 355.823 245.904C359.97 239.469 361.306 234.533 361.306 231.688C358.358 229.321 350.658 226.942 346.567 226.942C344.981 226.942 344.356 229.451 342.377 234.027C340.672 237.969 338.774 234.027 338.774 234.027C338.774 234.027 340.489 217.078 336.561 217.078C332.632 217.078 332.872 239.917 332.872 239.917C332.872 239.917 326.515 245.672 326.602 249.367C326.807 258.067 329.298 258.482 323.07 268.909Z" fill="url(#paint2_linear_547_11550)"/>
<path d="M136.912 402.674C134.683 388.903 133.234 385.276 135.179 376.569C136.93 368.731 180.837 365.411 187.021 364.06C186.807 363.596 186.946 363.491 187.577 363.679C187.929 363.784 187.707 363.91 187.021 364.06C188.004 366.187 196.44 375.869 199.067 399.453C202.266 428.176 206.714 429.792 206.714 429.792C206.714 429.792 209.413 422.404 221.458 419.935C233.503 417.466 242.315 412.373 249.059 407.01C252.194 404.518 261.825 398.304 273.055 389.374C278.183 385.297 282.753 385.644 286.725 383.652C290.697 381.66 300.199 380.723 300.199 380.723L309.251 379.97C329.337 386.581 323.177 392.306 324.405 396.01C324.899 397.5 325.282 398.324 325.554 398.752C326.224 399.807 326.221 398.455 325.554 398.752C325.281 398.873 324.898 399.268 324.405 400.215C324.405 400.215 322.206 402.423 320.321 399.079C321.028 402.947 320.639 407.125 314.4 402.207C302.665 392.956 295.009 396.01 295.009 396.01C282.238 400.153 286.911 399.062 274.462 418.936C262.014 438.81 263.232 441.209 249.513 453.804C235.794 466.399 215.622 476.716 208.419 478.315C177.909 485.089 174.114 478.192 169.068 478.118C161.532 478.008 164.648 475.557 159.549 464.292C159.549 464.292 138.825 414.495 136.912 402.674Z" fill="url(#paint3_linear_547_11550)"/>
<path d="M308.823 398.997C309.52 399.721 315.373 403.824 315.373 403.824C315.373 403.824 316.134 404.201 316.547 404.284C317.055 404.386 316.736 403.149 316.199 402.08C315.386 400.461 312.289 396.325 311.044 395.045C310.279 394.258 301.609 393.015 301.279 393.218" stroke="#422713"/>
<path d="M301.655 392.593C301.655 392.593 309.772 392.713 312.392 396.087C313.193 397.12 317.758 402.757 317.758 402.757C317.758 402.757 318.771 403.327 319.361 403.472C320.086 403.65 320.02 401.954 319.571 400.469C318.892 398.219 315.634 392.386 314.197 390.559" stroke="#422713"/>
<path d="M303.585 387.78C303.585 387.78 313.146 389.686 314.303 391.278C315.009 392.25 320.19 398.604 320.19 398.604C320.19 398.604 321.944 399.723 322.425 399.887C323.016 400.088 322.855 398.562 322.403 397.203C321.717 395.145 318.743 389.725 317.479 388.004" stroke="#422713"/>
<path d="M308.217 384.529C308.217 384.529 317.138 386.826 318.705 389.882C319.184 390.816 323.389 397.75 323.389 397.75C323.389 397.75 324.154 398.344 324.64 398.541C325.238 398.783 325.547 397.419 325.475 396.171C325.367 394.28 323.772 389.173 322.908 387.516C322.377 386.497 316.224 383.512 313.812 382.666" stroke="#422713"/>
<path d="M329.978 242.938C329.273 242.938 326.91 246.881 326.845 247.481C324.887 265.649 332.921 246.979 334.217 247.481C335.514 247.982 340.01 248.042 341.261 247.481C342.03 247.135 347.177 246.059 346.332 244.233C345.486 242.407 342.71 242.471 341.824 242.365C340.938 242.259 337.256 242.823 336.531 242.938C335.77 243.058 331.372 242.938 329.978 242.938Z" fill="#4E301A" stroke="#422713"/>
<path d="M346.895 238.091L345.324 240.017C345.324 240.017 345.841 244.118 351.718 240.122C353.487 238.92 356.353 233.995 356.746 231.908C356.988 230.624 353.136 227.2 353.935 228.119C354.734 229.038 352.976 227.43 352.976 227.43C352.976 227.43 352.429 227.523 351.664 231.336C351.43 232.502 346.895 238.091 346.895 238.091Z" fill="#4E301A" stroke="#422713"/>
<path d="M342.137 239.08L341.074 241.331C341.074 241.331 342.56 245.185 347.305 239.875C348.733 238.277 351.634 229.809 351.515 227.687C351.442 226.383 345.581 226.99 346.577 227.687C347.573 228.384 345.481 227.253 345.481 227.253C345.481 227.253 344.973 227.476 345.145 231.362C345.197 232.551 342.137 239.08 342.137 239.08Z" fill="#4E301A" stroke="#422713"/>
<path d="M351.773 238.071C351.773 238.071 349.526 241.297 350.485 241.957C351.909 242.936 353.676 241.34 354.575 240.475C357.472 237.687 359.409 235.741 359.818 234.218C360.069 233.281 360.782 231.45 360.275 231.101C359.768 230.753 358.358 228.507 357.688 229.323C357.019 230.14 357.058 230.664 355.772 233.173C355.355 233.985 351.773 238.071 351.773 238.071Z" fill="#4E301A" stroke="#422713"/>
<path d="M318.289 466.669L306.065 464.854L319.773 456.274L334.366 456.741L331.751 471.137L326.282 466.719L324.63 474.794L318.289 466.669Z" fill="#4F378A"/>
<path d="M390.459 400.207L392.776 397.164L393.562 405.145L387.813 401.29L385.011 404.97L382.501 397.729L385.251 396.411L390.459 400.207Z" fill="#4F378A"/>
<path d="M370.299 478.314L377.155 492.122L365.689 482.816L365.057 494.014L356.911 475.691L365.689 482.816L366.706 464.791L371.713 471.874L379.721 471.039L370.299 478.314Z" fill="#4F378A"/>
<path d="M558.422 213.232C558.422 213.232 565.711 220.471 575.749 222.396C587.932 224.733 600.715 213.232 600.715 213.232" stroke="#4F378A"/>
<path d="M539.997 181.193C539.997 181.193 526.166 210.298 513.808 202.748C501.717 195.361 526.952 234.956 533.327 233.563C548.846 230.173 576.328 199.033 567.237 206.517C557.539 214.498 539.997 181.193 539.997 181.193Z" fill="#A89FE3"/>
<path d="M537.717 193.488C537.717 193.488 539.184 199.283 543.57 204.909C548.894 211.738 558.584 214.821 558.584 214.821" stroke="black"/>
<path d="M529.883 198.227C529.883 198.227 531.35 204.021 535.736 209.648C541.06 216.477 550.75 219.559 550.75 219.559" stroke="black"/>
<path d="M522.053 202.965C522.053 202.965 523.52 208.759 527.906 214.386C533.23 221.215 542.92 224.298 542.92 224.298" stroke="black"/>
<path d="M462.871 223.498C462.871 223.498 467.865 233.752 474.743 236.48C483.091 239.79 491.849 223.498 491.849 223.498" stroke="#4F378A"/>
<path d="M486.41 198.749C486.41 198.749 454.523 195.948 457.178 181.627C459.775 167.614 431.914 205.377 435.452 210.902C444.065 224.353 482.648 239.32 472.5 233.376C461.676 227.036 486.41 198.749 486.41 198.749Z" fill="#6D5BA6"/>
<path d="M450.516 192.123C450.516 192.123 453.638 197.207 459.496 201.248C466.606 206.153 476.767 206.164 476.767 206.164" stroke="black"/>
<path d="M445.912 198.227C445.912 198.227 449.035 203.311 454.893 207.352C462.003 212.257 472.163 212.267 472.163 212.267" stroke="black"/>
<path d="M441.309 204.33C441.309 204.33 444.431 209.414 450.289 213.455C457.399 218.36 467.56 218.371 467.56 218.371" stroke="black"/>
<path d="M462.582 84.6016C462.582 84.6016 470.727 92.2517 481.944 94.2867C495.558 96.7566 509.841 84.6016 509.841 84.6016" stroke="#4F378A"/>
<path d="M460.893 59.5949C460.893 59.5949 437.229 85.1731 426.225 73.9053C415.457 62.8802 430.625 110.476 437.9 110.912C455.608 111.973 494.562 88.2935 482.527 93.2613C469.69 98.5603 460.893 59.5949 460.893 59.5949Z" fill="#4F378A"/>
<path d="M455.141 69.5762C455.141 69.5762 454.631 75.878 457.271 83.0112C460.475 91.6687 469.633 98.0701 469.633 98.0701" stroke="black"/>
<path d="M446.391 74.584C446.391 74.584 445.881 80.8858 448.521 88.019C451.725 96.6765 460.883 103.078 460.883 103.078" stroke="black"/>
<path d="M437.639 79.5918C437.639 79.5918 437.129 85.8936 439.769 93.0268C442.973 101.684 452.131 108.086 452.131 108.086" stroke="black"/>
<path d="M428.887 79.5918C428.887 79.5918 428.377 85.8936 431.017 93.0268C434.221 101.684 443.379 108.086 443.379 108.086" stroke="black"/>
<path d="M595.232 131.098C595.232 131.098 602.521 138.336 612.559 140.261C624.743 142.598 637.525 131.098 637.525 131.098" stroke="#4F378A"/>
<path d="M598.302 109.732C598.302 109.732 579.264 123.934 573.721 114.917C568.298 106.094 571.355 140.149 576.022 141.38C587.381 144.377 616.086 133.425 607.553 135.225C598.451 137.145 598.302 109.732 598.302 109.732Z" fill="#6D5BA6"/>
<path d="M571.848 122.506C571.848 122.506 576.943 123.899 583.013 122.777C590.38 121.414 596.467 114.711 596.467 114.711" stroke="black"/>
<path d="M573.303 129.416C573.303 129.416 578.398 130.809 584.468 129.687C591.835 128.325 597.922 121.621 597.922 121.621" stroke="black"/>
<path d="M574.867 135.734C574.867 135.734 579.962 137.127 586.032 136.005C593.4 134.643 599.487 127.939 599.487 127.939" stroke="black"/>
<path d="M661.02 217.971C661.02 217.971 668.308 225.209 678.347 227.134C690.53 229.471 703.312 217.971 703.312 217.971" stroke="#4F378A"/>
<path d="M673.292 199.433C673.292 199.433 652.391 209.468 648.727 199.814C645.143 190.368 641.809 223.498 646.064 225.545C656.423 230.526 686.013 225.399 677.485 225.531C668.389 225.672 673.292 199.433 673.292 199.433Z" fill="#6D5BA6"/>
<path d="M667.025 207.131C667.025 207.131 646.124 217.165 642.46 207.511C638.875 198.065 635.541 231.196 639.797 233.242C650.156 238.223 679.745 233.097 671.217 233.229C662.121 233.37 667.025 207.131 667.025 207.131Z" fill="#D6CFFF"/>
<path d="M639.756 213.842C639.756 213.842 644.358 216.449 650.516 216.859C657.99 217.356 665.519 212.357 665.519 212.357" stroke="#4F378A"/>
<path d="M639.875 222.615C639.875 222.615 644.477 225.223 650.635 225.632C658.109 226.129 665.638 221.131 665.638 221.131" stroke="#4F378A"/>
<path d="M517.695 280.359C517.695 280.359 524.984 287.597 535.022 289.523C547.206 291.86 559.988 280.359 559.988 280.359" stroke="#4F378A"/>
<path d="M525.848 282.846C525.848 282.846 495.408 272.871 501.195 259.522C506.857 246.46 471.273 276.919 473.485 283.106C478.87 298.169 513.115 321.519 504.557 313.421C495.428 304.785 525.848 282.846 525.848 282.846Z" fill="#4F378A"/>
<path d="M489.943 265.355C489.943 265.355 491.41 271.15 495.797 276.776C501.12 283.606 510.811 286.688 510.811 286.688" stroke="black"/>
<path d="M485.244 270.092C485.244 270.092 486.711 275.886 491.097 281.513C496.421 288.342 506.111 291.424 506.111 291.424" stroke="black"/>
<path d="M480.543 274.832C480.543 274.832 482.01 280.626 486.396 286.253C491.72 293.082 501.41 296.165 501.41 296.165" stroke="black"/>
<path d="M612.332 2.53223C612.332 2.53223 583.577 16.7074 578.53 3.05579C573.592 -10.3018 569.023 36.5385 574.88 39.4341C589.137 46.483 629.85 39.2524 618.115 39.4341C605.599 39.628 612.332 2.53223 612.332 2.53223Z" fill="#6D5BA6"/>
<path d="M577.414 15.7969C577.414 15.7969 582.378 19.0684 589.383 20.2271C597.884 21.6334 607.092 17.3027 607.092 17.3027" stroke="black"/>
<path d="M577.414 22.1133C577.414 22.1133 582.378 25.3848 589.383 26.5435C597.884 27.9498 607.092 23.6191 607.092 23.6191" stroke="black"/>
<path d="M577.414 28.4316C577.414 28.4316 582.378 31.7032 589.383 32.8619C597.884 34.2681 607.092 29.9374 607.092 29.9374" stroke="black"/>
<path d="M606.98 37.9102C606.98 37.9102 614.269 45.1482 624.307 47.0737C636.491 49.4106 649.273 37.9102 649.273 37.9102" stroke="#4F378A"/>
<path d="M599.271 11.9332C599.271 11.9332 571.446 25.6616 566.561 12.4371C561.781 -0.502498 557.364 44.87 563.032 47.6755C576.83 54.5049 616.227 47.5047 604.872 47.6797C592.76 47.8662 599.271 11.9332 599.271 11.9332Z" fill="#A89FE3"/>
<path d="M566.666 30.4668C566.666 30.4668 570.965 33.4652 577.031 34.5271C584.393 35.816 592.368 31.8469 592.368 31.8469" stroke="black"/>
<path d="M566.98 23.9531C566.98 23.9531 571.28 26.9515 577.346 28.0134C584.708 29.3023 592.682 25.3332 592.682 25.3332" stroke="black"/>
<path d="M566.666 35.5332C566.666 35.5332 570.965 38.5316 577.031 39.5935C584.393 40.8824 592.368 36.9133 592.368 36.9133" stroke="black"/>
<path d="M334.147 404.809L305.638 423.195L264.722 445.869L321.849 426.869L369.923 445.869L394.519 423.195L334.147 404.809Z" fill="#F4F1FF"/>
<path d="M377.43 419.115C377.43 419.115 373.188 420.859 368.534 424.69C362.886 429.338 359.019 436.693 359.019 436.693" stroke="black"/>
<path d="M366.586 418.441C366.586 418.441 362.766 419.783 358.693 423.059C353.749 427.035 350.622 433.683 350.622 433.683" stroke="black"/>
<path d="M358.859 414.787C358.859 414.787 354.923 416.24 350.689 419.669C345.55 423.831 342.219 430.675 342.219 430.675" stroke="black"/>
<path d="M350.432 411.805C350.432 411.805 346.5 413.253 342.272 416.677C337.141 420.831 333.817 427.668 333.817 427.668" stroke="black"/>
<path d="M340.977 408.334C340.977 408.334 337.045 409.783 332.817 413.206C327.686 417.361 324.362 424.197 324.362 424.197" stroke="black"/>
<path d="M326.436 411.559C326.436 411.559 323.479 413.019 320.856 416.146C317.673 419.942 316.849 425.86 316.849 425.86" stroke="black"/>
<path d="M313.867 417.121C313.867 417.121 311.594 418.447 310.104 421.024C308.297 424.151 309.249 428.733 309.249 428.733" stroke="black"/>
<path d="M302.979 425.34C302.979 425.34 301.2 426.179 300.506 427.683C299.664 429.508 301.825 432.026 301.825 432.026" stroke="black"/>
<path d="M292.678 432.102C292.678 432.102 291.431 432.52 290.976 433.347C290.424 434.35 292.034 435.836 292.034 435.836" stroke="black"/>
<path d="M378.758 428.345C378.974 428.46 379.19 428.539 379.405 428.581C379.619 428.626 379.831 428.632 380.04 428.599C380.247 428.567 380.448 428.495 380.643 428.382C380.837 428.268 381.022 428.113 381.196 427.916C381.481 427.594 381.664 427.219 381.745 426.793C381.826 426.367 381.786 425.919 381.627 425.448C381.467 424.977 381.171 424.513 380.738 424.055C380.306 423.598 379.871 423.291 379.433 423.134C378.996 422.977 378.582 422.952 378.191 423.06C377.799 423.168 377.455 423.39 377.157 423.727C376.881 424.04 376.699 424.379 376.611 424.746C376.523 425.116 376.532 425.486 376.639 425.856C376.746 426.23 376.952 426.579 377.258 426.902L377.04 427.063L378.489 425.424L379.026 425.992L377.191 428.067L376.654 427.5C376.243 427.064 375.97 426.59 375.835 426.077C375.698 425.566 375.695 425.054 375.823 424.541C375.952 424.032 376.208 423.562 376.591 423.129C377.017 422.646 377.496 422.333 378.027 422.187C378.557 422.044 379.104 422.073 379.668 422.275C380.231 422.479 380.776 422.86 381.303 423.417C381.698 423.835 382.003 424.268 382.216 424.717C382.43 425.17 382.554 425.62 382.589 426.069C382.623 426.517 382.571 426.95 382.433 427.366C382.295 427.783 382.071 428.166 381.762 428.515C381.508 428.802 381.231 429.028 380.932 429.192C380.633 429.359 380.325 429.464 380.007 429.506C379.69 429.552 379.373 429.534 379.057 429.454C378.743 429.375 378.442 429.233 378.156 429.026L378.758 428.345ZM372.223 428.047C372.549 427.678 372.916 427.44 373.323 427.332C373.729 427.225 374.145 427.247 374.573 427.397C374.999 427.549 375.405 427.83 375.792 428.239C376.183 428.652 376.455 429.09 376.61 429.552C376.763 430.016 376.798 430.471 376.714 430.918C376.629 431.367 376.424 431.776 376.097 432.145C375.771 432.514 375.405 432.751 375 432.858C374.592 432.966 374.175 432.943 373.747 432.789C373.318 432.638 372.908 432.355 372.518 431.942C372.131 431.533 371.862 431.097 371.71 430.635C371.557 430.175 371.523 429.72 371.608 429.271C371.692 428.824 371.897 428.416 372.223 428.047ZM372.74 428.594C372.492 428.875 372.354 429.175 372.326 429.495C372.298 429.815 372.353 430.132 372.491 430.446C372.628 430.76 372.823 431.05 373.073 431.315C373.324 431.58 373.595 431.783 373.889 431.925C374.182 432.067 374.475 432.118 374.768 432.078C375.062 432.038 375.332 431.878 375.58 431.598C375.828 431.318 375.965 431.016 375.992 430.694C376.018 430.373 375.962 430.054 375.822 429.738C375.683 429.422 375.488 429.132 375.237 428.867C374.987 428.602 374.716 428.4 374.424 428.26C374.133 428.119 373.841 428.07 373.549 428.112C373.258 428.153 372.988 428.314 372.74 428.594ZM368.665 432.049C368.894 431.791 369.147 431.603 369.423 431.486C369.7 431.372 369.98 431.343 370.26 431.399C370.542 431.457 370.805 431.615 371.049 431.873C371.264 432.1 371.397 432.331 371.449 432.564C371.503 432.799 371.499 433.034 371.439 433.269C371.379 433.504 371.286 433.735 371.159 433.96C371.031 434.19 370.895 434.411 370.75 434.625C370.56 434.904 370.404 435.129 370.282 435.299C370.16 435.472 370.087 435.614 370.062 435.724C370.035 435.837 370.068 435.942 370.16 436.04L370.18 436.06C370.421 436.315 370.671 436.441 370.932 436.438C371.19 436.438 371.448 436.293 371.703 436.004C371.968 435.704 372.116 435.405 372.146 435.108C372.176 434.81 372.154 434.554 372.078 434.341L372.8 433.951C372.934 434.299 372.986 434.628 372.956 434.939C372.926 435.254 372.843 435.544 372.707 435.809C372.571 436.076 372.411 436.313 372.23 436.519C372.114 436.65 371.966 436.785 371.786 436.925C371.606 437.068 371.402 437.172 371.173 437.239C370.942 437.308 370.691 437.301 370.42 437.22C370.148 437.139 369.864 436.941 369.566 436.626L367.097 434.015L367.652 433.387L368.16 433.924L368.188 433.892C368.144 433.764 368.12 433.601 368.115 433.403C368.11 433.206 368.148 432.99 368.229 432.757C368.31 432.523 368.455 432.287 368.665 432.049ZM369.098 432.692C368.878 432.941 368.738 433.197 368.677 433.462C368.614 433.729 368.615 433.98 368.68 434.217C368.743 434.455 368.853 434.657 369.009 434.822L369.536 435.379C369.53 435.322 369.555 435.235 369.61 435.119C369.666 435.006 369.737 434.881 369.822 434.745C369.908 434.613 369.993 434.485 370.077 434.361C370.161 434.241 370.229 434.143 370.281 434.067C370.406 433.883 370.509 433.697 370.59 433.509C370.672 433.324 370.708 433.142 370.699 432.964C370.689 432.79 370.611 432.625 370.465 432.47C370.265 432.259 370.042 432.179 369.797 432.232C369.552 432.289 369.319 432.442 369.098 432.692ZM370.526 441.073L365.529 435.789L366.084 435.161L371.081 440.445L370.526 441.073ZM370.796 418.154L371.148 417.435C371.265 417.49 371.395 417.527 371.538 417.544C371.681 417.564 371.83 417.544 371.988 417.484C372.145 417.423 372.304 417.302 372.466 417.119C372.687 416.869 372.818 416.605 372.86 416.326C372.902 416.051 372.842 415.829 372.681 415.658C372.538 415.507 372.375 415.444 372.191 415.47C372.008 415.496 371.782 415.6 371.513 415.783L370.84 416.245C370.436 416.524 370.071 416.665 369.745 416.667C369.421 416.67 369.128 416.534 368.866 416.257C368.651 416.03 368.519 415.759 368.469 415.446C368.417 415.134 368.448 414.806 368.562 414.464C368.677 414.121 368.874 413.791 369.155 413.474C369.523 413.057 369.911 412.8 370.319 412.702C370.726 412.604 371.121 412.688 371.504 412.952L371.114 413.693C370.862 413.536 370.616 413.483 370.376 413.535C370.134 413.587 369.899 413.743 369.672 414C369.413 414.292 369.264 414.585 369.226 414.877C369.188 415.173 369.249 415.406 369.41 415.577C369.54 415.714 369.693 415.78 369.869 415.773C370.046 415.769 370.248 415.687 370.474 415.527L371.222 415.001C371.634 414.713 372.004 414.571 372.33 414.576C372.656 414.585 372.948 414.726 373.207 414.999C373.418 415.223 373.548 415.486 373.596 415.787C373.643 416.09 373.613 416.404 373.506 416.727C373.398 417.052 373.217 417.358 372.963 417.646C372.606 418.05 372.244 418.281 371.877 418.34C371.509 418.4 371.149 418.338 370.796 418.154Z" fill="black"/>
<path d="M627.665 534.084C605.923 554.597 575.327 527.078 561.574 549.768C541.955 582.136 635.556 642.321 648.309 596.65C658.019 561.877 692.998 606.532 709.435 589.14C735.303 561.77 663.758 500.031 627.665 534.084Z" fill="#D6CFFF"/>
<path d="M621.316 457.933L624.767 463.788L609.85 458.697L621.646 453.125L617.473 446.045L632.544 447.977L632.544 453.125L621.316 457.933Z" fill="#4F378A"/>
<path d="M625.495 573.41L631.786 569.458L629.309 580.896L619.535 574.531L611.927 579.311L610.504 568.651L616.797 567.213L625.495 573.41Z" fill="#4F378A"/>
<path d="M644.3 458.561L656.198 462.287L640.571 468.299L626.002 465.481L631.729 452.086L636.277 457.215L639.674 449.731L644.3 458.561Z" fill="#4F378A"/>
<path d="M601.61 463.282L593.164 472.162L593.934 455.99L602.624 444.394L612.936 454.948L606.201 456.811L611.88 462.88L601.61 463.282Z" fill="#4F378A"/>
<path d="M669.07 462.395H582.848C573.287 462.395 603.563 557.731 611.176 557.731H643.753C653.65 557.731 681.641 462.395 669.07 462.395Z" fill="#A89FE3"/>
<path d="M601.359 472.543L624.174 546.405M618.777 472.543L640.61 546.405M636.195 472.543L655.33 532.954" stroke="#4F378A"/>
<path d="M666.002 479.412L594.258 496.639M664.899 495.888L593.217 512.187M663.796 512.364L605.088 526.904" stroke="#4F378A"/>
<path d="M664.602 568.45L654.03 579.622L658.843 565.596L648.177 568.78L662.527 554.858L658.843 565.596L676.011 560.471L671.091 567.616L674.577 574.934L664.602 568.45Z" fill="#4F378A"/>
<path d="M680.28 518.113L669.644 524.453L674.952 509.09L686.59 500.201L693.534 513.053L686.526 513.086L690.278 520.411L680.28 518.113Z" fill="#4F378A"/>
<path d="M575.595 557.581L572.478 563.606L568.524 548.863L579.923 555.155L583.692 547.868L590.454 560.967L580.644 560.367L575.595 557.581Z" fill="#4F378A"/>
<path d="M682.072 515.256C682.072 515.256 686.638 519.581 692.927 520.732C700.559 522.129 708.567 515.256 708.567 515.256" stroke="#4F378A"/>
<path d="M612.891 560.232C612.891 560.232 618.443 558.026 622.366 558.047C626.75 558.07 628.551 560.849 632.935 560.894C636.934 560.935 642.618 558.715 642.618 558.715" stroke="black"/>
<path d="M279.533 504.766C279.516 504.55 280.146 504.166 279.525 503.993C278.719 503.769 278.785 503.973 277.641 504.014C276.747 504.046 276.289 503.859 275.631 504.035C274.973 504.212 276.406 504.583 276.393 504.8C276.379 505.028 276.225 505.347 276.401 505.592C276.577 505.838 276.909 506.07 277.658 505.579C279.539 505.346 280.504 506.657 280.492 505.548C280.489 505.24 279.551 504.994 279.533 504.766Z" fill="#422713"/>
<path d="M284.982 495.67C284.797 495.559 284.85 494.819 284.351 495.23C283.704 495.765 283.907 495.827 283.28 496.793C282.79 497.546 282.374 497.816 282.136 498.459C281.899 499.103 283.027 498.138 283.196 498.274C283.372 498.417 283.541 498.728 283.842 498.725C284.142 498.722 284.522 498.583 284.556 497.683C285.455 496 287.073 495.963 286.169 495.332C285.917 495.156 285.177 495.786 284.982 495.67Z" fill="#422713"/>
<path d="M270.871 497.364C267.822 497.374 262.521 497.281 260.002 497.717C256.732 498.283 259.6 499.121 260.002 499.927C260.316 500.556 257.448 501.165 260.002 501.606C262.521 502.042 265.557 502.265 268.607 502.276C271.808 502.287 275.023 502.064 277.667 501.606C280.818 501.062 286.272 499.927 279.478 499.397C279.259 498.736 284.007 498.601 282.007 497.048C280.949 496.226 274.073 497.352 270.871 497.364Z" fill="#422713"/>
<path d="M283.734 465.857C283.504 461.263 253.925 468.025 253.925 465.857V477.052C243.881 460.727 236.812 504.104 253.925 493.843C253.925 493.843 254.666 499.906 259.377 499.906H278.781C288.983 499.906 283.964 470.451 283.734 465.857Z" fill="#4F378A"/>
<path d="M253.925 493.843C253.925 493.843 254.666 499.906 259.377 499.906C271.631 499.906 268.579 499.906 278.781 499.906C288.983 499.906 283.964 470.451 283.734 465.857C283.504 461.263 253.925 468.025 253.925 465.857C253.925 457.722 253.925 473.32 253.925 477.052M253.925 493.843C236.812 504.104 243.881 460.727 253.925 477.052M253.925 493.843V477.052" stroke="#4F378A"/>
<path d="M281.428 466.86C281.428 466.86 276.653 471.225 273.236 471.424C269.417 471.647 267.771 466.679 263.952 466.86C260.467 467.026 255.578 471.424 255.578 471.424" stroke="black"/>
<path d="M270.895 454.137C270.895 454.137 266.832 448.972 266.578 445.213C266.295 441.012 270.77 439.094 270.523 434.892C270.299 431.058 266.203 425.767 266.203 425.767" stroke="black"/>
<path d="M250.498 477.533C250.498 477.533 247.924 479.228 247.737 483.974C247.55 488.719 250.498 490.753 250.498 490.753" stroke="black"/>
<path d="M261.22 504.177C266.717 504.744 277.466 504.373 272.714 503.417C268.564 502.583 264.668 503.743 261.278 503.46C257.889 503.177 255.931 501.732 252.04 501.691C247.387 501.643 256.331 503.672 261.22 504.177Z" fill="#422713"/>
<ellipse cx="134.713" cy="93.9813" rx="64.2224" ry="64.7586" fill="#4F378A"/>
<ellipse cx="134.711" cy="93.981" rx="54.824" ry="55.2817" fill="#F4F1FF"/>
<ellipse cx="134.711" cy="93.9814" rx="7.832" ry="7.89739" fill="#4F378A"/>
<ellipse cx="134.711" cy="93.9819" rx="3.916" ry="3.9487" fill="#F4F1FF"/>
<path d="M157.725 134.478C157.725 134.478 159.004 134.537 159.38 133.204C159.755 131.871 154.31 126.162 154.31 126.162C154.31 126.162 152.904 126.133 152.528 127.466C152.153 128.799 157.725 134.478 157.725 134.478Z" fill="#A89FE3"/>
<path d="M134.857 42.388C134.857 42.388 133.375 41.2866 131.734 42.3982C130.093 43.5097 131.524 53.9991 131.524 53.9991C131.524 53.9991 133.184 55.1715 134.825 54.06C136.467 52.9484 134.857 42.388 134.857 42.388Z" fill="#4F378A"/>
<path d="M157.48 51.4581C157.48 51.4581 157.08 50.2313 155.711 50.3509C154.342 50.4705 150.984 57.6315 150.984 57.6315C150.984 57.6315 151.457 58.9671 152.826 58.8475C154.195 58.7279 157.48 51.4581 157.48 51.4581Z" fill="#A89FE3"/>
<path d="M173.516 68.678C173.516 68.678 173.827 67.4252 172.606 66.7898C171.384 66.1543 164.755 70.4043 164.755 70.4043C164.755 70.4043 164.448 71.7882 165.67 72.4237C166.891 73.0591 173.516 68.678 173.516 68.678Z" fill="#A89FE3"/>
<path d="M100.153 114.637C100.153 114.637 100.464 113.384 99.2423 112.749C98.0211 112.113 91.3919 116.363 91.3919 116.363C91.3919 116.363 91.0851 117.747 92.3063 118.383C93.5276 119.018 100.153 114.637 100.153 114.637Z" fill="#A89FE3"/>
<path d="M134.861 130.837C134.861 130.837 133.379 129.736 131.738 130.847C130.097 131.959 131.528 142.448 131.528 142.448C131.528 142.448 133.188 143.621 134.829 142.509C136.471 141.398 134.861 130.837 134.861 130.837Z" fill="#4F378A"/>
<path d="M100.127 76.4325C100.127 76.4325 101.376 76.1468 101.387 74.7611C101.398 73.3754 94.6455 69.3281 94.6455 69.3281C94.6455 69.3281 93.2823 69.6766 93.271 71.0623C93.2597 72.4479 100.127 76.4325 100.127 76.4325Z" fill="#A89FE3"/>
<path d="M95.1125 96.4986C95.1125 96.4986 96.2048 95.0043 95.1024 93.3494C94 91.6945 83.5976 93.1372 83.5976 93.1372C83.5976 93.1372 82.4348 94.8117 83.5372 96.4666C84.6395 98.1215 95.1125 96.4986 95.1125 96.4986Z" fill="#4F378A"/>
<path d="M174.397 90.9037C174.397 90.9037 173.305 92.398 174.407 94.0529C175.51 95.7078 185.912 94.2651 185.912 94.2651C185.912 94.2651 187.075 92.5906 185.973 90.9357C184.87 89.2808 174.397 90.9037 174.397 90.9037Z" fill="#4F378A"/>
<path d="M131.58 65.2327H133.627H135.496L133.627 59.2324L131.58 65.2327Z" fill="#6D5BA6"/>
<path d="M133.627 86.0836V65.2327M133.627 65.2327H131.58L133.627 59.2324L135.496 65.2327H133.627Z" stroke="#6D5BA6" stroke-width="2"/>
<path d="M176.648 118.574C176.648 118.574 177.832 118.083 177.615 116.714C177.397 115.346 170.07 112.489 170.07 112.489C170.07 112.489 168.784 113.061 169.001 114.429C169.219 115.797 176.648 118.574 176.648 118.574Z" fill="#A89FE3"/>
<path d="M114.065 127.165C114.065 127.165 113.601 125.961 112.24 126.154C110.879 126.347 107.905 133.679 107.905 133.679C107.905 133.679 108.447 134.987 109.808 134.794C111.169 134.601 114.065 127.165 114.065 127.165Z" fill="#A89FE3"/>
<path d="M115.425 60.6134C115.425 60.6134 116.699 60.4834 116.877 59.1095C117.056 57.7355 110.843 52.8881 110.843 52.8881C110.843 52.8881 109.448 53.0663 109.269 54.4403C109.091 55.8142 115.425 60.6134 115.425 60.6134Z" fill="#A89FE3"/>
<path d="M152.948 100.175L152.11 102.058L151.344 103.777L155.544 103.613L152.948 100.175Z" fill="#6D5BA6"/>
<path d="M140.174 96.6537L152.11 102.058M152.11 102.058L152.948 100.175L155.544 103.613L151.344 103.777L152.11 102.058Z" stroke="#6D5BA6" stroke-width="2"/>
<path d="M213.952 609.045C185.802 613.308 159.645 585.169 159.645 585.169C176.749 593.136 245.041 590.907 260.796 585.622C264.019 583.148 265.277 582.134 263.804 584.003C263.36 584.567 262.326 585.109 260.796 585.622C253.029 591.586 233.847 606.031 213.952 609.045Z" fill="#4F378A"/>
<path d="M204.024 649.172V605.736H213.031V649.172L254.932 669.705L245.925 672.864L213.031 658.649V672.864H204.024V658.649L165.256 672.864L155.857 669.705L204.024 649.172Z" fill="#4F378A"/>
<path d="M285.086 704.845V546.502H293.31V704.845H285.086Z" fill="#D6CFFF"/>
<path d="M129.227 675.624V517.281H137.45V675.624H129.227Z" fill="#D6CFFF"/>
<defs>
<linearGradient id="paint0_linear_547_11550" x1="229.085" y1="254.692" x2="186.482" y2="292.247" gradientUnits="userSpaceOnUse">
<stop stop-color="#7E5334"/>
<stop offset="1" stop-color="#E4965E"/>
</linearGradient>
<linearGradient id="paint1_linear_547_11550" x1="294.482" y1="200.2" x2="-64.8263" y2="360.258" gradientUnits="userSpaceOnUse">
<stop stop-color="#7E5334"/>
<stop offset="1" stop-color="#E4965E"/>
</linearGradient>
<linearGradient id="paint2_linear_547_11550" x1="353.223" y1="289.047" x2="194.295" y2="386.189" gradientUnits="userSpaceOnUse">
<stop stop-color="#7E5334"/>
<stop offset="1" stop-color="#E4965E"/>
</linearGradient>
<linearGradient id="paint3_linear_547_11550" x1="341.087" y1="439.575" x2="80.6167" y2="422.506" gradientUnits="userSpaceOnUse">
<stop stop-color="#7E5334"/>
<stop offset="1" stop-color="#E4965E"/>
</linearGradient>
</defs>
</svg>
