<svg width="143" height="161" viewBox="0 0 143 161" fill="none" xmlns="http://www.w3.org/2000/svg">
<path d="M140.705 160.148C141.533 160.146 142.203 159.473 142.201 158.645C142.199 157.816 141.526 157.146 140.697 157.148L140.705 160.148ZM2.57489 108.998L4.07489 108.995L2.57489 108.998ZM52.7015 158.872L52.6977 157.372L52.7015 158.872ZM0.798741 0.00380033L0.808604 3.8966L3.80859 3.889L3.79873 -0.00380033L0.798741 0.00380033ZM0.828329 11.6822L0.848055 19.4678L3.84804 19.4602L3.82832 11.6746L0.828329 11.6822ZM0.86778 27.2534L0.887505 35.039L3.8875 35.0314L3.86777 27.2458L0.86778 27.2534ZM0.90723 42.8246L0.926956 50.6102L3.92695 50.6026L3.90722 42.817L0.90723 42.8246ZM0.946681 58.3957L0.966406 66.1813L3.9664 66.1737L3.94667 58.3881L0.946681 58.3957ZM0.986132 73.9669L1.00586 81.7525L4.00585 81.7449L3.98612 73.9593L0.986132 73.9669ZM1.02558 89.5381L1.04531 97.3237L4.0453 97.3161L4.02557 89.5305L1.02558 89.5381ZM1.06503 105.109L1.0749 109.002L4.07489 108.995L4.06502 105.102L1.06503 105.109ZM1.0749 109.002C1.07834 110.362 1.13454 111.711 1.24158 113.045L4.23197 112.805C4.13112 111.548 4.07814 110.277 4.07489 108.995L1.0749 109.002ZM2.51748 121.025C3.1577 123.671 4.0022 126.237 5.03327 128.706L7.80153 127.55C6.83093 125.226 6.03601 122.81 5.43336 120.319L2.51748 121.025ZM8.72639 135.896C10.1474 138.197 11.7443 140.377 13.4982 142.418L15.7736 140.463C14.1213 138.54 12.6171 136.486 11.2789 134.319L8.72639 135.896ZM19.2266 148.118C21.2766 149.861 23.4651 151.447 25.7732 152.856L27.3366 150.296C25.1629 148.969 23.1015 147.475 21.1702 145.832L19.2266 148.118ZM32.9814 156.513C35.4553 157.532 38.0259 158.363 40.6754 158.99L41.366 156.07C38.8721 155.48 36.4524 154.698 34.1236 153.739L32.9814 156.513ZM48.6619 160.225C49.9965 160.326 51.3449 160.375 52.7053 160.372L52.6977 157.372C51.4149 157.375 50.144 157.328 48.8867 157.234L48.6619 160.225ZM52.7053 160.372L57.1053 160.36L57.0977 157.36L52.6977 157.372L52.7053 160.372ZM65.9052 160.338L74.7052 160.316L74.6976 157.316L65.8976 157.338L65.9052 160.338ZM83.5052 160.293L92.3051 160.271L92.2975 157.271L83.4976 157.293L83.5052 160.293ZM101.105 160.249L109.905 160.227L109.897 157.227L101.098 157.249L101.105 160.249ZM118.705 160.204L127.505 160.182L127.497 157.182L118.697 157.204L118.705 160.204ZM136.305 160.16L140.705 160.148L140.697 157.148L136.297 157.16L136.305 160.16Z" fill="#4F378A"/>
</svg>
