<svg width="154" height="288" viewBox="0 0 154 288" fill="none" xmlns="http://www.w3.org/2000/svg">
<path d="M153.005 287.369C153.557 287.366 154.003 286.916 154 286.364C153.997 285.812 153.548 285.366 152.995 285.369L153.005 287.369ZM15.3315 236.84L16.3315 236.839L15.3315 236.84ZM65.5609 286.77L65.5654 287.77L65.5609 286.77ZM14 0.00139951L14.0055 3.94874L16.0055 3.94594L16 -0.00139951L14 0.00139951ZM14.0166 11.8434L14.0276 19.7381L16.0276 19.7353L16.0166 11.8406L14.0166 11.8434ZM14.0387 27.6328L14.0497 35.5274L16.0497 35.5246L16.0387 27.63L14.0387 27.6328ZM14.0608 43.4221L14.0718 51.3168L16.0718 51.314L16.0608 43.4193L14.0608 43.4221ZM14.0829 59.2115L14.0939 67.1062L16.0939 67.1034L16.0829 59.2087L14.0829 59.2115ZM14.105 75.0008L14.116 82.8955L16.116 82.8927L16.105 74.998L14.105 75.0008ZM14.1271 90.7902L14.1381 98.6849L16.1381 98.6821L16.1271 90.7874L14.1271 90.7902ZM14.1492 106.58L14.1602 114.474L16.1602 114.471L16.1492 106.577L14.1492 106.58ZM14.1712 122.369L14.1823 130.264L16.1823 130.261L16.1712 122.366L14.1712 122.369ZM14.1933 138.158L14.2044 146.053L16.2044 146.05L16.1933 138.155L14.1933 138.158ZM14.2155 153.948L14.2265 161.842L16.2265 161.839L16.2154 153.945L14.2155 153.948ZM14.2375 169.737L14.2486 177.632L16.2486 177.629L16.2375 169.734L14.2375 169.737ZM14.2596 185.526L14.2707 193.421L16.2707 193.418L16.2596 185.523L14.2596 185.526ZM14.2817 201.316L14.2928 209.21L16.2928 209.208L16.2817 201.313L14.2817 201.316ZM14.3038 217.105L14.3149 225L16.3149 224.997L16.3038 217.102L14.3038 217.105ZM14.3259 232.894L14.3315 236.842L16.3315 236.839L16.3259 232.892L14.3259 232.894ZM14.3315 236.842C14.3333 238.192 14.3877 239.53 14.4926 240.854L16.4864 240.696C16.3855 239.424 16.3333 238.137 16.3315 236.839L14.3315 236.842ZM15.7521 248.774C16.3857 251.4 17.2224 253.947 18.2446 256.396L20.0903 255.626C19.1085 253.273 18.3049 250.827 17.6964 248.305L15.7521 248.774ZM21.9079 263.531C23.318 265.814 24.903 267.978 26.6441 270.003L28.1606 268.699C26.4874 266.753 24.9644 264.674 23.6096 262.48L21.9079 263.531ZM32.3313 275.656C34.3667 277.385 36.5396 278.957 38.8313 280.353L39.872 278.645C37.6701 277.304 35.5822 275.793 33.6261 274.132L32.3313 275.656ZM45.9877 283.974C48.4436 284.981 50.9954 285.803 53.6254 286.421L54.0827 284.474C51.5567 283.88 49.1058 283.091 46.7468 282.124L45.9877 283.974ZM61.5524 287.633C62.8769 287.73 64.2152 287.776 65.5654 287.77L65.5563 285.77C64.2579 285.776 62.9714 285.731 61.6984 285.638L61.5524 287.633ZM65.5654 287.77L69.9374 287.75L69.9282 285.75L65.5563 285.77L65.5654 287.77ZM78.6813 287.71L87.4252 287.669L87.4161 285.67L78.6721 285.71L78.6813 287.71ZM96.1691 287.629L104.913 287.589L104.904 285.589L96.16 285.629L96.1691 287.629ZM113.657 287.549L122.401 287.509L122.392 285.509L113.648 285.549L113.657 287.549ZM131.145 287.469L139.889 287.429L139.88 285.429L131.136 285.469L131.145 287.469ZM148.633 287.389L153.005 287.369L152.995 285.369L148.623 285.389L148.633 287.389Z" fill="#65558F"/>
<circle cx="15" cy="252" r="14" fill="white" stroke="#65558F" stroke-width="2"/>
</svg>
