<svg width="73" height="82" viewBox="0 0 73 82" fill="none" xmlns="http://www.w3.org/2000/svg">
<path d="M36.328 57.068C26.92 66.86 19.848 73.804 15.112 77.9C12.744 80.012 10.728 81.068 9.064 81.068C7.464 81.068 5.544 79.788 3.304 77.228C1.128 74.668 0.0400027 72.556 0.0400027 70.892C0.0400027 69.292 1.384 67.34 4.072 65.036L28.168 43.916L9.448 43.916C7.912 43.916 6.792 43.852 6.088 43.724C5.384 43.66 4.552 43.372 3.592 42.86C1.864 41.964 1 39.468 1 35.372C1 30.892 2.216 28.268 4.648 27.5C5.672 27.116 7.304 26.924 9.544 26.924L62.92 26.924C64.392 26.924 65.48 26.956 66.184 27.02C66.952 27.148 67.816 27.468 68.776 27.98C70.504 28.876 71.368 31.372 71.368 35.468C71.368 39.948 70.184 42.604 67.816 43.436C66.728 43.756 65.064 43.916 62.824 43.916L44.488 43.916C54.28 52.62 62.312 59.66 68.584 65.036C71.208 67.276 72.52 69.228 72.52 70.892C72.52 72.556 71.4 74.668 69.16 77.228C66.984 79.788 65.064 81.068 63.4 81.068C61.8 81.068 59.88 80.108 57.64 78.188C53.352 74.476 47.464 68.716 39.976 60.908L36.328 57.068Z" fill="#4F378A"/>
<rect x="27.9609" width="16" height="48" rx="4" fill="#4F378A"/>
</svg>
