<svg width="908" height="456" viewBox="0 0 908 456" fill="none" xmlns="http://www.w3.org/2000/svg">
<path d="M830.956 286.052C795.503 492.902 159.502 468.903 173.501 274.403C186.191 98.1063 263.358 0 587.36 0C743.003 0 866.159 80.6601 830.956 286.052Z" fill="#F4F1FF"/>
<path d="M687 359.402H476C476 359.402 476 237.902 617 237.902C737 237.902 687 359.402 687 359.402Z" fill="#4F378A"/>
<path d="M860 355.902H298.5L0 436.902C0 436.902 183.814 394.517 365.5 450.902C462.5 481.006 860 355.902 860 355.902Z" fill="#D6CFFF"/>
<path d="M433.393 307.32C428.222 313.404 404.609 344.716 417.912 366.772C442.335 368.542 486.359 315.463 490.601 281.819C491.571 274.121 471.479 272.299 460.544 272.717C444.634 288.897 438.563 301.236 433.393 307.32Z" fill="#7E5334"/>
<path d="M461.704 262.321C468.644 255.543 475.484 249.631 484.65 252.807C493.536 255.886 498.421 264.203 496.976 273.496C494.561 289.037 488.172 298.642 488.172 298.642L450.593 286.432C450.593 286.432 452.904 270.916 461.704 262.321Z" fill="#6D5BA6"/>
<path d="M489.646 250.512C479.188 249.137 473.052 235.642 473.052 235.642C473.052 235.642 509.802 217.205 513.627 218.713C517.924 220.408 527.864 231.171 527.864 231.171C527.864 231.171 505.077 252.541 489.646 250.512Z" fill="#7E5334"/>
<path d="M435.678 174.115C435.621 178.153 442.059 195.302 442.029 199.569C441.998 203.836 447.745 224.015 450.59 229.333C459.385 245.776 465.639 246.224 486.059 238.072C512.223 227.626 517.866 220.942 517.927 212.397C517.988 203.852 517.647 201.322 518.093 189.18C540.672 188.253 534.253 149.765 519.002 164.368C511.525 171.529 508.799 135.269 508.799 135.269C508.799 135.269 467.132 143.831 451.196 144.486C436.729 145.08 435.736 170.077 435.678 174.115Z" fill="#7E5334"/>
<path d="M472.762 159.87C471.6 159.305 470.903 158.302 470.839 157.589C470.761 156.714 472.731 156.451 474.302 156.816C476.682 157.37 483.824 161.222 485.612 162.768C486.711 163.718 487.813 165.499 487.485 166.147C487.158 166.796 486.089 167.935 484.578 167.327C483.067 166.72 480.937 163.985 479.798 163.293C478.602 162.567 475.058 160.987 472.762 159.87Z" fill="black" stroke="#422713"/>
<path d="M446.45 163.525C446.96 162.727 446.909 161.731 446.572 161.155C446.157 160.449 444.637 160.849 443.734 161.617C442.367 162.781 439.437 167.981 439.016 169.736C438.757 170.815 438.942 172.542 439.519 172.948C440.096 173.353 441.455 173.912 442.186 172.973C442.917 172.035 442.939 169.247 443.365 168.358C443.812 167.424 445.443 165.102 446.45 163.525Z" fill="black" stroke="#422713"/>
<path d="M463.843 228.036C461.257 226.884 461.947 228.14 459.032 225.011C456.117 221.883 459.909 222.357 462.311 221.805C464.714 221.253 466.17 221.347 468.673 220.005C471.175 218.663 478.139 213.693 479.033 213.994C479.033 213.994 477.389 220.701 476.099 222.42C474.605 224.411 472.784 226.493 470.936 227.288L470.933 227.29C469.085 228.085 466.475 229.208 463.843 228.036Z" fill="#734B55" stroke="#422713"/>
<path d="M473.744 183.94C476.098 188.698 478.957 182.655 478.344 179.185C477.732 175.715 476.064 173.162 474.619 173.484C473.174 173.806 472.498 176.879 473.111 180.349C473.723 183.819 473.744 183.94 473.744 183.94Z" fill="black"/>
<path d="M445.744 185.94C448.098 190.698 450.957 184.655 450.344 181.185C449.732 177.715 448.064 175.162 446.619 175.484C445.174 175.806 444.498 178.879 445.111 182.349C445.723 185.819 445.744 185.94 445.744 185.94Z" fill="black"/>
<path d="M466.098 207.781C466.098 207.781 461.537 206.632 459.36 209.069" stroke="#422713"/>
<path d="M506.366 179.402C506.366 179.402 509.084 173.419 503.925 171.999" stroke="#422713"/>
<path d="M453.65 187.346C453.65 187.346 455.723 193.103 455.723 197.735C455.723 203.236 455.059 207.394 454.777 210.541C454.611 212.397 456.249 213.289 458.565 213.64C461.678 214.112 469.405 209.984 469.405 209.984" stroke="#422713"/>
<path d="M537.691 235.227C537.243 246.001 526.428 218.249 525.171 207.516C523.899 196.656 528.168 189.842 525.171 183.878L524.058 175.031C524.058 175.031 524.913 175.061 525.514 175.029C525.224 174.726 525.187 174.59 525.554 174.684C526.436 174.911 526.093 174.998 525.514 175.029C526.648 176.213 531.652 179.94 531.551 182.365C531.241 189.819 527.029 197.466 530.245 213.743C534.191 233.713 537.803 232.546 537.691 235.227Z" fill="black"/>
<path d="M529.331 241.922C530.636 249.803 518.288 231.14 515.802 223.477C513.287 215.722 515.889 209.981 512.906 205.977L510.804 199.668C510.804 199.668 511.404 199.596 511.818 199.506C511.57 199.318 511.524 199.223 511.793 199.251C512.442 199.319 512.216 199.42 511.818 199.506C512.785 200.242 516.83 202.399 517.123 204.173C518.025 209.626 516.239 215.649 520.921 227.126C526.666 241.208 529.007 239.961 529.331 241.922Z" fill="black"/>
<path d="M536.032 245.668C538.224 253.175 526.209 234.371 523.18 226.937C520.115 219.414 521.136 214.339 518.312 210.268L515.777 204.141C515.777 204.141 516.208 204.14 516.499 204.102C516.288 203.899 516.239 203.805 516.442 203.861C516.93 203.996 516.779 204.066 516.499 204.102C517.327 204.897 520.645 207.36 521.138 209.05C522.655 214.244 522.279 219.673 527.523 230.914C533.956 244.705 535.486 243.8 536.032 245.668Z" fill="black"/>
<path d="M529.837 197.352C537.163 210.953 536.234 215.591 540.332 227.278C545.585 242.255 541.707 214.22 526.881 188.925C522.419 181.312 507.808 160.814 502.301 154.129C498.916 150.02 493.644 150.021 495.255 150.594C496.867 151.166 494.35 151.045 494.35 151.045L505.109 162.135C510.888 169.675 522.424 183.589 529.837 197.352Z" fill="black"/>
<path d="M537.385 208.92C539.873 226.949 534.039 232.713 531.895 247.958C529.147 267.496 545.901 231.594 538.93 197.928C536.833 187.795 526.12 160.22 521.181 151.144C518.145 145.566 507.862 144.975 510.508 145.88C513.154 146.785 508.352 146.349 508.352 146.349L519.712 161.588C524.442 171.777 534.866 190.676 537.385 208.92Z" fill="black"/>
<path d="M540.419 182.593C545.549 195.943 541.028 202.176 541.418 214.724C541.918 230.805 551.876 197.785 540.137 173.546C536.604 166.25 521.979 148.844 515.97 143.217C512.277 139.758 503.373 131.711 502.789 131.728C502.205 131.745 503.66 142.308 503.66 142.308L516.598 150.848C522.585 157.407 535.227 169.084 540.419 182.593Z" fill="black"/>
<path d="M512.569 208.991C510.679 222.961 506.454 226.024 502.535 236.938C497.513 250.925 513.134 227.7 515.394 201.122C516.075 193.122 514.703 170.938 513.641 163.125C512.988 158.323 511.318 146.995 511.03 146.718C510.742 146.44 507.988 156.191 507.988 156.191L511.446 169.958C512.193 178.556 514.481 194.855 512.569 208.991Z" fill="black"/>
<path d="M500.033 202.681C500.628 208.568 499.342 221.009 498.568 228.803C498.155 232.96 506.008 232.182 501.587 198.129C500.256 187.88 495.774 159.437 492.587 149.804C490.628 143.883 483.926 141.783 485.648 143.062C487.37 144.341 484.241 143.203 484.241 143.203C484.241 143.203 490.195 148.027 492.579 158.885C494.963 169.744 499.437 196.794 500.033 202.681Z" fill="black"/>
<path d="M544.413 198.626C549.703 216.06 545.47 222.227 546.147 237.349C547.015 256.73 555.879 220.068 543.925 187.722C540.327 177.987 526.065 151.943 520.108 143.498C516.446 138.307 507.158 138.65 509.676 139.299C512.194 139.949 507.829 139.952 507.829 139.952L520.572 153.858C526.53 163.411 539.06 180.985 544.413 198.626Z" fill="black"/>
<path d="M433.485 199.145C433.435 215.295 439.652 219.854 443.604 233.123C448.669 250.129 428.358 219.947 430.635 189.577C431.321 180.436 434.133 158.353 438.202 150.066C443.604 139.067 448.233 141.082 445.86 142.123C443.487 143.163 445.86 147.623 445.86 147.623L440.755 154.346C437.602 163.775 433.536 182.802 433.485 199.145Z" fill="black"/>
<path d="M510.427 247.095C508.507 256.756 505.569 232.562 506.239 222.599C506.916 212.518 510.188 204.132 508.882 198.141L509.378 189.914C509.378 189.914 509.998 190.11 510.441 190.201C510.274 189.869 510.268 189.739 510.521 189.896C511.131 190.276 510.868 190.287 510.441 190.201C511.094 191.496 514.195 195.861 513.763 198.036C512.434 204.721 508.229 210.807 508.169 226.176C508.096 245.031 510.905 244.69 510.427 247.095Z" fill="black"/>
<path d="M547.533 214.429C545.11 198.881 549.47 191.099 541.328 174.615C533.089 157.936 516.346 143.62 508.255 135.566L491.653 125.141C491.653 125.141 493.159 124.735 494.067 124.38C492.998 124.083 492.71 123.916 493.773 123.871C495.181 123.812 494.842 124.077 494.067 124.38C496.071 124.936 500.818 125.946 504.562 127.455C516.302 132.184 534.27 154.406 539.58 163.405C557.223 193.303 550.639 234.355 547.533 214.429Z" fill="black"/>
<path d="M532.639 165.78C537.14 182.479 517.958 211.183 517.958 211.183C517.958 211.183 504.96 193.667 510.941 184.904C513.202 181.591 514.328 181.079 516.168 177.569C517.959 174.151 516.79 168.295 513.598 165.78C510.026 162.967 509.146 162.283 504.63 163.669C499.52 165.237 501.4 166.788 497.572 163.175C493.492 159.324 495.347 153.448 491.943 149.117C478.505 132.017 441.047 150.999 441.047 150.999C443.337 137.633 454.325 130.88 469.191 127.535C482.936 124.443 492.553 119.974 504.63 127.535C517.209 135.411 528.621 150.873 532.639 165.78Z" fill="black" stroke="black"/>
<path d="M524.499 228.402C505.499 249.902 500.499 249.902 485.499 249.902C460.49 249.902 462.624 295.735 458.5 320.402L460.5 355.902H599C599 355.902 598.681 349.03 599 333.902C599.458 312.187 591 286.902 591 286.902L613.5 263.402C613.5 263.402 607.03 250.003 587.499 239.902C564.912 228.219 532.064 219.842 524.499 228.402Z" fill="#CBC1DC"/>
<path d="M545.476 352.364C541.17 360.991 536.689 359.717 548.989 373.686C553.244 378.517 559.788 371.734 570.074 369.895C592.916 369.895 621.908 376.698 639.918 373.686C657.928 370.673 678.824 371.218 679.263 361.268C657.115 310.742 648.996 293.398 616.521 270.021C609.09 264.672 591.391 279.765 583.258 288.814C589.758 314.814 634.973 338.644 634.973 338.644C634.973 338.644 601.66 351.901 592.916 349.994C582.311 347.681 582.374 347.625 573.149 344.782C564.049 341.978 549.963 343.375 545.476 352.364Z" fill="#7E5334"/>
<path d="M565.935 369.723C564.667 370.559 554.555 374.732 554.555 374.732C554.555 374.732 553.282 375.049 552.625 375.046C551.818 375.042 552.646 373.355 553.762 371.975C555.454 369.885 561.342 364.845 563.603 363.37C564.993 362.464 578.651 363.248 579.102 363.638" stroke="#422713"/>
<path d="M578.703 362.626C578.703 362.626 566.202 360.39 561.256 364.473C559.742 365.722 551.191 372.488 551.191 372.488C551.191 372.488 549.479 373.008 548.532 373.042C547.37 373.084 547.936 370.66 549.03 368.654C550.689 365.614 557.288 358.18 559.993 355.974" stroke="#422713"/>
<path d="M577.05 355.118C577.05 355.118 561.843 355.025 559.632 356.975C558.282 358.166 548.587 365.781 548.587 365.781C548.587 365.781 545.586 366.872 544.803 366.965C543.841 367.079 544.505 364.929 545.571 363.106C547.186 360.344 553.236 353.42 555.647 351.316" stroke="#422713"/>
<path d="M570.814 349.064C570.814 349.064 556.483 349.724 553.241 353.66C552.249 354.865 543.896 363.604 543.896 363.604C543.896 363.604 542.558 364.233 541.757 364.372C540.773 364.543 540.671 362.487 541.122 360.71C541.805 358.018 545.651 351.135 547.431 349.005C548.526 347.695 558.792 345.221 562.728 344.718" stroke="#422713"/>
<path d="M388.901 238.906C396.703 233.24 394.71 229.029 410.51 238.868C415.975 242.27 405.778 256.519 405.654 266.968C409.407 289.5 429.538 328.941 430.657 334.209C433.847 349.23 420.177 368.424 411.272 372.974C411.272 372.974 408.709 371.55 402.918 368.486C397.288 365.508 395.466 361.455 392.859 355.658L392.833 355.6C389.409 347.986 391.004 342.678 390.596 334.34C389.671 315.463 397.677 294.401 394.359 286.09C390.334 276.01 390.29 276.08 385.97 267.448C381.708 258.932 380.771 244.809 388.901 238.906Z" fill="#7E5334"/>
<path d="M399.838 258.819C400.582 258.617 401.825 263.111 402.988 263.384C404.152 263.657 409.5 259.483 408.289 255.261C407.663 253.083 402.579 253.729 401.626 253.698C400.183 253.651 396.191 254.215 394.87 254.582C394.059 254.808 390.553 260.182 390.605 260.478" stroke="#422713"/>
<path d="M411.356 245.385C411.616 242.935 412.158 243.416 410.946 239.194C410.321 237.015 406 236.406 405.047 236.375C403.604 236.328 400.456 234.621 399.135 234.988C397.079 235.56 392.571 239.035 392.623 239.331" stroke="#422713"/>
<path d="M409.654 250.006C410.861 253.875 407.598 254.185 407.598 254.185" stroke="#422713"/>
<path d="M408.491 245.788C412.821 246.804 410.048 250.098 410.048 250.098C410.048 250.098 395.996 249.061 394.634 249.234C392.403 249.516 386.165 257.868 386.165 257.868" stroke="#422713"/>
<path d="M384.664 251.588C384.664 251.588 391.047 244.072 395.044 244.169C396.267 244.199 410.1 245.807 410.1 245.807C410.1 245.807 413.006 245.055 408.903 241.854C407.638 240.867 403.731 239.565 402.347 238.968C400.249 238.064 396.486 238.824 394.312 238.786C392.976 238.762 387.054 243.196 385.085 245.108" stroke="#422713"/>
<path d="M575.558 273.222C574.167 263.622 573.417 254.612 581.382 249.075C589.104 243.707 598.702 244.657 605.362 251.297C616.5 262.402 620.5 273.222 620.5 273.222L588.5 296.402C588.5 296.402 577.321 285.397 575.558 273.222Z" fill="#6D5BA6"/>
<path d="M377.978 366.088L459.848 368.022C463.71 368.114 465.212 373.085 462.046 375.299L402.323 417.064C401.585 417.58 400.696 417.832 399.797 417.78L322.593 413.269C318.823 413.048 317.43 408.207 320.507 406.017L375.564 366.828C376.267 366.327 377.114 366.067 377.978 366.088Z" fill="#1E1E1E"/>
<path d="M380.928 346.338L290.428 341.309C287.571 341.15 285.476 343.956 286.44 346.65L308.459 408.212C309.001 409.727 310.397 410.77 312.003 410.859L397.85 415.63C400.592 415.782 402.669 413.189 401.92 410.546L384.555 349.242C384.089 347.599 382.633 346.433 380.928 346.338Z" fill="#A89FE3"/>
<path d="M285.167 221.608C285.167 221.608 253.105 178.159 249.033 173.127C244.961 168.096 233.424 167.814 225.194 165.719C216.965 163.624 205.669 143.819 167.074 179.722C167.074 179.722 177.03 214.78 173.437 224.299C169.844 233.818 158.186 251.917 173.421 262.526C188.657 273.135 207.303 276.812 231.366 258.224C243.718 248.682 248.101 226.513 249.439 212.05C251.868 230.307 275.049 251.324 281.459 253.928C288.228 256.677 328.397 233.799 328.397 233.799C328.397 233.799 359.507 242.415 364.791 208.972C367.141 194.098 343.169 208.981 343.169 208.981C343.169 208.981 348.451 181.65 328.405 214.898C310.407 224.861 290.182 230.824 285.167 221.608Z" fill="#4F378A"/>
<path d="M267.953 122.895C269.514 117.173 267.964 114.685 264.227 108.759C260.491 102.833 251.946 98.5351 237.248 98.6752C222.55 98.8153 217.98 103.722 211.916 109.11C205.852 114.498 203.193 125.117 202.443 130.634C201.28 139.197 205.328 149.345 208.625 153.038C211.922 156.731 215.683 159.998 220.091 162.504C230.258 168.284 241.542 166.879 245.116 166.813C248.691 166.747 251.365 167.286 253.153 164.486C255.14 161.376 255.402 158.701 253.003 155.698C247.36 148.633 238.804 152.138 229.949 149.918C223.703 148.352 220.233 136.803 224.701 127.037C230.003 115.445 239.944 115.327 244.84 117.364C249.736 119.402 253.468 122.027 255.568 124.206C260.357 129.174 266.393 128.618 267.953 122.895Z" fill="#4F378A"/>
<path d="M237.1 111.692C246.129 110.112 258.913 112.719 263.792 120.134C267.426 125.659 265.295 137.215 262.416 143.088C259.472 149.091 254.81 154.728 247.928 155.904C239.12 157.41 224.163 151.266 222.23 142.959C220.507 135.558 221.123 133.314 223.333 124.551C224.759 118.9 231.071 112.747 237.1 111.692Z" fill="#A89FE3"/>
<path d="M257.18 131.475C257.292 132.404 259.941 132.863 260.325 131.664C260.709 130.464 260.909 124.296 259.126 124.189C257.342 124.082 257.069 130.546 257.18 131.475Z" fill="black"/>
<path d="M239.036 129.02C239.147 129.949 241.796 130.408 242.18 129.208C242.564 128.009 242.764 121.841 240.981 121.734C239.198 121.627 238.924 128.091 239.036 129.02Z" fill="black"/>
<path d="M230.76 99.1178C231.795 101.383 250.422 103.216 252.774 100.437C255.126 97.6585 254.822 82.8759 242.34 82.1277C229.857 81.3795 229.725 96.8521 230.76 99.1178Z" fill="#4F378A"/>
<path d="M252.416 129.184C251.542 131.152 251.043 133.255 250.763 135.451C250.569 136.973 250.993 140.098 250.027 141.214C249.062 142.33 244.641 140.564 244.641 140.564" stroke="black" stroke-linecap="round"/>
<path d="M245.28 149.794C248.348 150.303 252.789 147.072 252.789 147.072C252.789 147.072 249.139 154.333 245.278 153.731C241.738 153.179 239.839 146.296 239.839 146.296C239.839 146.296 242.8 149.382 245.28 149.794Z" stroke="black"/>
<path d="M198.437 164.945L198.309 164.721C196.746 161.964 193.316 160.912 190.478 162.318L177.008 168.989C161.013 176.912 155.357 197.02 164.876 212.122L172.003 223.429C173.78 226.248 177.513 227.071 180.183 225.071C183.519 222.574 187.077 219.502 185.699 218.649C181.124 215.816 171.356 193.544 175.168 192.676C180.725 191.411 187.209 188.528 192.785 185.658C200.335 181.772 202.628 172.334 198.437 164.945Z" fill="#4F378A"/>
<path d="M193.437 163.019C193.437 163.019 201.002 169.641 202.871 175.907C205.263 183.924 191.597 185.149 186.298 189.801C179.427 195.832 179.481 205.197 182.884 209.973C186.287 214.749 194.984 217.056 202.853 222.173C208.955 226.142 213.418 213.469 220.845 214.204C228.272 214.939 244.567 222.157 225.059 225.348C205.55 228.54 202.843 245.528 173.911 225.369" stroke="black"/>
<path d="M835 63.9023H734.418C725.581 63.9023 718.418 71.0658 718.418 79.9023V125.362C718.418 134.199 725.581 141.362 734.418 141.362H835C843.836 141.362 851 134.199 851 125.362V79.9023C851 71.0658 843.836 63.9023 835 63.9023Z" fill="#A89FE3"/>
<path d="M825.582 71.4434H725C716.163 71.4434 709 78.6068 709 87.4434V132.903C709 141.74 716.163 148.903 725 148.903H825.582C834.418 148.903 841.582 141.74 841.582 132.903V87.4434C841.582 78.6068 834.418 71.4434 825.582 71.4434Z" fill="#D6CFFF"/>
<path d="M750.318 114.902V97.4478H755.952C757.19 97.4478 758.224 97.6864 759.054 98.1637C759.889 98.6353 760.517 99.2773 760.938 100.09C761.364 100.902 761.577 101.817 761.577 102.834C761.577 103.851 761.366 104.769 760.946 105.587C760.526 106.4 759.901 107.044 759.071 107.522C758.241 107.993 757.21 108.229 755.977 108.229H751.545V106.797H755.935C756.849 106.797 757.608 106.627 758.21 106.286C758.813 105.939 759.261 105.468 759.557 104.871C759.858 104.275 760.009 103.596 760.009 102.834C760.009 102.073 759.858 101.394 759.557 100.797C759.261 100.201 758.81 99.7319 758.202 99.391C757.599 99.0501 756.835 98.8796 755.909 98.8796H751.912V114.902H750.318ZM765.02 114.902V101.811H766.545V114.902H765.02ZM765.795 99.5614C765.483 99.5614 765.216 99.4563 764.994 99.2461C764.773 99.0302 764.662 98.7717 764.662 98.4705C764.662 98.1694 764.773 97.9137 764.994 97.7035C765.216 97.4876 765.483 97.3796 765.795 97.3796C766.108 97.3796 766.375 97.4876 766.597 97.7035C766.818 97.9137 766.929 98.1694 766.929 98.4705C766.929 98.7717 766.818 99.0302 766.597 99.2461C766.375 99.4563 766.108 99.5614 765.795 99.5614ZM772.075 106.721V114.902H770.558V101.811H772.032V103.865H772.168C772.475 103.195 772.952 102.658 773.6 102.255C774.254 101.846 775.06 101.641 776.021 101.641C776.901 101.641 777.674 101.826 778.339 102.195C779.009 102.559 779.529 103.096 779.898 103.806C780.273 104.516 780.461 105.388 780.461 106.422V114.902H778.944V106.516C778.944 105.442 778.643 104.593 778.04 103.968C777.444 103.343 776.643 103.03 775.637 103.03C774.95 103.03 774.339 103.178 773.805 103.473C773.271 103.769 772.847 104.195 772.535 104.752C772.228 105.303 772.075 105.959 772.075 106.721ZM789.45 120.084C788.558 120.084 787.777 119.968 787.107 119.735C786.436 119.507 785.871 119.195 785.411 118.797C784.95 118.4 784.592 117.953 784.337 117.459L785.581 116.641C785.768 116.971 786.018 117.294 786.331 117.613C786.649 117.931 787.061 118.195 787.567 118.405C788.078 118.615 788.706 118.721 789.45 118.721C790.609 118.721 791.544 118.431 792.254 117.851C792.97 117.272 793.328 116.371 793.328 115.15V112.201H793.192C793.016 112.598 792.763 112.996 792.433 113.394C792.104 113.786 791.672 114.113 791.138 114.374C790.609 114.635 789.953 114.766 789.169 114.766C788.124 114.766 787.195 114.507 786.382 113.99C785.575 113.473 784.939 112.735 784.473 111.775C784.013 110.809 783.783 109.658 783.783 108.323C783.783 106.999 784.007 105.834 784.456 104.828C784.911 103.823 785.544 103.039 786.357 102.476C787.169 101.914 788.115 101.632 789.195 101.632C789.996 101.632 790.661 101.775 791.189 102.059C791.717 102.337 792.141 102.684 792.459 103.098C792.783 103.513 793.036 103.917 793.217 104.309H793.371V101.811H794.854V115.243C794.854 116.351 794.618 117.263 794.146 117.979C793.675 118.695 793.033 119.223 792.22 119.564C791.408 119.911 790.484 120.084 789.45 120.084ZM789.348 113.377C790.189 113.377 790.908 113.175 791.504 112.772C792.101 112.363 792.558 111.777 792.876 111.016C793.195 110.255 793.354 109.348 793.354 108.297C793.354 107.275 793.197 106.368 792.885 105.578C792.572 104.783 792.118 104.158 791.521 103.703C790.93 103.243 790.206 103.013 789.348 103.013C788.473 103.013 787.734 103.249 787.132 103.721C786.53 104.192 786.075 104.828 785.768 105.63C785.462 106.425 785.308 107.314 785.308 108.297C785.308 109.297 785.464 110.181 785.777 110.948C786.089 111.709 786.547 112.306 787.149 112.738C787.751 113.164 788.484 113.377 789.348 113.377ZM807.751 97.4478L807.64 109.9H806.14L806.029 97.4478H807.751ZM806.89 115.03C806.555 115.03 806.265 114.911 806.021 114.672C805.782 114.428 805.663 114.138 805.663 113.803C805.663 113.462 805.782 113.172 806.021 112.934C806.265 112.695 806.555 112.576 806.89 112.576C807.225 112.576 807.512 112.695 807.751 112.934C807.995 113.172 808.117 113.462 808.117 113.803C808.117 114.025 808.06 114.229 807.947 114.417C807.839 114.604 807.691 114.755 807.504 114.868C807.322 114.976 807.117 115.03 806.89 115.03Z" fill="#4F378A"/>
<path d="M715.055 136.166C692.679 143.709 666 133.265 666 133.265C666 133.265 691.366 128.182 702.576 119.728C712.426 112.299 715.055 102.902 715.055 102.902C715.055 102.902 737.431 128.624 715.055 136.166Z" fill="#D6CFFF"/>
<line x1="796.929" y1="7.92559" x2="796.092" y2="43.9159" stroke="#4F378A" stroke-width="2"/>
<line x1="872.657" y1="12.4732" x2="852.105" y2="42.0302" stroke="#4F378A" stroke-width="2"/>
<line x1="907.807" y1="90.9007" x2="872.056" y2="92.9503" stroke="#4F378A" stroke-width="2"/>
<path d="M841.418 233.193H766C761.582 233.193 758 236.775 758 241.193V267.902C758 272.32 761.582 275.902 766 275.902H841.418C845.836 275.902 849.418 272.32 849.418 267.902V241.193C849.418 236.775 845.836 233.193 841.418 233.193Z" fill="#6D5BA6"/>
<path d="M841.418 233.193H803.709V267.902C803.709 272.32 807.291 275.902 811.709 275.902H841.418C845.836 275.902 849.418 272.32 849.418 267.902V241.193C849.418 236.775 845.836 233.193 841.418 233.193Z" fill="#A89FE3"/>
<path d="M835.401 253.632V254.549C835.4 256.698 834.655 258.789 833.278 260.51C831.901 262.231 829.965 263.49 827.76 264.1C825.554 264.709 823.197 264.636 821.04 263.891C818.882 263.146 817.04 261.77 815.788 259.967C814.537 258.165 813.942 256.032 814.093 253.888C814.245 251.743 815.134 249.702 816.628 248.069C818.122 246.435 820.142 245.297 822.385 244.823C824.629 244.35 826.976 244.566 829.077 245.441M835.401 246.577L824.736 256.552L821.536 253.563" stroke="#4F378A" stroke-width="2" stroke-linecap="round" stroke-linejoin="round"/>
<ellipse cx="781.767" cy="254.975" rx="9.59891" ry="8.96875" stroke="#D6CFFF" stroke-width="2"/>
<path d="M772.168 244.725L769.426 247.287" stroke="#D6CFFF" stroke-width="2" stroke-linecap="round"/>
<path d="M791.367 244.725L794.109 247.287" stroke="#D6CFFF" stroke-width="2" stroke-linecap="round"/>
<path d="M777.654 252.412L781.586 254.861C781.691 254.926 781.827 254.905 781.908 254.811L784.511 251.771" stroke="#D6CFFF" stroke-width="2" stroke-linecap="round"/>
<line y1="-1" x2="17.0841" y2="-1" transform="matrix(0.00877915 0.999961 -0.999971 0.00766438 802.795 193.902)" stroke="#4F378A" stroke-width="2"/>
<line y1="-1" x2="18.6628" y2="-1" transform="matrix(-0.628185 0.778064 -0.817368 -0.576116 852 199.027)" stroke="#4F378A" stroke-width="2"/>
<line y1="-1" x2="17.4755" y2="-1" transform="matrix(-0.680066 -0.733151 0.777139 -0.629328 771.713 213.549)" stroke="#4F378A" stroke-width="2"/>
</svg>
