<svg width="779" height="869" viewBox="0 0 779 869" fill="none" xmlns="http://www.w3.org/2000/svg">
<path d="M586.576 555.637V422.291H593.021V555.637H586.576Z" fill="#D6CFFF"/>
<path d="M97.4176 416.638C105.056 410.39 111.65 416.668 121.355 416.638C200.405 416.395 139.768 540.341 221.09 540.341C263.417 540.341 316.835 519.889 356.729 500.437C396.623 480.984 426.697 493.454 347.216 585.233C309.266 629.055 194.371 617.278 170.148 597.204C145.926 577.13 155.195 533.516 115.524 460.2C106.063 442.714 83.3181 428.173 97.4176 416.638Z" fill="#4F378A"/>
<path d="M416.904 601.848C346.505 661.341 253.926 627.474 208.278 685.365C143.159 767.948 429.144 821.503 474.308 716.455C508.694 636.473 613.015 702.708 666.455 653.802C750.553 576.839 533.766 503.088 416.904 601.848Z" fill="#D6CFFF"/>
<path d="M147.437 350.466C140.379 350.466 133.185 349.906 125.956 344.814C118.727 339.723 121.967 323.2 121.967 323.2C121.967 323.2 110 343.801 110 348.803C110 353.806 106.931 371.74 106.931 376.736C106.931 393.363 111.662 408.613 113.371 416.972C116.746 433.481 141.609 484.145 147.437 498.112C153.266 512.078 180.582 551.315 180.582 551.315C180.582 551.315 255.814 518.773 264.975 498.112C273.614 478.626 264.975 452.22 264.975 452.22L287.377 445.57L258.839 429.609L243.496 416.972C243.496 416.972 226.666 401.677 216.184 384.052C205.702 366.427 175.057 345.145 195.927 340.491C216.797 335.836 209.125 311.529 199.919 315.217C190.713 318.905 164.621 309.566 157.872 315.217C151.123 320.868 154.496 350.466 147.437 350.466Z" fill="#CBC1DC"/>
<path d="M169.398 442.082C162.834 443.266 139.032 437.171 124.977 418.956C124.977 418.956 119.237 402.93 126.867 392.049C134.497 381.167 147.311 384.005 147.311 384.005C167.402 390.479 182.241 398.528 182.241 398.528L169.398 442.082Z" fill="#4F378A"/>
<path d="M222.544 329.272C227.455 336.019 224.621 335.271 225.67 337.121C228.295 341.751 219.667 350.16 215.503 354.462C211.338 358.765 213.579 371.66 213.579 371.66C213.579 371.66 192.189 360.162 186.618 349.607C184.483 345.563 179.093 337.933 180.658 329.21C180.658 329.21 183.319 311.441 206.496 316.524C229.672 321.608 218.86 324.212 222.544 329.272Z" fill="#4F378A"/>
<path d="M127.127 308.535L122.168 325.737C122.168 325.737 119.663 330.895 119.522 334.488C119.318 339.68 120.819 342.909 123.841 346.944C127.566 351.919 131.337 353.937 137.215 354.633C142.489 355.259 146.262 354.824 150.445 351.287C153.004 349.124 154.465 347.456 155.464 344.11C156.129 341.887 155.687 340.467 155.974 338.15C156.965 330.165 161.16 318.3 161.16 318.3C156.679 318.331 151.491 322.283 143.579 319.873C138.674 318.379 130.88 311.571 127.127 308.535Z" fill="url(#paint0_linear_548_11751)"/>
<ellipse cx="427.617" cy="190.85" rx="50.3277" ry="54.5355" fill="#4F378A"/>
<ellipse cx="427.617" cy="190.85" rx="42.9627" ry="46.5547" fill="#F4F1FF"/>
<ellipse cx="427.618" cy="190.852" rx="6.13753" ry="6.65067" fill="#4F378A"/>
<ellipse cx="427.618" cy="190.851" rx="3.06877" ry="3.32533" fill="#F4F1FF"/>
<path d="M445.656 224.956C445.656 224.956 446.659 225.006 446.953 223.883C447.247 222.76 442.98 217.953 442.98 217.953C442.98 217.953 441.878 217.929 441.584 219.051C441.289 220.174 445.656 224.956 445.656 224.956Z" fill="#A89FE3"/>
<path d="M427.737 147.402C427.737 147.402 426.575 146.475 425.289 147.411C424.003 148.347 425.124 157.18 425.124 157.18C425.124 157.18 426.426 158.168 427.712 157.232C428.998 156.295 427.737 147.402 427.737 147.402Z" fill="#4F378A"/>
<path d="M445.465 155.041C445.465 155.041 445.152 154.008 444.079 154.109C443.006 154.209 440.374 160.24 440.374 160.24C440.374 160.24 440.745 161.365 441.818 161.264C442.891 161.163 445.465 155.041 445.465 155.041Z" fill="#A89FE3"/>
<path d="M458.031 169.542C458.031 169.542 458.274 168.487 457.317 167.952C456.36 167.417 451.165 170.996 451.165 170.996C451.165 170.996 450.925 172.162 451.882 172.697C452.839 173.232 458.031 169.542 458.031 169.542Z" fill="#A89FE3"/>
<path d="M400.54 208.247C400.54 208.247 400.784 207.192 399.827 206.657C398.87 206.122 393.675 209.701 393.675 209.701C393.675 209.701 393.434 210.867 394.392 211.402C395.349 211.937 400.54 208.247 400.54 208.247Z" fill="#A89FE3"/>
<path d="M427.737 221.89C427.737 221.89 426.575 220.963 425.289 221.899C424.003 222.835 425.124 231.669 425.124 231.669C425.124 231.669 426.426 232.656 427.712 231.72C428.998 230.784 427.737 221.89 427.737 221.89Z" fill="#4F378A"/>
<path d="M400.521 176.074C400.521 176.074 401.499 175.833 401.508 174.666C401.517 173.499 396.225 170.091 396.225 170.091C396.225 170.091 395.157 170.384 395.148 171.551C395.139 172.718 400.521 176.074 400.521 176.074Z" fill="#A89FE3"/>
<path d="M396.591 192.97C396.591 192.97 397.447 191.712 396.583 190.318C395.719 188.925 387.567 190.14 387.567 190.14C387.567 190.14 386.656 191.55 387.52 192.943C388.384 194.337 396.591 192.97 396.591 192.97Z" fill="#4F378A"/>
<path d="M458.721 188.26C458.721 188.26 457.865 189.518 458.729 190.912C459.593 192.306 467.745 191.091 467.745 191.091C467.745 191.091 468.656 189.681 467.792 188.287C466.928 186.893 458.721 188.26 458.721 188.26Z" fill="#4F378A"/>
<path d="M425.168 166.641H426.772H428.237L426.772 161.588L425.168 166.641Z" fill="#6D5BA6"/>
<path d="M426.772 184.2V166.641M426.772 166.641H425.168L426.772 161.588L428.237 166.641H426.772Z" stroke="#6D5BA6" stroke-width="2"/>
<path d="M460.485 211.562C460.485 211.562 461.413 211.148 461.243 209.996C461.072 208.844 455.331 206.437 455.331 206.437C455.331 206.437 454.322 206.919 454.493 208.072C454.664 209.224 460.485 211.562 460.485 211.562Z" fill="#A89FE3"/>
<path d="M411.442 218.796C411.442 218.796 411.078 217.783 410.011 217.945C408.945 218.108 406.614 224.281 406.614 224.281C406.614 224.281 407.039 225.383 408.105 225.221C409.172 225.058 411.442 218.796 411.442 218.796Z" fill="#A89FE3"/>
<path d="M412.509 162.75C412.509 162.75 413.508 162.64 413.648 161.483C413.788 160.326 408.919 156.244 408.919 156.244C408.919 156.244 407.826 156.394 407.686 157.551C407.545 158.708 412.509 162.75 412.509 162.75Z" fill="#A89FE3"/>
<path d="M441.914 196.067L441.257 197.653L440.657 199.101L443.948 198.963L441.914 196.067Z" fill="#6D5BA6"/>
<path d="M431.903 193.102L441.257 197.653M441.257 197.653L441.914 196.067L443.948 198.963L440.657 199.101L441.257 197.653Z" stroke="#6D5BA6" stroke-width="2"/>
<path d="M618.492 353.813C616.031 352.564 614.242 347.844 614.242 347.844C614.242 347.844 619.9 330.64 620.788 316.04C621.675 301.44 612.525 290.068 612.525 290.068C612.525 290.068 618.761 268.201 623.534 270.859C632.458 275.828 630.804 303.037 630.804 303.037C630.804 303.037 632.878 319.514 631.326 345.064C631.033 349.874 622.521 355.857 618.492 353.813Z" fill="black" stroke="black"/>
<path d="M615.441 273.892C627.693 263.835 627.876 253.15 612.5 257.076L593.12 266.629L587.282 276.814C587.282 276.814 606.489 277.844 608.692 277.22C614.046 275.703 615.441 273.892 615.441 273.892Z" fill="black" stroke="black"/>
<path d="M186.579 294.163C187.253 299.855 183.125 299.655 177.763 299.396C171.938 299.115 171.627 329.057 164.644 328.72C161.272 328.557 152.651 328.352 145.119 323.781C140.692 321.095 124.989 312.822 124.989 312.822C124.989 312.822 131.042 298.237 135.28 286.691C122.051 279.727 129.799 264.166 133.717 264.979C150.469 268.451 159.342 246.911 159.342 246.911C159.342 246.911 191.63 249.441 187.988 259.947C178.228 288.101 185.905 288.472 186.579 294.163Z" fill="url(#paint1_linear_548_11751)"/>
<path d="M179.355 272.557C180.037 272.297 185.704 270.468 182.731 270.468C178.128 270.468 175.644 267.552 174.751 267.666C173.398 267.839 173.136 268.965 172.036 269.769C171.361 270.263 170.623 271.252 170.756 271.661C170.888 272.069 171.394 272.819 172.272 272.557C173.149 272.295 174.524 270.805 175.203 270.468C175.916 270.113 178.007 273.072 179.355 272.557Z" fill="black" stroke="#422713"/>
<path d="M172.451 314.921C173.233 313.772 171.444 312.68 171.444 312.68C171.444 312.68 173.918 309.594 171.507 310.14C169.095 310.686 169.383 311.638 167.381 312.091C165.378 312.544 162.879 312.767 160.006 310.336C157.133 307.905 161.805 314.739 164.714 316.008C166.17 316.643 167.166 317.135 168.833 316.898C170.493 316.663 171.669 316.071 172.451 314.921Z" fill="#702739" stroke="#422713"/>
<path d="M176.011 283.799C172.315 283.828 172.666 282.582 173.495 279.635C174.325 276.688 175.752 274.549 176.684 274.857C177.616 275.164 177.699 277.803 176.869 280.75C176.04 283.697 176.011 283.799 176.011 283.799Z" fill="black"/>
<path d="M177.88 296.608C177.88 296.608 180.75 294.047 182.172 296.815" stroke="#422713"/>
<path d="M155.938 310.185C155.938 310.185 155.913 306.156 158.793 306.706" stroke="#422713"/>
<path d="M138.513 279.305C138.513 279.305 138.362 275.279 141.257 275.723" stroke="#422713"/>
<path d="M124.956 283.619C124.493 291.84 134.536 280.8 136.517 273.938C138.522 266.995 137.084 257.882 140.234 255.861L141.935 250.265C141.935 250.265 141.171 249.62 140.637 249.128C140.92 249.133 140.964 249.062 140.63 248.846C139.826 248.324 140.124 248.655 140.637 249.128C139.532 249.11 134.772 247.932 134.668 249.783C134.347 255.471 137.489 264.341 133.317 273.726C128.198 285.241 125.072 281.573 124.956 283.619Z" fill="black"/>
<path d="M111.438 322.915C110.695 328.6 120.019 320.355 121.737 315.513C123.475 310.614 121.114 304.471 123.387 302.89L124.847 298.936C124.847 298.936 124.353 298.538 124.012 298.233C124.206 298.219 124.24 298.167 124.021 298.038C123.494 297.728 123.683 297.938 124.012 298.233C123.252 298.287 120.035 297.765 119.868 299.044C119.354 302.978 121.06 308.891 117.704 315.601C113.586 323.835 111.623 321.5 111.438 322.915Z" fill="black"/>
<path d="M108.056 295.221C106.075 302.083 109.494 307.981 110.415 316.156C111.595 326.633 102.274 300.842 107.392 289.327C108.933 285.861 116.182 279.225 119.432 277.83C121.43 276.973 127.728 282.446 126.088 281.383C124.448 280.319 127.394 282.801 127.394 282.801L120.063 283.431C116.913 285.452 110.061 288.278 108.056 295.221Z" fill="black"/>
<path d="M94.9517 299.021C90.7486 309.689 94.7896 317.769 94.6857 329.782C94.5526 345.178 85.2916 308.644 95.0266 290.359C97.9565 284.856 109.993 273.404 115.103 270.63C118.244 268.925 126.666 275.76 124.408 274.52C122.149 273.28 126.102 276.361 126.102 276.361L115.032 278.86C109.958 282.548 99.2048 288.226 94.9517 299.021Z" fill="black"/>
<path d="M101.79 286.816C97.5865 297.484 101.627 305.564 101.524 317.577C101.39 332.973 92.1295 296.438 101.864 278.154C104.794 272.651 116.831 261.199 121.941 258.425C125.082 256.72 133.504 263.555 131.246 262.315C128.987 261.075 132.94 264.156 132.94 264.156L121.87 266.655C116.796 270.342 106.043 276.021 101.79 286.816Z" fill="black"/>
<path d="M108.838 259.962C104.635 270.63 108.676 278.711 108.572 290.724C108.439 306.12 99.1784 269.585 108.913 251.3C111.843 245.797 124.211 235.443 129.321 232.67C132.462 230.965 140.039 227.138 140.546 227.417C141.054 227.695 139.989 237.303 139.989 237.303L128.919 239.801C123.845 243.489 113.091 249.167 108.838 259.962Z" fill="black"/>
<path d="M147.059 269.157C142.856 279.826 146.897 287.906 146.793 299.919C146.66 315.315 137.399 278.78 147.134 260.496C150.064 254.992 162.101 243.54 167.211 240.767C170.351 239.062 178.774 245.897 176.515 244.657C174.257 243.417 178.209 246.498 178.209 246.498L167.139 248.996C162.066 252.684 151.312 258.362 147.059 269.157Z" fill="black"/>
<path d="M156.786 271.134C152.583 281.802 156.624 289.883 156.52 301.896C156.387 317.291 147.126 280.757 156.861 262.472C159.79 256.969 171.827 245.517 176.937 242.743C180.078 241.038 188.5 247.873 186.242 246.633C183.983 245.393 187.936 248.475 187.936 248.475L176.866 250.973C171.792 254.661 161.039 260.339 156.786 271.134Z" fill="black"/>
<path d="M192.655 266.182C195.627 277.325 190.708 284.812 189.46 296.749C187.862 312.048 201.161 277.008 193.554 257.575C191.265 251.726 180.605 238.77 175.845 235.342C172.919 233.236 163.791 238.908 166.172 237.975C168.553 237.043 164.284 239.579 164.284 239.579L174.99 243.52C179.612 247.85 189.647 254.906 192.655 266.182Z" fill="black"/>
<path d="M118.355 328.01C117.891 336.23 127.935 325.191 129.916 318.329C131.92 311.386 130.483 302.273 133.633 300.252L135.334 294.655C135.334 294.655 134.569 294.011 134.036 293.519C134.318 293.524 134.362 293.453 134.028 293.236C133.224 292.715 133.523 293.046 134.036 293.519C132.93 293.5 128.171 292.323 128.066 294.174C127.745 299.862 130.887 308.731 126.715 318.117C121.597 329.632 118.47 325.964 118.355 328.01Z" fill="black"/>
<path d="M112.328 300.837C110.347 307.698 113.765 313.596 114.686 321.771C115.867 332.249 106.545 306.457 111.664 294.942C113.204 291.476 120.454 284.84 123.704 283.445C125.701 282.588 132 288.062 130.36 286.998C128.72 285.934 131.665 288.417 131.665 288.417L124.335 289.046C121.185 291.067 114.332 293.893 112.328 300.837Z" fill="black"/>
<path d="M100.088 273.374C95.8853 284.042 99.9263 292.123 99.8224 304.136C99.6893 319.532 90.4284 282.997 100.163 264.712C103.093 259.209 115.13 247.757 120.24 244.983C123.381 243.279 131.803 250.114 129.544 248.874C127.286 247.634 131.239 250.715 131.239 250.715L120.169 253.213C115.095 256.901 104.341 262.579 100.088 273.374Z" fill="black"/>
<path d="M116.196 261.73C111.568 277.506 124.378 312.966 124.378 312.966C124.378 312.966 140.369 293.873 136.273 285.049C134.725 281.713 131.224 281.803 130.018 278.304C128.844 274.898 130.118 269.759 132.781 267.548C135.761 265.074 136.495 264.474 139.934 266.103C143.827 267.946 146.193 269.958 149.425 266.731C152.872 263.292 152.936 259.721 155.885 255.776C167.529 240.199 190.501 258.069 190.501 258.069C189.596 245.057 181.451 237.839 170.046 233.648C159.502 229.773 147.656 222.687 137.709 229.174C127.349 235.93 120.327 247.648 116.196 261.73Z" fill="black" stroke="black"/>
<path d="M657.4 396.353L442.495 399.245L294.179 576.792C294.179 576.792 589.079 639.22 543.05 498.107C521.994 433.555 657.4 396.353 657.4 396.353Z" fill="#D6CFFF"/>
<path d="M659.615 304.574C659.615 304.574 665.327 310.67 673.194 312.291C682.741 314.259 692.758 304.574 692.758 304.574" stroke="#4F378A"/>
<path d="M645.177 277.591C645.177 277.591 634.338 302.102 624.654 295.744C615.179 289.523 634.955 322.867 639.95 321.694C652.111 318.839 673.648 292.616 666.523 298.917C658.924 305.639 645.177 277.591 645.177 277.591Z" fill="#A89FE3"/>
<path d="M643.387 287.947C643.387 287.947 644.536 292.827 647.974 297.565C652.146 303.316 659.739 305.912 659.739 305.912" stroke="black"/>
<path d="M637.25 291.938C637.25 291.938 638.4 296.817 641.837 301.556C646.009 307.307 653.603 309.902 653.603 309.902" stroke="black"/>
<path d="M631.111 295.93C631.111 295.93 632.261 300.809 635.698 305.548C639.87 311.299 647.464 313.895 647.464 313.895" stroke="black"/>
<path d="M584.512 196.25C584.512 196.25 590.894 202.692 599.684 204.406C610.353 206.486 621.546 196.25 621.546 196.25" stroke="#4F378A"/>
<path d="M583.184 175.193C583.184 175.193 564.64 196.733 556.017 187.244C547.579 177.96 559.465 218.042 565.166 218.409C579.043 219.303 609.569 199.361 600.138 203.545C590.078 208.007 583.184 175.193 583.184 175.193Z" fill="#4F378A"/>
<path d="M578.684 183.6C578.684 183.6 578.284 188.907 580.353 194.914C582.864 202.204 590.04 207.595 590.04 207.595" stroke="black"/>
<path d="M571.822 187.816C571.822 187.816 571.423 193.123 573.492 199.13C576.003 206.421 583.179 211.812 583.179 211.812" stroke="black"/>
<path d="M564.965 192.037C564.965 192.037 564.566 197.344 566.634 203.351C569.145 210.642 576.322 216.033 576.322 216.033" stroke="black"/>
<path d="M558.107 192.037C558.107 192.037 557.708 197.344 559.777 203.351C562.288 210.642 569.464 216.033 569.464 216.033" stroke="black"/>
<path d="M688.461 235.408C688.461 235.408 694.173 241.504 702.039 243.125C711.587 245.093 721.604 235.408 721.604 235.408" stroke="#4F378A"/>
<path d="M690.867 217.411C690.867 217.411 675.948 229.372 671.605 221.778C667.354 214.348 669.75 243.027 673.407 244.063C682.309 246.588 704.804 237.364 698.117 238.88C690.984 240.497 690.867 217.411 690.867 217.411Z" fill="#6D5BA6"/>
<path d="M670.135 228.166C670.135 228.166 674.128 229.339 678.884 228.394C684.658 227.247 689.428 221.601 689.428 221.601" stroke="black"/>
<path d="M671.275 233.986C671.275 233.986 675.268 235.159 680.025 234.214C685.798 233.067 690.569 227.422 690.569 227.422" stroke="black"/>
<path d="M672.504 239.309C672.504 239.309 676.497 240.482 681.254 239.537C687.027 238.389 691.797 232.744 691.797 232.744" stroke="black"/>
<path d="M740.016 308.564C740.016 308.564 745.727 314.66 753.594 316.281C763.141 318.249 773.158 308.564 773.158 308.564" stroke="#4F378A"/>
<path d="M749.632 292.95C749.632 292.95 733.253 301.401 730.382 293.271C727.573 285.316 724.96 313.216 728.295 314.939C736.413 319.134 759.601 314.817 752.918 314.928C745.79 315.047 749.632 292.95 749.632 292.95Z" fill="#6D5BA6"/>
<path d="M744.722 299.433C744.722 299.433 728.343 307.883 725.472 299.753C722.663 291.798 720.05 319.699 723.385 321.422C731.503 325.617 754.69 321.3 748.008 321.411C740.879 321.53 744.722 299.433 744.722 299.433Z" fill="#D6CFFF"/>
<path d="M723.352 305.086C723.352 305.086 726.958 307.282 731.784 307.627C737.641 308.045 743.541 303.836 743.541 303.836" stroke="#4F378A"/>
<path d="M723.443 312.473C723.443 312.473 727.05 314.669 731.876 315.013C737.733 315.432 743.632 311.222 743.632 311.222" stroke="#4F378A"/>
<path d="M683.42 355.467C683.42 355.467 689.132 361.562 696.998 363.184C706.546 365.152 716.563 355.467 716.563 355.467" stroke="#4F378A"/>
<path d="M689.807 357.56C689.807 357.56 665.953 349.16 670.488 337.917C674.925 326.917 647.04 352.568 648.773 357.779C652.993 370.463 679.829 390.127 673.122 383.308C665.969 376.035 689.807 357.56 689.807 357.56Z" fill="#4F378A"/>
<path d="M661.668 342.828C661.668 342.828 662.817 347.708 666.255 352.446C670.427 358.197 678.021 360.793 678.021 360.793" stroke="black"/>
<path d="M657.984 346.818C657.984 346.818 659.134 351.698 662.571 356.436C666.743 362.187 674.337 364.783 674.337 364.783" stroke="black"/>
<path d="M654.303 350.811C654.303 350.811 655.452 355.69 658.89 360.429C663.062 366.18 670.655 368.776 670.655 368.776" stroke="black"/>
<path d="M701.861 127.138C701.861 127.138 679.328 139.076 675.373 127.579C671.503 116.33 667.923 155.776 672.512 158.215C683.685 164.151 715.589 158.062 706.394 158.215C696.585 158.378 701.861 127.138 701.861 127.138Z" fill="#6D5BA6"/>
<path d="M674.498 138.307C674.498 138.307 678.388 141.062 683.877 142.037C690.539 143.222 697.755 139.575 697.755 139.575" stroke="black"/>
<path d="M674.498 143.627C674.498 143.627 678.388 146.382 683.877 147.358C690.539 148.542 697.755 144.895 697.755 144.895" stroke="black"/>
<path d="M674.498 148.945C674.498 148.945 678.388 151.7 683.877 152.676C690.539 153.86 697.755 150.213 697.755 150.213" stroke="black"/>
<path d="M697.666 156.93C697.666 156.93 703.378 163.025 711.244 164.647C720.792 166.615 730.809 156.93 730.809 156.93" stroke="#4F378A"/>
<path d="M691.627 135.052C691.627 135.052 669.821 146.616 665.994 135.479C662.249 124.583 658.784 162.793 663.226 165.155C674.038 170.905 704.912 165.007 696.013 165.155C686.522 165.313 691.627 135.052 691.627 135.052Z" fill="#A89FE3"/>
<path d="M666.07 150.666C666.07 150.666 669.439 153.191 674.193 154.085C679.962 155.171 686.212 151.828 686.212 151.828" stroke="black"/>
<path d="M666.316 145.18C666.316 145.18 669.686 147.705 674.439 148.599C680.208 149.684 686.458 146.342 686.458 146.342" stroke="black"/>
<path d="M666.07 154.934C666.07 154.934 669.439 157.459 674.193 158.353C679.962 159.438 686.212 156.096 686.212 156.096" stroke="black"/>
<path d="M393.64 527.759L371.299 543.243L339.235 562.337L384.003 546.336L421.676 562.337L440.951 543.243L393.64 527.759Z" fill="#F4F1FF"/>
<path d="M427.562 539.807C427.562 539.807 424.239 541.275 420.592 544.501C416.165 548.416 413.135 554.609 413.135 554.609" stroke="black"/>
<path d="M419.062 539.242C419.062 539.242 416.069 540.372 412.877 543.131C409.003 546.479 406.552 552.078 406.552 552.078" stroke="black"/>
<path d="M413.01 536.162C413.01 536.162 409.925 537.386 406.607 540.274C402.58 543.779 399.969 549.542 399.969 549.542" stroke="black"/>
<path d="M406.404 533.648C406.404 533.648 403.323 534.868 400.01 537.751C395.989 541.25 393.384 547.007 393.384 547.007" stroke="black"/>
<path d="M398.996 530.727C398.996 530.727 395.915 531.946 392.602 534.829C388.581 538.328 385.976 544.085 385.976 544.085" stroke="black"/>
<path d="M387.6 533.443C387.6 533.443 385.282 534.673 383.227 537.307C380.733 540.503 380.087 545.487 380.087 545.487" stroke="black"/>
<path d="M377.75 538.129C377.75 538.129 375.968 539.246 374.801 541.416C373.385 544.049 374.131 547.908 374.131 547.908" stroke="black"/>
<path d="M369.219 545.049C369.219 545.049 367.825 545.756 367.281 547.022C366.621 548.559 368.315 550.679 368.315 550.679" stroke="black"/>
<path d="M361.145 550.742C361.145 550.742 360.168 551.095 359.811 551.791C359.378 552.635 360.64 553.887 360.64 553.887" stroke="black"/>
<path d="M427.307 547.715C427.514 547.834 427.721 547.915 427.928 547.959C428.134 548.006 428.337 548.012 428.538 547.978C428.737 547.946 428.93 547.872 429.117 547.755C429.303 547.638 429.48 547.479 429.647 547.276C429.921 546.943 430.096 546.557 430.174 546.117C430.251 545.678 430.212 545.215 430.058 544.729C429.905 544.243 429.62 543.763 429.204 543.291C428.788 542.818 428.37 542.5 427.95 542.338C427.529 542.175 427.132 542.149 426.756 542.26C426.38 542.371 426.05 542.6 425.764 542.947C425.499 543.269 425.325 543.619 425.24 543.997C425.156 544.379 425.165 544.761 425.268 545.144C425.372 545.53 425.57 545.89 425.864 546.224L425.655 546.39L427.045 544.7L427.561 545.287L425.801 547.426L425.285 546.839C424.889 546.39 424.627 545.9 424.497 545.37C424.365 544.842 424.361 544.314 424.484 543.785C424.607 543.26 424.853 542.775 425.22 542.329C425.629 541.832 426.088 541.508 426.598 541.359C427.107 541.212 427.632 541.243 428.174 541.452C428.715 541.663 429.238 542.057 429.745 542.633C430.125 543.064 430.418 543.512 430.624 543.976C430.829 544.443 430.949 544.908 430.983 545.371C431.017 545.834 430.967 546.28 430.835 546.71C430.702 547.139 430.488 547.534 430.191 547.894C429.948 548.19 429.682 548.423 429.395 548.592C429.108 548.764 428.812 548.872 428.507 548.915C428.203 548.961 427.899 548.943 427.595 548.859C427.293 548.778 427.004 548.63 426.729 548.417L427.307 547.715ZM421.03 547.399C421.343 547.019 421.695 546.773 422.086 546.662C422.475 546.553 422.875 546.576 423.286 546.731C423.695 546.888 424.086 547.179 424.458 547.602C424.833 548.028 425.096 548.48 425.245 548.957C425.392 549.436 425.426 549.906 425.346 550.367C425.265 550.83 425.068 551.252 424.755 551.632C424.442 552.013 424.091 552.257 423.702 552.367C423.311 552.478 422.91 552.454 422.499 552.294C422.087 552.137 421.693 551.845 421.317 551.419C420.945 550.996 420.686 550.546 420.54 550.068C420.393 549.593 420.359 549.124 420.441 548.661C420.521 548.2 420.717 547.779 421.03 547.399ZM421.527 547.964C421.289 548.253 421.157 548.562 421.131 548.893C421.104 549.223 421.157 549.551 421.289 549.875C421.422 550.199 421.609 550.498 421.85 550.772C422.091 551.045 422.352 551.256 422.634 551.402C422.915 551.549 423.197 551.602 423.479 551.561C423.76 551.521 424.02 551.356 424.258 551.067C424.495 550.778 424.627 550.468 424.652 550.136C424.677 549.803 424.623 549.474 424.488 549.148C424.354 548.822 424.167 548.523 423.926 548.249C423.685 547.975 423.424 547.766 423.144 547.621C422.864 547.476 422.584 547.424 422.304 547.467C422.024 547.509 421.765 547.675 421.527 547.964ZM417.617 551.524C417.837 551.257 418.079 551.064 418.344 550.944C418.611 550.826 418.879 550.796 419.148 550.855C419.419 550.915 419.672 551.079 419.907 551.345C420.113 551.58 420.242 551.818 420.292 552.059C420.343 552.301 420.34 552.544 420.283 552.786C420.226 553.029 420.136 553.267 420.014 553.499C419.892 553.736 419.762 553.964 419.623 554.185C419.44 554.473 419.29 554.704 419.174 554.879C419.057 555.058 418.986 555.204 418.962 555.318C418.937 555.434 418.968 555.543 419.057 555.644L419.076 555.665C419.308 555.928 419.548 556.059 419.799 556.056C420.047 556.056 420.294 555.907 420.539 555.609C420.793 555.3 420.935 554.992 420.963 554.685C420.992 554.378 420.97 554.114 420.897 553.893L421.591 553.492C421.719 553.851 421.769 554.191 421.741 554.512C421.713 554.837 421.633 555.136 421.503 555.409C421.372 555.685 421.22 555.929 421.045 556.141C420.934 556.276 420.792 556.416 420.619 556.559C420.447 556.706 420.251 556.814 420.031 556.883C419.81 556.953 419.569 556.946 419.308 556.862C419.047 556.778 418.774 556.574 418.487 556.248L416.113 553.551L416.646 552.903L417.134 553.458L417.161 553.425C417.119 553.292 417.095 553.124 417.09 552.92C417.085 552.717 417.122 552.494 417.199 552.253C417.276 552.012 417.416 551.769 417.617 551.524ZM418.033 552.188C417.823 552.444 417.688 552.708 417.63 552.982C417.57 553.257 417.571 553.516 417.634 553.761C417.695 554.007 417.8 554.215 417.95 554.386L418.457 554.961C418.451 554.902 418.475 554.812 418.528 554.693C418.582 554.576 418.649 554.448 418.731 554.308C418.814 554.171 418.895 554.039 418.976 553.912C419.057 553.788 419.122 553.686 419.171 553.608C419.291 553.419 419.39 553.227 419.468 553.032C419.546 552.842 419.58 552.655 419.571 552.471C419.562 552.291 419.487 552.121 419.346 551.961C419.154 551.742 418.94 551.66 418.705 551.714C418.469 551.772 418.246 551.93 418.033 552.188ZM423.579 537.132L418.775 531.673L419.307 531.025L424.112 536.485L423.579 537.132ZM418.141 539.019L418.479 538.278C418.592 538.336 418.717 538.373 418.853 538.391C418.99 538.412 419.134 538.391 419.285 538.329C419.436 538.267 419.589 538.142 419.744 537.954C419.956 537.696 420.082 537.424 420.122 537.136C420.161 536.853 420.104 536.623 419.949 536.447C419.811 536.29 419.655 536.225 419.479 536.252C419.303 536.278 419.086 536.385 418.828 536.574L418.182 537.049C417.794 537.337 417.444 537.482 417.13 537.483C416.819 537.487 416.537 537.345 416.286 537.059C416.079 536.825 415.952 536.545 415.903 536.222C415.854 535.9 415.883 535.562 415.993 535.209C416.102 534.855 416.291 534.515 416.56 534.188C416.914 533.758 417.286 533.493 417.677 533.393C418.068 533.293 418.448 533.379 418.816 533.653L418.442 534.416C418.2 534.254 417.964 534.199 417.733 534.252C417.501 534.306 417.275 534.466 417.057 534.731C416.809 535.033 416.667 535.334 416.63 535.636C416.594 535.942 416.653 536.182 416.808 536.358C416.933 536.5 417.08 536.568 417.249 536.562C417.419 536.557 417.612 536.473 417.829 536.309L418.548 535.767C418.943 535.47 419.297 535.324 419.611 535.33C419.924 535.339 420.205 535.485 420.453 535.768C420.657 535.999 420.782 536.27 420.828 536.581C420.873 536.894 420.845 537.217 420.743 537.551C420.64 537.886 420.466 538.202 420.222 538.498C419.879 538.915 419.532 539.153 419.18 539.213C418.827 539.275 418.48 539.21 418.141 539.019Z" fill="black"/>
<path d="M253.417 635.73C231.358 639.32 210.86 615.623 210.86 615.623C224.263 622.333 277.78 620.455 290.127 616.005C292.652 613.921 293.638 613.067 292.484 614.642C292.136 615.117 291.325 615.573 290.127 616.005C284.04 621.027 269.008 633.192 253.417 635.73Z" fill="#4F378A"/>
<path d="M245.638 669.522V632.943H252.697V669.522L285.532 686.814L278.474 689.474L252.697 677.503V689.474H245.638V677.503L215.258 689.474L207.893 686.814L245.638 669.522Z" fill="#4F378A"/>
<path d="M445.414 718.578V585.232H451.858V718.578H445.414Z" fill="#D6CFFF"/>
<path d="M323.277 693.971V560.625H329.722V693.971H323.277Z" fill="#D6CFFF"/>
<path d="M262.094 173.737L227.627 179.862C227.627 179.862 222.651 176.569 225.922 168.596C229.193 160.624 240.361 147.07 240.361 147.07C240.361 147.07 224.586 136.938 220.333 131.67C216.08 126.402 218.58 120.091 218.58 120.091L253.047 113.966C253.047 113.966 257.277 119.08 254.799 125.544C252.322 132.008 240.361 147.07 240.361 147.07C240.361 147.07 257.026 158.569 260.388 162.471C263.751 166.372 262.094 173.737 262.094 173.737Z" fill="#4F378A"/>
<path d="M258.904 170.429L229.608 175.635C229.608 175.635 225.364 172.74 228.118 165.793C230.872 158.845 240.325 147.058 240.325 147.058C240.325 147.058 226.871 138.147 223.235 133.53C219.599 128.914 221.704 123.414 221.704 123.414L251 118.208C251 118.208 254.616 122.69 252.531 128.324C250.447 133.957 240.325 147.058 240.325 147.058C240.325 147.058 254.541 157.166 257.415 160.586C260.288 164.006 258.904 170.429 258.904 170.429Z" fill="#F4F1FF"/>
<path d="M257.805 170.622L230.449 175.484C230.449 175.484 226.623 173.688 229.438 168.808C232.253 163.928 241.46 155.436 241.46 155.436C241.46 155.436 254.259 161.731 256.794 163.946C259.329 166.162 257.805 170.622 257.805 170.622Z" fill="#6D5BA6"/>
<path d="M247.407 137.261L230.826 140.207L233.27 142.075L240.295 147.247L245.428 139.914L247.407 137.261Z" fill="#6D5BA6"/>
<path d="M279.275 168.9C279.275 168.9 291.681 178.786 287.39 184.587C283.051 190.452 258.832 196.168 258.832 196.168" stroke="black"/>
<path d="M295.531 176.219C295.531 176.219 299.925 183.452 298.405 187.697C296.869 191.988 288.291 196.171 288.291 196.171" stroke="black"/>
<path d="M192.101 94.4573C192.101 94.4573 186.558 97.2132 185.458 100.591C184.346 104.006 186.982 110.377 186.982 110.377" stroke="black"/>
<path d="M210.297 98.2891C210.297 98.2891 199.678 100.923 197.19 106.586C194.673 112.312 198.686 125.008 198.686 125.008" stroke="black"/>
<path d="M227.593 502.418C245.785 478.085 272.961 461.113 279.588 455.204C286.216 449.296 299.601 437.229 303.811 434.861C308.02 432.493 329.92 415.41 329.92 415.41C329.92 415.41 359.87 391.235 368.634 383.262C377.397 375.289 388.498 368.159 397.68 360.982L441.035 335.899C450.129 327.934 458.913 324.238 472.454 311.821C485.994 299.404 535.829 255.642 550.238 267.817C574.342 288.186 570.115 328.831 574.836 338.688C578.022 345.338 584.492 349.516 576.062 364.258C567.22 379.723 510.9 379.526 498.929 383.407C491.909 385.683 449.656 419.658 449.656 419.658L421.491 441.09L402.504 461.604C402.504 461.604 384.054 479.536 377.481 486.322C369.49 494.572 361.29 503.477 353.272 515.322C346.94 524.675 323.616 544.619 315.718 552.066C307.82 559.513 279.932 571.396 267.403 578.444C254.874 585.491 231.714 588.39 231.714 588.39C205.21 584.566 215.205 587.62 202.226 578.337C187.498 567.803 184.925 562.918 181.123 554.982C177.321 547.046 206.059 531.219 227.593 502.418Z" fill="#A89FE3"/>
<path d="M369.619 396.686C346.121 411.87 293.821 436.923 293.821 436.923C293.821 436.923 265.281 447.896 257.302 453.549C246.349 461.309 238.276 487.468 238.276 487.468L272.032 478.822C272.032 478.822 332.486 456.469 347.216 453.549C361.947 450.629 394.169 438.585 415.036 431.935L490.527 404.335C527.966 382.883 541.104 384.168 565.712 375.072C590.32 365.976 600.116 389.989 619.108 360.108C637.488 331.192 619.108 318.104 619.108 305.905C619.108 288.613 610.858 243.46 590.875 250.371C570.893 257.282 543.781 280.333 526.124 290.941C513.865 298.307 463.085 334.864 450.326 341.154C450.326 341.154 403.069 375.072 369.619 396.686Z" fill="#6D5BA6"/>
<path d="M242.287 384.527C225.456 378.885 211.692 365.949 211.692 365.949C211.692 365.949 212.967 328.348 218.427 328.09C223.887 327.833 227.133 331.969 233.801 337.018C240.47 342.066 262.739 359.966 262.739 359.966C262.739 359.966 264.713 343.124 264.324 332.361C264.011 323.696 265.621 314.637 263.393 310.596C258.397 301.536 258.713 292.583 269.972 292.052C281.231 291.522 278.476 311.315 278.476 311.315C273.616 319.768 273.678 314.048 276.619 325.348C279.56 336.649 287.396 363.809 287.701 370.945C288.006 378.082 288.003 381.417 281.713 386.959C281.713 386.959 259.117 390.169 242.287 384.527Z" fill="url(#paint2_linear_548_11751)"/>
<path d="M243.488 313.385V282.282C243.488 279.649 245.205 277.324 247.72 276.548L254.747 274.382C258.606 273.192 262.515 276.077 262.515 280.115V310.719C262.515 313.211 260.974 315.444 258.644 316.328L251.617 318.995C247.691 320.485 243.488 317.585 243.488 313.385Z" fill="#49454F"/>
<path d="M245.945 313.339V282.134C245.945 279.598 247.539 277.337 249.927 276.484L254.498 274.851C258.406 273.455 262.517 276.352 262.517 280.501V311.329C262.517 313.709 261.11 315.864 258.932 316.822L254.36 318.832C250.395 320.575 245.945 317.671 245.945 313.339Z" fill="#A89FE3"/>
<path d="M247.842 286.105L247.807 281.913C247.8 281.046 248.352 280.267 249.175 279.985L250.135 279.656C251.43 279.213 252.766 280.164 252.766 281.529L252.766 285.607C252.766 286.383 252.318 287.093 251.615 287.429L250.691 287.872C249.371 288.504 247.855 287.563 247.842 286.105Z" fill="#4F378A"/>
<ellipse cx="0.920711" cy="1.35383" rx="0.920711" ry="1.35383" transform="matrix(0.999835 -0.0181808 0.00840769 0.999965 248.445 284.699)" fill="#F4F1FF"/>
<ellipse cx="0.920711" cy="1.35383" rx="0.920711" ry="1.35383" transform="matrix(0.999835 -0.0181808 0.00840769 0.999965 250.256 281.055)" fill="#F4F1FF"/>
<path d="M256.946 298.158C257.207 297.898 256.884 300.18 256.261 299.975C255.638 299.77 255.68 299.81 255.328 300.197C254.976 300.584 253.747 299.68 253.644 298.375C253.531 296.965 254.28 296.159 255.225 296.043C255.786 295.975 256.31 296.173 256.681 296.681C255.225 296.043 255.405 299.694 256.946 298.158Z" fill="#6D5BA6"/>
<path d="M254.866 295.625C254.862 294.739 255.037 294.079 255.749 293.782C255.749 293.782 255.825 294.202 255.656 294.724C255.482 295.258 254.866 295.625 254.866 295.625Z" fill="#6D5BA6"/>
<path d="M189.892 449.918C179.428 446.836 176.392 446.69 170.865 442.149C165.889 438.062 177.796 402.969 178.848 397.719C178.451 397.722 178.422 397.578 178.759 397.156C178.948 396.921 178.965 397.136 178.848 397.719C180.672 397.701 190.259 394.559 207.794 400.758C229.149 408.307 231.736 405.433 231.736 405.433C231.736 405.433 227.386 400.769 229.551 390.598C231.715 380.428 230.974 371.841 229.37 364.758C228.625 361.465 227.357 351.854 224.686 340.058C223.467 334.673 225.197 331.262 225.077 327.497C224.958 323.733 227.38 316.062 227.38 316.062L229.786 308.803C240.984 295.586 243.033 302.345 246.052 302.688C247.267 302.826 247.973 302.817 248.364 302.757C249.328 302.606 248.371 302.137 248.364 302.757C248.361 303.009 248.517 303.443 249.026 304.155C249.026 304.155 249.874 306.625 246.897 306.915C249.862 307.719 252.692 309.476 247.187 312.582C236.834 318.424 236.508 325.407 236.508 325.407C235.292 336.722 236.037 332.73 246.053 349.285C256.069 365.84 258.161 365.736 262.616 380.733C267.07 395.73 267.818 414.92 266.611 421.045C261.496 446.988 255.386 447.515 253.695 451.389C251.17 457.174 250.449 453.911 240.825 453.922C240.825 453.922 198.875 452.564 189.892 449.918Z" fill="url(#paint3_linear_548_11751)"/>
<path d="M244.232 315.677C244.88 315.2 248.814 310.902 248.814 310.902C248.814 310.902 249.206 310.321 249.326 309.987C249.472 309.578 248.482 309.664 247.592 309.958C246.242 310.402 242.656 312.39 241.508 313.244C240.802 313.77 238.676 320.84 238.786 321.146" stroke="#422713"/>
<path d="M238.359 320.742C238.359 320.742 239.551 313.97 242.489 312.271C243.388 311.751 248.321 308.754 248.321 308.754C248.321 308.754 248.895 307.99 249.086 307.517C249.32 306.937 248.013 306.746 246.816 306.904C245.001 307.145 240.095 309.02 238.502 309.956" stroke="#422713"/>
<path d="M234.936 318.425C234.936 318.425 237.69 310.705 239.066 309.97C239.905 309.521 245.471 306.113 245.471 306.113C245.471 306.113 246.566 304.809 246.756 304.431C246.99 303.966 245.8 303.878 244.699 304.058C243.03 304.332 238.479 306.03 236.99 306.836" stroke="#422713"/>
<path d="M233.075 314.078C233.075 314.078 236.042 306.951 238.593 306.085C239.373 305.82 245.25 303.313 245.25 303.313C245.25 303.313 245.809 302.76 246.025 302.382C246.292 301.917 245.289 301.46 244.324 301.338C242.862 301.153 238.737 301.744 237.352 302.225C236.5 302.521 233.381 307.232 232.407 309.126" stroke="#422713"/>
<path d="M269.223 309.626C268.448 309.501 263.181 307.482 263.181 307.482C263.181 307.482 262.596 307.142 262.354 306.898C262.058 306.598 262.984 306.21 263.904 306.055C265.298 305.82 269.325 305.923 270.702 306.152C271.548 306.292 276.298 311.66 276.32 311.987" stroke="#422713"/>
<path d="M276.544 311.422C276.544 311.422 272.756 305.883 269.428 305.736C268.41 305.69 262.765 305.314 262.765 305.314C262.765 305.314 261.942 304.895 261.58 304.56C261.136 304.147 262.237 303.36 263.379 302.939C265.11 302.301 270.281 301.681 272.091 301.773" stroke="#422713"/>
<path d="M278.699 307.723C278.699 307.723 273.124 302.066 271.59 302.052C270.654 302.042 264.274 301.593 264.274 301.593C264.274 301.593 262.766 300.933 262.443 300.682C262.046 300.374 263.082 299.734 264.147 299.378C265.759 298.839 270.539 298.226 272.204 298.252" stroke="#422713"/>
<path d="M278.63 302.933C278.63 302.933 273.101 297.91 270.456 298.331C269.647 298.46 263.348 298.969 263.348 298.969C263.348 298.969 262.623 298.733 262.277 298.494C261.851 298.201 262.57 297.318 263.391 296.754C264.634 295.899 268.586 294.489 270.027 294.27C270.912 294.136 275.61 296.911 277.247 298.158" stroke="#422713"/>
<path d="M369.473 514.735C366.067 514.735 364.237 510.75 366.449 508.15L406.595 460.95C407.359 460.052 408.478 459.535 409.654 459.535L475.842 459.535C479.031 459.535 480.922 463.086 479.148 465.745L447.661 512.945C446.915 514.063 445.66 514.735 444.319 514.735L369.473 514.735Z" fill="#1D1B20"/>
<path d="M444.012 423.196C444.012 422.389 444.256 421.601 444.712 420.935L473.844 378.41C476.066 375.166 481.144 376.739 481.144 380.67V457.327C481.144 458.115 480.911 458.886 480.475 459.542L451.343 503.371C449.151 506.669 444.012 505.117 444.012 501.157V423.196Z" fill="#49454F"/>
<path d="M265.284 488.77C265.284 488.77 268.219 479.324 272.029 474.717C277.81 467.728 291.968 464.19 291.968 464.19" stroke="#6D5BA6"/>
<defs>
<linearGradient id="paint0_linear_548_11751" x1="147.67" y1="314.024" x2="139.067" y2="361.182" gradientUnits="userSpaceOnUse">
<stop stop-color="#7E5334"/>
<stop offset="1" stop-color="#E4965E"/>
</linearGradient>
<linearGradient id="paint1_linear_548_11751" x1="175.508" y1="251.441" x2="-46.4096" y2="484.14" gradientUnits="userSpaceOnUse">
<stop stop-color="#7E5334"/>
<stop offset="1" stop-color="#E4965E"/>
</linearGradient>
<linearGradient id="paint2_linear_548_11751" x1="272.295" y1="186.085" x2="280.898" y2="423.96" gradientUnits="userSpaceOnUse">
<stop stop-color="#7E5334"/>
<stop offset="1" stop-color="#E4965E"/>
</linearGradient>
<linearGradient id="paint3_linear_548_11751" x1="282.282" y1="304.995" x2="172.85" y2="492.896" gradientUnits="userSpaceOnUse">
<stop stop-color="#7E5334"/>
<stop offset="1" stop-color="#E4965E"/>
</linearGradient>
</defs>
</svg>
