<svg width="860" height="455" viewBox="0 0 860 455" fill="none" xmlns="http://www.w3.org/2000/svg">
<path d="M840.682 286.052C805.229 492.902 169.228 468.903 183.228 274.403C195.917 98.1063 273.084 0 597.087 0C752.729 0 875.886 80.6601 840.682 286.052Z" fill="#F4F1FF"/>
<path d="M754.5 51.9883L766.5 63.9883L748.5 66.9883L754.5 51.9883Z" fill="#D466FF"/>
<path d="M355.128 254.351L354.608 245.764L360.825 240.73L352.534 238.436L350.608 229.702L345.502 237.697L337.063 236.81L341.95 244.434L339.656 252.725L347.132 249.245L355.128 254.351Z" fill="#9CFF66"/>
<path d="M421.001 208.488C417.668 213.155 418.668 214.488 424.001 212.488C429.335 211.155 430.001 212.488 426.001 216.488C422.668 221.155 423.668 222.822 429.001 221.488C434.335 220.155 435.335 221.488 432.001 225.488" stroke="#66CCFF" stroke-width="3" stroke-linecap="round"/>
<path d="M713.5 181.988L751.5 209.988" stroke="#66F2FF" stroke-width="3" stroke-linecap="round"/>
<path d="M335.5 130.489C329.5 129.822 328.833 131.489 333.5 135.489C337.5 140.155 336.5 142.155 330.5 141.489C325.167 140.155 324.5 141.489 328.5 145.489C332.5 150.155 331.5 152.155 325.5 151.489" stroke="#FF6687" stroke-width="4" stroke-linecap="round"/>
<path d="M276.5 211.988L284.5 218.988L276.5 227.988L268.5 220.988L276.5 211.988Z" fill="#FFED66"/>
<path d="M735.113 276.486L733.03 283.243L726.635 285.268L733.079 289.326L732.816 297.384L738.693 292.24L745.45 294.322L742.438 287.77L747.484 281.482L740.257 282.363L735.113 276.486Z" fill="#66CCFF"/>
<path d="M689.746 261.813L685.546 254.373L688.39 246.316L680.06 248.464L673.166 242.679L673.263 251.898L665.822 256.098L673.879 258.943L676.027 267.272L681.169 261.144L689.746 261.813Z" fill="#8C66FF"/>
<path d="M631.5 198.988V214.988H619.5V198.988H631.5Z" fill="#66FFFC"/>
<path d="M295.533 59.3629L299.302 61.7701L298.884 65.7482L302.181 63.0782L306.055 64.4908L304.484 60.3037L306.787 57.5292L302.809 57.1111L300.139 53.8139L299.721 57.792L295.533 59.3629Z" fill="#FFB866"/>
<path d="M449.5 376.988V387.988H433.5V376.988H449.5Z" fill="#66FFE5"/>
<path d="M584.5 147.988L542.5 137.988" stroke="#66D6FF" stroke-width="3" stroke-linecap="round"/>
<path d="M685.5 146.988C679.5 146.988 678.5 148.988 682.5 152.988C686.5 157.655 685.5 160.322 679.5 160.988C673.5 160.322 672.5 162.322 676.5 166.988C680.5 170.988 679.5 172.988 673.5 172.988" stroke="#66FFC7" stroke-width="3" stroke-linecap="round"/>
<path d="M432.576 57.5659L434.335 67.41L427.515 74.7236L437.458 75.7914L441.312 84.8548L445.938 75.4953L455.831 75.1498L449.2 67.5985L450.268 57.6557L441.254 62.9232L432.576 57.5659Z" fill="#C966FF"/>
<path d="M307.258 291.159L298.964 294.793L291.499 289.865L292.035 298.793L285.241 305.025L293.437 307.222L297.571 316.382L301.999 308.052L311.794 307.016L305.562 300.222L307.258 291.159Z" fill="#FFD666"/>
<path d="M487 172.988C489 167.655 487 165.322 481 165.988C475 167.322 473 164.988 475 158.988C477.667 153.655 476 151.655 470 152.988C464 154.322 462 152.322 464 146.988" stroke="#FFCC66" stroke-width="4" stroke-linecap="round"/>
<path d="M490.117 89.4128L490.068 95.4953L484.455 98.4093L489.862 100.59L490.801 106.516L495.114 101.783L500.365 102.977L497.607 98.351L500.776 92.7869L494.85 93.7255L490.117 89.4128Z" fill="#66A6FF"/>
<path d="M636.5 343.988L644.5 332.988L657.5 340.988L649.5 352.988L636.5 343.988Z" fill="#E066FF"/>
<path d="M641.5 126.988L649.5 78.9883" stroke="#FFC766" stroke-width="3" stroke-linecap="round"/>
<path d="M367 408.488C361 408.488 360 410.822 364 415.488C367.333 420.155 366 422.822 360 423.488C354 423.488 353 425.822 357 430.488C361 435.155 360 437.488 354 437.488" stroke="#A1FF66" stroke-width="3" stroke-linecap="round"/>
<path d="M543.555 40.3141L547.261 45.1375L544.632 50.8896L550.236 49.2788L554.624 53.3708L555.109 46.986L560.664 43.9619L554.229 42.064L554.032 36.4106L549.94 40.7987L543.555 40.3141Z" fill="#FFED66"/>
<path d="M388 311.988C392.667 315.988 395.667 314.988 397 308.988C398.333 302.988 401 302.322 405 306.988C409.667 310.988 412.667 309.988 414 303.988C415.333 297.988 418.333 297.322 423 301.988" stroke="#66FFFA" stroke-width="4" stroke-linecap="round"/>
<path d="M289.061 158.208C287.525 153.481 282.447 150.894 277.72 152.43C272.993 153.966 270.406 159.043 271.942 163.771C273.477 168.498 278.555 171.085 283.282 169.549C288.009 168.013 290.597 162.936 289.061 158.208Z" fill="#FF666E"/>
<path d="M458.5 127.988L453.5 146.988L435.5 141.988L440.5 122.988L458.5 127.988Z" fill="#E6FF66"/>
<path d="M381.316 192.692C375.952 189.84 370.342 189.899 368.787 192.825C367.231 195.751 370.318 200.435 375.682 203.287C381.046 206.139 386.656 206.079 388.211 203.153C389.767 200.228 386.68 195.544 381.316 192.692Z" fill="#EB66FF"/>
<path d="M481.229 361.855L487.954 364.04L490.678 369.386L493.771 364.443L500.479 364.392L496.41 358.609L497.704 352.338L492.358 355.062L486.07 351.532L487.012 357.786L481.229 361.855Z" fill="#66FFE3"/>
<path d="M532.5 358.988L556.5 320.988" stroke="#66C4FF" stroke-width="4" stroke-linecap="round"/>
<path d="M369.514 342.085L366.043 341.11L364.807 337.306L362.572 340.135L358.459 340.42L360.337 342.964L359.671 347.387L363.475 346.15L366.304 348.386L366.019 344.272L369.514 342.085Z" fill="#FF668C"/>
<path d="M619.5 253.988L599.5 273.988" stroke="#BDFF66" stroke-width="4" stroke-linecap="round"/>
<path d="M596.5 393.488C598.5 387.488 596.5 385.155 590.5 386.488C584.5 387.822 582.5 385.488 584.5 379.488C586.5 373.488 584.5 371.488 578.5 373.488C572.5 374.155 570.5 371.822 572.5 366.488" stroke="#FFEB66" stroke-width="3" stroke-linecap="round"/>
<path d="M574.5 272.988L566.5 288.988L555.5 274.988L574.5 272.988Z" fill="#66FFC2"/>
<path d="M707.5 98.9883L725.5 100.988L709.5 114.988L707.5 98.9883Z" fill="#FF66ED"/>
<path d="M629.607 60.2054C630.662 66.1882 634.604 70.494 638.411 69.8227C642.218 69.1514 644.449 63.7571 643.395 57.7743C642.34 51.7915 638.398 47.4856 634.591 48.1569C630.783 48.8283 628.552 54.2225 629.607 60.2054Z" fill="#A8FF66"/>
<path d="M684.62 51.9868L688.794 48.5833L694.526 50.6175L692.482 46.0544L695.781 42.1661L690.438 41.4913L687.034 37.318L685.485 42.1759L680.532 42.8606L685.295 46.644L684.62 51.9868Z" fill="#FF66CC"/>
<path d="M695.5 349.988L715.5 321.988" stroke="#FF66F7" stroke-width="4" stroke-linecap="round"/>
<path d="M263.874 120.968C269.934 121.391 275.128 117.715 275.475 112.757C275.822 107.798 271.19 103.435 265.129 103.011C259.069 102.588 253.875 106.264 253.528 111.222C253.182 116.181 257.814 120.544 263.874 120.968Z" fill="#66FFE5"/>
<path d="M560.151 198.65C558.375 192.841 553.51 189.178 549.285 190.47C545.059 191.762 543.074 197.519 544.85 203.328C546.627 209.138 551.492 212.8 555.717 211.509C559.942 210.217 561.927 204.46 560.151 198.65Z" fill="#FFEB66"/>
<path d="M385.065 60.8047C387.071 56.8679 387.101 52.8636 385.133 51.8606C383.164 50.8577 379.942 53.236 377.937 57.1727C375.931 61.1094 375.9 65.1138 377.869 66.1167C379.837 67.1197 383.059 64.7414 385.065 60.8047Z" fill="#A8FF66"/>
<path d="M499.5 277.988L489.5 288.988L484.5 274.988L499.5 277.988Z" fill="#FFED66"/>
<path d="M748.5 131.988L749.5 141.988L740.5 133.988L748.5 131.988Z" fill="#DB66FF"/>
<path d="M300.999 371.488C297.665 376.822 299.332 379.488 305.999 379.488C311.999 378.822 313.665 381.155 310.999 386.488C307.665 391.822 308.999 394.155 314.999 393.488C320.999 393.488 322.665 395.822 319.999 400.488" stroke="#66FFD1" stroke-width="4" stroke-linecap="round"/>
<path d="M491.12 42.1821C487.404 43.2477 485.008 46.2634 485.77 48.9178C486.531 51.5723 490.16 52.8603 493.877 51.7947C497.593 50.7291 499.988 47.7134 499.227 45.0589C498.466 42.4045 494.836 41.1165 491.12 42.1821Z" fill="#A366FF"/>
<path d="M247.5 370.988L277.5 350.988" stroke="#F066FF" stroke-width="3" stroke-linecap="round"/>
<path d="M583.554 459.158L583.718 468.591L576.17 473.493L584.175 476.64L586.561 485.822L592.475 478.404L601.069 478.785L596.167 471.237L600.154 462.687L590.972 465.072L583.554 459.158Z" fill="#6682FF"/>
<path d="M594.5 85.9883L596.5 117.988" stroke="#FF66E0" stroke-width="4" stroke-linecap="round"/>
<path d="M341.5 372.988L354.5 383.988L345.5 395.988L332.5 384.988L341.5 372.988Z" fill="#66F7FF"/>
<path d="M740.622 360.583L742.425 365.247L738.927 368.957L743.909 368.532L745.711 373.196L747.513 368.426L752.495 368.002L748.785 364.504L749.208 360.052L745.392 362.384L740.622 360.583Z" fill="#66FFE3"/>
<path d="M627.5 211.988C625.5 217.988 627.5 220.988 633.5 220.988C640.167 221.655 642.167 224.988 639.5 230.988C636.833 236.988 638.833 240.322 645.5 240.988C652.167 240.322 654.167 243.322 651.5 249.988" stroke="#FFC466" stroke-width="3" stroke-linecap="round"/>
<path d="M238 273.49C242.667 277.49 246 276.49 248 270.49C249.333 264.49 252.333 263.49 257 267.49C261 272.157 264 271.49 266 265.49C267.333 259.49 270.333 258.49 275 262.49" stroke="#C466FF" stroke-width="4" stroke-linecap="round"/>
<path d="M616.5 79.9883L632.5 115.988" stroke="#FFA366" stroke-width="4" stroke-linecap="round"/>
<path d="M381.5 313.988L393.5 333.988" stroke="#66FFF5" stroke-width="4" stroke-linecap="round"/>
<path d="M396.11 209.782C401.403 205.793 404.077 200.415 402.083 197.768C400.089 195.122 394.181 196.21 388.888 200.198C383.595 204.187 380.921 209.565 382.916 212.212C384.91 214.858 390.817 213.77 396.11 209.782Z" fill="#F2FF66"/>
<path d="M661.001 337.988C662.335 331.322 659.668 328.322 653.001 328.988C646.335 329.655 643.668 326.655 645.001 319.988C647.001 313.988 644.668 311.322 638.001 311.988C631.335 311.988 628.668 308.655 630.001 301.988" stroke="#FF7366" stroke-width="3" stroke-linecap="round"/>
<path d="M459.5 71.9883L483.5 61.9883" stroke="#B566FF" stroke-width="4" stroke-linecap="round"/>
<path d="M704.5 324.988C707.167 330.322 709.833 330.322 712.5 324.988C714.5 319.655 716.833 319.655 719.5 324.988C722.167 330.322 724.833 330.322 727.5 324.988C729.5 319.655 731.833 319.655 734.5 324.988" stroke="#FF667A" stroke-width="3" stroke-linecap="round"/>
<path d="M421.001 63.4883C423.668 58.8216 422.668 57.4883 418.001 59.4883C412.668 61.4883 411.335 60.1549 414.001 55.4883C417.335 50.8216 416.335 49.8216 411.001 52.4883C405.668 54.4883 404.668 53.1549 408.001 48.4883" stroke="#FFB366" stroke-width="4" stroke-linecap="round"/>
<path d="M514.5 160.488C508.5 160.488 507.5 162.488 511.5 166.488C515.5 171.155 514.5 173.488 508.5 173.488C502.5 173.488 501.5 175.488 505.5 179.488C509.5 184.155 508.5 186.155 502.5 185.488" stroke="#8CFF66" stroke-width="3" stroke-linecap="round"/>
<path d="M688.5 76.9883V91.9883H672.5V76.9883H688.5Z" fill="#66CFFF"/>
<path d="M519.5 72.9883L510.5 68.9883L517.5 53.9883L526.5 57.9883L519.5 72.9883Z" fill="#66FF69"/>
<path d="M692.5 188.988C694.5 194.322 696.167 194.322 697.5 188.988C699.5 183.655 701.167 183.655 702.5 188.988C704.5 194.322 706.167 194.322 707.5 188.988C709.5 183.655 711.167 183.655 712.5 188.988" stroke="#FF9466" stroke-width="3" stroke-linecap="round"/>
<path d="M483.008 295.108L491.515 296.385L495.147 303.513L499.114 295.881L507.604 294.922L501.299 289.156L503.467 280.195L495.448 284.28L487.815 280.313L488.774 288.803L483.008 295.108Z" fill="#ADFF66"/>
<path d="M314.5 288.988L323.5 301.988L314.5 306.988L305.5 293.988L314.5 288.988Z" fill="#FF66C4"/>
<path d="M484.5 124.988L480.5 133.988L464.5 126.988L468.5 117.988L484.5 124.988Z" fill="#66FFD4"/>
<path d="M507 253.488C513 251.488 514 247.822 510 242.488C506 237.155 507.333 233.488 514 231.488C520 229.488 521 225.822 517 220.488C512.333 215.822 513.333 212.488 520 210.488" stroke="#FF6966" stroke-width="4" stroke-linecap="round"/>
<path d="M664.483 346.612L672.728 346.761L678.2 352.681L679.549 345.186L687.119 342.412L680.897 337.691L680.297 330.645L674.151 335.143L666.431 332.82L669.205 340.39L664.483 346.612Z" fill="#FF6669"/>
<path d="M373.887 49.8069L369.781 54.2943L363.954 54.0871L366.513 59.3263L364.084 64.903L370.162 62.8882L374.649 66.9947L374.856 61.1674L380.096 58.608L374.519 56.1788L373.887 49.8069Z" fill="#75FF66"/>
<path d="M373 118.488C370.334 124.488 372 127.155 378 126.488C384.667 126.488 386.667 129.488 384 135.488C380.667 140.822 382.334 143.155 389 142.488C395 142.488 396.667 145.488 394 151.488" stroke="#FCFF66" stroke-width="3" stroke-linecap="round"/>
<path d="M617.5 386.988L608.5 380.988L615.5 374.988L617.5 386.988Z" fill="#FF66BF"/>
<path d="M722.5 96.9883L702.5 116.988" stroke="#669EFF" stroke-width="4" stroke-linecap="round"/>
<path d="M330.5 338.988L339.5 352.988L327.5 360.988L318.5 345.988L330.5 338.988Z" fill="#FF66A8"/>
<path d="M354.5 130.988L367.5 119.988L380.5 134.988L367.5 145.988L354.5 130.988Z" fill="#FF8566"/>
<path d="M687 353.5H476C476 353.5 476 232 617 232C737 232 687 353.5 687 353.5Z" fill="#4F378A"/>
<path d="M860 350H298.5L0 431C0 431 183.814 388.615 365.5 445C462.5 475.103 860 350 860 350Z" fill="#D6CFFF"/>
<path d="M418.254 209.935C411.948 205.038 379.626 182.829 358.178 197.092C357.486 221.568 412.456 263.208 446.254 265.963C453.987 266.593 454.921 246.44 454.021 235.534C437.155 220.353 424.56 214.832 418.254 209.935Z" fill="#7E5334"/>
<path d="M626.747 195.13C633.346 190.636 666.991 170.487 687.507 186.06C686.671 210.532 629.21 248.662 595.306 249.302C587.548 249.449 587.874 229.276 589.452 218.448C607.232 204.349 620.147 199.624 626.747 195.13Z" fill="#7E5334"/>
<path d="M492.088 256.188C482.259 252.361 484.217 228.24 484.217 228.24C484.217 228.24 530.607 213.995 530.983 218.09C532.384 233.363 533.813 246.509 533.813 246.509C533.813 246.509 506.591 261.835 492.088 256.188Z" fill="#7E5334"/>
<path d="M540 237.501C540 237.501 502.331 262.54 490 254C483.503 249.5 480.497 248.999 472.499 243C452.5 227.999 431.499 224.501 441.997 282.001C452.495 339.501 450.497 350 450.497 350H601C601 350 602.997 342.606 602.997 333.5C602.997 322 602.879 307.978 602.997 294C603.12 279.449 598.998 256.5 598.998 256.5C598.998 256.5 593.994 215.939 574.998 228C543.5 248.001 540 237.501 540 237.501Z" fill="#CBC1DC"/>
<path d="M742.619 126.599C739.896 117.349 744.044 115.229 725.524 113.381C719.118 112.741 718.501 130.252 712.222 138.605C695.498 154.164 655.481 173.124 651.379 176.614C639.685 186.566 638.8 210.115 643.078 219.154C643.078 219.154 645.978 219.589 652.435 220.696C658.713 221.773 662.63 219.674 668.233 216.673L668.288 216.643C675.647 212.701 677.623 207.522 683.035 201.166C695.288 186.776 701.799 165.206 709.5 160.647C718.84 155.117 718.832 155.2 727.522 150.998C736.096 146.853 745.457 136.236 742.619 126.599Z" fill="#7E5334"/>
<path d="M721.802 135.698C721.336 135.083 717.609 137.884 716.521 137.391C715.433 136.897 713.743 130.327 717.279 127.721C719.104 126.377 722.738 129.992 723.511 130.549C724.683 131.392 727.502 134.275 728.324 135.372C728.829 136.046 728.326 142.443 728.104 142.646" stroke="#422713"/>
<path d="M720.877 118.025C722.166 115.927 721.443 115.976 724.98 113.371C726.805 112.027 730.599 114.182 731.373 114.738C732.545 115.582 736.081 116.15 736.903 117.247C738.183 118.955 739.633 124.459 739.411 124.662" stroke="#422713"/>
<path d="M719.408 122.726C716.09 125.054 718.486 127.291 718.486 127.291" stroke="#422713"/>
<path d="M722.9 120.094C718.849 118.256 719.036 122.557 719.036 122.557C719.036 122.557 730.801 130.312 731.774 131.28C733.369 132.865 733.214 143.288 733.214 143.288" stroke="#422713"/>
<path d="M738.237 139.229C738.237 139.229 737.767 129.38 734.542 127.018C733.555 126.295 721.615 119.126 721.615 119.126C721.615 119.126 719.772 116.757 724.976 116.725C726.58 116.715 730.47 118.069 731.931 118.441C734.145 119.004 736.661 121.903 738.407 123.199C739.48 123.996 741.465 131.122 741.859 133.839" stroke="#422713"/>
<path d="M293.918 133.535C296.803 124.334 292.692 122.142 311.242 120.617C317.658 120.09 317.969 137.609 324.101 146.07C340.551 161.918 380.231 181.574 384.271 185.136C395.79 195.291 396.263 218.851 391.828 227.814C391.828 227.814 388.921 228.198 382.446 229.193C376.15 230.159 372.271 227.993 366.721 224.894L366.666 224.863C359.377 220.793 357.492 215.581 352.191 209.131C340.191 194.53 334.058 172.849 326.438 168.156C317.196 162.464 317.203 162.547 308.587 158.194C300.087 153.9 290.913 143.121 293.918 133.535Z" fill="#7E5334"/>
<path d="M314.574 142.997C315.051 142.39 318.728 145.257 319.825 144.782C320.922 144.307 322.727 137.767 319.236 135.101C317.435 133.725 313.739 137.276 312.956 137.819C311.769 138.642 308.901 141.475 308.06 142.558C307.543 143.223 307.934 149.628 308.152 149.834" stroke="#422713"/>
<path d="M315.808 125.344C314.556 123.223 315.278 123.286 311.787 120.619C309.986 119.244 306.154 121.332 305.371 121.875C304.184 122.697 300.64 123.204 299.798 124.287C298.489 125.972 296.942 131.45 297.161 131.656" stroke="#422713"/>
<path d="M317.198 130.068C320.475 132.454 318.04 134.649 318.04 134.649" stroke="#422713"/>
<path d="M313.749 127.376C317.832 125.609 317.569 129.907 317.569 129.907C317.569 129.907 305.672 137.455 304.681 138.406C303.059 139.963 303.032 150.387 303.032 150.387" stroke="#422713"/>
<path d="M298.082 146.24C298.082 146.24 298.724 136.401 301.99 134.096C302.99 133.39 315.053 126.431 315.053 126.431C315.053 126.431 316.937 124.094 311.734 123.972C310.131 123.934 306.218 125.219 304.751 125.565C302.527 126.09 299.96 128.945 298.192 130.21C297.106 130.988 294.997 138.079 294.555 140.788" stroke="#422713"/>
<path d="M601.099 255.319C591.824 258.16 583.035 260.278 576.346 253.253C569.86 246.442 569.333 236.811 574.878 229.215C584.15 216.511 594.232 210.905 594.232 210.905L622.029 238.987C622.029 238.987 612.861 251.716 601.099 255.319Z" fill="#6D5BA6"/>
<path d="M377.978 360.185L459.848 362.12C463.71 362.211 465.212 367.183 462.046 369.397L402.323 411.162C401.585 411.678 400.696 411.93 399.797 411.877L322.593 407.366C318.823 407.146 317.43 402.304 320.507 400.114L375.564 360.925C376.267 360.424 377.114 360.165 377.978 360.185Z" fill="#1E1E1E"/>
<path d="M380.928 340.436L290.428 335.407C287.571 335.248 285.476 338.053 286.44 340.748L308.459 402.31C309.001 403.825 310.397 404.867 312.003 404.957L397.85 409.727C400.592 409.88 402.669 407.286 401.92 404.643L384.555 343.34C384.089 341.697 382.633 340.531 380.928 340.436Z" fill="#A89FE3"/>
<path d="M465.832 246.782C470.06 255.513 473.499 263.874 467.58 271.56C461.842 279.012 452.406 281.007 444.05 276.691C430.077 269.473 422.993 260.368 422.993 260.368L446.489 228.599C446.489 228.599 460.471 235.71 465.832 246.782Z" fill="#6D5BA6"/>
<path d="M458.299 165.838C457.734 169.837 461.967 187.659 461.401 191.888C460.834 196.118 464 216.859 466.154 222.492C472.813 239.91 478.962 241.14 500.244 235.618C527.512 228.543 533.951 222.621 535.085 214.152C536.219 205.682 536.199 203.13 538.167 191.14C560.684 193.058 559.152 154.067 542.187 166.639C533.87 172.803 535.722 136.488 535.722 136.488C535.722 136.488 493.308 139.747 477.417 138.393C462.99 137.165 458.864 161.839 458.299 165.838Z" fill="#7E5334"/>
<path d="M491.093 160.129C489.807 160.247 488.692 159.749 488.268 159.172C487.748 158.464 489.299 157.219 490.832 156.719C493.156 155.963 501.26 155.565 503.59 155.963C505.022 156.208 506.886 157.162 506.941 157.887C506.997 158.611 506.67 160.139 505.063 160.401C503.456 160.662 500.218 159.423 498.886 159.42C497.486 159.417 493.637 159.898 491.093 160.129Z" fill="black" stroke="#422713"/>
<path d="M473.756 160.716C474.701 160.655 475.475 160.026 475.739 159.413C476.064 158.661 474.843 157.672 473.689 157.398C471.942 156.983 466.016 157.692 464.352 158.39C463.328 158.819 462.044 159.989 462.059 160.694C462.073 161.399 462.425 162.826 463.614 162.861C464.803 162.896 467.065 161.266 468.034 161.084C469.052 160.892 471.888 160.836 473.756 160.716Z" fill="black" stroke="#422713"/>
<path d="M478.117 224.5C475.674 223.546 472.318 220.499 472.318 216.982C472.318 213.464 476.507 212.865 484.529 212.865C492.55 212.865 497.147 206.253 498 206.5C498 206.5 493.968 217.209 492.55 218.685C490.908 220.394 488.936 222.184 487.05 222.879C485.164 223.574 480.605 225.471 478.117 224.5Z" fill="#734B55" stroke="#422713"/>
<path d="M494.828 180.367C496.565 185.384 500.16 179.747 499.989 176.228C499.817 172.709 498.483 169.967 497.009 170.105C495.535 170.242 494.479 173.207 494.65 176.726C494.822 180.245 494.828 180.367 494.828 180.367Z" fill="black"/>
<path d="M466.796 178.832C468.533 183.849 472.129 178.212 471.958 174.693C471.786 171.174 470.452 168.432 468.978 168.569C467.504 168.707 466.448 171.671 466.619 175.191C466.79 178.71 466.796 178.832 466.796 178.832Z" fill="black"/>
<path d="M484.245 203.06C484.245 203.06 479.864 201.348 477.398 203.491" stroke="#422713"/>
<path d="M527.76 179.964C527.76 179.964 531.209 174.371 526.268 172.314" stroke="#422713"/>
<path d="M474.462 181.221C474.462 181.221 475.794 187.192 475.212 191.788C474.521 197.245 473.341 201.287 472.665 204.373C472.267 206.194 473.78 207.285 476.033 207.924C479.062 208.783 487.247 205.659 487.247 205.659" stroke="#422713"/>
<path d="M551.825 239.284C550.026 249.916 542.784 221.025 542.885 210.219C542.988 199.285 548.08 193.061 545.856 186.769L545.863 177.852C545.863 177.852 546.708 177.989 547.308 178.033C547.059 177.696 547.039 177.556 547.391 177.696C548.237 178.031 547.886 178.075 547.308 178.033C548.284 179.35 552.781 183.676 552.376 186.069C551.131 193.426 545.992 200.483 547.137 217.035C548.542 237.342 552.272 236.638 551.825 239.284Z" fill="black"/>
<path d="M542.69 244.876C542.994 252.858 533.089 232.791 531.586 224.877C530.065 216.868 533.368 211.499 530.912 207.151L529.619 200.629C529.619 200.629 530.223 200.632 530.645 200.596C530.424 200.378 530.39 200.278 530.653 200.34C531.288 200.488 531.051 200.56 530.645 200.596C531.512 201.447 535.254 204.095 535.322 205.892C535.532 211.415 533.003 217.166 536.206 229.141C540.136 243.832 542.615 242.89 542.69 244.876Z" fill="black"/>
<path d="M548.868 249.432C550.099 257.155 540.542 236.991 538.471 229.235C536.376 221.387 538.026 216.48 535.737 212.086L533.992 205.69C533.992 205.69 534.42 205.742 534.713 205.742C534.529 205.514 534.492 205.414 534.686 205.495C535.154 205.691 534.996 205.741 534.713 205.742C535.434 206.634 538.416 209.495 538.694 211.233C539.546 216.577 538.491 221.915 542.28 233.726C546.929 248.216 548.561 247.511 548.868 249.432Z" fill="black"/>
<path d="M548.789 200.721C554.348 215.135 552.843 219.62 555.441 231.729C558.77 247.248 558.445 218.947 546.916 191.99C543.446 183.877 531.526 161.705 526.903 154.381C524.061 149.879 518.83 149.218 520.357 149.988C521.884 150.759 519.403 150.322 519.403 150.322L528.682 162.676C533.468 170.883 543.164 186.136 548.789 200.721Z" fill="black"/>
<path d="M554.824 213.145C555.027 231.344 548.514 236.329 544.472 251.184C539.291 270.222 560.423 236.709 557.738 202.434C556.93 192.118 549.768 163.416 546.008 153.791C543.697 147.876 533.57 145.997 536.082 147.227C538.593 148.458 533.884 147.422 533.884 147.422L543.239 163.968C546.65 174.67 554.618 194.729 554.824 213.145Z" fill="black"/>
<path d="M561.142 187.411C564.555 201.299 559.286 206.915 558.096 219.412C556.571 235.428 570.6 203.922 562 178.4C559.412 170.718 547.089 151.612 541.835 145.274C538.606 141.379 530.784 132.277 530.202 132.22C529.621 132.164 529.737 142.826 529.737 142.826L541.499 152.924C546.615 160.183 557.689 173.357 561.142 187.411Z" fill="black"/>
<path d="M530.197 210.099C526.567 223.721 521.99 226.228 516.731 236.563C509.992 249.809 528.407 228.73 533.989 202.647C535.669 194.796 537.096 172.615 537.024 164.731C536.979 159.885 536.746 148.437 536.495 148.126C536.245 147.814 532.287 157.142 532.287 157.142L533.988 171.234C533.649 179.858 533.871 196.315 530.197 210.099Z" fill="black"/>
<path d="M518.554 202.262C518.405 208.177 515.565 220.358 513.818 227.993C512.886 232.065 520.774 232.28 520.667 197.941C520.635 187.606 519.763 158.825 517.811 148.868C516.612 142.748 510.227 139.822 511.774 141.308C513.322 142.793 510.361 141.271 510.361 141.271C510.361 141.271 515.662 146.805 516.663 157.877C517.663 168.949 518.703 196.347 518.554 202.262Z" fill="black"/>
<path d="M563.093 203.817C566.15 221.777 561.175 227.364 559.947 242.451C558.372 261.787 571.773 226.529 563.978 192.938C561.632 182.829 550.756 155.199 545.907 146.072C542.927 140.462 533.669 139.635 536.086 140.596C538.502 141.556 534.171 141.011 534.171 141.011L545.066 156.408C549.777 166.634 559.999 185.643 563.093 203.817Z" fill="black"/>
<path d="M452.977 190.393C450.898 206.409 456.494 211.713 458.747 225.373C461.634 242.881 445.277 210.386 451.353 180.543C453.182 171.561 458.746 150.006 463.825 142.297C470.566 132.063 474.904 134.643 472.42 135.378C469.935 136.112 471.728 140.835 471.728 140.835L465.819 146.863C461.507 155.821 455.081 174.186 452.977 190.393Z" fill="black"/>
<path d="M523.283 247.631C520.164 256.974 520.289 232.602 522.205 222.803C524.144 212.887 528.444 204.979 527.901 198.871L529.427 190.771C529.427 190.771 530.017 191.044 530.446 191.189C530.322 190.84 530.332 190.709 530.563 190.897C531.121 191.351 530.858 191.329 530.446 191.189C530.93 192.557 533.459 197.276 532.756 199.38C530.598 205.845 525.662 211.355 523.671 226.594C521.23 245.291 524.059 245.306 523.283 247.631Z" fill="black"/>
<path d="M564.201 219.888C563.751 204.159 569.054 196.986 563.048 179.611C556.97 162.028 542.159 145.722 535.145 136.714L519.984 124.287C519.984 124.287 521.529 124.072 522.474 123.835C521.451 123.406 521.186 123.203 522.247 123.293C523.651 123.411 523.282 123.631 522.474 123.835C524.392 124.638 528.975 126.237 532.5 128.204C543.552 134.37 558.586 158.675 562.723 168.269C576.469 200.147 564.779 240.047 564.201 219.888Z" fill="black"/>
<path d="M555.537 169.751C557.903 186.884 535.267 212.949 535.267 212.949C535.267 212.949 524.573 193.94 531.608 185.997C534.267 182.995 535.449 182.629 537.715 179.378C539.921 176.212 539.498 170.255 536.646 167.359C533.457 164.119 532.669 163.33 528.016 164.138C522.748 165.051 524.419 166.826 521.075 162.761C517.512 158.427 520.09 152.831 517.258 148.107C506.075 129.454 466.528 143.579 466.528 143.579C470.48 130.607 482.229 125.287 497.398 123.837C511.423 122.497 521.524 119.271 532.556 128.291C544.046 137.684 553.424 154.458 555.537 169.751Z" fill="black" stroke="black"/>
<path d="M209.169 221.807C209.169 221.807 177.107 178.358 173.035 173.326C168.963 168.295 157.426 168.013 149.196 165.918C140.967 163.823 129.671 144.018 91.0762 179.922C91.0762 179.922 101.032 214.979 97.4388 224.498C93.8459 234.018 82.1881 252.116 97.4234 262.725C112.659 273.334 131.305 277.011 155.368 258.423C167.72 248.881 172.103 226.713 173.441 212.249C175.87 230.506 199.051 251.523 205.461 254.127C212.23 256.876 252.399 233.998 252.399 233.998C252.399 233.998 283.509 242.614 288.793 209.171C291.143 194.297 267.171 209.18 267.171 209.18C267.171 209.18 272.453 181.849 252.407 215.097C234.409 225.06 214.184 231.023 209.169 221.807Z" fill="#4F378A"/>
<path d="M191.957 123.093C193.517 117.37 191.968 114.882 188.231 108.956C184.495 103.03 175.949 98.7323 161.251 98.8724C146.554 99.0125 141.984 103.919 135.92 109.307C129.856 114.695 127.197 125.314 126.447 130.831C125.284 139.395 129.332 149.542 132.629 153.235C135.926 156.928 139.687 160.196 144.095 162.702C154.262 168.481 165.545 167.076 169.12 167.01C172.695 166.944 175.369 167.484 177.157 164.683C179.144 161.573 179.406 158.898 177.007 155.895C171.364 148.831 162.807 152.335 153.953 150.115C147.707 148.549 144.237 137 148.705 127.234C154.007 115.642 163.947 115.525 168.844 117.562C173.74 119.599 177.472 122.224 179.572 124.403C184.36 129.371 190.397 128.815 191.957 123.093Z" fill="#4F378A"/>
<path d="M161.102 111.889C170.131 110.31 182.915 112.916 187.794 120.331C191.428 125.856 189.297 137.412 186.418 143.285C183.474 149.288 178.812 154.925 171.93 156.101C163.122 157.607 148.165 151.463 146.232 143.157C144.509 135.755 145.125 133.511 147.335 124.749C148.761 119.097 155.073 112.944 161.102 111.889Z" fill="#A89FE3"/>
<path d="M181.182 131.67C181.294 132.599 183.943 133.058 184.327 131.859C184.711 130.66 184.911 124.491 183.127 124.384C181.344 124.277 181.07 130.741 181.182 131.67Z" fill="black"/>
<path d="M163.038 129.217C163.149 130.146 165.798 130.605 166.182 129.406C166.566 128.207 166.766 122.038 164.983 121.931C163.2 121.824 162.926 128.288 163.038 129.217Z" fill="black"/>
<path d="M154.762 99.315C155.797 101.581 174.424 103.413 176.776 100.635C179.128 97.8557 178.824 83.0732 166.342 82.325C153.859 81.5767 153.727 97.0494 154.762 99.315Z" fill="#4F378A"/>
<path d="M176.418 129.381C175.544 131.349 175.045 133.452 174.765 135.648C174.571 137.17 174.995 140.295 174.029 141.411C173.064 142.527 168.643 140.761 168.643 140.761" stroke="black" stroke-linecap="round"/>
<path d="M169.284 149.991C172.352 150.501 176.793 147.27 176.793 147.27C176.793 147.27 173.143 154.53 169.282 153.928C165.742 153.376 163.843 146.493 163.843 146.493C163.843 146.493 166.803 149.579 169.284 149.991Z" stroke="black"/>
<path d="M122.441 165.143L122.313 164.918C120.75 162.161 117.32 161.109 114.482 162.515L101.012 169.187C85.0166 177.109 79.3606 197.218 88.8799 212.319L96.0068 223.626C97.7837 226.445 101.517 227.268 104.187 225.269C107.523 222.771 111.081 219.7 109.703 218.847C105.128 216.014 95.3596 193.741 99.1716 192.873C104.729 191.608 111.213 188.725 116.789 185.855C124.339 181.969 126.631 172.531 122.441 165.143Z" fill="#4F378A"/>
<path d="M117.44 163.218C117.44 163.218 125.006 169.84 126.875 176.106C129.267 184.123 115.6 185.348 110.301 190C103.431 196.032 103.485 205.396 106.888 210.172C110.291 214.948 118.988 217.255 126.857 222.373C132.958 226.341 137.422 213.668 144.849 214.403C152.276 215.139 168.571 222.356 149.063 225.548C129.554 228.739 126.847 245.727 97.9153 225.568" stroke="black"/>
</svg>
