<svg width="184" height="194" viewBox="0 0 184 194" fill="none" xmlns="http://www.w3.org/2000/svg">
<path d="M140.465 82.042C140.079 82.042 140.079 82.7986 140.465 82.7986C141.385 82.7986 154.201 82.5755 155.277 82.3524C155.375 82.3369 155.465 82.2848 155.529 82.2056C155.594 82.1264 155.63 82.0253 155.63 81.9208C155.63 81.8163 155.594 81.7152 155.529 81.636C155.465 81.5568 155.375 81.5047 155.277 81.4891C151.901 81.0235 144.182 81.9644 140.465 82.042ZM145.599 101.849C145.175 101.849 145.249 102.596 145.654 102.616C148.653 102.722 153.327 102.558 156.39 102.412C156.952 102.412 157.016 101.442 156.39 101.442C152.959 101.461 149.039 101.51 145.599 101.849ZM145.994 68.3941C145.905 68.3982 145.82 68.4363 145.756 68.5013C145.691 68.5663 145.651 68.6538 145.644 68.7475C145.636 68.8413 145.66 68.9348 145.713 69.0108C145.766 69.0867 145.843 69.1399 145.93 69.1604C147.577 69.3738 152.922 69.5969 154.532 68.8791C154.614 68.8361 154.681 68.7659 154.722 68.6792C154.764 68.5925 154.777 68.494 154.76 68.3987C154.744 68.3033 154.698 68.2162 154.63 68.1507C154.562 68.0851 154.476 68.0446 154.385 68.0352C152.25 67.8994 148.828 68.6172 145.994 68.3941ZM135.488 87.1345C143.253 87.0181 152.048 86.4458 159.886 85.6892C160.374 85.6892 160.328 84.7192 159.822 84.7192C152.112 84.9229 143.105 85.4564 135.442 86.2906C135.336 86.2971 135.236 86.3477 135.166 86.4314C135.095 86.5151 135.059 86.6249 135.065 86.7368C135.071 86.8487 135.119 86.9535 135.198 87.0281C135.278 87.1027 135.382 87.141 135.488 87.1345ZM146.62 43.9307C148.782 43.7561 150.944 43.6203 153.06 43.3487C153.667 43.2808 153.511 42.3787 152.913 42.3787C150.76 42.5533 148.607 42.8443 146.473 43.1062C145.976 43.1644 146.114 43.9695 146.62 43.9307ZM133.997 64.1649C133.537 64.1649 133.519 64.9894 133.997 65.0282C139.199 65.2837 144.41 64.8995 149.527 63.8836C150.107 63.7769 150.015 62.8069 149.426 62.9136C144.331 63.8298 139.166 64.2487 133.997 64.1649ZM151.119 48.577C151.919 48.7807 152.039 47.4033 151.303 47.5391C147.712 48.1529 144.073 48.3901 140.437 48.2472C139.95 48.2472 139.839 48.9941 140.336 49.0523C143.934 49.4331 147.564 49.2731 151.119 48.577ZM131.192 86.6786C130.474 86.3876 127.162 86.8726 126.233 86.9793C125.782 86.9793 125.764 87.7456 126.233 87.7359L129.996 87.6098C131.734 87.5419 131.725 86.9017 131.192 86.6786ZM134.991 128.651C134.218 128.457 128.726 128.893 127.824 128.951C127.346 128.951 127.438 129.727 127.916 129.718C128.891 129.718 134.237 129.718 135.083 129.436C135.46 129.3 135.331 128.728 134.991 128.651ZM127.815 124.547C130.4 124.674 136.803 124.79 139.389 124.14C139.449 124.14 139.509 124.126 139.564 124.099C139.619 124.073 139.668 124.035 139.708 123.987C139.748 123.94 139.779 123.884 139.797 123.823C139.816 123.763 139.822 123.699 139.815 123.635C139.809 123.572 139.79 123.511 139.76 123.456C139.729 123.401 139.688 123.353 139.64 123.315C139.591 123.278 139.535 123.252 139.476 123.238C139.417 123.225 139.356 123.225 139.297 123.238C135.515 123.238 132.01 123.907 127.926 123.733C127.438 123.713 127.309 124.518 127.815 124.547ZM136.739 107.301C137.291 107.194 137.245 106.331 136.665 106.331C132.581 106.767 131.725 106.874 127.539 107.049C127.134 107.049 127.088 107.786 127.539 107.815C130.614 108.03 133.703 107.858 136.739 107.301ZM142.406 101.2C137.401 101.394 132.204 102.286 126.978 102.48C126.885 102.495 126.799 102.545 126.738 102.621C126.676 102.696 126.642 102.793 126.642 102.892C126.642 102.992 126.676 103.088 126.738 103.164C126.799 103.239 126.885 103.289 126.978 103.304C131.311 103.304 138.285 103.091 142.507 102.102C142.596 102.061 142.669 101.991 142.717 101.902C142.764 101.814 142.784 101.712 142.773 101.611C142.761 101.51 142.72 101.416 142.654 101.342C142.588 101.268 142.501 101.218 142.406 101.2ZM159.454 126.274C159.38 126.274 154.329 126.711 153.465 126.681C153.383 126.697 153.308 126.74 153.251 126.804C153.194 126.868 153.158 126.95 153.149 127.037C153.14 127.124 153.157 127.212 153.199 127.288C153.241 127.364 153.305 127.423 153.382 127.457C154.412 127.661 158.755 127.739 159.647 126.943C159.692 126.891 159.723 126.828 159.738 126.759C159.753 126.69 159.75 126.618 159.731 126.551C159.711 126.483 159.675 126.422 159.627 126.374C159.578 126.325 159.519 126.291 159.454 126.274ZM161.082 105.118C154.707 105.555 147.586 105.807 141.238 106.379C140.741 106.379 140.833 107.165 141.312 107.194C144.743 107.301 156.951 106.641 161.165 106.079C161.225 106.074 161.284 106.056 161.337 106.027C161.391 105.998 161.438 105.958 161.477 105.909C161.516 105.86 161.545 105.804 161.562 105.743C161.58 105.682 161.585 105.618 161.579 105.555C161.567 105.428 161.509 105.311 161.416 105.229C161.323 105.147 161.203 105.108 161.082 105.118ZM137.135 83.0605C137.257 83.0605 137.374 83.0094 137.46 82.9185C137.546 82.8275 137.595 82.7042 137.595 82.5755C137.595 82.4469 137.546 82.3235 137.46 82.2326C137.374 82.1416 137.257 82.0905 137.135 82.0905C133.169 82.1972 129.167 82.2263 125.175 82.5464C125.089 82.5665 125.012 82.6169 124.957 82.6892C124.902 82.7615 124.872 82.8514 124.872 82.9441C124.872 83.0368 124.902 83.1268 124.957 83.1991C125.012 83.2714 125.089 83.3217 125.175 83.3418C129.186 83.4194 133.169 83.1963 137.135 83.0605ZM152.821 122.219C151.422 122.219 146.381 122.598 145.185 122.821C144.798 122.889 144.743 123.558 145.185 123.577C146.482 123.645 151.496 123.306 152.949 123.17C153.511 123.189 153.391 122.219 152.821 122.219ZM150.134 127.661L138.57 128.437C138.045 128.437 138.174 129.281 138.689 129.252C140.934 129.145 148.156 128.845 150.18 128.554C150.631 128.495 150.64 127.661 150.134 127.661ZM141.854 43.3487C138.459 42.9413 127.806 43.6203 124.19 44.0083C123.694 44.0568 123.657 44.8716 124.19 44.8231C130.134 44.4157 135.92 44.2799 141.863 44.2993C141.967 44.276 142.06 44.2155 142.127 44.1282C142.193 44.0408 142.229 43.932 142.227 43.8201C142.226 43.7082 142.189 43.6001 142.121 43.5142C142.053 43.4283 141.959 43.3699 141.854 43.3487ZM142.839 69.529C143.418 69.4417 143.207 68.559 142.627 68.559C136.706 69.2703 130.748 69.5943 124.788 69.529C124.702 69.5436 124.623 69.5902 124.566 69.6604C124.51 69.7306 124.478 69.8199 124.478 69.9122C124.478 70.0045 124.51 70.0938 124.566 70.164C124.623 70.2342 124.702 70.2808 124.788 70.2953C130.815 70.6014 136.855 70.3449 142.839 69.529ZM136.592 49.2172C136.652 49.2112 136.711 49.1925 136.765 49.1624C136.818 49.1322 136.866 49.0911 136.904 49.0415C136.943 48.9919 136.972 48.9348 136.989 48.8733C137.007 48.8119 137.012 48.7475 137.006 48.6837C137 48.6199 136.982 48.558 136.954 48.5014C136.925 48.4448 136.886 48.3948 136.839 48.3542C136.792 48.3136 136.738 48.2833 136.68 48.2649C136.621 48.2466 136.56 48.2405 136.5 48.2472C132.443 48.7807 128.597 48.8001 124.595 49.1687C124.172 49.2172 124.126 49.9447 124.595 49.9641C128.606 50.0325 132.616 49.7828 136.592 49.2172ZM125.193 64.5723C124.733 64.5723 124.724 65.3386 125.248 65.358C126.899 65.522 128.559 65.5674 130.216 65.4938C130.291 65.4587 130.354 65.4015 130.399 65.3292C130.443 65.2569 130.467 65.1726 130.467 65.0864C130.467 65.0003 130.443 64.9159 130.399 64.8437C130.354 64.7714 130.291 64.7142 130.216 64.679C130.051 64.582 126.04 64.5723 125.193 64.5723ZM113.711 70.1595C114.245 70.1595 116.223 66.7063 117.336 65.5229C117.741 65.0961 117.079 64.3783 116.665 64.7857C115.491 65.9014 114.475 67.1883 113.647 68.6075L111.319 66.3474C110.841 65.8818 110.225 66.6772 110.666 67.1525C111.108 67.6278 113.031 70.1595 113.711 70.1595ZM107.419 54.3194C111.191 54.5522 115.11 54.4746 119.25 54.5037C119.544 54.5037 119.719 53.6404 119.25 43.339C119.25 42.5921 119.185 42.0392 119.176 41.8355C119.179 41.8055 119.175 41.7753 119.165 41.7469C119.156 41.7184 119.141 41.6925 119.121 41.6706C118.854 41.3699 117.116 41.3893 113.206 41.496C106.628 41.6609 105.901 41.6124 105.901 42.0101C105.873 42.0877 106.287 54.203 107.419 54.3194ZM107.676 53.6016C107.216 51.0117 106.885 45.5409 106.6 42.4757C109.277 42.6406 115.377 42.3205 118.449 42.2429C118.449 42.2429 118.615 50.8662 118.689 53.6501C115.082 53.5628 111.319 53.4173 107.639 53.5531L107.676 53.6016Z" fill="black"/>
<path d="M120.52 72.6918C121.293 72.3717 120.391 63.3313 120.262 60.9548C120.256 60.9059 120.233 60.8611 120.198 60.8287C119.646 60.3243 107.971 60.9936 107.382 61.0421C106.793 61.0906 107.382 64.4662 107.483 66.7651C107.695 72.4881 107.943 72.9828 108.219 73.0216C110.225 73.3223 118.68 73.4484 120.52 72.6918ZM107.943 61.8375C111.927 61.5659 115.966 61.5465 119.554 61.5271C119.646 63.7969 119.793 70.1892 119.977 71.9158C116.227 72.3247 112.454 72.4382 108.689 72.2553C108.845 70.81 108.081 63.4768 107.943 61.8375ZM115.432 86.33L117.567 84.293C117.629 84.1821 117.656 84.0533 117.645 83.925C117.633 83.7968 117.584 83.6756 117.503 83.5787C117.423 83.4819 117.315 83.4144 117.196 83.3859C117.077 83.3574 116.952 83.3693 116.84 83.42C115.966 83.9875 115.173 84.6832 114.485 85.4861L112.571 83.6237C112.467 83.5221 112.329 83.4681 112.188 83.4735C112.047 83.479 111.913 83.5435 111.817 83.6528C111.72 83.7621 111.669 83.9074 111.674 84.0565C111.679 84.2057 111.74 84.3466 111.844 84.4482L113.684 86.3882C112.028 88.2312 111.301 89.3855 111.467 89.9093C111.633 90.4331 112.231 90.2003 112.387 89.9675C113.031 89.1333 113.758 88.1827 114.54 87.3C115.315 88.1924 116.175 88.9985 117.107 89.7056C117.203 89.7319 117.304 89.7303 117.399 89.7012C117.494 89.672 117.58 89.6162 117.648 89.5397C117.716 89.4633 117.763 89.369 117.784 89.2667C117.806 89.1644 117.8 89.058 117.769 88.9587C117.076 88.0014 116.293 87.1206 115.432 86.33ZM115.92 44.7461C114.45 46.1012 113.249 47.7495 112.387 49.5961C111.694 48.7214 110.896 47.9454 110.013 47.2875C109.471 46.8898 108.771 47.6464 109.305 48.0732C110.354 49.0511 111.335 50.108 112.24 51.2354C112.479 51.4973 112.709 51.3615 112.911 51.0802C113.913 49.0222 115.149 47.1004 116.591 45.3572C117.033 44.8431 116.398 44.2708 115.92 44.7461ZM115.625 108.077C116.104 107.728 117.925 104.023 118.983 102.762C119.397 102.277 118.68 101.608 118.211 102.122C116.951 103.49 115.871 105.029 115 106.7L112.856 104.76C112.387 104.343 111.761 105.09 112.249 105.585C112.737 106.079 114.834 108.795 115.625 108.077ZM122.645 120.513C122.295 119.785 109.71 120.513 109.59 120.513C109.563 120.516 109.537 120.527 109.514 120.544C109.492 120.561 109.473 120.584 109.461 120.61C109.038 121.328 109.461 132.997 109.765 134.083C110.124 135.402 122.323 134.306 122.93 134.364C122.948 134.369 122.967 134.369 122.986 134.364C123.004 134.36 123.021 134.352 123.036 134.34C123.051 134.328 123.063 134.312 123.072 134.295C123.081 134.277 123.086 134.258 123.087 134.238C123.28 132.754 122.691 120.61 122.645 120.513ZM110.179 121.221C113.859 121.386 118.211 121.143 121.946 121.134C122.001 122.753 122.332 132.26 122.378 133.54C118.293 133.734 114.862 133.666 110.51 133.54C110.556 131.92 110.234 122.695 110.179 121.25V121.221Z" fill="black"/>
<path d="M114.622 127.507C115.276 127.507 118.615 127.749 118.882 127.594C118.952 127.552 119.012 127.493 119.058 127.422C119.103 127.352 119.132 127.271 119.143 127.186C119.153 127.102 119.145 127.016 119.119 126.935C119.093 126.854 119.05 126.781 118.992 126.721C118.505 126.178 115.423 126.294 114.908 126.401C114.208 126.537 114.08 126.818 114.098 127.031C114.123 127.161 114.187 127.278 114.283 127.364C114.378 127.45 114.497 127.501 114.622 127.507ZM115.864 99.0371C112.847 99.0953 109.673 99.2117 109.148 99.2505C108.946 99.2505 108.734 99.4348 108.707 101.452C108.707 103.868 109.102 111.521 110.022 111.589C111.862 111.734 121.375 111.773 122.599 111.676C122.792 111.676 122.948 111.676 122.599 106.632C122.406 104.033 121.973 99.3087 121.973 99.3087C121.936 99.1147 121.918 98.9401 115.864 99.0371ZM121.283 99.8907C121.504 103.509 121.624 107.214 121.992 110.852H110.289C109.93 107.35 109.691 103.742 109.434 100.036L121.283 99.8907ZM111.32 93.576C115.055 93.576 121.302 93.0425 121.357 93.0134C121.946 92.6933 121.357 83.9342 121.164 80.19C121.164 79.5207 117.916 79.511 115.22 79.6177C114.043 79.6177 108.192 79.9475 108.21 80.8302C108.523 93.8185 108.449 93.188 108.679 93.3238C109.54 93.5606 110.432 93.6458 111.32 93.576ZM109.378 92.606C109.167 88.7842 109.093 84.7296 108.946 80.966C112.766 80.6083 116.602 80.4723 120.437 80.5586C120.437 81.8875 120.685 90.7242 120.842 92.1986C119.48 92.2956 110.804 92.3635 109.406 92.6157L109.378 92.606Z" fill="black"/>
<path d="M178.48 107.932C176.07 38.7999 177.082 39.3819 176.64 38.9745C176.014 38.3537 171.184 38.7611 169.998 38.829L169.501 28.2269C169.524 28.1629 169.533 28.0939 169.526 28.0256C169.519 27.9574 169.497 27.8919 169.461 27.8348C169.424 27.7777 169.376 27.7306 169.319 27.6975C169.262 27.6645 169.198 27.6464 169.133 27.6449C149.813 27.3927 129.932 28.741 109.995 30.1669C104.622 30.5646 99.038 30.9138 93.5732 31.5249C93.5221 31.5162 93.4698 31.5196 93.4201 31.5348C93.3704 31.5501 93.3245 31.5768 93.2858 31.6129C93.2471 31.6491 93.2165 31.6939 93.1961 31.7441C93.1758 31.7943 93.1663 31.8486 93.1684 31.9032C94.1804 57.8022 97.1244 99.6673 102.212 146.024C102.267 146.557 106.462 146.092 110.234 145.83C110.284 146.971 110.479 148.1 110.814 149.186C111.366 149.923 179.612 145.461 179.529 142.396C179.234 130.882 178.839 119.223 178.48 107.932ZM173.31 138.176C149.114 142.056 127.356 143.143 103.058 145.354C98.2468 101.404 96.2688 71.2561 93.8584 32.2039C101.329 31.7383 128.956 29.0611 168.866 28.5082C169.86 56.7061 173.558 135.072 173.282 138.176H173.31ZM57.822 71.4889C57.1964 71.4889 57.2056 72.7693 57.5 73.2543C57.534 73.3253 57.5869 73.3842 57.6523 73.4239C57.7177 73.4635 57.7927 73.4821 57.868 73.4774C58.4292 73.4095 58.4016 71.5568 57.822 71.4889ZM54.5376 77.0955C54.9332 77.2022 56.0004 77.2701 56.2488 76.8821C56.5984 76.3389 55.6508 71.4113 55.5312 71.0621C55.5066 70.9908 55.4587 70.9311 55.3963 70.8935C55.3338 70.8559 55.2606 70.843 55.19 70.857C55.1193 70.871 55.0556 70.9109 55.0102 70.9698C54.9649 71.0287 54.9408 71.1026 54.9424 71.1785C54.9424 72.0612 55.3196 75.0585 55.4668 76.3098L54.5468 76.368C54.4795 76.3982 54.422 76.4483 54.3813 76.5123C54.3406 76.5764 54.3184 76.6515 54.3174 76.7285C54.3164 76.8056 54.3367 76.8813 54.3758 76.9465C54.4149 77.0116 54.4711 77.0634 54.5376 77.0955ZM57.04 69.675C57.3123 69.5963 57.5987 69.5888 57.8744 69.653C58.1501 69.7172 58.4068 69.8513 58.6224 70.0436C58.9812 70.3831 59.6712 69.7332 58.6868 69.0736C57.9784 68.5692 56.3224 68.3946 56.4972 69.287C56.5257 69.4112 56.5971 69.5198 56.6975 69.5915C56.7978 69.6633 56.9199 69.693 57.04 69.675Z" fill="#4F378A"/>
<path d="M84.0143 104.934C78.0987 98.7844 67.4543 91.5579 57.8863 90.1223C58.0447 89.5456 58.0447 88.9335 57.8863 88.3568C58.6146 87.715 59.2916 87.011 59.9103 86.252C61.2259 84.6224 61.1983 83.0316 59.3215 83.8367C61.1615 79.5493 61.1615 70.2567 60.4991 65.0381C63.5811 67.0654 68.7791 65.1157 68.1443 61.1581C72.3303 62.487 75.0535 53.7182 69.7359 52.1371C70.4811 45.5023 62.4219 44.542 59.9563 48.4123C58.5671 44.1346 52.1823 46.385 52.6423 49.7412C49.7627 46.482 43.5435 47.6169 42.6787 51.6812C40.0751 49.1883 35.7787 50.2456 36.1559 53.9219C32.0343 51.9043 29.8539 57.1035 33.0555 58.7719C31.0039 59.9359 31.0683 64.7277 34.2147 64.7277C34.2147 67.9287 36.0547 75.2619 40.6087 79.2777C41.0963 83.7688 40.2223 86.0677 38.7043 90.229C23.6899 92.6346 12.2911 104.983 7.17588 120.299C1.34308 137.759 4.11228 154.249 21.3991 157.722C21.3631 160.052 21.1042 162.372 20.6263 164.647C20.6177 164.733 20.6387 164.819 20.6855 164.89C20.7323 164.961 20.8018 165.012 20.8811 165.033C20.9605 165.054 21.0445 165.045 21.1176 165.006C21.1908 164.967 21.2483 164.902 21.2795 164.822C21.8953 162.562 22.2293 160.227 22.2731 157.877C26.4377 158.529 30.6922 157.845 34.4827 155.912C38.2732 153.98 41.4241 150.889 43.5251 147.042C46.1883 148.109 48.9066 149.015 51.6671 149.758C60.3519 152.348 71.6771 154.918 82.4043 151.853C82.1927 157.275 81.8983 161.621 81.4383 165.937C81.4383 166.364 81.9995 166.49 82.0639 166.064C82.4227 163.794 83.3151 153.832 83.2599 151.591C90.0863 149.38 94.6495 144.384 95.7719 137.895C97.7315 126.895 93.3155 114.547 84.0143 104.934ZM44.9419 63.1563C45.1811 65.9887 44.9419 68.0063 44.1231 69.3158C43.8195 69.7911 43.3595 70.2858 42.9639 70.2858C42.6603 69.9366 40.6731 67.7638 38.7963 69.0345C37.5727 69.8784 37.5175 71.5177 38.6767 73.6517C39.5052 74.9478 40.0979 76.3951 40.4247 77.9197C36.9011 73.8845 35.8247 70.1015 35.0151 64.6792C35.9503 64.5013 36.8039 64.0036 37.4439 63.263C39.0539 65.785 42.9915 65.2806 44.9419 63.1563ZM39.2379 69.6747C40.4799 68.8696 41.6299 69.8396 42.6787 70.8096C43.2951 71.3819 44.3071 70.5768 44.7855 69.8396C46.0367 68.016 45.9263 64.9896 45.7607 63.4764C46.6537 64.373 47.8395 64.8732 49.0727 64.8732C50.3058 64.8732 51.4917 64.373 52.3847 63.4764C52.5687 66.27 58.1255 66.9102 59.5883 64.5919C60.2599 69.4419 60.5819 79.9276 58.3555 84.3217C56.5155 85.1753 52.3295 87.125 50.2503 86.2617C48.4655 85.5148 47.5639 82.6436 45.4847 81.4117C44.0863 80.5969 42.8903 81.5184 43.8655 83.1674C46.3311 87.2996 46.1103 88.871 44.1599 93.1196C42.4505 92.6284 40.8519 91.7807 39.4587 90.6267C41.4827 87.5712 42.0347 82.1198 41.5287 78.492C41.0779 75.2619 40.6087 75.4559 39.3943 73.0697C38.8331 72.09 38.3363 70.2761 39.2379 69.6747ZM54.7583 89.2396C54.6849 89.2754 54.6265 89.3384 54.5941 89.4166C54.5617 89.4947 54.5576 89.5827 54.5825 89.6638C54.6074 89.745 54.6596 89.8137 54.7293 89.8571C54.799 89.9004 54.8813 89.9154 54.9607 89.8992C55.7496 89.7505 56.4974 89.4192 57.1503 88.9292C57.2033 89.8337 56.9773 90.732 56.5063 91.49C56.3407 91.7325 56.6351 92.46 57.2331 91.5579C57.1871 94.2351 55.8899 97.5428 53.3967 98.8426C51.7069 98.5205 50.0988 97.8327 48.6737 96.8227C47.2486 95.8126 46.0375 94.5022 45.1167 92.9741C47.8767 87.9883 45.4479 84.2441 44.6383 82.6921C44.1875 81.7997 44.4175 81.6639 45.1535 82.1683C46.8923 83.3323 48.4195 86.5818 50.1031 87.0183C53.2771 87.8234 57.1871 85.8058 59.1007 84.9037C60.0943 84.4284 60.6739 84.1083 59.4779 85.6894C57.8771 87.7749 56.9663 88.2114 54.7583 89.2396ZM15.8239 130.639C15.7906 130.718 15.7854 130.807 15.8092 130.89C15.8331 130.972 15.8843 131.043 15.9536 131.089C16.023 131.135 16.1057 131.153 16.1866 131.14C16.2675 131.127 16.3413 131.083 16.3943 131.017C24.4627 117.612 37.8119 108.31 44.6843 93.9635C45.7515 96.4661 50.3147 99.6864 53.1299 99.6864C53.1299 102.102 52.8999 104.973 52.6607 107.728C49.9007 107.058 42.4395 104.595 41.0963 101.374C40.9399 100.977 40.3327 101.248 40.4799 101.646C41.7403 105.245 49.5235 108.135 52.5779 108.746C51.9327 115.994 50.6546 123.164 48.7599 130.164C47.3707 135.402 45.5859 141.736 43.0099 146.421C40.9562 150.273 37.8139 153.353 34.0209 155.233C30.2279 157.113 25.9732 157.698 21.8499 156.907C4.86668 153.764 2.30908 137.613 8.07748 120.551C13.4687 104.566 25.2723 93.3136 38.8883 91.1796C40.3684 92.3302 41.9863 93.2696 43.6999 93.9732C36.7999 108.009 23.6439 117.224 15.8239 130.639ZM49.5511 130.571C58.4909 126.599 67.9893 124.203 77.6663 123.481C80.4263 123.287 83.1863 123.296 85.9463 123.296C86.3511 123.296 86.3603 122.598 85.9463 122.598C84.0694 122.461 82.187 122.425 80.3067 122.491C79.8559 118.611 73.2227 107.291 70.9687 104.158C70.911 104.101 70.8356 104.067 70.7563 104.063C70.677 104.059 70.599 104.086 70.5365 104.137C70.4741 104.189 70.4314 104.263 70.4161 104.345C70.4009 104.427 70.4141 104.512 70.4535 104.585C74.9707 111.259 78.6231 119.756 79.3499 122.53C71.2631 122.85 58.7879 124.868 49.8087 129.504C50.6551 126.235 53.9303 112.752 54.0039 99.4343C56.5339 98.2412 58.3371 93.9246 58.1255 91.0243C67.6644 93.3148 76.4133 98.3518 83.3979 105.574C91.5951 114.042 96.6183 124.974 95.0727 136.857C94.2539 143.647 89.6815 148.904 82.8551 150.815C71.0883 154.21 58.9811 151.261 47.3615 147.459C46.2366 147.06 45.0909 146.729 43.9299 146.47C46.2812 141.372 48.1636 136.048 49.5511 130.571Z" fill="black"/>
<path d="M49.1005 68.123C49.3383 67.7526 49.6553 67.4463 50.0261 67.229C50.3969 67.0116 50.811 66.8892 51.2349 66.8717C51.9065 66.8717 51.8697 65.8047 51.2349 65.9017C50.6884 65.9623 50.1623 66.1537 49.6968 66.4614C49.2312 66.769 48.8384 67.1847 48.5485 67.6768C48.3093 68.0745 48.8429 68.511 49.1005 68.123ZM51.2717 70.8099C50.8945 71.13 50.9221 72.7499 51.4925 72.7499C51.6229 72.7356 51.7449 72.675 51.8385 72.5781C51.9321 72.4812 51.9917 72.3537 52.0077 72.2164C52.2193 71.3725 51.6765 70.5092 51.2717 70.8099ZM50.4621 78.8221C50.4449 78.7463 50.4059 78.6779 50.3504 78.6263C50.2949 78.5748 50.2257 78.5425 50.1522 78.534C50.0787 78.5255 50.0045 78.5412 49.9397 78.5789C49.875 78.6166 49.8228 78.6744 49.7905 78.7445C49.6985 78.8803 49.5237 79.2974 49.9101 80.1413C50.1724 80.7158 50.6251 81.1692 51.1827 81.4158C51.7404 81.6624 52.3644 81.6852 52.9369 81.4799C53.0144 81.4475 53.078 81.3861 53.1154 81.3075C53.1529 81.2289 53.1617 81.1386 53.1401 81.0536C53.1185 80.9686 53.0681 80.895 52.9984 80.8466C52.9287 80.7982 52.8446 80.7785 52.7621 80.7912C51.4557 81.0628 50.7013 80.1898 50.4621 78.8221Z" fill="black"/>
</svg>
